<?xml version="1.0" encoding="utf-8"?>
<!-- Generator: Adobe Illustrator 16.0.0, SVG Export Plug-In . SVG Version: 6.00 Build 0)  -->
<!DOCTYPE svg PUBLIC "-//W3C//DTD SVG 1.1//EN" "http://www.w3.org/Graphics/SVG/1.1/DTD/svg11.dtd">
<svg version="1.1" id="圖層_1" xmlns="http://www.w3.org/2000/svg" xmlns:xlink="http://www.w3.org/1999/xlink" x="0px" y="0px"
	 width="75px" height="75px" viewBox="0 0 75 75" enable-background="new 0 0 75 75" xml:space="preserve">
<g id="A1_x5F_land">
	<path id="XMLID_00000018220633881036550020000016201569571018276994_" fill="#7B9E87" d="M4.434,32.295
		c0,0-0.444,14.683,6.24,19.006c4.121,2.665,9.29,5.456,12.889,9.231c9.429,9.891,32.075,5.515,34.615-5.105
		c1.129-4.717,6.216-3.008,8.236-7.11s2.947-15.261,2.947-15.261L4.434,32.295z"/>
	<path fill="#14827F" d="M21.387,13.945c-3.394-3.508,1.57-12.262,6.203-12.912c4.632-0.65,7.223,5.409,7.223,5.409
		s1.455-3.741,5.227-3.468c3.771,0.273,7.333,8.378,4.473,11.031C42.383,15.98,22.933,15.543,21.387,13.945z"/>
	<path fill="#1B4766" d="M14.814,22.395c-6.131,0.931-10.47,6.152-10.38,9.901c0.104,4.354,2.389,9.003,12.078,10.507
		c12.35,1.917,22.462,7.485,32.1,2.198c2.751-1.509-1.112-2.648,1.125-3.913c4.917-2.779,19.624-3.487,19.624-8.032
		C69.361,23.397,39.172,18.696,14.814,22.395z"/>
	<path fill="#225D73" d="M31.642,23.348C29.036,15.18,38.085,6.09,45.715,8.567c7.158,2.324,8.769-1.207,12.923,2.301
		c5.257,4.438,5.993,12.782,3.751,14.178C56.449,28.74,33.04,27.731,31.642,23.348z"/>
	<path fill="#228F77" d="M57.667,28.82c-1.336,1.636-42.113,1.25-43.89-0.969c-2.572-3.212,2.384-17.862,13.751-18.099
		c6.329-0.131,8.419,2.263,14.06,2.582C56.234,13.164,61.14,24.569,57.667,28.82z"/>
	<path fill="#3B9995" d="M21.05,35.214c-3.083-1.816-18.972-4.139-11.984-7.074c9.679-4.065,46.574-4.155,50.241,2.688
		C62.325,36.463,31.369,41.291,21.05,35.214z"/>
	<g>
		<path fill="#C4AD6C" d="M22.079,37.345c-0.294,0.259-0.71,1.42,0.141,1.561c0.381,0.063,0.906,0.049,0.992-0.401
			C23.288,38.105,22.859,36.66,22.079,37.345z"/>
		<path fill="#E6AD45" d="M22.66,35.452c-2.13-0.106-3.067,2.247-0.555,2.428C25.591,38.131,24.543,35.545,22.66,35.452z"/>
	</g>
	<g>
		<path fill="#C4AD6C" d="M19.135,38.364c-0.282,0.272-0.643,1.452,0.214,1.552c0.384,0.045,0.908,0.007,0.972-0.447
			C20.378,39.066,19.882,37.643,19.135,38.364z"/>
		<path fill="#DE754F" d="M19.425,35.237c-2.132-0.005-3.123,3.983-0.081,3.905C22.837,39.054,21.311,35.242,19.425,35.237z"/>
	</g>
	<path fill="#3B9995" d="M40.13,33.743c0,0,10.577,2.015,10.695,9.846c0.243,16.093-0.917,29.639-0.917,29.639l6.537-2.377
		c0,0,4.154-30.549-4.04-35.256C46.365,32.125,40.13,33.743,40.13,33.743z"/>
	<path fill="#3B9995" d="M48.777,32.612c0,0,10.5,2.691,11.225,9.486c1.155,10.817-0.093,26.96-0.093,26.96l5.201-2.021
		c0,0,2.14-23.911-2.677-29.577C56.723,30.742,48.777,32.612,48.777,32.612z"/>
	<path fill="#3B9995" d="M32.146,17.933c0,0,6.336,1.557,7.487,7.83c0.975,5.307,0.497,3.839,0.497,3.839h4.141
		c0,0-0.224-5.822-4.535-9.468C36.895,17.731,32.146,17.933,32.146,17.933z"/>
	<path fill="#90B598" d="M5.809,48.876c0,0-0.585,12.53,4.702,13.873c1.93,0.49,3.628,3.254,5.401,3.086
		c1.52,3.86,3.1,6.43,8.785,7.219c7.819,1.085,5.685,3.076,12.626,1.12c6.942-1.955,6.209-9.906,6.865-16.336L5.809,48.876z"/>
	<path fill="#0D5A63" d="M44.151,57.065c-1.753-6.119-15.972-3.475-21.246-7.792c-1.359-1.112-6.904-4.36-12.635-3.903
		c-3.119,0.248-4.844,1.932-4.461,3.506c0.59,2.429,4.32,3.924,6.969,5.656c3.056,1.999,6.181,7.503,8.659,8.217
		c9.713,2.798,11.878-1.141,15.886-1.697C41.393,60.487,44.741,59.126,44.151,57.065z"/>
	<g>
		<path fill="#557366" d="M41.068,15.57c0-1.506,0.826-2.79-0.344-3.139c-1.143-0.342-1.157,1.624-1.98,1.537
			c-0.619-0.065-0.719-1.104-1.196-1.34c-0.483-0.239-0.936,0.202-0.536,0.695c0.737,0.91,1.058,1.738,0.182,3.435
			c-0.517,1,2.295,1.393,3.771,0.93C42.186,17.305,41.068,16.552,41.068,15.57z"/>
		<path fill="#57916E" d="M47.267,3.535c-1.55-0.93-1.442-3.781-5.94-2.944c-1.571,0.292-4.706-1.24-7.128-0.258
			c-1.911,0.774-2.479,2.531-3.719,3.771c-1.086,1.086-1.452,2.532-1.247,3.769c0.42,2.533,1.894,2.656,2.176,3.617
			c0.517,1.756,3.151,2.841,4.958,2.221c1.233-0.423,3.771-0.362,5.372,0.155c2.647,0.854,6.457-0.568,7.49-3.203
			C50.447,7.556,49.426,4.831,47.267,3.535z"/>
		<path fill="#557366" d="M35.593,11.438c0.519,0.519,0.258,1.085-0.361,0.878c-0.885-0.295-1.205-2.118-0.465-2.118
			C35.283,10.198,35.128,10.973,35.593,11.438z"/>
		<path fill="#557366" d="M39.84,11.194c0.144,0.348-0.773,1.478-1.217,0.87C38.279,11.593,39.456,10.265,39.84,11.194z"/>
	</g>
	<g>
		<path fill="#4BB596" d="M35.882,42.023c1.848-0.47,4.783-0.338,5.943,1.594c0.552,0.92,2.512,1.111,3.382,3.044
			c0.68,1.512-0.146,3.469-0.049,4.542c0.242,2.657-1.216,3.47-3.188,3.72c-3.044,0.387-3.702-0.474-6.184,0.049
			c-2.178,0.458-4.22-1.016-4.928-2.078c-1.546-2.318-1.111-5.652,0.918-7.633C32.754,44.305,32.838,42.796,35.882,42.023z"/>
		<path fill="#5D8687" d="M35.061,51.203c0.77-0.073,0.241,2.657,1.932,2.754c0.412,0.023,0.671-0.712,0.773-1.063
			c0.338-1.159,1.538-1.031,0.677,1.208c-0.242,0.628,0.257,1.702,1.015,0.531c0.531-0.821,1.67-0.459,1.015,0.29
			c-1.691,1.933-0.406,1.875-0.725,2.513c-0.339,0.676-3.576,0.869-3.962,0.048c-0.404-0.858,0.853-2.325-0.145-3.044
			C34.433,53.57,34.046,51.3,35.061,51.203z"/>
		<path fill="#5D8687" d="M40.677,51.022c0.134,0.325-0.725,1.382-1.139,0.814C39.216,51.396,40.317,50.154,40.677,51.022z"/>
	</g>
	<path fill="#FFFFFF" d="M71.972,70.669c2.746-2.167-0.296-7.562-4.043-7.964c-3.747-0.401-5.257,3.159-5.257,3.159
		s-1.176-2.312-4.228-2.143c-3.051,0.169-5.933,5.177-3.618,6.816C56.549,71.759,70.722,71.656,71.972,70.669z"/>
	<path fill="#7CBA78" d="M40.677,27.975c0.035,2.111-28.911,2.914-30.688,0.695c-2.572-3.212,1.941-15.136,15.25-12.862
		C39.7,18.28,40.615,24.352,40.677,27.975z"/>
	<g id="LAND_x5F_2_00000158746240936064619140000016330670426635136684_">
		<defs>
			<path id="XMLID_00000183236819576557911820000000676774584707451069_" d="M17.425,31.885c0.221-1.841,2.705-4.33,6.748-4.151
				c4.043,0.179,4.794,1.395,6.68,1.194c1.887-0.201,7.183,0.72,7.207,2.549C38.092,33.863,17.233,33.492,17.425,31.885z"/>
		</defs>
		<use xlink:href="#XMLID_00000183236819576557911820000000676774584707451069_"  overflow="visible" fill="#0A7280"/>
		<clipPath id="XMLID_2_">
			<use xlink:href="#XMLID_00000183236819576557911820000000676774584707451069_"  overflow="visible"/>
		</clipPath>
		<path clip-path="url(#XMLID_2_)" fill="#51A384" d="M20.615,27.999c-2.151,1.203-0.917,2.458,1.2,2.401
			c2.117-0.057,3.785-0.524,5.926,0.052s8.379,0.128,8.24-0.747C35.686,27.833,25,25.545,20.615,27.999z"/>
		<path clip-path="url(#XMLID_2_)" fill="#51A384" d="M31.125,31.335c0.675,0.03,0.643,0.358-0.042,0.391
			C30.146,31.772,30.489,31.308,31.125,31.335z"/>
		<path clip-path="url(#XMLID_2_)" fill="#51A384" d="M19.34,30.726c0.562,0.027,0.534,0.335-0.035,0.366
			C18.526,31.134,18.811,30.7,19.34,30.726z"/>
		<path clip-path="url(#XMLID_2_)" fill="#51A384" d="M20.029,31.352c0.723,0.037,0.688,0.45-0.045,0.492
			C18.981,31.901,19.348,31.317,20.029,31.352z"/>
	</g>
	<g>
		<path fill="#4B6870" d="M24.179,21.38c0-1.4,0.768-2.593-0.319-2.917c-1.062-0.318-1.076,1.509-1.841,1.429
			c-0.575-0.061-0.668-1.027-1.111-1.246c-0.449-0.222-0.87,0.188-0.499,0.646c0.685,0.846,0.983,1.615,0.169,3.192
			c-0.48,0.93,2.133,1.294,3.505,0.864C25.218,22.992,24.179,22.292,24.179,21.38z"/>
		<path fill="#469194" d="M29.94,10.193c-1.44-0.864-1.34-3.515-5.521-2.737c-1.461,0.271-4.375-1.153-6.625-0.24
			c-1.777,0.72-2.305,2.353-3.457,3.505c-1.009,1.01-1.349,2.354-1.159,3.503c0.39,2.354,1.76,2.469,2.023,3.363
			c0.48,1.632,2.929,2.641,4.609,2.064c1.146-0.393,3.504-0.336,4.993,0.144c2.46,0.793,6.001-0.528,6.962-2.977
			C32.898,13.93,31.948,11.397,29.94,10.193z"/>
		<path fill="#4B6870" d="M19.09,17.539c0.482,0.483,0.24,1.008-0.336,0.816c-0.822-0.274-1.12-1.969-0.432-1.969
			C18.802,16.386,18.658,17.106,19.09,17.539z"/>
		<path fill="#4B6870" d="M23.038,17.312c0.133,0.323-0.72,1.373-1.132,0.809C21.586,17.683,22.681,16.449,23.038,17.312z"/>
	</g>
	<g>
		<path fill="#58A382" d="M23.323,26.45c1.198,4.925-3.15,7.702-4.725,8.186c-1.381,0.424-5.264,0.48-6.854-0.532
			c-1.385-0.883-2.65,1.415-4.924,0.199c-2.316-1.238-1.425-2.276-2.721-2.674c-3.039-0.933-2.669-7.042,0.126-9.105
			c2.367-1.747,3.431-1.147,5.59-1.597c0.986-0.206,1.198-1.664,4.924-1.664c2.329,0,3.522,1.019,4.458,2.329
			C19.863,22.523,22.616,23.544,23.323,26.45z"/>
		<path fill="#568278" d="M10.631,35.509c-0.1-1.599-1.082-3.479,0.369-3.94c1.354-0.431,1.416,1.416,2.401,1.478
			c0.74,0.046,0.686-0.434,1.293-0.616c0.615-0.185,1.06,0.423,0.492,0.923c-1.046,0.923-0.862,1.785,0.493,4.001
			c0.7,1.145-2.339,2.093-4.494,1.354C9.503,38.133,10.754,37.479,10.631,35.509z"/>
		<path fill="#568278" d="M17.401,30.909c0.185,0.447-0.783,1.655-1.354,0.873C15.604,31.175,16.907,29.712,17.401,30.909z"/>
	</g>
	<g>
		<path fill="#CCB470" d="M31.79,58.693c-0.205,0.197-0.467,1.055,0.156,1.127c0.279,0.033,0.659,0.005,0.706-0.325
			C32.693,59.203,32.333,58.17,31.79,58.693z"/>
		<path fill="#55BA93" d="M32,56.423c-1.548-0.004-2.268,2.893-0.059,2.836C34.478,59.194,33.37,56.426,32,56.423z"/>
	</g>
	<path fill="#407F6A" d="M21.764,54.146c0.553-0.417,1.136,0.457,1.136,0.457s0.205-1.401,1.016-1.401
		c1.063,0,0.532,2.804,0.532,2.804h-2.563C21.884,56.006,21.159,54.604,21.764,54.146z"/>
	<path fill="#407F6A" d="M45.16,40.778l-2.132-0.004c-0.521-0.603-0.479-2.461,0.218-2.499c0.478-0.025,0.609,0.797,0.609,0.797
		s0.225-1.375,0.913-1.29c0.609,0.076,0.022,1.725,0.022,1.725s0.488-0.654,0.913-0.341C46.27,39.584,45.16,40.778,45.16,40.778z"/>
	<path fill="#407F6A" d="M20.598,50.952l-9.549-0.004c0,0,0.094-0.429-0.135-1.209c-0.339-1.151-1.125-1.65-0.948-1.896
		c0.338-0.475,2.303,0.406,2.303,0.406s0.609-2.235,2.031-2.167c0.406,0.019,0.271,1.489,0.271,1.489s0.297-0.595,0.678-0.947
		c0.948-0.881,2.032-1.152,2.37-1.017c0.519,0.208-0.338,2.303-0.338,2.303c1.511-0.681,1.645-1.793,2.032-1.693
		c0.67,0.174,0.135,2.235,0.135,2.235s1.279-0.864,2.032-0.542c0.474,0.203-0.339,0.948-0.677,1.896
		C20.562,50.476,20.598,50.952,20.598,50.952z"/>
	<g id="LAND_x5F_4_00000093879010517242353680000001433181864814862267_">
		<path fill="#0A7280" d="M36.316,37.694c-0.234-0.049-0.614-0.019-0.752,0.044c-0.457-0.802-1.264-1.431-2.427-1.459
			c-2.338-0.056-3.093,1.571-3.093,1.571s-1.155-0.802-2.442-0.387c-1.916,0.618-1.967,3.08-0.649,3.724
			c0.815,0.398,9.182,0.144,9.637-0.079C38.163,40.338,38.066,38.059,36.316,37.694z"/>
		<path fill="#499F9B" d="M24.542,41.588c0,0,0.144-0.656-0.63-1.457c-0.285-0.294,0.728-0.292,1.122,0.288
			c0.311,0.457,0.108-0.444,0.393-0.447c0.284-0.004,0.387,0.427,0.387,0.427s0.347-0.979,1.189-0.78
			c0.349,0.082-0.205,0.431-0.123,0.656c0,0,0.301-0.386,0.615-0.246c0.185,0.081-0.054,0.333,0.062,0.532
			c0,0,0.595,0.021,1.025-0.43c0.192-0.202,0.595,0.799-0.041,1.457H24.542z"/>
	</g>
	<g id="LAND_x5F_3_00000181809295705549348540000000184876828683097511_">
		<path fill="#0A7280" d="M66.758,28.973c1.832-1.894,0.736-7.479-4.713-7.478c-3.833,0.001-5.159,3.395-5.159,3.395
			s-0.563-2.183-3.909-1.455c-3.223,0.701-3.223,5.046-1.063,6.102C53.322,30.226,65.923,29.835,66.758,28.973z"/>
		<path fill="#57BDB8" d="M53.46,30.525l-6.054-0.002c0,0,0.06-0.271-0.086-0.767c-0.215-0.73-0.713-1.046-0.601-1.202
			c0.215-0.301,1.46,0.257,1.46,0.257s0.386-1.417,1.288-1.374c0.257,0.013,0.171,0.945,0.171,0.945s0.188-0.377,0.43-0.601
			c0.602-0.558,1.288-0.73,1.503-0.644c0.329,0.131-0.215,1.46-0.215,1.46c0.958-0.432,1.043-1.137,1.288-1.074
			c0.425,0.11,0.086,1.417,0.086,1.417s0.812-0.548,1.288-0.343c0.301,0.128-0.215,0.601-0.43,1.202
			C53.438,30.223,53.46,30.525,53.46,30.525z"/>
	</g>
	<g>
		<path fill="#44A387" d="M52.039,4.199c2.103-0.534,5.441-0.385,6.761,1.814c0.628,1.046,2.858,1.264,3.849,3.463
			c0.773,1.719-0.166,3.947-0.056,5.167c0.275,3.023-1.383,3.947-3.628,4.232c-3.463,0.44-4.212-0.54-7.036,0.055
			c-2.479,0.521-4.801-1.155-5.606-2.364c-1.759-2.639-1.265-6.432,1.044-8.685C48.48,6.795,48.576,5.079,52.039,4.199z"/>
		<path fill="#557366" d="M51.104,14.644c0.876-0.083,0.274,3.023,2.198,3.133c0.469,0.026,0.764-0.81,0.88-1.209
			c0.385-1.319,1.75-1.173,0.77,1.374c-0.274,0.715,0.293,1.937,1.154,0.605c0.604-0.935,1.9-0.523,1.154,0.33
			c-1.924,2.199-0.462,2.133-0.824,2.858c-0.385,0.77-4.067,0.99-4.508,0.055c-0.46-0.978,0.971-2.646-0.165-3.463
			C50.39,17.337,49.95,14.753,51.104,14.644z"/>
		<path fill="#557366" d="M57.493,14.438c0.152,0.37-0.823,1.572-1.296,0.926C55.832,14.863,57.085,13.45,57.493,14.438z"/>
	</g>
	<path fill="#0D6B61" d="M44.763,34.292c-3.074,0.008-5.267-0.621-5.274-1.548c-0.011-1.188,3.253-1.885,6.803-1.514
		C51.573,31.783,48.674,34.28,44.763,34.292z"/>
	<path fill="#0D6B61" d="M37.345,35.394c-1.65-0.087-2.993-0.486-2.993-1.086s2.047-1.311,4.539-0.859
		C41.893,33.991,40.184,35.544,37.345,35.394z"/>
	<path fill="#0D6B61" d="M54.124,33.757c-1.719-0.1-3.116-0.553-3.116-1.235c0-0.683,2.132-1.491,4.726-0.978
		C58.859,32.163,57.079,33.928,54.124,33.757z"/>
	<path fill="#57BDB8" d="M51.046,35.141l-4.826-0.002c0,0,0.048-0.217-0.068-0.611c-0.171-0.582-0.567-0.833-0.479-0.958
		c0.171-0.24,1.163,0.205,1.163,0.205s0.309-1.129,1.027-1.095C48.068,32.689,48,33.432,48,33.432s0.15-0.301,0.342-0.479
		c0.479-0.445,1.027-0.582,1.198-0.514c0.262,0.105-0.171,1.164-0.171,1.164c0.764-0.344,0.831-0.906,1.026-0.856
		c0.339,0.088,0.069,1.13,0.069,1.13s0.646-0.437,1.026-0.274c0.239,0.103-0.171,0.479-0.342,0.958
		C51.028,34.899,51.046,35.141,51.046,35.141z"/>
	<path fill="#5C8F67" d="M34.899,34.193c0.778-0.131,1.367,0.193,0.361,0.519C34.919,34.822,34.251,34.302,34.899,34.193z"/>
	<path fill="#5C8F67" d="M47.53,31.627c0.92,0.092,2.011,0.695,0,0.697C46.175,32.326,46.675,31.542,47.53,31.627z"/>
	<path fill="#5C8F67" d="M41.345,32.541c0.502,0.209-0.446,0.968-1.43,0.535C39.196,32.759,40.872,32.344,41.345,32.541z"/>
	<path fill="#5C8F67" d="M53.01,32.423c0.502,0.209-0.774,0.928-1.445,0.521C50.893,32.538,52.537,32.226,53.01,32.423z"/>
	<path fill="#5C8F67" d="M41.768,33.031c0.408-0.002,0.603,0.547,0.034,0.548C41.053,33.58,41.294,33.034,41.768,33.031z"/>
	<path fill="#57BDB8" d="M38.218,30.239c0.323-0.245,0.666,0.268,0.666,0.268s0.12-0.822,0.595-0.822
		c0.624,0,0.312,1.644,0.312,1.644h-1.502C38.288,31.33,37.863,30.507,38.218,30.239z"/>
	<path fill="#FFFFFF" d="M52.035,68.546c3.923,0.212,9.158,5.115,1.313,5.115C42.505,73.661,48.337,68.348,52.035,68.546z"/>
	<path fill="#FFFFFF" d="M10.801,10.973c3.923,0.211,9.158,5.115,1.313,5.115C1.271,16.088,7.103,10.774,10.801,10.973z"/>
</g>
</svg>
