<?xml version="1.0" encoding="utf-8"?>
<!-- Generator: Adobe Illustrator 16.0.0, SVG Export Plug-In . SVG Version: 6.00 Build 0)  -->
<!DOCTYPE svg PUBLIC "-//W3C//DTD SVG 1.1//EN" "http://www.w3.org/Graphics/SVG/1.1/DTD/svg11.dtd">
<svg version="1.1" id="圖層_1" xmlns="http://www.w3.org/2000/svg" xmlns:xlink="http://www.w3.org/1999/xlink" x="0px" y="0px"
	 width="75px" height="75px" viewBox="0 0 75 75" enable-background="new 0 0 75 75" xml:space="preserve">
<g>
	<path fill="#DADC8F" d="M2.827,38.92c0,0-0.476,15.686,6.665,20.303c4.402,2.848,9.923,5.829,13.769,9.86
		c10.071,10.566,34.262,5.893,36.975-5.452c1.205-5.038,6.64-3.213,8.798-7.595c2.158-4.383,3.147-16.302,3.147-16.302L2.827,38.92z
		"/>
	<path fill="#E9EB9A" d="M51.802,56.081c0,0,1.205,9.757,5.515,10.322c6.467,0.847,11.357-3.15,11.547-10.78L51.802,56.081z"/>
	<path fill="#64BD9A" d="M50.333,15.16c0-1.246,0.878-3.064,2.252-3.064c1.821,0,3.013,3.708,1.736,4.567
		C53.184,17.428,50.333,17.496,50.333,15.16"/>
	<path fill="#64BD9A" d="M44.747,14.988c0-1.62,1.142-3.982,2.928-3.982c2.367,0,3.916,4.818,2.256,5.936
		C48.453,17.936,44.747,18.025,44.747,14.988"/>
	<path fill="#72A130" d="M21.359,19.009c-3.626-3.746,1.677-13.098,6.625-13.792c4.947-0.694,7.715,5.777,7.715,5.777
		s1.555-3.996,5.584-3.704c4.028,0.291,7.834,8.95,4.778,11.782C43.785,21.183,23.009,20.716,21.359,19.009"/>
	<path fill="#F3E028" d="M12.556,30.146c-14.158,2.15-13.021,17.293,4.414,19.657c18.676,2.531,31.332,1.792,40.552-0.098
		c15.785-3.235,16.607-10.28,12.68-14.092C62.796,28.429,38.573,26.196,12.556,30.146"/>
	<path fill="#EAE226" d="M57.852,52.013c-3.617,0.289-8.747,4.159-4.362,4.977c4.697,0.876,9.167,0.947,11.529,0.646
		c4.046-0.518,4.354-2.154,3.41-3.104C66.652,52.735,64.501,51.482,57.852,52.013"/>
	<path fill="#D2D946" d="M30.871,30.85c-2.785-8.727,6.882-18.436,15.032-15.789c7.646,2.482,9.367-1.289,13.805,2.458
		c5.614,4.74,6.402,13.653,4.006,15.145C57.37,36.609,32.363,35.53,30.871,30.85"/>
	<path fill="#51A46A" d="M59.195,32.304c0.001-2.559,1.805-6.291,4.625-6.291c3.739,0,6.188,7.612,3.564,9.377
		C65.052,36.958,59.195,37.101,59.195,32.304"/>
	<path fill="#62B380" d="M55.071,34.119c-1.426,1.747-42.885,1.868-44.784-0.5c-2.747-3.433,2.547-19.081,14.69-19.333
		c6.76-0.141,10.044,6.69,15.966,5.524C50.826,17.862,58.781,29.577,55.071,34.119"/>
	<path fill="#D2D946" d="M24.969,37.461c-1.824-3.362,0.245-14.879,9.542-15.296c4.149-0.187,8.232,2.619,11.766,2.275
		c14.464-1.402,20.333,12.24,16.337,14.493C59.084,40.923,26.751,40.749,24.969,37.461"/>
	<path fill="#6D887D" d="M41.867,34.734c1.076,0,1.962,9.243,1.187,10.184c-0.341,0.415-1.787,0.39-2.214,0.056
		C40.067,44.365,40.509,34.734,41.867,34.734"/>
	<path fill="#57AF72" d="M36.638,39.773c-0.469-3.464,1.715-14.16,5.088-14.16c3.429,0,5.919,11.45,4.426,15.378
		C45.479,42.759,37.19,43.867,36.638,39.773"/>
	<path fill="#6D887D" d="M33.856,39.266c1.226,0,2.234,7.805,1.352,8.599c-0.389,0.351-2.036,0.328-2.522,0.046
		C31.803,47.396,32.307,39.266,33.856,39.266"/>
	<path fill="#51A46A" d="M27.893,43.521c-0.534-2.925,1.954-11.956,5.802-11.956c3.907,0,6.748,9.667,5.045,12.983
		C37.974,46.041,28.523,46.977,27.893,43.521"/>
	<path fill="#B6BD55" d="M49.107,40.389c-0.367-5.666,2.247-9.639,5.697-9.913c6.343-0.505,7.573,11.456,4.354,13.517
		C56.294,45.826,49.469,45.979,49.107,40.389"/>
	<path fill="#647E72" d="M54.944,36.745c0.682,0,0.7,3.488,0.7,3.488s2.512-1.624,2.862-1.155c0.293,0.39-2.723,2.585-2.723,2.585
		s0.339,5.89-0.049,6.193c-0.372,0.291-1.212,0.276-1.599,0c-0.222-0.159-0.159-4.49-0.159-4.49s-2.458-1.654-2.02-2.092
		c0.414-0.414,2.092,0.584,2.092,0.584S54.215,36.745,54.944,36.745"/>
	<path fill="#FBFADC" d="M57.575,8.54c2.933-2.314-0.316-8.077-4.318-8.507c-4.003-0.428-5.615,3.376-5.615,3.376
		s-1.258-2.47-4.517-2.289C39.867,1.3,36.79,6.649,39.261,8.4C41.102,9.704,56.24,9.596,57.575,8.54"/>
	<path fill="#FBFADC" d="M15.796,15.514c4.192,0.226,9.782,5.463,1.402,5.463C5.616,20.977,11.845,15.301,15.796,15.514"/>
	<path fill="#73B45C" d="M60.928,52.683c0.779-0.591,1.604,0.644,1.604,0.644s0.289-1.979,1.434-1.979c1.5,0,0.75,3.959,0.75,3.959
		h-3.617C61.098,55.307,60.073,53.326,60.928,52.683"/>
	<path fill="#536A60" d="M21.399,36.242c0.508-0.06,0.96,3.065,0.96,3.065s1.123-2.287,1.603-2.014
		c0.319,0.184-1.145,2.929-1.145,2.929S23.183,41.001,23,41.55c-0.148,0.448-2.469,0.448-2.563,0
		C20.254,40.681,20.621,36.334,21.399,36.242"/>
	<path fill="#D59F20" d="M15.999,35.738c-2.027-6.165,2.406-11.893,6.146-11.896c3.234-0.002,3.456,3.234,5.293,5.353
		c2.105,2.424,1.302,5.908-1.235,8.282C24.785,38.805,17.098,39.079,15.999,35.738"/>
	<path fill="#D59F20" d="M5.328,37.15c-0.395-5.281,2.417-8.982,6.128-9.238c6.824-0.471,8.146,10.675,4.684,12.596
		C13.057,42.216,5.716,42.36,5.328,37.15"/>
	<path fill="#647E72" d="M11.607,33.756c0.732,0,0.752,3.249,0.752,3.249s2.704-1.514,3.082-1.076c0.313,0.362-2.93,2.41-2.93,2.41
		s0.364,5.486-0.053,5.771c-0.401,0.271-1.305,0.258-1.72,0c-0.238-0.148-0.17-4.185-0.17-4.185s-2.645-1.541-2.174-1.949
		c0.445-0.387,2.251,0.545,2.251,0.545S10.821,33.756,11.607,33.756"/>
	<path fill="#E9EB9A" d="M7.041,51.799c0,0,0,15.34,7.974,16.446c9.07,1.259,9.726,4.943,17.78,2.675
		c8.054-2.269,8.497-11.006,9.257-18.466L7.041,51.799z"/>
	<path fill="#EAE226" d="M14.894,46.352c-7.137,0.534-11.819,7.066-3.167,8.58c9.267,1.622,18.083,1.755,22.744,1.195
		c7.981-0.959,8.587-3.987,6.729-5.749C37.696,47.057,28.012,45.37,14.894,46.352"/>
	<path fill="#73B45C" d="M16.614,49.471l5.9-0.233c0-1.778-0.62-4.886-1.825-4.96c-0.827-0.052-1.056,1.581-1.056,1.581
		s-0.388-2.73-1.581-2.561c-1.054,0.151-0.038,3.426-0.038,3.426s-0.845-1.3-1.581-0.678C15.455,46.874,16.614,49.471,16.614,49.471
		"/>
	<path fill="#73B45C" d="M30.016,52.197l-3.283-0.006c-0.805-0.824-0.737-3.367,0.334-3.419c0.735-0.035,0.938,1.089,0.938,1.089
		s0.346-1.881,1.407-1.763c0.939,0.103,0.034,2.36,0.034,2.36s0.752-0.896,1.407-0.468C31.724,50.563,30.016,52.197,30.016,52.197"
		/>
</g>
</svg>
