<?xml version="1.0" encoding="utf-8"?>
<!-- Generator: Adobe Illustrator 16.0.0, SVG Export Plug-In . SVG Version: 6.00 Build 0)  -->
<!DOCTYPE svg PUBLIC "-//W3C//DTD SVG 1.1//EN" "http://www.w3.org/Graphics/SVG/1.1/DTD/svg11.dtd">
<svg version="1.1" id="圖層_1" xmlns="http://www.w3.org/2000/svg" xmlns:xlink="http://www.w3.org/1999/xlink" x="0px" y="0px"
	 width="75px" height="75px" viewBox="0 0 75 75" enable-background="new 0 0 75 75" xml:space="preserve">
<g id="A2_x5F_land">
	<path id="XMLID_00000118369019623224982070000004619148913685161148_" fill="#E1CC91" d="M0.565,35.173
		c0,0-0.171,17.042,7.352,22.066c4.637,3.097,10.455,6.339,14.505,10.726c10.612,11.491,36.097,6.407,38.956-5.932
		c1.27-5.48,6.994-3.495,9.268-8.261c2.273-4.767,2.569-17.743,2.569-17.743L0.565,35.173z"/>
	<path fill="#FFEFA9" d="M22.917,13.129C7.893,12.831,1.073,26.977,0.574,35.017C0.264,40.023,6.188,45.85,15.999,46.836
		c28.324,2.847,32.14,1.823,41.85-0.23c11.521-2.438,15.218-6.866,15.354-10.732c0.275-7.786-6.821-32.746-27.656-32.804
		C30.765,3.028,32.699,13.324,22.917,13.129z"/>
	<path fill="#FFEA82" d="M49.311,21.732c18.054-0.542,26.436,15.207,13.932,19.766c-14.029,5.115-18.437-0.999-30.113,2.583
		C8.364,51.679,4.067,29.469,20.236,28.878C45.264,27.962,32.935,22.224,49.311,21.732z"/>
	<path fill="#BDD46B" d="M24.484,42.604c0.853-0.645,1.754,0.705,1.754,0.705s0.316-2.164,1.567-2.164
		c1.642,0,0.821,4.329,0.821,4.329H24.67C24.67,45.475,23.551,43.31,24.484,42.604z"/>
	<path fill="#FFEA82" d="M38.952,7.291c-5.127,0.512-8.49,6.773-2.275,8.224c6.657,1.554,12.99,1.683,16.338,1.146
		c5.733-0.918,6.169-3.822,4.834-5.511C55.332,7.966,48.375,6.35,38.952,7.291z"/>
	<path fill="#E8E687" d="M36.1,14.079c8.165,0.815,12.021,12.306,2.124,14.616c-10.601,2.474-18.313,0.977-23.645,0.122
		c-9.13-1.463-8.247-7.521-6.121-10.209C12.466,13.54,21.094,12.581,36.1,14.079z"/>
	<g>
		<path fill="#F0DB9B" d="M0.839,55.98c0,0,0,14.703,5.727,15.764c6.516,1.207,6.988,4.738,12.773,2.563
			c5.786-2.174,6.104-10.549,6.65-17.699L0.839,55.98z"/>
		<path fill="#FFEA82" d="M6.387,50.76c-5.127,0.512-8.49,6.773-2.275,8.224c6.657,1.554,12.99,1.683,16.338,1.146
			c5.734-0.918,6.169-3.822,4.834-5.511C22.768,51.436,15.811,49.818,6.387,50.76z"/>
		<path fill="#E0B46C" d="M5.105,55.705h6.644c0-1.8-0.628-5.182-1.847-5.258c-0.837-0.053-1.033,1.518-1.033,1.518
			s-0.396-2.91-2.058-2.517c-1.049,0.248-0.287,3.477-0.287,3.477s-0.855-1.316-1.601-0.687C3.932,53.077,5.105,55.705,5.105,55.705
			z"/>
		<path fill="#A3B85C" d="M22.029,54.458c-0.862-0.652-1.773,0.713-1.773,0.713s-0.319-2.188-1.584-2.188
			c-1.66,0-0.83,4.376-0.83,4.376h3.999C21.84,57.358,22.972,55.171,22.029,54.458z"/>
	</g>
	<path fill="#CFCD7C" d="M54.607,9.315c-0.973-0.417-2.627,0.7-2.627,0.7s0.691-2.665-0.175-2.889
		c-0.501-0.129-0.673,1.308-2.626,2.189c0,0,1.107-2.709,0.438-2.977c-0.438-0.175-1.839,0.175-3.064,1.313
		c-0.491,0.456-0.876,1.226-0.876,1.226s0.575-1.931-0.35-1.926c-1.058,0.006-1.767,0.883-2.179,1.686
		c-0.442-2.82-3.357,0.675-4.19,0.595c-0.451-0.043,0.318-1.106-0.372-1.177c-1.433-0.147-2.082,0.621-2.082,0.621
		c-0.151-2.127-1.852-2.597-2.069-1.38c-0.345,1.936-0.772,1.778-0.772,1.778c-0.723-0.524-0.087-1.362-0.56-1.488
		c-1.079-0.287-1.968,2.147-1.968,2.147c-0.485-2.875,2.868-3.501,1.278-3.978c-3.038-0.911-5.008,2.7-5.008,2.7
		c-0.328-1.256,1.187-2.406-0.353-2.479c-1.546-0.074-2.972,2.721-2.972,2.721s0.053-1.03-0.478-1.103
		c-0.422-0.059-0.743,1.324-1.273,1.177c-0.445-0.124,0.491-2.087-0.425-2.133c-1.486-0.074-2.441,2.353-2.441,2.353
		c-2.335-2.794-4.336-1.698-3.715-0.882c1.008,1.324,0.849,2.133,0.849,2.133c-1.221-0.956-2.654-0.221-1.715,0.7
		c0.992,0.972,1.404,2.306,1.404,2.306H53.47c0,0-0.047-0.616,0.262-1.481C54.17,10.541,55.22,9.578,54.607,9.315z"/>
	<path fill="#B3A249" d="M20.989,15.03c0,0,0.407-1.862-1.787-4.133c-0.808-0.836,2.064-0.83,3.183,0.817
		c0.881,1.297,0.306-1.26,1.113-1.27s1.098,1.212,1.098,1.212s0.985-2.778,3.375-2.216c0.989,0.233-0.582,1.222-0.349,1.862
		c0,0,0.854-1.094,1.746-0.698c0.523,0.233-0.152,0.946,0.174,1.513c0,0,1.688,0.058,2.909-1.222
		c0.546-0.572,1.688,2.269-0.116,4.136H20.989z"/>
	<g>
		<defs>
			<path id="XMLID_00000152987018803360238840000000687884802362527361_" d="M62.519,27.139c1.928-0.93,0-5.956-2.011-11.35
				c-1.385-3.714-9.835-5.675-13.269-4.566c-5.859,1.894-12.583,1.536-15.67,2.41c-2.862,0.811-5.085,7.292-4.19,11.916
				C28.128,29.423,55.754,30.403,62.519,27.139z"/>
		</defs>
		<use xlink:href="#XMLID_00000152987018803360238840000000687884802362527361_"  overflow="visible" fill="#D1C39B"/>
		<clipPath id="XMLID_2_">
			<use xlink:href="#XMLID_00000152987018803360238840000000687884802362527361_"  overflow="visible"/>
		</clipPath>
		<path clip-path="url(#XMLID_2_)" fill="#EBDBAE" d="M46.257,9.144c8.545-0.22,13.179,2.815,13.724,5.869
			c0.692,3.88-7.089,3.417-23.432,3.429c-5.461,0.004-7.743-3.222-4.549-5.117C35.121,11.472,43.109,9.224,46.257,9.144z"/>
	</g>
	<path fill="#E0B46C" d="M66.025,34.036c-0.661-0.5-1.358,0.546-1.358,0.546s-0.245-1.677-1.215-1.677
		c-1.271,0-0.636,3.354-0.636,3.354h3.064C65.881,36.259,66.748,34.582,66.025,34.036z"/>
	<path fill="#CFCD7C" d="M49.149,3.557c-0.661-0.5-1.358,0.546-1.358,0.546s-0.245-1.677-1.215-1.677
		c-1.272,0-0.636,3.354-0.636,3.354h3.064C49.005,5.78,49.872,4.103,49.149,3.557z"/>
	<path fill="#E0B46C" d="M0.882,22.566c0.994-1.001,2.858-0.166,2.858-0.166s-0.307-1.552,0.672-1.636
		c1.008-0.086,1.68,0.904,1.68,0.904s0.493-1.566,1.399-1.334c0.504,0.129,0.528,0.963,0.528,0.963s1.381-1.651,3.285-1.393
		c0.819,0.111-0.27,2.186-0.27,2.186s0.687-0.222,0.925-1.228c0.284-1.199-0.404-2.255,0.389-2.255c1.639,0,2.819,1.971,2.928,3.151
		c0.221-0.923-0.204-1.641,0.8-1.987c1.149-0.396,3.367,3.188,3.367,3.188s-0.766-1.716-0.114-1.897
		c1.563-0.436,2.522,2.604,2.522,2.604c0.148-2.13,1.438-4.314,1.906-3.476c0.756,1.356,0.739,2.106,0.739,2.106
		c0.148-1.077-0.1-2.39,0.61-2.39c1.11,0,1.766,2.484,1.766,2.484c0.313-2.717-1.207-3.28-0.275-3.47
		c3.002-0.614,3.286,4.071,3.286,4.071c1.136-1.136-0.44-2.532,1.062-2.605c1.509-0.074,2.174,2.212,2.174,2.212
		s0.649-1.836,1.344-1.841c0.417-0.002,0.567,2.322,1.084,2.175c0.434-0.124-0.32-3.087,0.573-3.132
		c1.451-0.073,2.224,3.353,2.224,3.353c2.379-3.354,4.391-2.697,3.784-1.88c-0.984,1.325-0.829,2.135-0.829,2.135
		c1.191-0.957,3.597-1.071,2.93,0.044c-0.549,0.919-1.721,5.269-1.721,5.269l-39.206,0.52c0,0,0.056-0.117-0.056-1.076
		C2.667,23.203,0.388,23.063,0.882,22.566z"/>
	<path fill="#E0B46C" d="M37.563,15.944c0,0,0.31-1.414-1.357-3.138c-0.613-0.635,1.568-0.63,2.417,0.621
		c0.668,0.984,0.232-0.957,0.845-0.965c0.612-0.007,0.833,0.92,0.833,0.92s0.748-2.109,2.563-1.682
		c0.751,0.177-0.441,0.927-0.265,1.414c0,0,0.648-0.831,1.324-0.53c0.398,0.177-0.115,0.718,0.133,1.148
		c0,0,1.281,0.044,2.209-0.928c0.415-0.435,1.281,1.723-0.088,3.14H37.563z"/>
	<path fill="#B3A249" d="M39.785,31.071c0,0,0.934-2.613-1.388-5.016c-0.854-0.884,2.185-0.877,3.367,0.865
		c0.932,1.372,0.324-1.334,1.178-1.344c0.854-0.011,1.161,1.282,1.161,1.282s1.042-2.939,3.569-2.344
		c1.047,0.246-0.615,1.292-0.369,1.969c0,0,0.904-1.157,1.847-0.738c0.554,0.246-0.161,1,0.185,1.6c0,0,1.785,0.062,3.077-1.292
		c0.578-0.605,1.284,3.044-0.625,5.019H39.785z"/>
	<g>
		<path fill="#FFE8A4" d="M29.407,54.067c0,0,1.228,17.551,10.217,19.627c8.037,1.856,13.354-0.854,21.009-0.854
			c8.319,0,13.427-9.66,13.671-19.461L29.407,54.067z"/>
		<path fill="#FFEFA9" d="M46.234,44.177c-15.427,0.444-22.647,11.31-11.963,15.205c11.987,4.37,19.89-0.237,30.229-0.872
			c10.378-0.638,11.097-5.492,8.695-7.918C68.669,46.019,63.231,43.688,46.234,44.177z"/>
		<path fill="#E8E687" d="M44.375,45.613c-6.856,0.685-11.354,9.058-3.042,10.997c8.902,2.077,17.37,2.25,21.848,1.532
			c7.667-1.229,8.249-5.111,6.464-7.369C66.279,46.517,56.976,44.354,44.375,45.613z"/>
		<path fill="#CFCD7C" d="M68.576,51.167c-0.862-0.652-1.772,0.713-1.772,0.713s-0.32-2.188-1.585-2.188
			c-1.66,0-0.83,4.376-0.83,4.376h3.999C68.388,54.067,69.52,51.88,68.576,51.167z"/>
		<path fill="#BDD46B" d="M42.503,56.156c0,0,0.229-3.144-1.8-4.001c-0.771-0.325,1.416-2.439,4.149,0.235c0,0-1.182-1.692,0-1.718
			c1.714-0.037,3.783,2.11,3.783,2.11s0.69-1.381,2.146-1.381c1.094,0,0.844,1.764,0.844,1.764s1.457-2.913,2.913-2.53
			c0.938,0.247,0.307,1.841,0.307,1.841s1.687-1.15,2.606-0.384c0.556,0.463-0.659,1.249-1.149,2.3
			c-0.537,1.15-0.23,1.764-0.23,1.764H42.503z"/>
		<path fill="#E0B46C" d="M59.626,43.961c-0.788,1.111-0.319-0.836-0.995-1.088c-0.31-0.115-0.938,0.136-1.362,1.102
			c-0.415-0.524-1.188-2.434-2.666-2.125c-0.759,0.159-0.509,1.203-0.356,1.729c-0.038,0.045-1.266-1.294-1.961-1.148
			c-0.116,0.023-0.738,0.271-0.016,1.582c-0.974-0.239-2.027-1.486-2.969-1.467c-0.9,0.02-0.295,1.387-0.295,1.387
			c-2.083-2.039-3.751-0.427-3.163-0.179c1.547,0.653,1.372,3.05,1.372,3.05h13.66c0,0-0.364-1.596,1.599-3.541
			C63.195,42.545,60.626,42.551,59.626,43.961z"/>
	</g>
	<path fill="#B3A249" d="M62.313,29.963c0,0,0.747-4.521-0.609-4.521c-0.527,0-0.706,1.006-0.781,1.684c0,0-0.8-2.821-1.854-2.821
		s-1.332,3.741-1.634,5.667L62.313,29.963z"/>
	<g>
		<defs>
			<path id="XMLID_00000026144141619334813150000001209162729836343485_" d="M4.879,37.889c-2.265-0.683-2.064-8.136,1.573-10.104
				c1.287-0.696,7.874-4.115,11.86-3.375c6.804,1.263,16.08,1.425,18.273,1.425c3.388,0,6.108,6.794,5.495,10.888
				C41.564,40.153,12.827,40.287,4.879,37.889z"/>
		</defs>
		<use xlink:href="#XMLID_00000026144141619334813150000001209162729836343485_"  overflow="visible" fill="#D1C39B"/>
		<clipPath id="XMLID_3_">
			<use xlink:href="#XMLID_00000026144141619334813150000001209162729836343485_"  overflow="visible"/>
		</clipPath>
		<path clip-path="url(#XMLID_3_)" fill="#EBDBAE" d="M20.472,23.416C7.51,23.967,3.628,29.312,5.937,30.979
			c5.998,4.332,14.909,1.897,24.655,1.111C43.346,31.063,42.793,22.467,20.472,23.416z"/>
	</g>
	<image overflow="visible" width="6" height="6" xlink:href="D3A44107.png"  transform="matrix(1 0 0 1 6 26)">
	</image>
	<path fill="#B3A249" d="M6.312,42.378c0,0,0.438-2.005-1.924-4.452c-0.87-0.9,2.223-0.894,3.427,0.88
		c0.949,1.396,0.33-1.358,1.199-1.369c0.869-0.01,1.182,1.306,1.182,1.306s1.061-2.993,3.634-2.387
		c1.065,0.25-0.626,1.316-0.376,2.005c0,0,0.92-1.179,1.879-0.752c0.564,0.251-0.164,1.02,0.188,1.629c0,0,1.817,0.063,3.132-1.316
		c0.588-0.616,1.818,2.444-0.125,4.455H6.312z"/>
	<path fill="#BDD46B" d="M18.538,30.222c0,0,0.175-2.396-1.372-3.05c-0.587-0.248,1.08-1.859,3.164,0.179c0,0-0.901-1.291,0-1.31
		c1.306-0.028,2.884,1.609,2.884,1.609s0.526-1.052,1.636-1.052c0.834,0,0.643,1.344,0.643,1.344s1.11-2.221,2.221-1.929
		c0.715,0.188,0.234,1.403,0.234,1.403s1.286-0.877,1.987-0.292c0.423,0.353-0.503,0.952-0.877,1.753
		c-0.409,0.877-0.175,1.344-0.175,1.344H18.538z"/>
	<path fill="#FFF168" d="M13.208,16.354c0,0,0.183-2.575-1.429-3.277c-0.612-0.267,1.125-1.999,3.295,0.192c0,0-0.938-1.387,0-1.407
		c1.361-0.03,3.004,1.729,3.004,1.729s0.548-1.13,1.705-1.13c0.869,0,0.67,1.445,0.67,1.445s1.157-2.387,2.313-2.073
		c0.745,0.202,0.244,1.507,0.244,1.507s1.339-0.942,2.07-0.314c0.441,0.379-0.523,1.023-0.913,1.885
		c-0.426,0.942-0.183,1.444-0.183,1.444H13.208z"/>
	<path fill="#A3B85C" d="M40.587,34.086c0.907-0.266,1.399,1.526,1.399,1.526s0.672-1.132,1.68-1.034
		c0.979,0.096,0.672,1.87,0.672,1.87s1.567-0.984,2.799-0.197c0.446,0.285-0.839,0.689-1.063,1.822
		c-0.213,1.076-0.056,1.23-0.056,1.23l-15.564,0.022c0,0,0.17-0.405,0-1.155c-0.28-1.231-1.68-1.821-1.008-2.018
		c1.144-0.335,2.463,0.738,2.463,0.738s-0.504-0.951-0.504-1.625c0-0.886,0.785-1.53,1.008-1.083
		c0.392,0.787,1.076,1.067,1.076,1.067s-0.013-2.347,1.667-2.347c0.728,0,0.336,1.034,1.176,1.624
		c0.88,0.619,1.288,0.394,1.288,0.394s-1.1-1.104-0.28-1.23c1.903-0.295,2.968,1.575,2.968,1.575S40.083,34.234,40.587,34.086z"/>
	<path fill="#E0B46C" d="M42.661,4.926l-8.75-0.003c0,0,0.086-0.393-0.124-1.108c-0.311-1.055-1.03-1.512-0.869-1.737
		c0.31-0.435,2.109,0.372,2.109,0.372s0.559-2.048,1.862-1.986c0.372,0.018,0.248,1.365,0.248,1.365s0.273-0.545,0.621-0.869
		c0.869-0.807,1.861-1.055,2.172-0.931c0.476,0.19-0.311,2.11-0.311,2.11c1.385-0.625,1.507-1.643,1.862-1.551
		c0.613,0.159,0.124,2.047,0.124,2.047s1.172-0.792,1.861-0.496c0.434,0.186-0.311,0.869-0.62,1.737
		C42.628,4.49,42.661,4.926,42.661,4.926z"/>
	<path fill="#FFFFFF" d="M29.369,12.96c4.583,0.247,10.697,5.975,1.534,5.975C18.238,18.935,25.05,12.728,29.369,12.96z"/>
	<path fill="#FFFFFF" d="M23.254,9.621c3.207-2.532-0.346-8.833-4.723-9.302c-4.377-0.469-6.14,3.69-6.14,3.69
		s-1.375-2.7-4.938-2.503S0.525,7.553,3.227,9.467C5.24,10.893,21.794,10.774,23.254,9.621z"/>
	<path fill="#FFFFFF" d="M73.201,36.136c3.207-2.532-0.346-8.833-4.723-9.302c-4.376-0.469-6.14,3.69-6.14,3.69
		s-1.374-2.7-4.938-2.503c-3.564,0.197-6.93,6.047-4.228,7.961C55.187,37.409,71.741,37.29,73.201,36.136z"/>
</g>
</svg>
