<?xml version="1.0" encoding="utf-8"?>
<!-- Generator: Adobe Illustrator 16.0.0, SVG Export Plug-In . SVG Version: 6.00 Build 0)  -->
<!DOCTYPE svg PUBLIC "-//W3C//DTD SVG 1.1//EN" "http://www.w3.org/Graphics/SVG/1.1/DTD/svg11.dtd">
<svg version="1.1" id="圖層_1" xmlns="http://www.w3.org/2000/svg" xmlns:xlink="http://www.w3.org/1999/xlink" x="0px" y="0px"
	 width="75px" height="75px" viewBox="0 0 75 75" enable-background="new 0 0 75 75" xml:space="preserve">
<g>
	<path fill="#DADC8F" d="M2.826,38.92c0,0-0.476,15.686,6.665,20.303c4.402,2.848,9.923,5.829,13.768,9.861
		c10.072,10.565,34.262,5.893,36.975-5.453c1.205-5.038,6.64-3.213,8.797-7.595c2.158-4.383,3.148-16.303,3.148-16.303L2.826,38.92z
		"/>
	<path fill="#E9EB9A" d="M51.801,56.081c0,0,1.206,9.757,5.516,10.322c6.467,0.847,11.356-3.149,11.547-10.78L51.801,56.081z"/>
	<path fill="#64BD9A" d="M50.332,15.16c0-1.246,0.879-3.064,2.252-3.064c1.822,0,3.013,3.708,1.736,4.567
		C53.185,17.428,50.332,17.496,50.332,15.16"/>
	<path fill="#64BD9A" d="M44.746,14.989c0-1.621,1.143-3.983,2.929-3.983c2.366,0,3.916,4.818,2.256,5.936
		C48.452,17.936,44.746,18.025,44.746,14.989"/>
	<path fill="#8E952A" d="M21.359,19.009c-3.626-3.746,1.677-13.098,6.625-13.792c4.948-0.694,7.716,5.778,7.716,5.778
		s1.554-3.997,5.582-3.705c4.029,0.292,7.834,8.951,4.779,11.783C43.786,21.183,23.01,20.716,21.359,19.009"/>
	<path fill="#DCEAC8" d="M12.556,30.146C-1.602,32.297-0.465,47.439,16.97,49.804c18.676,2.531,31.331,1.792,40.551-0.098
		c15.786-3.235,16.608-10.28,12.681-14.091C62.796,28.429,38.574,26.196,12.556,30.146"/>
	<path fill="#DCEAC8" d="M57.852,52.013c-3.617,0.289-8.748,4.159-4.362,4.978c4.697,0.875,9.166,0.947,11.529,0.645
		c4.045-0.517,4.353-2.153,3.41-3.104C66.652,52.735,64.501,51.482,57.852,52.013"/>
	<path fill="#8E952A" d="M30.871,30.849c-2.785-8.725,6.881-18.435,15.032-15.788c7.646,2.482,9.367-1.289,13.805,2.458
		c5.613,4.74,6.401,13.654,4.005,15.145C57.369,36.609,32.363,35.53,30.871,30.849"/>
	<path fill="#778530" d="M59.196,32.304c0-2.559,1.804-6.291,4.624-6.291c3.739,0,6.188,7.612,3.565,9.376
		C65.052,36.958,59.196,37.101,59.196,32.304"/>
	<path fill="#99C896" d="M55.071,34.119c-1.426,1.747-42.886,1.869-44.783-0.5c-2.748-3.432,2.547-19.081,14.689-19.332
		c6.761-0.141,10.045,6.691,15.966,5.524C50.825,17.863,58.781,29.577,55.071,34.119"/>
	<path fill="#9B8E26" d="M24.968,37.461c-1.823-3.362,0.246-14.878,9.542-15.296c4.148-0.186,8.231,2.62,11.766,2.276
		c14.464-1.403,20.333,12.24,16.336,14.493C59.083,40.922,26.75,40.749,24.968,37.461"/>
	<path fill="#6D887D" d="M41.867,34.734c1.076,0,1.961,9.243,1.186,10.184c-0.341,0.415-1.787,0.391-2.212,0.056
		C40.067,44.365,40.509,34.734,41.867,34.734"/>
	<path fill="#02703E" d="M36.637,39.773c-0.468-3.463,1.716-14.159,5.09-14.159c3.427,0,5.918,11.449,4.426,15.377
		C45.479,42.759,37.19,43.867,36.637,39.773"/>
	<path fill="#6D887D" d="M33.856,39.265c1.226,0,2.234,7.806,1.351,8.6c-0.389,0.351-2.036,0.329-2.522,0.046
		C31.803,47.396,32.307,39.265,33.856,39.265"/>
	<path fill="#02703E" d="M27.893,43.521c-0.535-2.926,1.955-11.957,5.802-11.957c3.908,0,6.748,9.667,5.045,12.983
		C37.973,46.041,28.523,46.978,27.893,43.521"/>
	<path fill="#7C8138" d="M49.106,40.389c-0.366-5.667,2.247-9.638,5.697-9.913c6.343-0.505,7.573,11.456,4.354,13.517
		C56.293,45.826,49.469,45.98,49.106,40.389"/>
	<path fill="#647E72" d="M54.944,36.746c0.682,0,0.7,3.488,0.7,3.488s2.512-1.625,2.862-1.155c0.293,0.389-2.723,2.585-2.723,2.585
		s0.339,5.89-0.049,6.193c-0.373,0.292-1.212,0.276-1.599,0c-0.223-0.158-0.159-4.49-0.159-4.49s-2.458-1.653-2.019-2.092
		c0.412-0.414,2.091,0.585,2.091,0.585S54.215,36.746,54.944,36.746"/>
	<path fill="#FBFADC" d="M57.575,8.541c2.933-2.315-0.316-8.077-4.319-8.507c-4.002-0.428-5.614,3.375-5.614,3.375
		S46.385,0.94,43.125,1.12c-3.259,0.18-6.336,5.53-3.864,7.281C41.101,9.704,56.24,9.596,57.575,8.541"/>
	<path fill="#FBFADC" d="M15.796,15.514c4.191,0.226,9.782,5.463,1.402,5.463C5.616,20.978,11.845,15.301,15.796,15.514"/>
	<path fill="#006435" d="M60.927,52.683c0.78-0.59,1.604,0.645,1.604,0.645s0.29-1.979,1.434-1.979c1.502,0,0.751,3.96,0.751,3.96
		h-3.618C61.097,55.308,60.073,53.327,60.927,52.683"/>
	<path fill="#536A60" d="M21.398,36.242c0.508-0.059,0.961,3.066,0.961,3.066s1.124-2.287,1.602-2.013
		c0.32,0.183-1.144,2.928-1.144,2.928S23.183,41,23,41.549c-0.148,0.449-2.469,0.449-2.563,0
		C20.254,40.681,20.62,36.334,21.398,36.242"/>
	<path fill="#93B05C" d="M15.999,35.738c-2.027-6.165,2.405-11.892,6.147-11.896c3.234-0.001,3.456,3.235,5.292,5.352
		c2.105,2.425,1.302,5.909-1.236,8.282C24.785,38.805,17.098,39.078,15.999,35.738"/>
	<path fill="#778530" d="M5.327,37.15c-0.394-5.28,2.417-8.982,6.129-9.237c6.824-0.472,8.146,10.674,4.684,12.594
		C13.058,42.217,5.717,42.36,5.327,37.15"/>
	<path fill="#647E72" d="M11.607,33.755c0.732,0,0.752,3.25,0.752,3.25s2.703-1.513,3.081-1.076c0.314,0.363-2.93,2.409-2.93,2.409
		s0.363,5.487-0.053,5.771c-0.399,0.272-1.305,0.258-1.719,0c-0.24-0.148-0.171-4.185-0.171-4.185s-2.645-1.541-2.174-1.949
		c0.445-0.386,2.251,0.545,2.251,0.545S10.822,33.755,11.607,33.755"/>
	<path fill="#E9EB9A" d="M7.041,51.799c0,0,0,15.34,7.973,16.447c9.071,1.258,9.727,4.943,17.781,2.674
		c8.052-2.27,8.497-11.006,9.256-18.466L7.041,51.799z"/>
	<path fill="#DCEAC8" d="M14.894,46.352c-7.137,0.534-11.819,7.067-3.167,8.58c9.268,1.622,18.082,1.756,22.744,1.195
		c7.981-0.959,8.587-3.987,6.729-5.749C37.696,47.058,28.012,45.37,14.894,46.352"/>
	<path fill="#006435" d="M16.614,49.471l5.9-0.233c0-1.778-0.62-4.886-1.826-4.96c-0.826-0.052-1.055,1.581-1.055,1.581
		s-0.388-2.73-1.58-2.56c-1.055,0.15-0.038,3.425-0.038,3.425s-0.845-1.3-1.581-0.678C15.455,46.875,16.614,49.471,16.614,49.471"/>
	<path fill="#006435" d="M30.016,52.198l-3.284-0.006c-0.804-0.825-0.737-3.367,0.335-3.42c0.736-0.035,0.938,1.09,0.938,1.09
		s0.346-1.882,1.406-1.764c0.939,0.103,0.033,2.361,0.033,2.361s0.753-0.896,1.408-0.468C31.725,50.563,30.016,52.198,30.016,52.198
		"/>
</g>
</svg>
