<?xml version="1.0" encoding="utf-8"?>
<!-- Generator: Adobe Illustrator 16.0.0, SVG Export Plug-In . SVG Version: 6.00 Build 0)  -->
<!DOCTYPE svg PUBLIC "-//W3C//DTD SVG 1.1//EN" "http://www.w3.org/Graphics/SVG/1.1/DTD/svg11.dtd">
<svg version="1.1" id="圖層_1" xmlns="http://www.w3.org/2000/svg" xmlns:xlink="http://www.w3.org/1999/xlink" x="0px" y="0px"
	 width="8.211px" height="8.715px" viewBox="0.895 -1.63 8.211 8.715" enable-background="new 0.895 -1.63 8.211 8.715"
	 xml:space="preserve">
<g>
	<g>
		<path fill="#4B4B4B" d="M5,7.085c-0.136,0-0.271-0.055-0.37-0.164L1.024,2.957C0.839,2.752,0.854,2.436,1.058,2.25
			c0.205-0.184,0.52-0.17,0.707,0.034l3.606,3.965c0.186,0.204,0.17,0.521-0.034,0.706C5.241,7.042,5.121,7.085,5,7.085z"/>
	</g>
	<g>
		<path fill="#4B4B4B" d="M5,7.085c-0.12,0-0.241-0.043-0.336-0.13C4.459,6.77,4.444,6.453,4.63,6.249l3.605-3.965
			C8.422,2.08,8.738,2.066,8.941,2.25c0.205,0.186,0.22,0.502,0.034,0.707L5.37,6.921C5.271,7.03,5.136,7.085,5,7.085z"/>
	</g>
	<g>
		<path fill="#4B4B4B" d="M5,7.085c-0.276,0-0.5-0.224-0.5-0.5V-1.13c0-0.276,0.224-0.5,0.5-0.5s0.5,0.224,0.5,0.5v7.715
			C5.5,6.861,5.277,7.085,5,7.085z"/>
	</g>
</g>
</svg>
