<?xml version="1.0" encoding="utf-8"?>
<!-- Generator: Adobe Illustrator 16.0.0, SVG Export Plug-In . SVG Version: 6.00 Build 0)  -->
<!DOCTYPE svg PUBLIC "-//W3C//DTD SVG 1.1//EN" "http://www.w3.org/Graphics/SVG/1.1/DTD/svg11.dtd">
<svg version="1.1" id="圖層_1" xmlns="http://www.w3.org/2000/svg" xmlns:xlink="http://www.w3.org/1999/xlink" x="0px" y="0px"
	 width="75px" height="75px" viewBox="0 0 75 75" enable-background="new 0 0 75 75" xml:space="preserve">
<g id="B1_x5F_land">
	<g>
		<defs>
			<path id="XMLID_00000030444681627762383890000000128619889205905580_" d="M29.68,18.436C28,17.632,30.634,4.551,34.072,2.863
				c2.314-1.136,4.083-2.956,8.924-2.859c6.737,0.135,6.869,1.419,9.725,1.957c3.902,0.735,6.838,14.607,5.648,16.67
				C57.325,20.441,37.494,22.167,29.68,18.436z"/>
		</defs>
		<use xlink:href="#XMLID_00000030444681627762383890000000128619889205905580_"  overflow="visible" fill="#F5C178"/>
		<clipPath id="XMLID_2_">
			<use xlink:href="#XMLID_00000030444681627762383890000000128619889205905580_"  overflow="visible"/>
		</clipPath>
		<path clip-path="url(#XMLID_2_)" fill="#FFEBCC" d="M32.703,4.153C35.677,6.38,43.75,3.484,48.418,6.012
			c3.824,2.072,10.715-1.265,5.078-4.684C48.405-1.761,27.441,0.213,32.703,4.153z"/>
		<path clip-path="url(#XMLID_2_)" fill="#EDAE5C" d="M27.87,20.644l1.034-10.048c0,0,2.258-0.841,5.856-0.073
			c4.66,0.995,9.179,1.501,13.698-0.034c2.722-0.925,5.935-2.458,11.743-1.301L60.8,21.528L27.87,20.644z"/>
		<path clip-path="url(#XMLID_2_)" fill="#EDAE5C" d="M33.823,5.866c2.726,0.045,3.943,2.038,1.015,2.314
			C30.685,8.571,32.357,5.841,33.823,5.866z"/>
	</g>
	<path id="XMLID_00000101785763836036002620000017737355664314573243_" fill="#D7B575" d="M2.515,35.264
		c0,0-0.475,15.703,6.672,20.326c4.407,2.851,9.936,5.835,13.784,9.873c10.083,10.577,34.302,5.897,37.018-5.46
		c1.207-5.044,6.647-3.217,8.808-7.604c2.161-4.387,3.152-16.321,3.152-16.321L2.515,35.264z"/>
	<path fill="#FFEBCC" d="M13.452,23.108C6.896,24.104,2.509,29.466,2.515,35.264c0.005,4.659,4.693,10.704,14.158,10.895
		c15.77,0.319,25.918,1.769,28.278,3.869c5.742,5.113,2.83,13.646,6.695,13.21c3.458-0.39,1.525,11.033,5.556,11.017
		c2.284-0.01,5.121,0.077,7.403-27.295c0.563-6.762,7.092-5.585,7.344-10.882C72.823,17.659,39.5,19.152,13.452,23.108z"/>
	<path fill="#E6C47F" d="M7.97,55.134c0,0,0,15.357,7.981,16.465c9.082,1.261,9.738,4.949,17.802,2.678
		c8.062-2.271,8.506-11.019,9.266-18.487L7.97,55.134z"/>
	<path fill="#FFDE96" d="M43.932,31.555c-7.456,0.473-13.547,5.993-6.17,8.468c7.951,2.669,16.037,1.606,20.175,1.049
		c7.086-0.955,7.637-3.865,5.995-5.548C60.838,32.353,55.59,30.815,43.932,31.555z"/>
	<path fill="#FFDE96" d="M55.038,15.468c-16.362-3.537-16.507,1.189-32.547-0.391c-11.792-1.162-16.74,9.465-17.567,13.049
		c-0.769,3.33,7.604,15.813,20.571,15.029c16.157-0.977-5.564-7.318-1.124-9.05c8.329-3.248-0.487-3.425,5.07-4.639
		c14.675-3.206,40.884,3.214,40.979,0C70.536,25.505,65.169,17.659,55.038,15.468z"/>
	<g>
		<defs>
			<path id="XMLID_00000065792565667157596450000007571812283446963084_" d="M36.033,19.149c1.256-0.722,0.309-5.401-2.26-6.917
				c-1.729-1.021-1.616-2.777-5.233-2.689c-5.033,0.121-6.036-1.563-10.207,0.22c-2.749,1.176-4.619,7.709-3.731,9.563
				C15.381,20.951,30.197,22.502,36.033,19.149z"/>
		</defs>
		<use xlink:href="#XMLID_00000065792565667157596450000007571812283446963084_"  overflow="visible" fill="#F5C178"/>
		<clipPath id="XMLID_3_">
			<use xlink:href="#XMLID_00000065792565667157596450000007571812283446963084_"  overflow="visible"/>
		</clipPath>
		<path clip-path="url(#XMLID_3_)" fill="#FFEBCC" d="M32.429,13.178c-0.203,1.86-1.042,2.625-2.064,2.462
			c-2.011-0.322-2.091-2.108-5.267-2.453c-7.185-0.78-12.333-1.125-7.517-4.641c2.958-2.16,14.158-1.882,15.907,1.959
			C34.706,13.178,32.613,11.493,32.429,13.178z"/>
		<path clip-path="url(#XMLID_3_)" fill="#EDAE5C" d="M38.212,21.138l-0.772-3.779c0,0-1.687-0.756-4.375-0.066
			c-3.48,0.894-6.856,1.349-10.232-0.03c-2.034-0.831-4.433-2.209-8.772-1.169l-0.447,5.84L38.212,21.138z"/>
		<path clip-path="url(#XMLID_3_)" fill="#EDAE5C" d="M17.144,12.993c-1.664-0.092-1.919,2.191-0.124,2.038
			C18.913,14.87,18.316,13.057,17.144,12.993z"/>
	</g>
	<g>
		<path fill="#8DAA60" d="M14.528,25.527c0,0-7.854-2.723-7.398-6.066c0.444-3.255,4.512-2.877,6.066-1.036
			c2.804,3.323,3.107,5.771,3.107,5.771L14.528,25.527z"/>
		<path fill="#8DAA60" d="M17.603,25.505l-0.585-0.745c0,0,1.373-8.102,4.937-6.021C25.477,20.792,17.603,25.505,17.603,25.505z"/>
		<path fill="#839E59" d="M16.766,31.593c0,0-7.438-7.25-2.426-9.913c4.264-2.266,7.6,3.995,4.434,9.448L16.766,31.593z"/>
		<path fill="#8DAA60" d="M15.345,35.551c0,0,0.373-8.013,4.438-7.391s2.586,4.173,1.698,5.357
			c-0.888,1.184-4.291,3.403-4.291,3.403L15.345,35.551z"/>
		<path fill="#8DAA60" d="M11.717,31.741c0,0,0-5.474-3.847-6.214c-3.861-0.743-5.771,2.367-3.403,5.326
			c1.524,1.906,6.51,2.664,6.51,2.664L11.717,31.741z"/>
		<path fill="#839E59" d="M11.717,40.198c0,0-7.981-5.387-2.811-9.641c3.236-2.662,9.913,3.847,8.877,9.173L11.717,40.198z"/>
	</g>
	<g>
		<defs>
			<path id="XMLID_00000120524202942941011950000007876605530592464817_" d="M44.98,36.025c-1.069-1.253,0-7.297,1.525-7.604
				c2.931-0.59,6.545-2.986,10.438-2.892c5.417,0.131,5.522,1.373,7.819,1.894c3.138,0.711,4.476,6.671,3.519,8.667
				C67.443,37.841,46.111,37.35,44.98,36.025z"/>
		</defs>
		<use xlink:href="#XMLID_00000120524202942941011950000007876605530592464817_"  overflow="visible" fill="#F5C178"/>
		<clipPath id="XMLID_4_">
			<use xlink:href="#XMLID_00000120524202942941011950000007876605530592464817_"  overflow="visible"/>
		</clipPath>
		<path clip-path="url(#XMLID_4_)" fill="#FFEBCC" d="M48.114,26.925c-2.349,1.392-2.082,2.886,2.503,2.657
			c4.774-0.238,2.983,0.498,7.539,0.849c5.942,0.458,12.2-0.896,6.508-3.951C61.577,24.824,55.483,22.557,48.114,26.925z"/>
		<path clip-path="url(#XMLID_4_)" fill="#EDAE5C" d="M43.674,37.266l-0.665-3.704c0,0,1.612-1.192,4.556-0.739
			c4.792,0.739,8.063,3.123,13.377,2.758c2.935-0.201,5.066-2.057,8.061-0.557l-0.421,3.4L43.674,37.266z"/>
		<path clip-path="url(#XMLID_4_)" fill="#EDAE5C" d="M47.62,30.097c0.881,0.107,0.37,1.405-0.166,1.294
			C46.407,31.174,46.884,30.007,47.62,30.097z"/>
		<path clip-path="url(#XMLID_4_)" fill="#EDAE5C" d="M49.129,30.86c0.892,0.107,1.045,2.076-0.403,1.656
			C47.51,32.163,48.29,30.759,49.129,30.86z"/>
	</g>
	<path fill="#8DAA60" d="M62.776,38.446c0,0,1.628-4.226-0.377-5.729c-2.031-1.523-4.251-0.451-5.098,0.436
		c-1.238,1.294,0.062,5.202,0.062,5.202L62.776,38.446z"/>
	<g>
		<path fill="#EDAE5C" d="M41.429,17.364c1.026-0.384,5.95,3.246,5.779,4.712c-0.121,1.032-2.914,4.109-4.295,3.945
			C40.689,25.756,39.779,17.981,41.429,17.364z"/>
		<path fill="#F5C178" d="M41.68,17.336c1.185,0.241,2.494,7.622,1.569,8.605c-0.684,0.729-6.816-1.866-6.718-3.186
			C36.631,21.392,40.535,17.104,41.68,17.336z"/>
	</g>
	<g>
		<path fill="#EDAE5C" d="M51.885,18.351c1.282-0.183,5.038,2.804,4.846,3.575c-0.293,1.173-2.741,2.906-2.741,2.906
			S51.938,19.601,51.885,18.351z"/>
		<path fill="#F5C178" d="M51.885,18.351c0.732,0,2.627,5.994,2.104,6.481c-0.563,0.525-6.21-0.943-6.21-1.879
			C47.779,21.98,51.189,18.351,51.885,18.351z"/>
	</g>
	<path fill="#9DB361" d="M55.285,40.376c0,0,1.276-3.028-0.255-4.234c-1.552-1.222-3.949-0.759-4.809,0.129
		c-1.256,1.296,0.315,4.033,0.315,4.033L55.285,40.376z"/>
	<g>
		<path fill="#8DAA60" d="M32.153,35.054c0,0,6.061-4.042,4.938-6.777c-1.095-2.664-4.462-1.446-5.374,0.459
			c-1.646,3.437-1.363,5.58-1.363,5.58L32.153,35.054z"/>
		<path fill="#8DAA60" d="M29.213,35.978l0.444-0.702c0,0-1.917-6.942-4.841-4.812C21.929,32.568,29.213,35.978,29.213,35.978z"/>
		<path fill="#839E59" d="M32.432,39.311c0,0,3.92-7.045-0.899-8.281c-3.793-0.972-5.097,3.501-2.321,8.281H32.432z"/>
	</g>
	<path fill="#EDB64A" d="M32.292,53.387c0.815-0.616,1.678,0.675,1.678,0.675s0.302-2.07,1.499-2.07
		c1.571,0,0.785,4.142,0.785,4.142h-3.784C32.469,56.133,31.398,54.062,32.292,53.387z"/>
	<path fill="#FFDE96" d="M5.954,39.984c4.196,0.227,9.794,5.471,1.404,5.471C-4.238,45.455,1.999,39.771,5.954,39.984z"/>
	<path fill="#FFEBCC" d="M73.176,12.994c2.937-2.318-0.316-8.087-4.324-8.517c-4.007-0.43-5.621,3.378-5.621,3.378
		s-1.258-2.472-4.521-2.292c-3.263,0.18-6.344,5.537-3.87,7.29C56.682,14.159,71.839,14.05,73.176,12.994z"/>
	<path fill="#8DAA60" d="M46.521,11.126c0.275-1.329,2.145-1.648,2.921-0.486c0.459,0.687,0.343,1.822,0.343,1.822
		s1.626-0.642,1.798,0.444c0.125,0.79-1.68,1.234-1.68,1.234l0.004,2.517l-4.1-0.022l0.184-1.952c0,0-1.277-0.592-1.396-1.333
		c-0.203-1.287,1.676-0.642,1.676-0.642S46.376,11.83,46.521,11.126z"/>
	<path fill="#FFEBCC" d="M18.163,49.53C12.604,49.954,7.827,52.5,7.97,55.134c0.14,2.585,4.148,4.47,7.66,4.628
		c15.923,0.715,15.398,8.146,20.098,8.156c4.209,0.01,7.473-7.509,7.291-12.129C42.789,49.954,28.636,48.73,18.163,49.53z"/>
	<path fill="#E6C47F" d="M55.038,50.164c0,0,1.207,9.768,5.523,10.334c6.475,0.849,11.368-3.154,11.559-10.793L55.038,50.164z"/>
	<path fill="#FFDE96" d="M61.097,46.092c-3.622,0.288-8.759,4.163-4.368,4.981c4.703,0.877,9.009,3.291,11.374,2.988
		c4.051-0.518,4.526-4.498,3.583-5.451C69.907,46.814,67.754,45.561,61.097,46.092z"/>
	<g>
		<path fill="#8DAA60" d="M61.146,49.448c0,0-0.598-5.813,0.936-7.053c1.232-0.996,4.479-0.685,4.997,0.917
			c0.569,1.761-0.786,6.277-0.786,6.277L61.146,49.448z"/>
		<path fill="#FFFFFF" d="M67.702,42.859c0,0,1.203-0.722,0.648-1.462c-0.556-0.74-1.597,0.462-1.597,0.462
			s-0.624-1.434-1.388-0.971c-0.764,0.462,0.139,1.72,0.139,1.72s-1.411,0.57-0.925,1.24c0.485,0.671,1.907,0,1.907,0
			s0.452,1.019,1.331,0.74C68.697,44.312,68.604,43.558,67.702,42.859z"/>
		<path fill="#FF9841" d="M62.956,46.137c0.588-1.091,0.12-2.324-1.587-2.187c-1.706,0.138-2.125,1.987-0.928,2.674
			C61.663,47.324,62.627,46.747,62.956,46.137z"/>
	</g>
	<path fill="#FFDE96" d="M18.617,50.614c-4.35,0.235-7.89,3.197-3.579,4.552c4.647,1.461,9.362,0.909,11.776,0.619
		c4.133-0.496,4.446-2.064,3.483-2.977C28.484,51.089,25.417,50.246,18.617,50.614z"/>
	<path fill="#8DAA60" d="M23.238,46.139c0,0-0.194-1.624-0.463-2.922c-0.508-2.456-3.96-3.045-5.395-0.897
		c-0.848,1.268-0.633,3.364-0.633,3.364s-3.002-1.186-3.32,0.82c-0.231,1.458,3.103,2.278,3.103,2.278l-0.007,4.648l7.572-0.041
		l-0.34-3.604c0,0,2.36-1.094,2.577-2.461C26.708,44.947,23.238,46.139,23.238,46.139z"/>
</g>
</svg>
