<?xml version="1.0" encoding="utf-8"?>
<!-- Generator: Adobe Illustrator 16.0.0, SVG Export Plug-In . SVG Version: 6.00 Build 0)  -->
<!DOCTYPE svg PUBLIC "-//W3C//DTD SVG 1.1//EN" "http://www.w3.org/Graphics/SVG/1.1/DTD/svg11.dtd">
<svg version="1.1" id="圖層_1" xmlns="http://www.w3.org/2000/svg" xmlns:xlink="http://www.w3.org/1999/xlink" x="0px" y="0px"
	 width="75px" height="75px" viewBox="0 0 75 75" enable-background="new 0 0 75 75" xml:space="preserve">
<g>
	<path fill="#DADC8F" d="M2.827,38.92c0,0-0.476,15.686,6.665,20.302c4.401,2.848,9.923,5.829,13.769,9.861
		c10.071,10.565,34.263,5.893,36.975-5.453c1.205-5.038,6.64-3.213,8.798-7.595s3.147-16.302,3.147-16.302L2.827,38.92z"/>
	<path fill="#E9EB9A" d="M51.802,56.08c0,0,1.205,9.758,5.516,10.322c6.466,0.848,11.356-3.149,11.546-10.78L51.802,56.08z"/>
	<path fill="#D58018" d="M50.332,15.16c0-1.247,0.879-3.064,2.253-3.064c1.821,0,3.013,3.708,1.736,4.567
		C53.185,17.427,50.332,17.496,50.332,15.16"/>
	<path fill="#D58018" d="M44.747,14.988c0-1.62,1.142-3.983,2.928-3.983c2.368,0,3.916,4.818,2.257,5.936
		C48.454,17.935,44.747,18.024,44.747,14.988"/>
	<path fill="#BFB022" d="M21.359,19.009c-3.626-3.747,1.676-13.098,6.625-13.793c4.948-0.694,7.716,5.778,7.716,5.778
		s1.553-3.997,5.583-3.705c4.029,0.292,7.834,8.951,4.779,11.783C43.786,21.183,23.01,20.716,21.359,19.009"/>
	<path fill="#E68729" d="M12.556,30.146c-14.158,2.15-13.021,17.292,4.414,19.657c18.675,2.53,31.332,1.791,40.552-0.099
		C73.307,46.47,74.13,39.425,70.2,35.614C62.797,28.429,38.574,26.196,12.556,30.146"/>
	<path fill="#AED26C" d="M57.852,52.013c-3.617,0.288-8.748,4.159-4.36,4.977c4.695,0.875,9.165,0.947,11.527,0.645
		c4.046-0.518,4.353-2.153,3.41-3.104C66.652,52.735,64.502,51.482,57.852,52.013"/>
	<path fill="#76A82F" d="M30.871,30.85c-2.785-8.726,6.882-18.436,15.032-15.789c7.646,2.482,9.368-1.289,13.805,2.458
		c5.614,4.74,6.402,13.654,4.006,15.145C57.37,36.609,32.363,35.53,30.871,30.85"/>
	<path fill="#C0B927" d="M59.196,32.303c0-2.559,1.805-6.291,4.625-6.291c3.739,0,6.188,7.613,3.564,9.377
		C65.053,36.958,59.196,37.101,59.196,32.303"/>
	<path fill="#D3C82C" d="M55.072,34.119c-1.427,1.747-42.886,1.868-44.784-0.5c-2.748-3.431,2.547-19.081,14.689-19.332
		c6.761-0.141,10.045,6.691,15.966,5.524C50.826,17.862,58.782,29.577,55.072,34.119"/>
	<path fill="#EED074" d="M24.969,37.46c-1.824-3.362,0.245-14.878,9.542-15.296c4.15-0.187,8.233,2.62,11.766,2.276
		c14.465-1.402,20.334,12.24,16.337,14.493C59.084,40.922,26.751,40.749,24.969,37.46"/>
	<path fill="#6D887D" d="M41.868,34.734c1.075,0,1.961,9.243,1.186,10.183c-0.342,0.415-1.787,0.39-2.213,0.056
		C40.067,44.364,40.509,34.734,41.868,34.734"/>
	<path fill="#6E311B" d="M36.637,39.773c-0.468-3.463,1.715-14.16,5.089-14.16c3.428,0,5.918,11.45,4.426,15.376
		C45.479,42.759,37.191,43.866,36.637,39.773"/>
	<path fill="#6D887D" d="M33.856,39.265c1.225,0,2.235,7.805,1.351,8.599c-0.389,0.352-2.036,0.329-2.522,0.047
		C31.802,47.396,32.307,39.265,33.856,39.265"/>
	<path fill="#AE7D21" d="M27.893,43.521c-0.535-2.925,1.954-11.957,5.802-11.957c3.908,0,6.749,9.667,5.045,12.983
		C37.973,46.04,28.523,46.977,27.893,43.521"/>
	<path fill="#6E311B" d="M49.107,40.389c-0.367-5.667,2.247-9.639,5.697-9.914c6.344-0.505,7.573,11.456,4.354,13.517
		C56.294,45.825,49.469,45.979,49.107,40.389"/>
	<path fill="#647E72" d="M54.944,36.746c0.682,0,0.7,3.488,0.7,3.488s2.513-1.625,2.863-1.156c0.292,0.391-2.723,2.585-2.723,2.585
		s0.338,5.89-0.049,6.194c-0.373,0.291-1.212,0.275-1.599,0c-0.223-0.159-0.16-4.49-0.16-4.49s-2.458-1.654-2.019-2.092
		c0.413-0.415,2.091,0.583,2.091,0.583S54.215,36.746,54.944,36.746"/>
	<path fill="#FBFADC" d="M57.576,8.541c2.932-2.316-0.317-8.077-4.319-8.507c-4.002-0.429-5.614,3.375-5.614,3.375
		s-1.258-2.469-4.518-2.289C39.867,1.3,36.79,6.649,39.261,8.4C41.102,9.704,56.241,9.596,57.576,8.541"/>
	<path fill="#FBFADC" d="M15.795,15.514c4.192,0.226,9.782,5.463,1.402,5.463C5.616,20.977,11.845,15.301,15.795,15.514"/>
	<path fill="#954F23" d="M60.928,52.682c0.779-0.59,1.604,0.645,1.604,0.645s0.289-1.979,1.434-1.979c1.501,0,0.75,3.959,0.75,3.959
		h-3.617C61.098,55.307,60.074,53.326,60.928,52.682"/>
	<path fill="#536A60" d="M21.398,36.242c0.507-0.06,0.962,3.065,0.962,3.065s1.123-2.287,1.601-2.013
		c0.32,0.183-1.144,2.929-1.144,2.929S23.183,41,23,41.549c-0.148,0.448-2.468,0.448-2.563,0
		C20.254,40.68,20.62,36.333,21.398,36.242"/>
	<path fill="#AE7D21" d="M16,35.738c-2.028-6.164,2.405-11.892,6.146-11.896c3.233-0.001,3.455,3.235,5.293,5.352
		c2.105,2.425,1.302,5.909-1.237,8.282C24.785,38.805,17.097,39.078,16,35.738"/>
	<path fill="#C0B927" d="M5.328,37.149c-0.394-5.28,2.417-8.982,6.128-9.237c6.824-0.471,8.146,10.674,4.684,12.595
		C13.057,42.215,5.717,42.359,5.328,37.149"/>
	<path fill="#647E72" d="M11.606,33.755c0.733,0,0.753,3.249,0.753,3.249s2.703-1.513,3.081-1.076c0.314,0.363-2.93,2.41-2.93,2.41
		s0.364,5.486-0.053,5.771c-0.4,0.272-1.304,0.258-1.72,0c-0.239-0.148-0.17-4.185-0.17-4.185s-2.645-1.541-2.173-1.948
		c0.445-0.386,2.25,0.544,2.25,0.544S10.821,33.755,11.606,33.755"/>
	<path fill="#E9EB9A" d="M7.042,51.798c0,0,0,15.341,7.973,16.446c9.071,1.259,9.727,4.944,17.78,2.675
		c8.054-2.269,8.498-11.006,9.258-18.466L7.042,51.798z"/>
	<path fill="#E68729" d="M14.895,46.351c-7.138,0.535-11.82,7.067-3.167,8.58c9.267,1.622,18.083,1.756,22.744,1.195
		c7.981-0.959,8.588-3.987,6.729-5.749C37.696,47.057,28.011,45.37,14.895,46.351"/>
	<path fill="#954F23" d="M16.614,49.47l5.9-0.233c0-1.778-0.62-4.885-1.825-4.96c-0.826-0.052-1.055,1.581-1.055,1.581
		s-0.387-2.73-1.58-2.56c-1.054,0.15-0.038,3.425-0.038,3.425s-0.845-1.3-1.581-0.678C15.456,46.874,16.614,49.47,16.614,49.47"/>
	<path fill="#954F23" d="M30.016,52.196l-3.284-0.005c-0.804-0.824-0.737-3.367,0.334-3.42c0.736-0.034,0.938,1.09,0.938,1.09
		s0.346-1.882,1.407-1.764c0.939,0.103,0.034,2.361,0.034,2.361s0.753-0.896,1.408-0.468C31.725,50.563,30.016,52.196,30.016,52.196
		"/>
</g>
</svg>
