<?xml version="1.0" encoding="utf-8"?>
<!-- Generator: Adobe Illustrator 16.0.0, SVG Export Plug-In . SVG Version: 6.00 Build 0)  -->
<!DOCTYPE svg PUBLIC "-//W3C//DTD SVG 1.1//EN" "http://www.w3.org/Graphics/SVG/1.1/DTD/svg11.dtd">
<svg version="1.1" id="圖層_1" xmlns="http://www.w3.org/2000/svg" xmlns:xlink="http://www.w3.org/1999/xlink" x="0px" y="0px"
	 width="75px" height="75px" viewBox="0 0 75 75" enable-background="new 0 0 75 75" xml:space="preserve">
<g>
	<path fill="#DADC8F" d="M2.827,38.92c0,0-0.476,15.686,6.664,20.303c4.401,2.848,9.923,5.828,13.77,9.86
		c10.071,10.565,34.262,5.893,36.974-5.453c1.205-5.037,6.64-3.212,8.797-7.595c2.159-4.382,3.148-16.302,3.148-16.302L2.827,38.92z
		"/>
	<path fill="#E9EB9A" d="M51.802,56.081c0,0,1.205,9.757,5.516,10.321c6.467,0.848,11.356-3.149,11.546-10.78L51.802,56.081z"/>
	<path fill="#ECD362" d="M50.333,15.161c0-1.247,0.879-3.064,2.252-3.064c1.821,0,3.013,3.708,1.736,4.567
		C53.185,17.427,50.333,17.496,50.333,15.161"/>
	<path fill="#ECD362" d="M44.747,14.988c0-1.62,1.142-3.983,2.929-3.983c2.366,0,3.915,4.819,2.256,5.936
		C48.454,17.936,44.747,18.025,44.747,14.988"/>
	<path fill="#EFB2C1" d="M21.358,19.009c-3.626-3.747,1.677-13.098,6.625-13.792s7.716,5.778,7.716,5.778s1.554-3.997,5.583-3.705
		c4.028,0.292,7.834,8.951,4.778,11.783C43.786,21.183,23.009,20.716,21.358,19.009"/>
	<path fill="#8B4E92" d="M12.556,30.146c-14.158,2.15-13.021,17.293,4.414,19.657c18.675,2.53,31.332,1.791,40.552-0.099
		c15.785-3.234,16.607-10.279,12.68-14.091C62.797,28.429,38.574,26.196,12.556,30.146"/>
	<path fill="#8B4E92" d="M57.853,52.013c-3.618,0.289-8.748,4.159-4.363,4.978c4.697,0.875,9.166,0.946,11.53,0.645
		c4.045-0.519,4.353-2.154,3.409-3.104C66.652,52.735,64.502,51.482,57.853,52.013"/>
	<path fill="#5E68A8" d="M30.871,30.85c-2.785-8.726,6.882-18.435,15.033-15.789c7.646,2.482,9.367-1.289,13.804,2.458
		c5.615,4.741,6.401,13.654,4.006,15.145C57.37,36.609,32.363,35.53,30.871,30.85"/>
	<path fill="#EFB2C1" d="M59.196,32.303c0-2.559,1.804-6.291,4.624-6.291c3.74,0,6.188,7.612,3.565,9.376
		C65.052,36.958,59.196,37.101,59.196,32.303"/>
	<path fill="#C34689" d="M55.072,34.119c-1.427,1.747-42.888,1.868-44.785-0.501c-2.747-3.431,2.547-19.081,14.689-19.332
		c6.761-0.141,10.045,6.691,15.966,5.524C50.826,17.863,58.781,29.577,55.072,34.119"/>
	<path fill="#5E68A8" d="M24.968,37.461c-1.824-3.362,0.245-14.879,9.542-15.296c4.15-0.187,8.233,2.619,11.767,2.275
		c14.464-1.402,20.333,12.241,16.336,14.493C59.084,40.922,26.751,40.749,24.968,37.461"/>
	<path fill="#6D887D" d="M41.867,34.734c1.076,0,1.962,9.243,1.187,10.184c-0.341,0.414-1.788,0.389-2.213,0.055
		C40.067,44.364,40.509,34.734,41.867,34.734"/>
	<path fill="#E18194" d="M36.637,39.773c-0.469-3.463,1.715-14.16,5.089-14.16c3.428,0,5.918,11.45,4.426,15.377
		C45.479,42.759,37.191,43.866,36.637,39.773"/>
	<path fill="#6D887D" d="M33.856,39.265c1.227,0,2.234,7.806,1.352,8.599c-0.389,0.352-2.036,0.329-2.522,0.047
		C31.804,47.396,32.307,39.265,33.856,39.265"/>
	<path fill="#D72D55" d="M27.893,43.521c-0.535-2.925,1.954-11.956,5.802-11.956c3.908,0,6.749,9.667,5.045,12.983
		C37.973,46.04,28.523,46.977,27.893,43.521"/>
	<path fill="#D63A84" d="M49.107,40.389c-0.367-5.667,2.247-9.639,5.697-9.913c6.344-0.505,7.572,11.456,4.354,13.517
		C56.294,45.825,49.469,45.979,49.107,40.389"/>
	<path fill="#647E72" d="M54.944,36.746c0.682,0,0.7,3.487,0.7,3.487s2.513-1.625,2.863-1.155c0.292,0.39-2.723,2.584-2.723,2.584
		s0.339,5.89-0.049,6.194c-0.373,0.291-1.212,0.276-1.599,0c-0.223-0.159-0.16-4.49-0.16-4.49s-2.458-1.654-2.019-2.092
		c0.413-0.415,2.091,0.584,2.091,0.584S54.215,36.746,54.944,36.746"/>
	<path fill="#FBFADC" d="M57.575,8.541c2.933-2.315-0.316-8.077-4.319-8.507c-4.002-0.429-5.614,3.375-5.614,3.375
		S46.385,0.94,43.125,1.12C39.867,1.3,36.79,6.65,39.261,8.4C41.102,9.704,56.24,9.596,57.575,8.541"/>
	<path fill="#FBFADC" d="M15.796,15.514c4.191,0.226,9.781,5.463,1.402,5.463C5.616,20.977,11.845,15.301,15.796,15.514"/>
	<path fill="#ECD362" d="M60.928,52.682c0.78-0.59,1.603,0.645,1.603,0.645s0.29-1.979,1.436-1.979c1.5,0,0.749,3.959,0.749,3.959
		h-3.617C61.098,55.307,60.074,53.326,60.928,52.682"/>
	<path fill="#536A60" d="M21.398,36.242c0.507-0.06,0.961,3.065,0.961,3.065s1.123-2.287,1.602-2.014
		c0.321,0.183-1.143,2.929-1.143,2.929S23.183,41,23,41.55c-0.148,0.447-2.469,0.448-2.563,0
		C20.253,40.68,20.62,36.334,21.398,36.242"/>
	<path fill="#DD6D80" d="M15.999,35.738c-2.027-6.165,2.406-11.893,6.147-11.896c3.234-0.001,3.456,3.235,5.292,5.352
		c2.105,2.426,1.302,5.909-1.236,8.283C24.785,38.805,17.098,39.078,15.999,35.738"/>
	<path fill="#EBE98E" d="M5.328,37.15c-0.394-5.281,2.417-8.982,6.128-9.238c6.824-0.471,8.147,10.675,4.684,12.596
		C13.057,42.216,5.717,42.359,5.328,37.15"/>
	<path fill="#647E72" d="M11.606,33.756c0.733,0,0.752,3.249,0.752,3.249s2.703-1.513,3.081-1.077
		c0.314,0.363-2.929,2.411-2.929,2.411s0.363,5.485-0.054,5.771c-0.399,0.271-1.304,0.258-1.719,0
		c-0.24-0.148-0.17-4.186-0.17-4.186s-2.645-1.541-2.173-1.948c0.445-0.386,2.25,0.544,2.25,0.544S10.821,33.756,11.606,33.756"/>
	<path fill="#E9EB9A" d="M7.041,51.799c0,0,0,15.34,7.974,16.445c9.07,1.259,9.727,4.944,17.78,2.676
		c8.054-2.27,8.497-11.007,9.257-18.467L7.041,51.799z"/>
	<path fill="#8B4E92" d="M14.894,46.352c-7.137,0.534-11.819,7.066-3.167,8.58c9.267,1.621,18.082,1.755,22.744,1.195
		c7.981-0.959,8.588-3.987,6.729-5.749C37.696,47.057,28.012,45.37,14.894,46.352"/>
	<path fill="#EBE98E" d="M16.613,49.47l5.901-0.232c0-1.778-0.621-4.886-1.827-4.96c-0.825-0.053-1.054,1.581-1.054,1.581
		s-0.388-2.73-1.581-2.561c-1.054,0.151-0.038,3.426-0.038,3.426s-0.845-1.301-1.581-0.678C15.455,46.874,16.613,49.47,16.613,49.47
		"/>
	<path fill="#EBE98E" d="M30.016,52.197l-3.284-0.006c-0.804-0.824-0.737-3.367,0.334-3.419c0.736-0.035,0.938,1.089,0.938,1.089
		s0.347-1.881,1.407-1.764c0.939,0.103,0.034,2.361,0.034,2.361s0.753-0.896,1.408-0.468C31.724,50.563,30.016,52.197,30.016,52.197
		"/>
</g>
</svg>
