<?xml version="1.0" encoding="utf-8"?>
<!-- Generator: Adobe Illustrator 16.0.0, SVG Export Plug-In . SVG Version: 6.00 Build 0)  -->
<!DOCTYPE svg PUBLIC "-//W3C//DTD SVG 1.1//EN" "http://www.w3.org/Graphics/SVG/1.1/DTD/svg11.dtd">
<svg version="1.1" id="圖層_1" xmlns="http://www.w3.org/2000/svg" xmlns:xlink="http://www.w3.org/1999/xlink" x="0px" y="0px"
	 width="75px" height="75px" viewBox="0 0 75 75" enable-background="new 0 0 75 75" xml:space="preserve">
<g id="B2_x5F_land">
	<path fill="#31AEB2" d="M26.793,25.116c-2.768-7.487,6.844-15.818,14.95-13.547c7.604,2.13,9.314-1.106,13.727,2.108
		c5.584,4.068,6.367,11.716,3.984,12.995C53.146,30.058,28.278,29.133,26.793,25.116z"/>
	<g>
		<g>
			<defs>
				<path id="XMLID_00000019646317058055838680000006399288294798943131_" d="M32.102,16.229c-1.597-0.339-7.729-1.548-8.362-6.372
					c-0.545-4.156,3.603-7.29,7.763-7.29c2.573,0,1.544,1.609,2.53,1.606c0.817-0.003,0.229-1.376,3.517-2.423
					c3.775-1.201,9.236,1.326,9.242,2.702c0.007,1.73,1.315,2.168,3.068,1.973c1.931-0.214,4.589,2.67,3.646,4.932
					c-0.779,1.869-3.181,4.429-6.857,4.991C43.384,16.848,35.621,16.977,32.102,16.229z"/>
			</defs>
			<use xlink:href="#XMLID_00000019646317058055838680000006399288294798943131_"  overflow="visible" fill="#FFCE78"/>
			<clipPath id="XMLID_2_">
				<use xlink:href="#XMLID_00000019646317058055838680000006399288294798943131_"  overflow="visible"/>
			</clipPath>
			<path clip-path="url(#XMLID_2_)" fill="#FC9749" d="M29.702,12.563c-5.318-2.265-4.193-6.861-0.151-7.702
				c3.554-0.739,3.068,2.469,5.771,1.482c1.938-0.708,7.681,0.408,5.447,4.933C38.611,15.645,31.741,13.432,29.702,12.563z"/>
			<path clip-path="url(#XMLID_2_)" fill="#FFB14D" d="M52.124,17.79c0,0,1.768-5.782-1.029-6.817
				c-4.142-1.533-9.438,1.003-11.954,0.196c-2.517-0.806-10.478-6.158-13.781-0.239c-1.119,2.004-0.43,6.702-0.43,6.702
				L52.124,17.79z"/>
		</g>
		<path fill="#FC9749" d="M38.294,5.678c-1.501-0.754-0.054-3.044,2.527-1.59C42.411,4.983,40.491,6.782,38.294,5.678z"/>
		<path fill="#FC9749" d="M42.645,5.737c-2.648,1.145-0.421,3.145,0.902,3.691c3.084,1.272,5.339,0.822,4.519-1.804
			C47.677,6.38,44.33,5.009,42.645,5.737z"/>
	</g>
	<path id="XMLID_00000117661709377475825480000010650425076224627610_" fill="#6E7D6D" d="M4.415,37.029
		c0,0,0.661,19.512,7.551,23.968c4.248,2.747,9.576,5.624,13.286,9.516c9.719,10.195,31.943,1.309,34.562-9.639
		c1.163-4.862,6.407-3.101,8.49-7.329c2.082-4.229,3.037-15.731,3.037-15.731L4.415,37.029z"/>
	<path fill="#0095A3" d="M13.803,28.563C0.141,30.638,1.238,45.25,18.063,47.531c18.021,2.442,30.235,1.729,39.131-0.095
		c15.232-3.121,16.026-9.92,12.236-13.598C62.285,26.905,38.91,24.75,13.803,28.563z"/>
	<g>
		<defs>
			<path id="XMLID_00000071519078823591224580000015562326415640827787_" d="M10.27,29.971c-2.089-1.2,0.175-9.019,4.445-11.541
				c2.875-1.698,5.072-4.417,11.085-4.272c8.369,0.202,8.532,2.12,12.079,2.924c4.848,1.099,9.503,10.098,8.026,13.18
				C44.607,32.968,19.973,35.546,10.27,29.971z"/>
		</defs>
		<use xlink:href="#XMLID_00000071519078823591224580000015562326415640827787_"  overflow="visible" fill="#EBBC82"/>
		<clipPath id="XMLID_3_">
			<use xlink:href="#XMLID_00000071519078823591224580000015562326415640827787_"  overflow="visible"/>
		</clipPath>
		<path clip-path="url(#XMLID_3_)" fill="#F5D9B0" d="M13.813,19.217c3.695,3.328,11.675-0.143,18.713,0.4
			c9.179,0.708,13.661,1.628,6.66-3.481C32.863,11.522,7.277,13.331,13.813,19.217z"/>
		<path clip-path="url(#XMLID_3_)" fill="#E3A966" d="M6.645,33.279l1.285-6.284c0,0,2.805-1.257,7.274-0.109
			c5.788,1.486,11.401,2.244,17.014-0.05c3.382-1.382,7.373-3.673,14.586-1.945l0.744,9.71L6.645,33.279z"/>
		<path clip-path="url(#XMLID_3_)" fill="#E3A966" d="M38.953,20.838c2.764-0.194,3.227,2.398,0.253,2.759
			C34.004,24.23,36.276,21.026,38.953,20.838z"/>
	</g>
	<path fill="#7D8C77" d="M13.694,56.342c0,0,0.693,14.506,4.541,16.181c3.072,1.338,6.883,1.463,9.009-0.541
		c2.262-2.133,2.702-7.597,2.916-16.082L13.694,56.342z"/>
	<path fill="#00749C" d="M19.534,52.416c-3.491,0.278-8.442,4.014-4.21,4.803c4.533,0.845,8.845,0.915,11.125,0.623
		c3.904-0.5,4.2-2.079,3.291-2.997C28.026,53.113,25.951,51.904,19.534,52.416z"/>
	<path fill="#7D8C77" d="M67.529,51.459c0,0,0,14.804-7.693,15.871c-8.753,1.215-9.387,4.771-17.158,2.581
		c-7.772-2.189-8.2-10.621-8.932-17.82L67.529,51.459z"/>
	<path fill="#0095A3" d="M59.952,46.203c6.888,0.516,11.405,6.819,3.057,8.279c-8.943,1.564-17.45,1.694-21.948,1.153
		c-7.702-0.925-8.287-3.848-6.493-5.548C37.949,46.884,47.295,45.256,59.952,46.203z"/>
	<path fill="#FDE459" d="M30.805,21.671c-2.731-0.987-2.834,1.072-2.646,2.471c0.476,3.524,3.521,5.12,1.561,7.503
		c-2.371,2.883,0.912,4.437,0.912,4.437s4.554-1.075,2.112-5.02c-1.135-1.832-0.365-2.664,0.736-4.074
		C34.558,25.608,33.546,22.662,30.805,21.671z"/>
	<path fill="#5CC7A3" d="M28.614,36.646c0,0,1.706-1.851,0.24-3.351c-1.676-1.716,0.676-2.65-0.543-4.656
		c-1.661-2.733-4.616-1.457-4.616,0.932C23.695,34.456,28.614,36.646,28.614,36.646z"/>
	<g>
		<path fill="#ABD46A" d="M20.704,32.231c3.349-1.04,3.036-7.392,1.705-10.656c0,0,2.946,1.324,3.632,4.13
			c1.223,4.998-2.77,6.967-4.864,8.193c-5.34,3.127-3.961,8.987-3.961,8.987S8.52,36.014,20.704,32.231z"/>
		<path fill="#E0E070" d="M17.216,42.887c0,0-1.62-2.775-6.618-6.873c-6.53-5.353-1.104-14.438-1.104-14.438
			S-0.3,23.789,5.491,30.95c3.125,3.864,0.561,5.722,3.284,8.985C11.083,42.704,17.216,42.887,17.216,42.887z"/>
		<path fill="#2C806B" d="M14.318,40.838c-3.742-4.004-0.543-7.215,2.384-11.885c4.287-6.839-3.263-9.929-3.263-9.929
			s7.802-2.808,8.458,4.847c0.605,7.062-7.231,7.011-4.682,19.016C17.216,42.887,15.651,42.264,14.318,40.838z"/>
		<path fill="#E0E070" d="M23.192,38.706c1.611-3.083,0.638-8.61-3.901-10.163c0,0,2.607,5.573,1.087,9.344
			c-1.676,4.157-3.162,5-3.162,5S21.98,41.026,23.192,38.706z"/>
		<path fill="#ABD46A" d="M13.033,15.264c0,0-8.499,1.135-3.228,9.148c4.787,7.278-0.532,7.565,0.793,13.064
			c1.205,5,6.618,5.41,6.618,5.41s-4.542-2.558-4.184-5.164c0.709-5.164,5.46-6.147,2.746-11.147
			C13.065,21.576,10.438,21.084,13.033,15.264z"/>
	</g>
	<path fill="#FFB14D" d="M18.801,55.867c-0.588-0.318-1.865-3.381-0.831-4.774c0.451-0.607,1.431-0.633,1.823-0.257
		c0.517,0.496,0.796,1.872,0.796,1.872s0.44-0.871,0.992-1.14c0.833-0.404,1.617,0,1.617,1.121c0,1.7-1.163,2.908-1.58,3.202
		C21.291,56.123,19.28,56.127,18.801,55.867z"/>
	<path fill="#FFD53D" d="M62.145,29.854c4.562-0.714,8.188-9.958,4.562-10.646c-2.243-0.426-2.79,3.897-3.65,3.53
		c-0.86-0.367,4.911-9.625,0.705-11.054c-4.206-1.429-3.385,7.86-4.935,7.622c-1.278-0.197,2.083-7.038-2.015-7.038
		c-3.176,0-1.554,6.132-2.607,6.068c-1.818-0.112-0.716-8.546-4.901-6.651c-4.237,1.917,1.685,8.802,0.508,9.257
		c-1.313,0.508-2.081-3.96-4.745-1.734c-2.669,2.231,3.595,10.542,6.148,11.015C53.768,30.698,59.315,30.297,62.145,29.854z"/>
	<path fill="#FF7361" d="M31.608,18.153c1.285-1.256,3.612,1.285,4.229,0.031c0.523-1.065-2.607-1.345-2.543-3.282
		c0.062-1.851,2.564-1.964,3.251-0.041c0.438,1.226,3.171,3.854,3.774,2.529c0.239-0.527-0.522-1.646-1.325-1.846
		c-1.982-0.496-2.609-3.412,0.081-2.97c1.778,0.292,2.408,2.328,3.233,2.263c0.431-0.034,0.428-1.033-0.136-1.474
		c-2.775-2.171-2.985-4.313-2.014-5.047c1.276-0.964,2.117,0.408,2.337,1.78c0.146,0.909,1.371,0.841,1.239-0.041
		c-0.297-1.995,0.923-4.155,2.203-4.616c1.141-0.411,2.429,0.101,2.731,1.055c0.543,1.713-2.867,2.478-1.706,3.872
		c0.76,0.912,1.97-1.331,3.671-0.401c1.625,0.887,0.172,3.412-2.256,3.171C47.002,13,45.679,13.857,45,15.213
		c-0.588,1.174,0.571,2.79,1.059,2.699c2.331-0.434,0.391-2.639,1.926-3.572c0.595-0.361,1.731-0.278,2.091,0.88
		c0.365,1.18,0.095,2.652-1.542,3.831c-0.724,0.521,0.082,1.446,0.835,0.917c1.137-0.8,2.924-1.387,3.123,0.2
		c0.151,1.208-1.223,2.681-4.74,2.878c-1.492,0.084-0.527,1.549-1.091,1.931c-0.494,0.334-2.829,0.327-3.572-0.201
		c-0.743-0.528-0.612-1.388-0.161-2.167c0.441-0.763-0.16-2.248-1.218-2.609c-1.692-0.578-3.719-0.201-5.205,0.963
		c-1.588,1.245-3.525,0.872-4.522,0.142C31.004,20.388,30.891,18.854,31.608,18.153z"/>
	<g>
		<defs>
			<path id="XMLID_00000044858849383306390150000007567240932185795254_" d="M57.198,39.571c0.999-1.152,0.714-9.165-1.574-11.34
				c-1.54-1.465-1.708-4.364-4.931-4.239c-4.484,0.174-7.682-1.35-11.31,1.333c-2.937,2.172-4.705,9.724-3.752,13.564
				C36.551,42.598,54.024,43.236,57.198,39.571z"/>
		</defs>
		<use xlink:href="#XMLID_00000044858849383306390150000007567240932185795254_"  overflow="visible" fill="#EBBC82"/>
		<clipPath id="XMLID_4_">
			<use xlink:href="#XMLID_00000044858849383306390150000007567240932185795254_"  overflow="visible"/>
		</clipPath>
		<path clip-path="url(#XMLID_4_)" fill="#F5D9B0" d="M55.16,26.936c-0.767,2.5-11.237,3.212-15.797,1.357
			c-2.282-0.928-2.38-3.44,0.709-6.096C44.605,18.299,57.521,19.235,55.16,26.936z"/>
		<path clip-path="url(#XMLID_4_)" fill="#E3A966" d="M58.688,41.837l1.809-8.378c0,0-1.545-0.056-4.05,0.434
			c-3.293,0.644-7.819,1.086-10.827-0.893c-1.813-1.192-7.434-2.84-11.009-0.59l-0.327,9.789L58.688,41.837z"/>
		<path clip-path="url(#XMLID_4_)" fill="#E3A966" d="M49.098,29.603c-1.304-0.128-2.891,2.997,0.438,2.723
			C50.966,32.208,50.787,29.768,49.098,29.603z"/>
		<path clip-path="url(#XMLID_4_)" fill="#A87545" d="M51.968,35.832c-4.03,0-3.208,3.967-1.6,4.11
			C55.714,40.419,54.064,35.832,51.968,35.832z"/>
		<path clip-path="url(#XMLID_4_)" fill="#A87545" d="M38.925,41.911c-0.298-3.969-0.438-9.349,3.606-8.624
			c3.842,0.689,3.058,8.829,3.058,8.829L38.925,41.911z"/>
	</g>
	<path fill="#BEC464" d="M70.156,30.287c0.205-1.877-2.025-4.393-4.883-2.278c-3.413,2.525-0.192,7.95-2.68,9.168
		c-2.359,1.156-1.017,2.954,0.529,4.274c0,0,3.223-1.849,2.699-2.997c-0.966-2.119,0.244-1.919,2.078-4.381
		C68.514,33.25,69.959,32.09,70.156,30.287z"/>
	<path fill="#5CC7A3" d="M60.49,19.759c2.978-0.566,6.849,5.739,2.431,9.124c-2.474,1.895-4.006,4.361-1.953,7.258
		c3.249,4.585,0.918,4.605-0.004,5.312c0,0-3.385-0.816-3.165-3.287c0.204-2.295-5.162-5.321-0.603-9.161
		C59.91,26.72,57.797,20.271,60.49,19.759z"/>
	<path fill="#FDE459" d="M65.022,30.55c-0.256-2.228-6.997-2.047-5.017,1.342c2.376,4.066-3.087,5.051,0.958,9.561
		c0,0,4.13-1.4,2.033-4.687C62.03,35.25,65.226,32.324,65.022,30.55z"/>
	<g>
		<defs>
			<path id="XMLID_00000084529190486950771700000013698907289346648220_" d="M63.102,42.406c0.747-1.274,0.384-3.487-1.95-4.963
				c-1.691-1.069-3.623-0.692-5.158-0.791c-1.284-0.082-2.079,0.524-2.424,1.129c-0.508,0.89-0.505,0.917-1.606,0.97
				c-1.489,0.072-1.81,3.17-0.691,4.314c1.001,1.024,1.899,1.42,3.977,1.597C58.938,44.978,61.448,45.225,63.102,42.406z"/>
		</defs>
		<use xlink:href="#XMLID_00000084529190486950771700000013698907289346648220_"  overflow="visible" fill="#FFA98C"/>
		<clipPath id="XMLID_5_">
			<use xlink:href="#XMLID_00000084529190486950771700000013698907289346648220_"  overflow="visible"/>
		</clipPath>
		<path clip-path="url(#XMLID_5_)" fill="#FFC4B0" d="M52.991,45.489c0,0-0.975-3.398,4.34-4.374c5.313-0.976,7.381,0.68,7.381,0.68
			l-1.536,5.911L52.991,45.489z"/>
	</g>
	<path fill="#FFA98C" d="M22.535,46.071c-0.333-2.138-1.813-3.642-2.188-4.246c-0.67-1.083,0.052-2.359,1.342-2.011
		c1.024,0.276,1.859,3.814,2.387,1.886c0.22-0.805,0.083-3.073,1.027-3.656c0.446-0.275,1.776-0.388,2.088,0.485
		c0.545,1.526-0.93,2.834-0.271,3.213c0.352,0.202,0.603-0.897,1.457-1.068c0.833-0.167,1.728,0.562,1.52,1.478
		c-0.345,1.515-2.796,1.638-3.019,3.913C26.78,47.072,22.692,47.076,22.535,46.071z"/>
	<path fill="#FFC954" d="M48.599,52.398c-0.816-2.335-4.155-2.923-4.182-4.253c-0.015-0.716,0.487-1.529,1.34-1.332
		c0.886,0.206,2.025,1.574,2.712,0.888c0.795-0.795-1.794-4.12-1.382-5.285c0.222-0.626,0.748-1.229,1.788-0.815
		c0.952,0.378,0.67,2.229,1.146,2.102c0.295-0.078,0.725-1.774,1.614-2.581c0.714-0.647,2.243,0.054,2.155,1.11
		c-0.121,1.457-2.484,2.903-2.688,4.188c-0.177,1.114,0.301,1.822,0.664,1.798c0.569-0.038,1.191-2.834,2.24-3.812
		c0.912-0.85,2.368-0.255,2.295,0.68c-0.073,0.923-2.259,3.021-1.659,3.232c0.274,0.098,1.368-0.283,2.365-0.635
		c1.307-0.461,2.368,0.41,1.786,1.433c-0.897,1.578-3.495,0.777-4.263,2.913C54.234,52.858,48.813,53.014,48.599,52.398z"/>
	<path fill="#EDFFFE" d="M19.51,3.798c2.114-0.674,5.638,0.608,6.338,2.136c0.822,1.793-1.237,5.269-4.467,5.09
		C15.514,10.7,16.815,4.658,19.51,3.798z"/>
	<path fill="#EDFFFE" d="M33.517,24.446c2.456,0.004,5.526,4.003,0.654,4.472C29.797,29.339,30.448,24.441,33.517,24.446z"/>
	<path fill="#EDFFFE" d="M36.167,30.704c1.915,0.141,3.098,2.868,0.547,2.868C32.686,33.571,34.363,30.571,36.167,30.704z"/>
	<path fill="#EDFFFE" d="M52.465,0.004c1.914,0.141,3.098,2.867,0.547,2.867C48.984,2.872,50.661-0.128,52.465,0.004z"/>
	<path fill="#EDFFFE" d="M12.612,27.644c1.914,0.141,3.097,2.867,0.546,2.867C9.131,30.511,10.808,27.511,12.612,27.644z"/>
</g>
</svg>
