<?xml version="1.0" encoding="utf-8"?>
<!-- Generator: Adobe Illustrator 16.0.0, SVG Export Plug-In . SVG Version: 6.00 Build 0)  -->
<!DOCTYPE svg PUBLIC "-//W3C//DTD SVG 1.1//EN" "http://www.w3.org/Graphics/SVG/1.1/DTD/svg11.dtd">
<svg version="1.1" id="圖層_1" xmlns="http://www.w3.org/2000/svg" xmlns:xlink="http://www.w3.org/1999/xlink" x="0px" y="0px"
	 width="75px" height="75px" viewBox="0 0 75 75" enable-background="new 0 0 75 75" xml:space="preserve">
<g>
	<path fill="#DADC8F" d="M2.827,38.92c0,0-0.476,15.686,6.665,20.303c4.401,2.848,9.922,5.828,13.768,9.861
		c10.072,10.565,34.262,5.892,36.976-5.454c1.205-5.037,6.64-3.212,8.797-7.594c2.159-4.383,3.148-16.303,3.148-16.303L2.827,38.92z
		"/>
	<path fill="#E9EB9A" d="M51.801,56.081c0,0,1.205,9.757,5.516,10.321c6.467,0.848,11.356-3.149,11.548-10.78L51.801,56.081z"/>
	<path fill="#472E85" d="M50.333,15.16c0-1.247,0.877-3.064,2.25-3.064c1.823,0,3.015,3.708,1.737,4.567
		C53.184,17.427,50.333,17.496,50.333,15.16"/>
	<path fill="#472E85" d="M44.747,14.988c0-1.62,1.141-3.983,2.927-3.983c2.368,0,3.917,4.819,2.257,5.936
		C48.453,17.935,44.747,18.025,44.747,14.988"/>
	<path fill="#88C0E5" d="M21.359,19.009c-3.627-3.747,1.677-13.098,6.625-13.793c4.947-0.694,7.715,5.778,7.715,5.778
		s1.555-3.996,5.584-3.705c4.028,0.292,7.834,8.95,4.778,11.783C43.785,21.183,23.009,20.716,21.359,19.009"/>
	<path fill="#FFFFFF" d="M12.555,30.146c-14.157,2.15-13.021,17.293,4.415,19.658c18.675,2.531,31.332,1.792,40.55-0.099
		c15.786-3.234,16.608-10.279,12.68-14.091C62.796,28.429,38.574,26.196,12.555,30.146"/>
	<path fill="#593788" d="M57.852,52.013c-3.618,0.289-8.747,4.159-4.361,4.978c4.696,0.875,9.165,0.946,11.528,0.645
		c4.045-0.518,4.353-2.154,3.409-3.104C66.652,52.735,64.501,51.482,57.852,52.013"/>
	<path fill="#88C0E5" d="M30.871,30.849c-2.785-8.726,6.882-18.435,15.033-15.789c-8.483-2.754,20.95,8.491,13.804,2.458
		c5.614,4.74,6.401,13.654,4.006,15.145C57.369,36.609,32.363,35.53,30.871,30.849"/>
	<path fill="#0E3480" d="M59.195,32.303c0.001-2.559,1.806-6.291,4.625-6.291c3.74,0,6.188,7.612,3.564,9.376
		C65.052,36.958,59.195,37.101,59.195,32.303"/>
	<path fill="#0E3480" d="M55.07,34.119c-1.425,1.747-42.885,1.868-44.783-0.5c-2.747-3.432,2.547-19.081,14.689-19.332
		c6.761-0.141,10.045,6.691,15.967,5.524C50.826,17.862,58.781,29.577,55.07,34.119"/>
	<path fill="#88C0E5" d="M24.968,37.461c-1.824-3.363,0.245-14.879,9.542-15.296c4.148-0.187,6.529,4.323,10.063,3.979
		c14.463-1.403,22.035,10.536,18.04,12.789C59.083,40.922,26.751,40.749,24.968,37.461"/>
	<path fill="#6D887D" d="M41.867,34.733c1.075,0,1.962,9.244,1.187,10.185c-0.342,0.415-1.788,0.39-2.213,0.056
		C40.067,44.365,40.509,34.733,41.867,34.733"/>
	<path fill="#87AAD4" d="M36.637,39.773c-0.468-3.463,1.715-14.16,5.089-14.16c3.429,0,5.919,11.45,4.426,15.377
		C45.479,42.759,37.19,43.867,36.637,39.773"/>
	<path fill="#6D887D" d="M33.856,39.265c1.226,0,2.234,7.806,1.352,8.599c-0.39,0.352-2.038,0.329-2.522,0.047
		C31.803,47.396,32.307,39.265,33.856,39.265"/>
	<path fill="#87AAD4" d="M27.892,43.521c-0.534-2.926,1.955-11.958,5.803-11.958c3.907,0,6.747,9.667,5.045,12.984
		C37.973,46.041,28.523,46.977,27.892,43.521"/>
	<path fill="#38A1D3" d="M49.107,40.389c-0.367-5.667,2.246-9.639,5.698-9.914c6.342-0.505,7.572,11.456,4.353,13.517
		C56.294,45.825,49.469,45.98,49.107,40.389"/>
	<path fill="#647E72" d="M54.943,36.746c0.682,0,0.701,3.488,0.701,3.488s2.512-1.625,2.861-1.155
		c0.294,0.39-2.722,2.584-2.722,2.584s0.339,5.891-0.05,6.194c-0.371,0.291-1.211,0.276-1.598,0c-0.223-0.159-0.159-4.49-0.159-4.49
		s-2.459-1.654-2.02-2.092c0.414-0.415,2.091,0.584,2.091,0.584S54.215,36.746,54.943,36.746"/>
	<path fill="#FBFADC" d="M57.574,8.541c2.934-2.316-0.316-8.078-4.318-8.507c-4.002-0.429-5.615,3.375-5.615,3.375
		S46.384,0.94,43.125,1.12c-3.259,0.18-6.336,5.529-3.864,7.28C41.102,9.704,56.24,9.596,57.574,8.541"/>
	<path fill="#FBFADC" d="M15.796,15.514c4.192,0.226,9.782,5.463,1.402,5.463C5.616,20.977,11.845,15.301,15.796,15.514"/>
	<path fill="#6EBED1" d="M60.928,52.683c0.779-0.591,1.603,0.644,1.603,0.644s0.29-1.979,1.435-1.979c1.501,0,0.75,3.959,0.75,3.959
		h-3.617C61.098,55.307,60.073,53.326,60.928,52.683"/>
	<path fill="#536A60" d="M21.398,36.242c0.508-0.059,0.961,3.065,0.961,3.065s1.124-2.286,1.602-2.013
		c0.319,0.183-1.144,2.929-1.144,2.929S23.183,41,23,41.549c-0.148,0.449-2.469,0.449-2.563,0
		C20.254,40.68,20.62,36.334,21.398,36.242"/>
	<path fill="#38A1D3" d="M15.999,35.738c-2.027-6.164,2.405-11.893,6.146-11.896c3.235-0.001,3.455,3.235,5.294,5.352
		c2.105,2.425,1.302,5.909-1.236,8.283C24.784,38.805,17.097,39.078,15.999,35.738"/>
	<path fill="#0E3480" d="M5.327,37.15c-0.394-5.281,2.417-8.982,6.129-9.238c6.823-0.471,8.146,10.675,4.684,12.596
		C13.057,42.216,5.717,42.36,5.327,37.15"/>
	<path fill="#647E72" d="M11.606,33.755c0.732,0,0.753,3.249,0.753,3.249s2.703-1.513,3.081-1.076
		c0.313,0.362-2.929,2.41-2.929,2.41s0.363,5.487-0.054,5.771c-0.4,0.271-1.304,0.258-1.72,0c-0.239-0.148-0.17-4.186-0.17-4.186
		s-2.645-1.541-2.174-1.948c0.446-0.387,2.251,0.544,2.251,0.544S10.821,33.755,11.606,33.755"/>
	<path fill="#E9EB9A" d="M7.042,51.799c0,0,0,15.34,7.973,16.446c9.07,1.259,9.726,4.944,17.779,2.675
		c8.054-2.27,8.498-11.006,9.258-18.467L7.042,51.799z"/>
	<path fill="#FFFFFF" d="M14.893,46.352c-7.136,0.534-11.819,7.066-3.166,8.58c9.266,1.622,18.082,1.755,22.744,1.195
		c7.981-0.959,8.587-3.987,6.729-5.749C37.696,47.057,28.012,45.37,14.893,46.352"/>
	<path fill="#593788" d="M16.614,49.471l5.9-0.233c0-1.778-0.621-4.886-1.826-4.96c-0.826-0.053-1.055,1.581-1.055,1.581
		s-0.388-2.73-1.581-2.561c-1.055,0.151-0.038,3.426-0.038,3.426s-0.846-1.3-1.581-0.678C15.456,46.875,16.614,49.471,16.614,49.471
		"/>
	<path fill="#593788" d="M30.016,52.197l-3.283-0.006c-0.805-0.824-0.737-3.367,0.334-3.419c0.736-0.035,0.938,1.089,0.938,1.089
		s0.345-1.881,1.407-1.764c0.939,0.104,0.033,2.361,0.033,2.361s0.753-0.896,1.408-0.467C31.724,50.563,30.016,52.197,30.016,52.197
		"/>
</g>
</svg>
