<?xml version="1.0" encoding="utf-8"?>
<!-- Generator: Adobe Illustrator 16.0.0, SVG Export Plug-In . SVG Version: 6.00 Build 0)  -->
<!DOCTYPE svg PUBLIC "-//W3C//DTD SVG 1.1//EN" "http://www.w3.org/Graphics/SVG/1.1/DTD/svg11.dtd">
<svg version="1.1" id="圖層_1" xmlns="http://www.w3.org/2000/svg" xmlns:xlink="http://www.w3.org/1999/xlink" x="0px" y="0px"
	 width="75px" height="75px" viewBox="0 0 75 75" enable-background="new 0 0 75 75" xml:space="preserve">
<g id="C1_x5F_land">
	<g>
		<defs>
			<path id="XMLID_00000014594941476065788840000017043801035709549440_" d="M47.252,20.306c-0.556,2.312-28.821,2.656-30.341-0.076
				C14.711,16.274,19.75,0,29.109,0c3.076,0,4.664,1.331,6.395,0.926C42.37-0.68,49.346,11.598,47.252,20.306z"/>
		</defs>
		<use xlink:href="#XMLID_00000014594941476065788840000017043801035709549440_"  overflow="visible" fill="#9ECEE8"/>
		<clipPath id="XMLID_2_">
			<use xlink:href="#XMLID_00000014594941476065788840000017043801035709549440_"  overflow="visible"/>
		</clipPath>
		<path clip-path="url(#XMLID_2_)" fill="#FFFFFF" d="M19.708,5.686c-1.375-3.371,4.589-8.973,7.688-9.466
			c3.098-0.494,7.515,0.42,10.037,0.627c2.523,0.207,5.553,4.735,5.553,7.696c0,0.817-1.631,2.104-4.224,2.776
			c-2.806,0.727-7.94,0.28-11.024-0.953C23.703,4.753,20.236,6.98,19.708,5.686z"/>
	</g>
	<g>
		<defs>
			<path id="XMLID_00000024705654843948448910000011734086541636897438_" d="M23.907,27.43c-1.56-8.977,7.424-19.445,14.122-17.21
				c8.357,2.789,12.651-4.021,18.239-0.974c7.862,4.288,10.454,19.651,7.828,21.285C57.144,34.855,24.829,32.736,23.907,27.43z"/>
		</defs>
		<use xlink:href="#XMLID_00000024705654843948448910000011734086541636897438_"  overflow="visible" fill="#ABEBFF"/>
		<clipPath id="XMLID_3_">
			<use xlink:href="#XMLID_00000024705654843948448910000011734086541636897438_"  overflow="visible"/>
		</clipPath>
		<path clip-path="url(#XMLID_3_)" fill="#FFFFFF" d="M50.025,0.542c4.898,0.195,10.531,3.084,12.23,6.806
			c1.386,3.035,2.352,6.964-3.639,8.482c-7.261,1.841-9.97-1.468-22.183-1.479C20.425,14.338,26.077-0.41,50.025,0.542z"/>
	</g>
	<path id="XMLID_00000168821971917359038760000018019661196345321103_" fill="#76B1B5" d="M4.703,40.457
		c0,0-0.447,15.017,6.28,19.438c4.148,2.727,9.351,5.58,12.974,9.441c9.49,10.115,32.284,5.641,34.841-5.221
		c1.136-4.824,6.256-3.077,8.29-7.272c2.033-4.195,2.966-15.607,2.966-15.607L4.703,40.457z"/>
	<path fill="#83C5C9" d="M48.785,57.243c0,0,1.364,11.037,6.241,11.677c7.315,0.96,12.847-3.563,13.062-12.196L48.785,57.243z"/>
	<path fill="#C8EBE3" d="M13.871,28.035C7.43,29.215,3.3,34.26,4.703,40.457c1.132,5.002,4.83,8.547,13.328,9.938
		c17.598,2.88,23.125-0.953,32.065-1.352c14.968-0.667,19.581-4.251,19.958-7.82C71.185,30.536,38.387,23.54,13.871,28.035z"/>
	<path fill="#C8EBE3" d="M55.632,52.641c-4.094,0.326-9.897,4.705-4.937,5.63c5.314,0.99,10.369,1.072,13.043,0.73
		c4.576-0.586,4.924-2.437,3.858-3.514C65.587,53.458,63.153,52.041,55.632,52.641z"/>
	<path fill="#CEFCFF" d="M7.092,32.605c-1.931-3.678,1.231-16.885,11.333-17.203c4.507-0.142,10.028,4.702,13.871,4.386
		c14.751-1.209,16.715,9.89,15.662,14.068C47.416,36.002,8.979,36.202,7.092,32.605z"/>
	<path fill="#83C5C9" d="M6.074,53.293c0,0,0.354,12.029,7.098,13.256c7.672,1.396,8.228,5.48,15.04,2.965
		c6.812-2.515,6.832-7.224,7.475-15.495L6.074,53.293z"/>
	<path fill="#C8EBE3" d="M12.715,48.16c-6.038,0.504-9.997,6.659-2.679,8.085c7.838,1.527,15.295,1.654,19.237,1.127
		c6.751-0.903,7.263-3.758,5.691-5.418C32.002,48.825,23.81,47.235,12.715,48.16z"/>
	<path fill="#EDFFFE" d="M64.344,52.565c3.333,1.846,0.529,4.082-4.607,3.48C53.48,55.313,59.356,49.804,64.344,52.565z"/>
	<path fill="#EDFFFE" d="M51.936,41.158c4.557,0.234,6.116,4.479,2.873,4.467c-2.238-0.009-6.933,0.173-7.827-0.506
		C45.58,44.054,48.195,40.967,51.936,41.158z"/>
	<path fill="#EDFFFE" d="M24.774,49.279c4.139,0.248,3.94,3.018-0.261,3.297C18.769,52.959,20.873,49.046,24.774,49.279z"/>
	<path fill="#EDFFFE" d="M30.286,51.521c2.345,0.162,2.231,1.971-0.148,2.153C26.884,53.924,28.076,51.368,30.286,51.521z"/>
	<path fill="#EDFFFE" d="M22.477,30.363c5.865,0.778,14.109,5.992,5.126,8.025c-3.792,0.858-12.912,0.116-14.524-1.071
		C9.234,34.487,16.229,29.534,22.477,30.363z"/>
	<path fill="#EDFFFE" d="M31.404,38.799c5.216,0.414,12.618,6.113-2.359,5.48C21.785,43.972,26.488,38.408,31.404,38.799z"/>
	<g id="GOODS_00000019663460164799166010000017776099918253558679_">
		<g>
			<path fill="#B1E1E3" d="M38.072,38.105c-0.978-0.251-8.083-3.123-1.175-4.363s23.26-1.77,24.998,2.709
				C63.633,40.931,44.085,39.653,38.072,38.105z"/>
		</g>
		<path fill="#FFFFFF" d="M50.346,25.993c2.922-0.205,4.858-0.489,6.142-0.785c-0.424-0.802-0.912-1.476-1.476-1.923
			c-3.119-2.478-8.411-2.314-11.761-1.022c-1.038,0.401-1.884,1.099-2.573,1.961C42.056,25.243,44.85,26.378,50.346,25.993z"/>
		<g>
			<path fill="#ABEBFF" d="M38.975,27.353c-0.421,1.125-0.708,2.278-0.903,3.3c0.718,0.63,2.083,1.456,4.575,1.953
				c0.062-1.366,0.381-2.743,0.532-3.332C40.91,28.787,39.649,27.98,38.975,27.353z"/>
			<path fill="#ACD3E8" d="M50.03,29.626c-2.948,0.192-5.175,0.007-6.852-0.353c-0.151,0.589-0.471,1.965-0.532,3.332
				c1.825,0.364,4.253,0.552,7.475,0.359c0.614-0.037,1.19-0.076,1.732-0.118c-0.136-1.295-0.432-2.843-0.525-3.314
				C50.917,29.565,50.485,29.597,50.03,29.626z"/>
			<path fill="#CEFCFF" d="M57.764,28.56c-1.14,0.347-3.096,0.708-6.436,0.973c0.094,0.471,0.39,2.019,0.525,3.314
				c3.431-0.263,5.465-0.613,6.665-0.948C58.335,30.875,58.088,29.71,57.764,28.56z"/>
		</g>
		<g>
			<path fill="#ADFAFF" d="M40.678,24.224c-0.729,0.912-1.283,2.006-1.703,3.129c0.472,0.438,1.23,0.965,2.42,1.409
				c0.304-1.226,0.942-2.789,1.253-3.515C41.79,24.937,41.15,24.573,40.678,24.224z"/>
			<path fill="#CEFCFF" d="M49.057,26.057c-2.915,0.085-4.971-0.288-6.409-0.81c-0.311,0.726-0.949,2.289-1.253,3.515
				c1.619,0.604,4.036,1.053,7.616,0.917C48.967,28.474,49.027,26.755,49.057,26.057z"/>
			<path fill="#ACD3E8" d="M56.487,25.208c-0.603,0.139-1.349,0.275-2.272,0.401c0.283,0.615,1.034,2.295,1.302,3.444
				c0.975-0.16,1.704-0.328,2.247-0.493C57.427,27.367,57.007,26.191,56.487,25.208z"/>
			<path fill="#ABEBFF" d="M50.346,25.993c-0.448,0.031-0.877,0.052-1.289,0.064c-0.029,0.699-0.09,2.417-0.046,3.623
				c0.33-0.013,0.67-0.03,1.02-0.053c2.387-0.155,4.163-0.356,5.486-0.573c-0.268-1.148-1.019-2.829-1.302-3.444
				C53.169,25.753,51.896,25.884,50.346,25.993z"/>
		</g>
		<g>
			<path fill="#ACD3E8" d="M38.071,30.653c-0.36,1.888-0.408,3.331-0.408,3.331s0.161,1.243,2.628,2.09
				c0.051-1.782,0.271-3.435,0.354-4.008C39.373,31.617,38.567,31.088,38.071,30.653z"/>
			<path fill="#CEFCFF" d="M40.646,32.066c-0.083,0.573-0.303,2.226-0.354,4.008c0.81,0.278,1.867,0.514,3.25,0.648
				c2.139,0.209,4.027,0.27,5.684,0.233c-0.032-1.161-0.117-3.096-0.155-3.939C45.078,33.16,42.412,32.689,40.646,32.066z"/>
			<path fill="#ABEBFF" d="M55.077,32.39c-1.291,0.236-2.911,0.453-4.956,0.575c-0.36,0.021-0.711,0.039-1.051,0.051
				c0.038,0.843,0.123,2.778,0.155,3.939c2.702-0.06,4.783-0.381,6.313-0.749C55.436,35.156,55.178,33.159,55.077,32.39z"/>
			<path fill="#ACD3E8" d="M58.957,34.958c0,0-0.167-1.534-0.497-3.375c-0.758,0.212-1.833,0.524-3.383,0.808
				c0.101,0.77,0.358,2.767,0.462,3.816C57.904,35.637,58.957,34.958,58.957,34.958z"/>
		</g>
		<g>
			<path fill="#FFFFFF" d="M50.242,32.128c-0.799-3.539-4.602-3.946-6.663-3.075c-0.596,0.252-1.638,1.264-1.982,1.96
				c-1.161,2.35-0.692,6.096-0.692,6.096s0.279,0.218,0.864,0.47c-0.005-0.824-0.006-2.252,0.029-3.402
				c0.022-0.72,0.464-1.488,0.946-1.834c1.408-1.012,4.254-0.159,4.289,2.001c0.02,1.149,0.014,2.956,0.009,3.958
				c0.3-0.02,0.612-0.037,0.935-0.086c1.534-0.226,2.918-1.333,2.918-1.333S50.72,34.243,50.242,32.128z"/>
			<path fill="#ABEBFF" d="M47.033,34.343c-0.035-2.161-2.881-3.014-4.289-2.001c-0.482,0.347-0.924,1.114-0.946,1.834
				c-0.035,1.15-0.034,2.578-0.029,3.402c0.935,0.403,2.653,0.894,5.273,0.722C47.047,37.299,47.053,35.493,47.033,34.343z"/>
		</g>
	</g>
	<g>
		<path fill="#249EEB" d="M65.399,29.89c1.194,0,2.179,10.275,1.317,11.321c-0.38,0.461-1.986,0.433-2.459,0.061
			C63.396,40.596,63.889,29.89,65.399,29.89z"/>
		<path fill="#0ECAE1" d="M59.585,35.492c-0.521-3.85,1.906-15.74,5.656-15.74c3.811,0,6.579,12.728,4.919,17.093
			C69.413,38.811,60.199,40.042,59.585,35.492z"/>
	</g>
	<g>
		<path fill="#249EEB" d="M58.823,37.344c1.155,0,2.106,7.355,1.274,8.103c-0.368,0.33-1.921,0.31-2.378,0.044
			C56.888,45.007,57.363,37.344,58.823,37.344z"/>
		<path fill="#08BDD9" d="M53.203,41.354c-0.503-2.756,1.843-11.267,5.468-11.267c3.683,0,6.359,9.11,4.754,12.235
			C62.703,43.729,53.798,44.61,53.203,41.354z"/>
	</g>
	<path fill="#0ECAE1" d="M22.709,21.488c0-1.174,0.829-2.887,2.123-2.887c1.716,0,2.84,3.494,1.636,4.304
		C25.396,23.625,22.709,23.69,22.709,21.488z"/>
	<path fill="#0ECAE1" d="M16.587,24.73c0-1.527,1.076-3.752,2.758-3.752c2.23,0,3.69,4.54,2.126,5.592
		C20.079,27.506,16.587,27.591,16.587,24.73z"/>
	<g>
		<path fill="#249EEB" d="M11.27,32.496c1.155,0,2.106,7.354,1.274,8.103c-0.367,0.331-1.92,0.311-2.377,0.044
			C9.335,40.159,9.81,32.496,11.27,32.496z"/>
		<path fill="#08BDD9" d="M5.65,36.506c-0.503-2.756,1.842-11.267,5.467-11.267c3.683,0,6.359,9.11,4.754,12.235
			C15.149,38.881,6.245,39.763,5.65,36.506z"/>
	</g>
	<g>
		<path fill="#249EEB" d="M17.438,43.182c1.324,0,2.415,8.434,1.46,9.291c-0.421,0.379-2.202,0.355-2.726,0.051
			C15.218,51.969,15.763,43.182,17.438,43.182z"/>
		<path fill="#0ECAE1" d="M10.993,47.78c-0.577-3.16,1.938-15.038,6.094-15.038c4.223,0,7.466,12.565,5.626,16.147
			C21.886,50.504,11.675,51.515,10.993,47.78z"/>
	</g>
	<path fill="#FFFFFF" d="M69.582,24.722c0.803-0.591,1.632,0.937,1.632,0.937s0.292-1.828,1.386-1.272
		c0.687,0.349,0.005,1.882,0.005,1.882s2.075-0.626,1.795,0.564c-0.202,0.856-1.627,0.945-1.627,0.945s1.192,1.259,0.409,1.836
		c-0.771,0.567-1.632-0.937-1.632-0.937s-0.556,1.729-1.386,1.272c-0.794-0.437-0.005-1.881-0.005-1.881s-1.591,0.314-1.795-0.564
		c-0.283-1.215,1.627-0.945,1.627-0.945S68.791,25.304,69.582,24.722z"/>
	<path fill="#FFFFFF" d="M52.549,64.885c0.596,0.177,0.147,1.165,0.147,1.165s1.021-0.543,1.155,0.21
		c0.085,0.474-0.935,0.711-0.935,0.711s1.093,0.798,0.396,1.106c-0.503,0.222-1.083-0.454-1.083-0.454s-0.179,1.067-0.761,0.895
		c-0.572-0.17-0.147-1.165-0.147-1.165s-1.07,0.375-1.155-0.211c-0.082-0.559,0.935-0.71,0.935-0.71s-0.755-0.674-0.396-1.106
		c0.499-0.599,1.083,0.454,1.083,0.454S51.961,64.71,52.549,64.885z"/>
	<path fill="#FFFFFF" d="M4.761,13.236c0.596,0.177,0.148,1.165,0.148,1.165s1.02-0.543,1.155,0.211
		c0.085,0.473-0.935,0.71-0.935,0.71s1.093,0.797,0.395,1.106c-0.502,0.222-1.083-0.454-1.083-0.454s-0.178,1.068-0.76,0.895
		c-0.572-0.17-0.148-1.165-0.148-1.165s-1.07,0.375-1.155-0.21c-0.082-0.56,0.935-0.711,0.935-0.711s-0.755-0.673-0.395-1.106
		c0.499-0.599,1.083,0.454,1.083,0.454S4.174,13.062,4.761,13.236z"/>
	<path fill="#FFFFFF" d="M2.915,28.298c0.596,0.177,0.148,1.165,0.148,1.165s1.02-0.543,1.155,0.211
		c0.084,0.473-0.935,0.71-0.935,0.71s1.093,0.797,0.396,1.106c-0.502,0.222-1.083-0.454-1.083-0.454s-0.178,1.068-0.76,0.895
		c-0.573-0.17-0.148-1.165-0.148-1.165s-1.07,0.375-1.155-0.21c-0.082-0.56,0.935-0.711,0.935-0.711s-0.755-0.674-0.395-1.106
		c0.499-0.599,1.083,0.454,1.083,0.454S2.327,28.124,2.915,28.298z"/>
	<path fill="#FFFFFF" d="M2.915,45.66c0.596,0.177,0.148,1.164,0.148,1.164s1.02-0.542,1.155,0.211
		c0.085,0.474-0.935,0.711-0.935,0.711s1.093,0.797,0.396,1.105c-0.502,0.223-1.083-0.454-1.083-0.454s-0.178,1.068-0.76,0.896
		c-0.573-0.17-0.148-1.165-0.148-1.165s-1.07,0.374-1.155-0.211c-0.082-0.559,0.935-0.711,0.935-0.711s-0.755-0.673-0.395-1.105
		c0.499-0.599,1.083,0.454,1.083,0.454S2.327,45.485,2.915,45.66z"/>
	<path fill="#FFFFFF" d="M50.104,0.979c0.718-0.298,1.061,1.014,1.061,1.014s0.563-1.33,1.287-0.705
		c0.455,0.392-0.348,1.426-0.348,1.426s1.688-0.087,1.255,0.762c-0.313,0.611-1.409,0.412-1.409,0.412s0.668,1.177-0.033,1.467
		c-0.689,0.286-1.061-1.014-1.061-1.014s-0.744,1.206-1.287,0.705c-0.52-0.479,0.348-1.426,0.348-1.426s-1.264-0.059-1.254-0.762
		c0.012-0.973,1.408-0.412,1.408-0.412S49.396,1.272,50.104,0.979z"/>
	<path fill="#FFFFFF" d="M44.611,68.129c0.719-0.298,1.062,1.014,1.062,1.014s0.563-1.33,1.287-0.705
		c0.454,0.393-0.348,1.426-0.348,1.426s1.688-0.087,1.254,0.762c-0.313,0.611-1.408,0.412-1.408,0.412s0.668,1.177-0.033,1.468
		c-0.689,0.285-1.062-1.015-1.062-1.015s-0.743,1.206-1.287,0.706c-0.52-0.479,0.348-1.427,0.348-1.427s-1.263-0.059-1.254-0.762
		c0.013-0.974,1.408-0.412,1.408-0.412S43.904,68.422,44.611,68.129z"/>
	<path fill="#FFFFFF" d="M7.737,62.679c0.718-0.298,1.061,1.014,1.061,1.014s0.563-1.33,1.287-0.705
		c0.455,0.393-0.348,1.426-0.348,1.426s1.688-0.087,1.254,0.763c-0.313,0.61-1.409,0.412-1.409,0.412s0.668,1.176-0.033,1.467
		c-0.689,0.286-1.061-1.014-1.061-1.014s-0.744,1.206-1.288,0.705c-0.519-0.479,0.348-1.426,0.348-1.426s-1.263-0.06-1.254-0.763
		c0.012-0.973,1.408-0.412,1.408-0.412S7.029,62.972,7.737,62.679z"/>
	<path fill="#FFFFFF" d="M71.495,50.429c0.719-0.297,1.062,1.015,1.062,1.015s0.563-1.33,1.287-0.705
		c0.454,0.392-0.348,1.426-0.348,1.426s1.688-0.087,1.254,0.762c-0.313,0.611-1.408,0.412-1.408,0.412s0.668,1.177-0.033,1.468
		c-0.689,0.285-1.061-1.015-1.061-1.015s-0.744,1.206-1.287,0.705c-0.52-0.479,0.348-1.426,0.348-1.426s-1.264-0.059-1.255-0.762
		c0.013-0.974,1.409-0.412,1.409-0.412S70.788,50.723,71.495,50.429z"/>
	<path fill="#FFFFFF" d="M3.784,6.012c0.803-0.591,1.632,0.937,1.632,0.937S5.708,5.12,6.802,5.676
		c0.687,0.349,0.005,1.881,0.005,1.881s2.075-0.626,1.795,0.564C8.4,8.977,6.975,9.066,6.975,9.066s1.192,1.26,0.409,1.836
		C6.613,11.47,5.752,9.966,5.752,9.966s-0.556,1.729-1.386,1.272c-0.793-0.437-0.005-1.881-0.005-1.881S2.771,9.67,2.566,8.793
		C2.283,7.578,4.193,7.848,4.193,7.848S2.994,6.593,3.784,6.012z"/>
	<path fill="#FFFFFF" d="M24.993,24.605c0.803-0.591,1.631,0.937,1.631,0.937s0.292-1.828,1.386-1.272
		c0.686,0.349,0.004,1.881,0.004,1.881s2.075-0.626,1.795,0.564c-0.202,0.856-1.627,0.944-1.627,0.944s1.192,1.26,0.409,1.837
		c-0.771,0.567-1.632-0.937-1.632-0.937s-0.556,1.729-1.386,1.272c-0.793-0.437-0.005-1.881-0.005-1.881s-1.59,0.314-1.795-0.564
		c-0.283-1.215,1.627-0.945,1.627-0.945S24.202,25.188,24.993,24.605z"/>
	<path fill="#FFFFFF" d="M56.72,17.663c0.803-0.591,1.632,0.937,1.632,0.937s0.292-1.828,1.386-1.272
		c0.687,0.349,0.005,1.881,0.005,1.881s2.075-0.626,1.795,0.564c-0.201,0.856-1.627,0.945-1.627,0.945s1.192,1.26,0.409,1.836
		c-0.771,0.567-1.632-0.937-1.632-0.937s-0.556,1.729-1.386,1.272c-0.794-0.437-0.005-1.881-0.005-1.881s-1.591,0.313-1.795-0.564
		c-0.283-1.215,1.627-0.945,1.627-0.945S55.93,18.244,56.72,17.663z"/>
</g>
</svg>
