<?xml version="1.0" encoding="utf-8"?>
<!-- Generator: Adobe Illustrator 16.0.0, SVG Export Plug-In . SVG Version: 6.00 Build 0)  -->
<!DOCTYPE svg PUBLIC "-//W3C//DTD SVG 1.1//EN" "http://www.w3.org/Graphics/SVG/1.1/DTD/svg11.dtd">
<svg version="1.1" id="圖層_1" xmlns="http://www.w3.org/2000/svg" xmlns:xlink="http://www.w3.org/1999/xlink" x="0px" y="0px"
	 width="75px" height="75px" viewBox="0 0 75 75" enable-background="new 0 0 75 75" xml:space="preserve">
<g id="C2_x5F_land">
	<path fill="#FBCE53" d="M21.51,5.244c-0.718,0.804-4.512,1.271-4.772,3.272c-0.221,1.695,3.816,2.552,4.311,3.595
		c0.411,0.867-0.107,3.966,1.008,4.811c1.665,1.261,4.043-2.181,5.055-2.546c0.74-0.268,4.576,1.387,5.666,0.136
		c1.442-1.655-1.395-3.643-1.312-4.932c0.092-1.439,3.459-3.879,2.267-5.524c-1.085-1.498-4.391-0.024-5.585-0.409
		c-0.787-0.254-2.674-4.493-4.666-3.495C21.814,0.988,22.13,4.55,21.51,5.244z"/>
	<path id="XMLID_00000059269343847294775190000008018520685830534034_" fill="#76695B" d="M4.078,38.882
		c0,0,1.253,14.24,7.439,20.17c3.519,3.373,9.445,5.632,12.802,9.169c9.344,9.845,31.481,3.393,34.004-7.156
		c1.12-4.686,6.173-2.988,8.18-7.063s3.047-14.709,3.047-14.709L4.078,38.882z"/>
	<path fill="#857865" d="M48.121,53.344c0,0,0.253,8.285,4.153,10.181c2.538,1.233,5.335,0.64,9.274-1.805
		c2.157-1.34,3.059-8.629,2.542-9.595L48.121,53.344z"/>
	<path fill="#BFAE91" d="M16.875,28.392c-8.002,1.152-12.846,5.182-12.797,10.49c0.038,4.012,5.765,8.508,14.016,9.325
		c17.439,1.728,29.634,1.561,38.207-0.196c10.206-2.091,13.146-5.429,13.25-8.718C69.884,28.803,45.91,24.213,16.875,28.392z"/>
	<path fill="#CCB99A" d="M54.935,49.739c-3.364,0.269-7.172,1.946-6.813,3.604c0.764,3.538,8.582,2.582,10.779,2.301
		c3.762-0.481,5.707-1.422,5.19-3.52C63.819,51.022,61.117,49.246,54.935,49.739z"/>
	<path fill="#857865" d="M10.174,51.573c0,0,2.333,13.814,9.746,14.843c8.435,1.17,6.066,3.026,13.092,2.5
		c7.314-0.549,9.04-10.285,9.746-17.223L10.174,51.573z"/>
	<path fill="#BFAE91" d="M27.22,45.778c-9.632-0.484-17.817,2.478-17.046,5.795c1.739,7.486,17.272,4.618,23.113,5.899
		c3.86,0.847,9.469-3.159,9.47-5.779C42.758,49.672,40.712,46.457,27.22,45.778z"/>
	<path fill="#B8A582" d="M7.471,36.212c0.066-4.596,18.272-2.931,23.41-3.867c4.055-0.739,13.097-0.673,14.951,2.102
		c1.765,2.643-4.529,7.472-9.301,8.219C32.125,43.356,7.377,42.775,7.471,36.212z"/>
	<path fill="#B8A582" d="M21.21,47.379c0.048-3.352,13.573-4.332,17.068-2.819c7.453,3.227-0.12,6.456-3.598,7.001
		C31.468,52.063,21.141,52.164,21.21,47.379z"/>
	<path fill="#B8A582" d="M40.955,42.665c0.034-2.365,9.582-3.058,12.049-1.99c5.261,2.278-0.085,4.558-2.54,4.942
		C48.196,45.973,40.906,46.043,40.955,42.665z"/>
	<path fill="#C2B092" d="M29.572,26.619c-2.588-8.114,6.399-17.142,13.979-14.681c7.109,2.308,8.709-1.199,12.835,2.285
		c5.222,4.408,5.953,12.697,3.726,14.083C54.212,31.974,30.96,30.971,29.572,26.619z"/>
	<path fill="#CCB99A" d="M50.823,33.189c-1.327,1.625-39.878,1.738-41.643-0.466c-2.555-3.19,2.368-17.742,13.659-17.976
		c6.287-0.131,9.34,6.222,14.846,5.137C46.875,18.074,54.272,28.966,50.823,33.189z"/>
	<path fill="#AD9D83" d="M30.03,37.605c-1.695-3.127,0.11-14.661,8.755-15.049c3.857-0.173,7.655,2.436,10.94,2.117
		c13.449-1.305,18.906,11.381,15.19,13.476C61.635,39.998,31.688,40.663,30.03,37.605z"/>
	<circle fill="#FDD58F" cx="43.834" cy="17.032" r="0.944"/>
	<circle fill="#FDD58F" cx="31.328" cy="44.409" r="0.944"/>
	<path fill="#948570" d="M37.561,24.894c2.054,0.151,1.955,1.835-0.129,2.005C34.581,27.131,35.625,24.751,37.561,24.894z"/>
	<path fill="#948570" d="M41.328,26.167c1.813,0.129,1.726,1.57-0.115,1.715C38.696,28.081,39.618,26.045,41.328,26.167z"/>
	<circle fill="#FDD58F" cx="22.285" cy="26.471" r="0.944"/>
	<circle fill="#FFE4C4" cx="28.005" cy="50.93" r="1.509"/>
	<path fill="#EBD3B2" d="M7.835,31.282c3.078,0.212,7.179,2.986-0.298,3.77C3.277,35.499,4.934,31.082,7.835,31.282z"/>
	<path fill="#EBD3B2" d="M12.997,34.729c3.056,0.211,3.276,2.191,0.175,2.429C8.931,37.483,10.117,34.53,12.997,34.729z"/>
	<circle fill="#F09960" cx="1.801" cy="38.882" r="1.106"/>
	<circle fill="#F09960" cx="67.51" cy="24.957" r="1.105"/>
	<path fill="#FDD58F" d="M68.107,16.97l-1.949-1.571c-0.168-0.136-0.123-0.403,0.08-0.476l2.356-0.845
		c0.199-0.071,0.401,0.098,0.366,0.306L68.554,16.8C68.519,17.009,68.272,17.103,68.107,16.97z"/>
	<path fill="#EBD3B2" d="M52.676,49.921c2.473,0.171,5.767,2.399-0.239,3.029C49.015,53.309,50.346,49.761,52.676,49.921z"/>
	<path fill="#948570" d="M23.852,16.691c1.321,0.128,1.257,1.557-0.083,1.701C21.936,18.589,22.607,16.571,23.852,16.691z"/>
	<path fill="#948570" d="M26.931,17.551c1.32,0.128,1.257,1.556-0.083,1.701C25.015,19.448,25.687,17.43,26.931,17.551z"/>
	<path fill="#6ECFC9" d="M73.31,56.78l-3.359-0.898c-0.29-0.077-0.384-0.442-0.166-0.649l2.517-2.4
		c0.213-0.202,0.565-0.102,0.639,0.184l0.843,3.298C73.854,56.599,73.594,56.856,73.31,56.78z"/>
	<path fill="#F09960" d="M74.1,42.337l-2.642,0.954c-0.228,0.083-0.458-0.116-0.409-0.354l0.561-2.752
		c0.048-0.232,0.328-0.328,0.508-0.173l2.08,1.797C74.377,41.965,74.323,42.256,74.1,42.337z"/>
	<path fill="#FBCE53" d="M17.791,66.092c-0.63,0.021-2.397-1.391-3.326-0.661c-0.876,0.688,0.094,2.348-0.061,3.158
		c-0.106,0.552-1.87,1.679-1.813,2.496c0.084,1.219,2.73,0.871,3.281,1.177c0.403,0.224,1.108,2.739,2.079,2.738
		c1.285-0.001,1.318-2.194,1.918-2.654c0.67-0.513,2.836,0.025,3.103-1.133c0.243-1.056-1.679-1.947-1.968-2.622
		c-0.191-0.444,0.953-2.908-0.253-3.402C19.74,64.773,18.595,66.064,17.791,66.092z"/>
	<circle fill="#FDD58F" cx="71.729" cy="26.392" r="0.944"/>
	<path fill="#F6B152" d="M5.503,57.15l-2.637,0.967c-0.228,0.084-0.459-0.114-0.412-0.352l0.548-2.755
		c0.046-0.232,0.326-0.33,0.506-0.176l2.089,1.787C5.779,56.776,5.726,57.068,5.503,57.15z"/>
	<circle fill="#FDD58F" cx="48.121" cy="40.104" r="3.171"/>
	<circle fill="#F09960" cx="7.355" cy="65.105" r="1.106"/>
	<circle fill="#FDD58F" cx="58.347" cy="71.618" r="0.944"/>
	<circle fill="#FFE4C4" cx="7.758" cy="20.494" r="1.509"/>
	<path fill="#F09960" d="M46.634,7.297l-2.642,0.955c-0.228,0.083-0.458-0.116-0.41-0.354l0.562-2.751
		c0.048-0.233,0.328-0.329,0.508-0.173l2.08,1.797C46.911,6.925,46.857,7.216,46.634,7.297z"/>
	<path fill="#F09960" d="M64.07,70.131l-2.602-1.061c-0.224-0.092-0.262-0.395-0.066-0.538l2.26-1.667
		c0.191-0.141,0.463-0.024,0.492,0.211l0.341,2.729C64.524,70.04,64.29,70.22,64.07,70.131z"/>
	<path fill="#82C965" d="M4.965,8.566L2.943,7.444C2.768,7.347,2.767,7.097,2.941,6.998l2.012-1.141
		c0.17-0.097,0.381,0.025,0.382,0.221l0.01,2.264C5.346,8.538,5.136,8.662,4.965,8.566z"/>
	<path fill="#F8B68B" d="M18.489,22.561l-3.018,0.992c-0.26,0.085-0.514-0.147-0.451-0.414l0.726-3.092
		c0.062-0.261,0.381-0.36,0.579-0.178l2.292,2.101C18.815,22.149,18.745,22.477,18.489,22.561z"/>
	<path fill="#6ECFC9" d="M70.69,6.537l-0.843-3.093c-0.072-0.267,0.175-0.51,0.44-0.434l3.079,0.892
		c0.261,0.076,0.344,0.403,0.15,0.593l-2.236,2.201C71.088,6.886,70.762,6.798,70.69,6.537z"/>
	<circle fill="#BEFDEC" cx="57.403" cy="13.396" r="3.047"/>
	<circle fill="#6ECBCF" cx="47.755" cy="65.416" r="2.331"/>
	<path fill="#948570" d="M53.27,17.143c1.785,0.125,1.699,1.517-0.113,1.657C50.679,18.992,51.586,17.025,53.27,17.143z"/>
	<path fill="#948570" d="M51.433,15.033c1.218,0.674,0.193,1.492-1.684,1.272C47.463,16.037,49.61,14.023,51.433,15.033z"/>
	<path fill="#948570" d="M62.31,41.129c1.174,0.649,0.187,1.438-1.623,1.226C58.483,42.096,60.553,40.156,62.31,41.129z"/>
	<path fill="#948570" d="M34.296,51.796c0.843,0.536,0.134,1.186-1.166,1.011C31.548,52.594,33.035,50.994,34.296,51.796z"/>
	<path fill="#948570" d="M60.324,43.265c1.174,0.65,0.187,1.438-1.623,1.226C56.498,44.232,58.568,42.292,60.324,43.265z"/>
	<path fill="#948570" d="M36.709,50.001c1.173,0.65,0.186,1.438-1.623,1.226C32.883,50.969,34.952,49.028,36.709,50.001z"/>
	<path fill="#EBD3B2" d="M20.959,46.815c2.31,1.852,0.367,4.096-3.193,3.492C13.431,49.571,17.503,44.045,20.959,46.815z"/>
	<path fill="#EBD3B2" d="M56.766,52.157c1.864,0.159,2.109,1.443,0.217,1.623C54.395,54.026,55.008,52.007,56.766,52.157z"/>
	<path fill="#948570" d="M40.156,13.564c2.559,0.177,2.436,2.15-0.161,2.35C36.445,16.186,37.745,13.398,40.156,13.564z"/>
	<path fill="#FBCE53" d="M56.454,30.938c-0.355-0.119-1.069-1.382-1.701-1.076c-0.574,0.278-0.291,1.57-0.557,1.871
		c-0.221,0.25-1.537,0.533-1.54,1.049c-0.004,0.727,1.254,0.993,1.498,1.292c0.173,0.212,0.145,1.586,0.693,1.763
		c0.727,0.233,1.164-0.972,1.588-1.123c0.473-0.168,1.637,0.398,1.998-0.209c0.33-0.553-0.517-1.231-0.558-1.666
		c-0.026-0.286,1.068-1.471,0.477-1.971C57.856,30.451,56.762,31.041,56.454,30.938z"/>
</g>
</svg>
