<?xml version="1.0" encoding="utf-8"?>
<!-- Generator: Adobe Illustrator 16.0.0, SVG Export Plug-In . SVG Version: 6.00 Build 0)  -->
<!DOCTYPE svg PUBLIC "-//W3C//DTD SVG 1.1//EN" "http://www.w3.org/Graphics/SVG/1.1/DTD/svg11.dtd">
<svg version="1.1" id="圖層_1" xmlns="http://www.w3.org/2000/svg" xmlns:xlink="http://www.w3.org/1999/xlink" x="0px" y="0px"
	 width="75px" height="75px" viewBox="0 0 75 75" enable-background="new 0 0 75 75" xml:space="preserve">
<g>
	<path fill="#DADC8F" d="M2.827,38.92c0,0-0.476,15.686,6.665,20.303c4.401,2.848,9.922,5.828,13.768,9.861
		c10.071,10.565,34.261,5.892,36.975-5.453c1.205-5.038,6.64-3.213,8.797-7.595c2.158-4.383,3.148-16.303,3.148-16.303L2.827,38.92z
		"/>
	<path fill="#E9EB9A" d="M51.801,56.081c0,0,1.205,9.757,5.516,10.322c6.467,0.847,11.356-3.149,11.547-10.781L51.801,56.081z"/>
	<path fill="#41826A" d="M50.333,15.16c0-1.246,0.877-3.064,2.252-3.064c1.821,0,3.013,3.708,1.735,4.567
		C53.184,17.427,50.333,17.496,50.333,15.16"/>
	<path fill="#41826A" d="M44.747,14.989c0-1.62,1.141-3.983,2.928-3.983c2.367,0,3.916,4.818,2.256,5.936
		C48.453,17.936,44.747,18.025,44.747,14.989"/>
	<path fill="#58492F" d="M21.359,19.01c-3.626-3.747,1.677-13.098,6.625-13.793c4.947-0.693,7.716,5.778,7.716,5.778
		s1.554-3.997,5.584-3.705c4.028,0.292,7.834,8.95,4.778,11.783C43.785,21.183,23.009,20.716,21.359,19.01"/>
	<path fill="#352F2D" d="M12.555,30.147c-14.158,2.15-13.021,17.292,4.414,19.657c18.676,2.531,31.333,1.792,40.551-0.098
		c15.786-3.235,16.608-10.28,12.681-14.092C62.796,28.429,38.573,26.196,12.555,30.147"/>
	<path fill="#352F2D" d="M57.852,52.013c-3.617,0.29-8.747,4.159-4.362,4.978c4.698,0.875,9.167,0.947,11.529,0.645
		c4.045-0.518,4.352-2.153,3.409-3.104C66.652,52.735,64.501,51.482,57.852,52.013"/>
	<path fill="#221714" d="M30.87,30.849c-2.785-8.725,6.882-18.434,15.032-15.788c7.646,2.482,9.367-1.289,13.805,2.458
		c5.614,4.74,6.402,13.654,4.006,15.145C57.369,36.609,32.363,35.53,30.87,30.849"/>
	<path fill="#E5E5E4" d="M59.195,32.304c0.001-2.559,1.805-6.291,4.625-6.291c3.739,0,6.188,7.612,3.565,9.376
		C65.052,36.958,59.195,37.101,59.195,32.304"/>
	<path fill="#888988" d="M55.071,34.119c-1.426,1.747-42.886,1.869-44.784-0.5c-2.747-3.431,2.547-19.08,14.69-19.332
		c6.76-0.141,10.044,6.691,15.966,5.524C50.826,17.863,58.782,29.577,55.071,34.119"/>
	<path fill="#CED0D0" d="M24.968,37.461c-1.823-3.363,0.245-14.879,9.542-15.296c4.148-0.187,8.232,2.62,11.767,2.276
		c14.463-1.403,20.331,12.24,16.336,14.493C59.083,40.922,26.751,40.749,24.968,37.461"/>
	<path fill="#6D887D" d="M41.867,34.734c1.075,0,1.962,9.244,1.187,10.184c-0.342,0.415-1.788,0.39-2.213,0.056
		C40.066,44.365,40.508,34.734,41.867,34.734"/>
	<path fill="#E5E5E4" d="M36.636,39.774c-0.468-3.464,1.715-14.161,5.09-14.161c3.427,0,5.918,11.45,4.425,15.376
		C45.479,42.76,37.19,43.867,36.636,39.774"/>
	<path fill="#6D887D" d="M33.856,39.265c1.225,0,2.234,7.806,1.352,8.6c-0.39,0.352-2.037,0.329-2.523,0.046
		C31.802,47.396,32.306,39.265,33.856,39.265"/>
	<path fill="#888988" d="M27.892,43.521c-0.534-2.926,1.955-11.957,5.802-11.957c3.908,0,6.748,9.667,5.045,12.983
		C37.972,46.041,28.522,46.978,27.892,43.521"/>
	<path fill="#E5E5E4" d="M49.107,40.389c-0.367-5.667,2.246-9.638,5.697-9.914c6.343-0.505,7.573,11.457,4.354,13.517
		C56.294,45.826,49.469,45.98,49.107,40.389"/>
	<path fill="#647E72" d="M54.944,36.746c0.682,0,0.7,3.488,0.7,3.488s2.512-1.625,2.862-1.155c0.293,0.39-2.723,2.585-2.723,2.585
		s0.339,5.89-0.05,6.193c-0.371,0.292-1.211,0.276-1.598,0c-0.223-0.158-0.159-4.49-0.159-4.49s-2.458-1.654-2.019-2.092
		c0.413-0.414,2.091,0.584,2.091,0.584S54.214,36.746,54.944,36.746"/>
	<path fill="#FBFADC" d="M57.575,8.541c2.933-2.316-0.316-8.078-4.319-8.507c-4.001-0.428-5.614,3.375-5.614,3.375
		s-1.258-2.469-4.517-2.289C39.866,1.3,36.789,6.65,39.259,8.4C41.102,9.704,56.24,9.596,57.575,8.541"/>
	<path fill="#FBFADC" d="M15.795,15.514c4.192,0.226,9.782,5.464,1.402,5.464C5.616,20.978,11.845,15.301,15.795,15.514"/>
	<path fill="#73B45C" d="M60.928,52.683c0.779-0.59,1.604,0.645,1.604,0.645s0.289-1.979,1.434-1.979c1.501,0,0.75,3.96,0.75,3.96
		h-3.617C61.098,55.308,60.073,53.327,60.928,52.683"/>
	<path fill="#536A60" d="M21.398,36.242c0.507-0.06,0.96,3.065,0.96,3.065s1.123-2.287,1.603-2.014
		c0.319,0.183-1.145,2.929-1.145,2.929S23.183,41,23,41.55c-0.148,0.448-2.469,0.448-2.563,0
		C20.253,40.681,20.62,36.334,21.398,36.242"/>
	<path fill="#888988" d="M15.999,35.738c-2.027-6.165,2.406-11.893,6.146-11.896c3.235-0.001,3.456,3.234,5.293,5.352
		c2.105,2.425,1.302,5.909-1.235,8.282C24.784,38.805,17.097,39.078,15.999,35.738"/>
	<path fill="#E5E5E4" d="M5.328,37.15c-0.395-5.281,2.417-8.982,6.128-9.238c6.824-0.472,8.147,10.674,4.684,12.595
		C13.057,42.216,5.716,42.36,5.328,37.15"/>
	<path fill="#647E72" d="M11.606,33.755c0.732,0,0.752,3.25,0.752,3.25s2.703-1.513,3.082-1.076c0.313,0.362-2.93,2.409-2.93,2.409
		s0.363,5.487-0.053,5.771c-0.401,0.272-1.305,0.258-1.721,0c-0.239-0.148-0.17-4.185-0.17-4.185s-2.645-1.542-2.174-1.949
		c0.445-0.386,2.251,0.545,2.251,0.545S10.821,33.755,11.606,33.755"/>
	<path fill="#E9EB9A" d="M7.041,51.799c0,0,0,15.34,7.973,16.446c9.07,1.259,9.727,4.944,17.78,2.675
		c8.055-2.27,8.498-11.006,9.258-18.467L7.041,51.799z"/>
	<path fill="#352F2D" d="M14.893,46.352c-7.137,0.534-11.818,7.066-3.167,8.58c9.266,1.622,18.082,1.755,22.744,1.195
		c7.981-0.959,8.587-3.987,6.729-5.748C37.696,47.058,28.011,45.37,14.893,46.352"/>
	<path fill="#73B45C" d="M16.613,49.471l5.9-0.233c0-1.778-0.62-4.885-1.825-4.96c-0.827-0.052-1.056,1.581-1.056,1.581
		s-0.388-2.73-1.581-2.561c-1.055,0.151-0.038,3.426-0.038,3.426s-0.844-1.3-1.581-0.678C15.455,46.875,16.613,49.471,16.613,49.471
		"/>
	<path fill="#73B45C" d="M30.016,52.197l-3.284-0.005c-0.803-0.825-0.736-3.368,0.335-3.42c0.735-0.035,0.938,1.09,0.938,1.09
		s0.345-1.882,1.407-1.764c0.939,0.103,0.034,2.361,0.034,2.361s0.753-0.896,1.407-0.468C31.723,50.563,30.016,52.197,30.016,52.197
		"/>
</g>
</svg>
