<?xml version="1.0" encoding="utf-8"?>
<!-- Generator: Adobe Illustrator 16.0.0, SVG Export Plug-In . SVG Version: 6.00 Build 0)  -->
<!DOCTYPE svg PUBLIC "-//W3C//DTD SVG 1.1//EN" "http://www.w3.org/Graphics/SVG/1.1/DTD/svg11.dtd">
<svg version="1.1" id="圖層_1" xmlns="http://www.w3.org/2000/svg" xmlns:xlink="http://www.w3.org/1999/xlink" x="0px" y="0px"
	 width="60px" height="60px" viewBox="0 0 60 60" enable-background="new 0 0 60 60" xml:space="preserve">
<g>
	<path fill="#3EA07E" d="M30,60C13.459,60,0,46.544,0,30C0,13.459,13.459,0,30,0c16.544,0,30,13.459,30,30
		C60,46.544,46.544,60,30,60z M30,4.614C16.003,4.614,4.614,16.003,4.614,30c0,13.996,11.389,25.386,25.386,25.386
		c13.996,0,25.387-11.39,25.387-25.386C55.387,16.003,43.996,4.614,30,4.614z"/>
	<g>
		<path fill="#3EA07E" d="M25.175,42.362c-0.591,0-1.182-0.228-1.631-0.68L13.183,31.323c-0.903-0.899-0.903-2.36,0-3.262
			c0.9-0.903,2.362-0.903,3.262,0l10.361,10.36c0.902,0.901,0.902,2.362,0,3.263C26.355,42.136,25.766,42.362,25.175,42.362z"/>
		<path fill="#3EA07E" d="M25.079,42.362c-0.591,0-1.183-0.228-1.632-0.68c-0.902-0.898-0.902-2.359,0-3.262l20.107-20.106
			c0.901-0.903,2.362-0.903,3.263,0c0.902,0.9,0.902,2.361,0,3.263L26.71,41.685C26.261,42.136,25.67,42.362,25.079,42.362z"/>
	</g>
</g>
</svg>
