<?xml version="1.0" encoding="utf-8"?>
<!-- Generator: Adobe Illustrator 16.0.0, SVG Export Plug-In . SVG Version: 6.00 Build 0)  -->
<!DOCTYPE svg PUBLIC "-//W3C//DTD SVG 1.1//EN" "http://www.w3.org/Graphics/SVG/1.1/DTD/svg11.dtd">
<svg version="1.1" id="圖層_1" xmlns="http://www.w3.org/2000/svg" xmlns:xlink="http://www.w3.org/1999/xlink" x="0px" y="0px"
	 width="60px" height="60px" viewBox="0 0 60 60" enable-background="new 0 0 60 60" xml:space="preserve">
<g>
	<path fill="#3EA07E" d="M46.645,60H13.356C5.991,60,0,54.009,0,46.644V13.356C0,5.991,5.991,0,13.356,0h33.288
		C54.008,0,60,5.991,60,13.356v33.288C60,54.009,54.008,60,46.645,60z M13.356,6.051c-4.028,0-7.307,3.277-7.307,7.305v33.288
		c0,4.028,3.278,7.306,7.307,7.306h33.288c4.028,0,7.305-3.277,7.305-7.306V13.356c0-4.028-3.276-7.305-7.305-7.305H13.356z"/>
	<path fill="#3EA07E" d="M29.912,48.563c-7.837,0-14.989-4.612-18.222-11.752c-0.688-1.523-0.014-3.315,1.508-4.005
		c1.524-0.687,3.315-0.012,4.004,1.508c2.255,4.981,7.244,8.2,12.71,8.2c5.618,0,10.664-3.345,12.855-8.521
		c0.649-1.538,2.427-2.257,3.964-1.607c1.54,0.651,2.259,2.426,1.607,3.965C45.2,43.771,37.967,48.563,29.912,48.563z"/>
	<g>
		<circle fill="#3EA07E" cx="19.844" cy="20.674" r="5.959"/>
		<circle fill="#3EA07E" cx="40.157" cy="20.674" r="5.959"/>
	</g>
</g>
</svg>
