<?xml version="1.0" encoding="utf-8"?>
<!-- Generator: Adobe Illustrator 16.0.0, SVG Export Plug-In . SVG Version: 6.00 Build 0)  -->
<!DOCTYPE svg PUBLIC "-//W3C//DTD SVG 1.1//EN" "http://www.w3.org/Graphics/SVG/1.1/DTD/svg11.dtd">
<svg version="1.1" id="圖層_1" xmlns="http://www.w3.org/2000/svg" xmlns:xlink="http://www.w3.org/1999/xlink" x="0px" y="0px"
	 width="580px" height="580px" viewBox="0 0 580 580" enable-background="new 0 0 580 580" xml:space="preserve">
<g>
	<path fill="#0F3782" d="M358.455,181.303c0-66.925-54.138-121.177-120.921-121.177c-66.782,0-120.921,54.252-120.921,121.177
		s54.139,121.177,120.921,121.177C304.317,302.479,358.455,248.228,358.455,181.303"/>
	<path fill="#0D3779" d="M237.534,302.967c-66.944,0-121.407-54.578-121.407-121.664S170.59,59.64,237.534,59.64
		s121.407,54.577,121.407,121.663S304.479,302.967,237.534,302.967z M237.534,60.612c-66.408,0-120.435,54.142-120.435,120.69
		s54.026,120.69,120.435,120.69s120.435-54.142,120.435-120.69S303.942,60.612,237.534,60.612z"/>
	<path fill="#0F3782" d="M291.117,579.998H30.882c-20.011,0-28.843-19.066-30.718-29.147C0.055,550.265,0,549.669,0,549.071v-40.098
		c0-5.374,4.356-9.731,9.731-9.731h241.976c5.375,0,9.731,4.357,9.731,9.731v2.063h27.051c5.375,0,9.731,4.357,9.731,9.731
		s-4.356,9.731-9.731,9.731h-36.782c-5.375,0-9.731-4.357-9.731-9.731v-2.063H19.463v29.3c0.695,2.771,3.689,12.53,11.419,12.53
		h260.235c5.374,0,9.731,4.357,9.731,9.731S296.491,579.998,291.117,579.998z"/>
	<path fill="#0F3782" d="M549.118,579.998H288.884c-5.375,0-9.731-4.357-9.731-9.731s4.356-9.731,9.731-9.731h260.234
		c7.702,0,10.703-9.69,11.419-12.54v-29.29H338.024v2.063c0,5.374-4.357,9.731-9.731,9.731h-36.781
		c-5.375,0-9.732-4.357-9.732-9.731s4.357-9.731,9.732-9.731h27.05v-2.063c0-5.374,4.357-9.731,9.731-9.731h241.976
		c5.374,0,9.731,4.357,9.731,9.731v40.098c0,0.598-0.056,1.193-0.165,1.779C577.961,560.932,569.129,579.998,549.118,579.998z"/>
	<path fill="#0F3782" d="M34.374,516.827c-5.374,0-9.731-4.357-9.731-9.731V221.824c0-0.554,0.048-1.106,0.142-1.652
		c1.591-9.231,11.694-26.69,38.544-26.69h3.225c5.375,0,9.731,4.356,9.731,9.731s-4.356,9.731-9.731,9.731h-3.225
		c-15.058,0-18.55,7.856-19.222,9.999v284.152C44.106,512.47,39.749,516.827,34.374,516.827z"/>
	<path fill="#0F3782" d="M547.824,516.827c-5.375,0-9.731-4.357-9.731-9.731v-284.07c-0.856-2.706-4.541-10.081-19.222-10.081
		H409.255c-5.374,0-9.731-4.356-9.731-9.731s4.357-9.731,9.731-9.731h109.616c26.849,0,36.952,17.459,38.543,26.69
		c0.094,0.546,0.142,1.099,0.142,1.652v285.271C557.556,512.47,553.198,516.827,547.824,516.827z"/>
	<path fill="#FFFFFF" d="M242.114,155.232c-5.374,0-9.731-4.357-9.731-9.731v-24.787c0-5.374,4.357-9.731,9.731-9.731
		c5.375,0,9.732,4.357,9.732,9.731v24.787C251.847,150.875,247.489,155.232,242.114,155.232z"/>
	<path fill="#FFFFFF" d="M278.758,157.068h-74.202c-5.375,0-9.731-4.356-9.731-9.731s4.356-9.731,9.731-9.731h74.202
		c5.374,0,9.731,4.356,9.731,9.731S284.132,157.068,278.758,157.068z"/>
	<path fill="#FFFFFF" d="M201.796,244.28c-4.64,0-8.747-3.328-9.574-8.056c-0.924-5.279,2.595-10.308,7.863-11.255
		c2.215-0.416,51.22-10.438,62.66-79.229c0.882-5.302,5.897-8.887,11.196-8.003c5.302,0.882,8.885,5.895,8.003,11.196
		c-7.149,42.988-27.762,66.514-43.795,78.679c-17.708,13.436-33.98,16.401-34.664,16.521
		C202.918,244.232,202.353,244.28,201.796,244.28z"/>
	<path fill="#FFFFFF" d="M283.343,245.197c-0.082,0-0.165-0.001-0.248-0.003c-41.396-1.037-72.652-50.208-73.962-52.301
		c-2.853-4.555-1.472-10.561,3.084-13.412c4.551-2.851,10.551-1.474,13.406,3.074l0,0c0.267,0.424,27.04,42.406,57.959,43.182
		c5.373,0.135,9.619,4.6,9.485,9.972C292.935,240.999,288.604,245.197,283.343,245.197z"/>
	<path fill="#0F3782" d="M237.538,362.608c-99.775,0-180.948-81.334-180.948-181.308c0-99.969,81.173-181.299,180.948-181.299
		c99.771,0,180.938,81.33,180.938,181.299C418.477,281.274,337.309,362.608,237.538,362.608z M237.538,19.465
		c-89.043,0-161.484,72.6-161.484,161.836c0,89.241,72.441,161.845,161.484,161.845c89.038,0,161.475-72.604,161.475-161.845
		C399.013,92.064,326.576,19.465,237.538,19.465z"/>
	<path fill="#0F3782" d="M109.815,371.339H77.78c-5.375,0-9.731-4.357-9.731-9.731s4.356-9.731,9.731-9.731h32.035
		c5.375,0,9.731,4.357,9.731,9.731S115.19,371.339,109.815,371.339z"/>
	<path fill="#0F3782" d="M208.556,421.1H77.78c-5.375,0-9.731-4.357-9.731-9.732c0-5.374,4.356-9.731,9.731-9.731h130.775
		c5.375,0,9.731,4.357,9.731,9.731C218.287,416.742,213.931,421.1,208.556,421.1z"/>
	<path fill="#0F3782" d="M357.686,421.1h-94.208c-5.375,0-9.731-4.357-9.731-9.732c0-5.374,4.356-9.731,9.731-9.731h94.208
		c5.374,0,9.731,4.357,9.731,9.731C367.417,416.742,363.06,421.1,357.686,421.1z"/>
	<path fill="#0F3782" d="M371.267,470.86H77.78c-5.375,0-9.731-4.357-9.731-9.731s4.356-9.731,9.731-9.731h293.486
		c5.374,0,9.731,4.357,9.731,9.731S376.641,470.86,371.267,470.86z"/>
	<path fill="#0F3782" d="M397.89,413.527c-0.011,0-0.022,0-0.035,0c-2.596-0.009-5.081-1.056-6.902-2.906l-16.199-16.469
		c-10.997-11.02-12.581-23.912-12.445-31.149l-31.203-31.271c-3.797-3.804-3.79-9.966,0.014-13.762
		c3.803-3.797,9.966-3.792,13.763,0.014l34.378,34.45c2.358,2.364,3.393,5.531,2.655,8.783c-0.162,0.987-1.556,10.998,6.664,19.236
		l9.361,9.516l40.157-40.243l-9.438-9.595c-8.507-8.524-18.949-6.654-19.053-6.634c-3.211,0.664-6.542-0.334-8.859-2.656
		l-34.376-34.451c-3.796-3.804-3.789-9.966,0.015-13.762c3.806-3.796,9.966-3.79,13.763,0.015l31.196,31.264
		c7.246-0.126,20.115,1.477,31.14,12.526l16.25,16.517c3.745,3.807,3.723,9.919-0.049,13.698l-53.906,54.021
		C402.952,412.499,400.474,413.527,397.89,413.527z"/>
	<path fill="#0F3782" d="M372.37,369.04c-2.487,0-4.974-0.947-6.874-2.843c-3.804-3.796-3.811-9.958-0.015-13.763l35.265-35.341
		c3.796-3.804,9.958-3.812,13.764-0.016c3.804,3.797,3.811,9.959,0.015,13.763l-35.265,35.342
		C377.358,368.087,374.864,369.04,372.37,369.04z"/>
	<path fill="#0D3779" d="M452.661,350.373l109.561,109.829c0,0,9.381,8.356-4.688,22.455l-26.809,26.866
		c-14.07,14.098-22.407,4.699-22.407,4.699l-109.562-109.83L452.661,350.373z"/>
	<path fill="#0F3782" d="M515.999,527.022c-8.187,0-13.19-4.483-14.662-6.019L391.865,411.266
		c-3.789-3.798-3.789-9.948,0.002-13.746l53.906-54.02c1.825-1.83,4.304-2.858,6.888-2.858c0,0,0,0,0.001,0
		c2.585,0,5.063,1.029,6.889,2.859l109.473,109.741c1.485,1.433,5.755,6.218,5.984,14.021c0.221,7.517-3.342,15.009-10.587,22.268
		l-26.808,26.866C530.576,523.448,523.304,527.022,515.999,527.022z M515.221,507.364c0.122,0.078,0.372,0.195,0.778,0.195
		c1.419,0,4.223-1.289,7.837-4.91l26.808-26.866c4.604-4.613,5.327-7.736,4.706-8.69c-0.006-0.007-0.012-0.012-0.018-0.018
		L452.66,364.151l-40.158,40.242L515.207,507.35C515.211,507.354,515.216,507.359,515.221,507.364z"/>
	<rect x="7.786" y="7.786" fill="none" width="564.429" height="564.429"/>
</g>
</svg>
