<?xml version="1.0" encoding="utf-8"?>
<!-- Generator: Adobe Illustrator 16.0.0, SVG Export Plug-In . SVG Version: 6.00 Build 0)  -->
<!DOCTYPE svg PUBLIC "-//W3C//DTD SVG 1.1//EN" "http://www.w3.org/Graphics/SVG/1.1/DTD/svg11.dtd">
<svg version="1.1" id="圖層_1" xmlns="http://www.w3.org/2000/svg" xmlns:xlink="http://www.w3.org/1999/xlink" x="0px" y="0px"
	 width="75px" height="75px" viewBox="0 0 75 75" enable-background="new 0 0 75 75" xml:space="preserve">
<g>
	<g>
		<path fill="#00A7E5" d="M71.799,75H3.201C1.433,75,0,73.566,0,71.799s1.433-3.201,3.201-3.201h68.598
			c1.768,0,3.201,1.434,3.201,3.201S73.566,75,71.799,75z"/>
	</g>
	<g>
		<g>
			<path fill="#00A7E5" d="M37.5,63.517c-2.021,0-3.661-1.639-3.661-3.66V3.661C33.838,1.639,35.478,0,37.5,0
				c2.021,0,3.66,1.639,3.66,3.661v56.196C41.159,61.878,39.521,63.517,37.5,63.517z"/>
		</g>
		<g>
			<path fill="#00A7E5" d="M37.5,65.732c-0.938,0-1.873-0.357-2.589-1.072L9.737,39.485c-1.43-1.431-1.43-3.748,0-5.177
				c1.43-1.43,3.748-1.429,5.177,0l25.174,25.175c1.429,1.43,1.429,3.748,0,5.177C39.374,65.375,38.436,65.732,37.5,65.732z"/>
		</g>
		<g>
			<path fill="#00A7E5" d="M37.5,65.732c-0.938,0-1.873-0.357-2.589-1.072c-1.429-1.429-1.429-3.747,0.001-5.177l25.174-25.175
				c1.428-1.43,3.746-1.43,5.177,0c1.43,1.43,1.43,3.747,0,5.177L40.088,64.66C39.374,65.375,38.436,65.732,37.5,65.732z"/>
		</g>
	</g>
</g>
</svg>
