<?xml version="1.0" encoding="utf-8"?>
<!-- Generator: Adobe Illustrator 16.0.0, SVG Export Plug-In . SVG Version: 6.00 Build 0)  -->
<!DOCTYPE svg PUBLIC "-//W3C//DTD SVG 1.1//EN" "http://www.w3.org/Graphics/SVG/1.1/DTD/svg11.dtd">
<svg version="1.1" id="圖層_1" xmlns="http://www.w3.org/2000/svg" xmlns:xlink="http://www.w3.org/1999/xlink" x="0px" y="0px"
	 width="250px" height="250px" viewBox="0 0 250 250" enable-background="new 0 0 250 250" xml:space="preserve">
<g>
	<g>
		<circle fill="#00A7E5" cx="125" cy="115.333" r="115.334"/>
		<g>
			<g>
				<g>
					<defs>
						<circle id="SVGID_1_" cx="125" cy="115.333" r="115.334"/>
					</defs>
					<clipPath id="SVGID_2_">
						<use xlink:href="#SVGID_1_"  overflow="visible"/>
					</clipPath>
					<g clip-path="url(#SVGID_2_)">
						<g>
							<g>
								<path fill="#FFFFFF" d="M57.342,191.979l1.651-0.146c0.084,0.665,0.266,1.21,0.554,1.64c0.29,0.428,0.732,0.769,1.338,1.027
									c0.604,0.264,1.278,0.391,2.033,0.387c0.666-0.004,1.258-0.109,1.769-0.31c0.508-0.202,0.888-0.479,1.136-0.829
									c0.248-0.354,0.372-0.73,0.37-1.141c-0.001-0.418-0.126-0.779-0.372-1.092c-0.244-0.31-0.644-0.565-1.198-0.776
									c-0.355-0.138-1.142-0.349-2.361-0.636c-1.215-0.287-2.067-0.56-2.56-0.816c-0.636-0.331-1.112-0.74-1.427-1.234
									c-0.314-0.492-0.47-1.049-0.475-1.662c-0.004-0.672,0.184-1.305,0.562-1.893c0.375-0.585,0.928-1.034,1.658-1.346
									c0.729-0.307,1.539-0.461,2.434-0.467c0.982-0.006,1.854,0.15,2.606,0.465c0.753,0.313,1.335,0.777,1.742,1.395
									c0.408,0.618,0.628,1.314,0.662,2.1l-1.698,0.123c-0.095-0.828-0.404-1.449-0.928-1.873
									c-0.521-0.42-1.292-0.629-2.307-0.623c-1.059,0.006-1.831,0.205-2.315,0.598c-0.479,0.393-0.719,0.861-0.716,1.413
									c0.003,0.477,0.176,0.868,0.521,1.177c0.337,0.305,1.219,0.618,2.644,0.934c1.424,0.314,2.402,0.594,2.938,0.832
									c0.778,0.355,1.351,0.801,1.723,1.349c0.372,0.545,0.563,1.177,0.565,1.889c0.005,0.706-0.195,1.378-0.594,2.005
									c-0.402,0.629-0.979,1.117-1.734,1.473c-0.754,0.351-1.603,0.529-2.55,0.533c-1.198,0.006-2.205-0.168-3.019-0.515
									c-0.812-0.351-1.449-0.873-1.914-1.579S57.368,192.873,57.342,191.979z"/>
								<path fill="#FFFFFF" d="M70.149,196.197l-0.051-9.661l1.466-0.011l0.008,1.365c0.299-0.476,0.699-0.857,1.199-1.148
									s1.072-0.438,1.711-0.44c0.714-0.003,1.298,0.142,1.755,0.438c0.459,0.295,0.784,0.705,0.974,1.24
									c0.759-1.131,1.753-1.699,2.979-1.709c0.961-0.004,1.7,0.26,2.221,0.783c0.519,0.528,0.783,1.346,0.787,2.446l0.035,6.629
									l-1.629,0.009l-0.031-6.082c-0.006-0.654-0.061-1.123-0.167-1.414c-0.109-0.285-0.303-0.518-0.585-0.688
									c-0.28-0.177-0.609-0.261-0.985-0.258c-0.683,0.004-1.247,0.229-1.694,0.685c-0.449,0.455-0.67,1.18-0.664,2.172
									l0.027,5.607l-1.629,0.01l-0.032-6.273c-0.005-0.727-0.14-1.271-0.407-1.629c-0.271-0.365-0.708-0.543-1.313-0.539
									c-0.458,0-0.883,0.121-1.273,0.369c-0.392,0.241-0.671,0.602-0.844,1.066c-0.175,0.468-0.258,1.138-0.254,2.02l0.026,5.01
									L70.149,196.197z"/>
								<path fill="#FFFFFF" d="M91.956,194.87c-0.585,0.522-1.159,0.892-1.724,1.11c-0.563,0.217-1.167,0.326-1.816,0.328
									c-1.066,0.008-1.89-0.248-2.465-0.766c-0.576-0.51-0.866-1.168-0.871-1.977c-0.002-0.473,0.103-0.902,0.317-1.293
									c0.215-0.393,0.497-0.709,0.848-0.944c0.35-0.238,0.743-0.418,1.184-0.542c0.322-0.086,0.81-0.171,1.463-0.252
									c1.329-0.165,2.309-0.354,2.936-0.578c0.005-0.223,0.009-0.365,0.009-0.43c-0.006-0.67-0.165-1.141-0.478-1.409
									c-0.423-0.37-1.05-0.55-1.882-0.548c-0.778,0.005-1.35,0.143-1.719,0.414c-0.368,0.271-0.641,0.752-0.814,1.438l-1.606-0.2
									c0.142-0.688,0.378-1.244,0.71-1.668c0.332-0.427,0.813-0.753,1.441-0.981c0.63-0.232,1.361-0.349,2.192-0.354
									c0.827-0.003,1.497,0.09,2.016,0.28c0.517,0.192,0.896,0.438,1.141,0.729c0.244,0.291,0.415,0.662,0.518,1.109
									c0.053,0.279,0.085,0.781,0.09,1.508l0.01,2.178c0.008,1.519,0.044,2.479,0.114,2.884c0.066,0.401,0.2,0.788,0.397,1.161
									l-1.677,0.009C92.118,195.736,92.005,195.336,91.956,194.87z M91.796,191.242c-0.594,0.244-1.482,0.455-2.673,0.631
									c-0.675,0.096-1.151,0.208-1.431,0.332c-0.279,0.122-0.493,0.299-0.643,0.533c-0.15,0.234-0.225,0.492-0.224,0.772
									c0.002,0.438,0.169,0.802,0.507,1.089c0.333,0.291,0.822,0.432,1.466,0.43c0.635-0.006,1.2-0.146,1.694-0.424
									c0.493-0.279,0.856-0.657,1.087-1.135c0.174-0.371,0.261-0.914,0.258-1.635L91.796,191.242z"/>
								<path fill="#FFFFFF" d="M95.979,196.063l-0.05-9.662l1.467-0.008l0.007,1.481c0.372-0.692,0.718-1.147,1.034-1.369
									c0.314-0.218,0.666-0.333,1.049-0.334c0.551-0.002,1.112,0.17,1.684,0.513l-0.576,1.512
									c-0.396-0.219-0.795-0.324-1.192-0.324c-0.354,0.005-0.673,0.113-0.955,0.33c-0.282,0.216-0.481,0.516-0.601,0.896
									c-0.178,0.582-0.267,1.217-0.263,1.907l0.027,5.047L95.979,196.063z"/>
								<path fill="#FFFFFF" d="M105.778,194.529l0.218,1.441c-0.463,0.103-0.873,0.152-1.238,0.153
									c-0.596,0.002-1.058-0.092-1.385-0.274c-0.33-0.184-0.561-0.431-0.695-0.735c-0.138-0.304-0.207-0.946-0.212-1.929
									l-0.029-5.547l-1.21,0.006l-0.007-1.279l1.211-0.008l-0.014-2.391l1.625-0.986l0.017,3.371l1.678-0.011l0.006,1.279
									l-1.677,0.01l0.029,5.629c0.003,0.466,0.034,0.767,0.093,0.896c0.06,0.133,0.154,0.237,0.289,0.313
									c0.132,0.08,0.324,0.119,0.571,0.116C105.232,194.587,105.476,194.566,105.778,194.529z"/>
								<path fill="#FFFFFF" d="M112.774,195.975l-0.069-13.316l5.904-0.032c1.188-0.004,2.089,0.108,2.706,0.347
									c0.617,0.233,1.112,0.656,1.487,1.26c0.371,0.604,0.558,1.271,0.561,2.004c0.006,0.949-0.296,1.748-0.9,2.397
									c-0.608,0.652-1.55,1.069-2.824,1.25c0.465,0.224,0.822,0.441,1.066,0.655c0.518,0.472,1.005,1.061,1.466,1.768l2.321,3.606
									l-2.2,0.014l-1.776-2.76c-0.517-0.799-0.943-1.406-1.279-1.827c-0.334-0.422-0.634-0.717-0.896-0.889
									c-0.266-0.169-0.534-0.286-0.806-0.352c-0.2-0.043-0.525-0.063-0.98-0.061l-2.042,0.012l0.032,5.915L112.774,195.975z
									 M114.504,188.516l3.785-0.021c0.804-0.004,1.43-0.095,1.885-0.263c0.452-0.166,0.793-0.436,1.028-0.803
									c0.234-0.369,0.349-0.766,0.347-1.195c-0.004-0.627-0.234-1.145-0.693-1.545c-0.457-0.403-1.179-0.604-2.165-0.601
									l-4.209,0.022L114.504,188.516z"/>
								<path fill="#FFFFFF" d="M132.561,192.75l1.688,0.201c-0.263,0.986-0.751,1.759-1.467,2.308
									c-0.72,0.55-1.64,0.829-2.759,0.834c-1.412,0.009-2.532-0.421-3.364-1.286c-0.833-0.861-1.252-2.078-1.262-3.646
									c-0.006-1.624,0.406-2.885,1.236-3.786c0.832-0.897,1.914-1.354,3.246-1.358c1.291-0.009,2.348,0.424,3.17,1.295
									c0.822,0.875,1.235,2.104,1.244,3.691c0,0.102-0.004,0.24-0.006,0.436l-7.211,0.041c0.064,1.059,0.373,1.871,0.916,2.434
									c0.545,0.563,1.221,0.84,2.025,0.833c0.604-0.001,1.113-0.16,1.537-0.479C131.982,193.945,132.314,193.441,132.561,192.75z
									 M127.164,190.124l5.4-0.028c-0.076-0.807-0.287-1.404-0.629-1.808c-0.523-0.622-1.205-0.931-2.037-0.925
									c-0.752,0.003-1.385,0.255-1.896,0.757C127.493,188.622,127.214,189.289,127.164,190.124z"/>
								<path fill="#FFFFFF" d="M142.639,194.605c-0.586,0.521-1.16,0.892-1.723,1.108c-0.564,0.216-1.168,0.327-1.816,0.329
									c-1.066,0.007-1.891-0.247-2.467-0.766c-0.576-0.512-0.865-1.17-0.869-1.975c-0.002-0.475,0.104-0.906,0.316-1.298
									c0.217-0.392,0.496-0.705,0.848-0.942c0.35-0.236,0.742-0.418,1.184-0.541c0.322-0.088,0.811-0.172,1.467-0.254
									c1.326-0.164,2.307-0.354,2.938-0.576c0.004-0.227,0.006-0.365,0.006-0.43c-0.004-0.668-0.164-1.14-0.479-1.41
									c-0.424-0.367-1.051-0.551-1.883-0.549c-0.777,0.006-1.354,0.146-1.719,0.416c-0.367,0.271-0.639,0.75-0.813,1.438
									l-1.607-0.199c0.145-0.688,0.379-1.247,0.713-1.667c0.332-0.424,0.813-0.751,1.438-0.984
									c0.633-0.229,1.363-0.347,2.195-0.352c0.824-0.003,1.492,0.088,2.012,0.279c0.521,0.193,0.896,0.438,1.143,0.729
									c0.246,0.292,0.418,0.664,0.52,1.112c0.055,0.276,0.084,0.78,0.088,1.506l0.014,2.179c0.006,1.521,0.045,2.479,0.113,2.885
									c0.066,0.402,0.199,0.791,0.395,1.164l-1.674,0.008C142.801,195.471,142.688,195.068,142.639,194.605z M142.479,190.977
									c-0.596,0.244-1.48,0.455-2.672,0.629c-0.676,0.103-1.152,0.211-1.432,0.336c-0.279,0.119-0.49,0.3-0.643,0.531
									c-0.15,0.232-0.227,0.493-0.221,0.775c0,0.436,0.164,0.801,0.502,1.084c0.334,0.291,0.822,0.438,1.467,0.432
									c0.635-0.003,1.203-0.144,1.693-0.423c0.492-0.278,0.854-0.657,1.09-1.136c0.172-0.369,0.26-0.912,0.258-1.635
									L142.479,190.977z"/>
								<path fill="#FFFFFF" d="M152.924,195.762l-0.006-1.232c-0.607,0.969-1.502,1.451-2.688,1.457
									c-0.77,0.007-1.477-0.201-2.125-0.625c-0.646-0.42-1.146-1.008-1.504-1.769c-0.361-0.758-0.543-1.629-0.547-2.616
									c-0.008-0.965,0.148-1.838,0.467-2.621c0.314-0.789,0.793-1.391,1.434-1.812c0.639-0.423,1.354-0.635,2.145-0.637
									c0.582-0.005,1.096,0.116,1.551,0.356c0.457,0.242,0.826,0.561,1.113,0.947l-0.023-4.77l1.629-0.006l0.07,13.317
									L152.924,195.762z M147.73,190.963c0.006,1.236,0.271,2.157,0.799,2.768c0.525,0.607,1.145,0.91,1.855,0.905
									c0.717-0.002,1.322-0.299,1.822-0.886c0.498-0.588,0.742-1.48,0.734-2.678c-0.004-1.32-0.266-2.288-0.777-2.901
									c-0.516-0.614-1.145-0.919-1.893-0.915c-0.729,0.003-1.342,0.305-1.822,0.9C147.963,188.75,147.725,189.688,147.73,190.963z
									"/>
								<path fill="#FFFFFF" d="M156.977,184.286l-0.01-1.862l1.629-0.008l0.012,1.861L156.977,184.286z M157.037,195.741
									l-0.051-9.662l1.629-0.011l0.053,9.664L157.037,195.741z"/>
								<path fill="#FFFFFF" d="M161.172,195.721l-0.051-9.662l1.465-0.009l0.008,1.37c0.703-1.059,1.723-1.588,3.057-1.598
									c0.582-0.002,1.113,0.103,1.604,0.307c0.486,0.204,0.854,0.48,1.097,0.814c0.241,0.34,0.414,0.742,0.512,1.211
									c0.063,0.301,0.101,0.828,0.103,1.588l0.033,5.938l-1.631,0.008l-0.033-5.869c-0.002-0.666-0.065-1.164-0.196-1.494
									c-0.13-0.327-0.354-0.592-0.679-0.787c-0.326-0.194-0.707-0.291-1.142-0.288c-0.694,0.005-1.295,0.228-1.797,0.672
									c-0.506,0.446-0.754,1.286-0.744,2.521l0.024,5.271L161.172,195.721z"/>
								<path fill="#FFFFFF" d="M171.223,196.459l1.586,0.2c0.07,0.502,0.256,0.866,0.564,1.093
									c0.408,0.311,0.969,0.462,1.674,0.457c0.764-0.004,1.35-0.159,1.766-0.464c0.41-0.304,0.691-0.726,0.836-1.272
									c0.08-0.336,0.119-1.031,0.104-2.095c-0.711,0.84-1.603,1.263-2.672,1.271c-1.332,0.009-2.365-0.469-3.101-1.424
									c-0.735-0.951-1.106-2.098-1.112-3.435c-0.005-0.925,0.157-1.774,0.491-2.558c0.328-0.778,0.812-1.381,1.445-1.813
									c0.631-0.428,1.379-0.645,2.235-0.646c1.146-0.004,2.092,0.457,2.838,1.383l-0.006-1.188l1.469-0.008l0.043,8.348
									c0.009,1.502-0.143,2.567-0.442,3.197c-0.303,0.628-0.782,1.124-1.444,1.492c-0.658,0.366-1.476,0.557-2.442,0.561
									c-1.15,0.006-2.08-0.248-2.793-0.765C171.551,198.279,171.203,197.501,171.223,196.459z M172.543,190.659
									c0.006,1.271,0.266,2.194,0.775,2.774c0.506,0.574,1.143,0.864,1.904,0.861c0.756-0.004,1.389-0.298,1.9-0.883
									c0.506-0.579,0.758-1.49,0.75-2.729c-0.006-1.184-0.275-2.069-0.807-2.672c-0.529-0.597-1.166-0.894-1.908-0.891
									c-0.734,0.004-1.354,0.301-1.863,0.896C172.789,188.616,172.537,189.496,172.543,190.659z"/>
							</g>
							<g>
								<g>
									<path fill="#DFC44A" d="M50.458,58.812c-0.685-3.122,1.966-5.883,2.047-6.666c0.275-2.704,2.256-4.979,4.47-6.695
										c3.961-3.074,7.837-6.295,11.672-9.487c2.607-2.18,5.043-5.405,8.287-5.855c0.725-0.099,1.783-0.047,2.461-0.314
										c1.322-0.534,2.363-2.249,3.507-3.098c1.505-1.129,2.531-1.242,4.286-1.577c2.945-0.566,6.209-1.407,9.053-2.416
										c3.098-1.098,6.115-1.983,9.376-2.762c3.483-0.831,6.983-0.584,10.481-0.65c4.666-0.087,9.239-0.678,13.893-0.613
										c2.227,0.03,4.409,0.1,6.602,0.521c3.759,0.724,7.017,3.186,10.91,3.927c2.181,0.415,4.401,0.738,6.601,1.202
										c1.287,0.264,2.69,0.307,3.836,1.058c1.392,0.92,2.67,1.986,4.103,2.955c3.485,2.386,6.008,5.938,9.312,8.674
										c2.121,1.756,5.084,2.882,7.092,4.517c1.345,1.088,2.451,2.257,4.093,3.107c1.666,0.857,3.916,1.195,5.313,2.59
										c1.352,1.351,2.348,3.564,3.398,5.157c0.754,1.143,1.539,2.076,2.158,3.234c0.615,1.149,0.938,2.325,1.471,3.496
										c0.941,2.06,1.754,2.889,0.613,4.478c-0.998,1.386-0.432,1.494,0.771,3.435c0.846,1.375,0.752,2.502,1.254,4.005
										c0.754,2.248,2.336,4.35,3.022,6.541c0.687,2.191,0.783,4.782,1.166,7.028c0.608,3.556,1.928,7.311,2.074,10.812
										c0.034,0.777,0.231,2.046-0.019,2.709c-0.369,0.998-1.539,1.573-2.013,2.58c-0.935,1.991-1.877,5.053-3.647,6.429
										c-0.987,0.773-1.326,0.115-2.845,0.101c-1.286-0.014-2.021,0.443-2.313,1.754c-0.489,2.155,0.16,4.85-0.022,7.115
										c-0.223,2.989-2.039,5.93-4.295,7.572c-1.178,0.862-2.729,0.887-3.793,1.85c-1.274,1.154-2.11,2.742-3.619,3.673
										c-1.812,1.104-3.952,1.965-6.043,2.819c-1.396,0.561-2.795,1.441-4.418,1.549c-1.228,0.072-2.526-0.299-3.776-0.268
										c-3.724,0.104-6.474,1.711-10.492,0.774c-1.217-0.281-2.666-0.974-3.639-1.761c-2.115-1.728-1.521-3.312-2.021-5.513
										c-0.662-2.907-2.471-6.368-4.152-8.715c-2.842-3.94,0.666-7.25,0.938-11.089c0.318-4.508-3.834-6.946-6.092-10.431
										c-0.814-1.259-1.896-3.479-1.912-4.984c-0.01-1.277,1.307-1.736,1.211-3.01c-0.213-2.776-4.172-1.805-5.791-2.568
										c-0.922-0.433-1.547-1.937-2.23-2.741c-0.982-1.143-2.164-2.247-3.361-3.156c-1.418-1.07-3.01-1.538-4.605-2.298
										c-1.003-0.473-2.037-0.904-3.22-0.63c-1.617,0.376-3.54,2.471-4.94,3.448c-1.842,1.288-3.61,2.7-5.368,4.118
										c-1.159,0.928-2.278,2.154-3.013,3.438c-0.635,1.104-0.809,2.678-1.862,3.507c-3.422,2.696-2.043-2.63-2.56-4.029
										c-0.423-1.121-1.512-0.527-2.524-1.423c-1.001-0.883-1.121-2.784-2.073-3.619c-0.112-0.195-0.234-0.384-0.358-0.577
										c-1.389,0.279-2.453,2.997-3.208,4.137c-0.734,1.109-1.69,2.442-2.808,3.258c-1.042,0.759-2.224,1.031-3.359,1.701
										c-1.313,0.779-1.537,1.546-2.372,2.889c-1.373,2.216-2.979,0.826-4.92,2.055c-0.946,0.599-1.064,1.455-2.19,1.859
										c-1.288,0.463-2.606-0.267-3.763-0.563c-2.419-0.615-4.824-0.289-7.457,0.229c-3.496,0.7-5.666,0.752-8.95-0.119
										c-2.413-0.635-4.781-0.522-7.377-0.686c-3.923-0.239-5.266-4.368-5.259-7.995c0.007-2.178,0.01-4.319-0.173-6.446
										c-0.144-1.776-0.751-3.46-0.777-5.237c0.003,0.01-1.218-2.92,2.841-6.511c4.064-3.563,1.092-0.506-0.269-2.608
										C48.104,66.846,51.232,62.31,50.458,58.812z"/>
									<path fill="#00A7E5" d="M156.174,135.15c-1.381-0.33-2.963-1.104-4.035-1.967c-1.893-1.548-2.041-3.08-2.186-4.567
										c-0.049-0.501-0.1-1.022-0.221-1.564c-0.688-3.004-2.57-6.356-3.975-8.313c-2.217-3.072-1.162-5.863-0.232-8.325
										c0.453-1.206,0.881-2.341,0.963-3.493c0.186-2.641-1.455-4.466-3.355-6.579c-0.891-0.99-1.809-2.013-2.557-3.165
										c-0.768-1.183-2.072-3.691-2.096-5.578c-0.006-0.999,0.479-1.665,0.83-2.151c0.299-0.406,0.398-0.568,0.385-0.79
										c-0.029-0.399-0.127-0.723-1.043-0.943c-0.484-0.116-1.068-0.166-1.637-0.214c-0.896-0.078-1.843-0.186-2.474-0.482
										c-0.899-0.424-1.483-1.345-2.005-2.157c-0.203-0.319-0.396-0.632-0.604-0.873c-0.914-1.061-2.047-2.126-3.186-2.988
										c-0.881-0.666-1.879-1.086-2.938-1.531c-0.488-0.206-0.98-0.415-1.478-0.649c-0.786-0.372-1.728-0.726-2.486-0.55
										c-0.843,0.196-2.046,1.219-3.014,2.041c-0.549,0.467-1.072,0.908-1.538,1.233c-1.793,1.254-3.533,2.642-5.308,4.072
										c-1.12,0.896-2.12,2.035-2.745,3.126c-0.179,0.31-0.326,0.708-0.482,1.128c-0.342,0.923-0.73,1.971-1.658,2.701
										c-0.655,0.517-1.644,1.178-2.636,0.94h-0.001c-1.623-0.388-1.607-2.39-1.596-3.999c0.004-0.498,0.011-1.25-0.065-1.463
										c-0.001-0.024-0.045-0.045-0.197-0.082l-0.418-0.095c-0.448-0.107-1.036-0.295-1.603-0.796
										c-0.705-0.623-1.055-1.501-1.361-2.276c-0.194-0.486-0.393-0.987-0.625-1.256c-0.481,0.567-1.029,1.575-1.308,2.087
										c-0.246,0.451-0.47,0.861-0.673,1.167c-0.771,1.165-1.817,2.622-3.08,3.544c-0.692,0.504-1.401,0.81-2.089,1.106
										c-0.477,0.205-0.931,0.399-1.36,0.655c-0.795,0.471-1.039,0.892-1.528,1.736c-0.139,0.237-0.288,0.496-0.464,0.78
										c-1.1,1.772-2.5,1.879-3.523,1.957c-0.629,0.048-1.174,0.088-1.748,0.453c-0.257,0.163-0.428,0.367-0.645,0.628
										c-0.371,0.447-0.836,1.005-1.767,1.337c-0.978,0.353-1.884,0.205-2.48,0.061c-0.39-0.092-0.773-0.221-1.148-0.346
										c-0.27-0.091-0.534-0.181-0.787-0.246c-0.002,0-0.003,0-0.004,0c-2.171-0.52-4.259-0.289-6.961,0.243
										c-3.35,0.672-5.786,0.835-9.453-0.135l-0.259-0.066c-1.572-0.376-3.17-0.432-4.862-0.493
										c-0.667-0.024-1.346-0.047-2.038-0.091c-4.667-0.282-6.314-5.057-6.308-9.113c0.007-1.973,0.016-4.206-0.168-6.35
										c-0.06-0.727-0.204-1.446-0.357-2.204c-0.19-0.943-0.387-1.915-0.42-2.944c-0.274-0.941-0.752-4.024,3.214-7.532
										c0.127-0.111,0.245-0.216,0.357-0.314c-0.32-0.215-0.599-0.5-0.824-0.851c-0.627-0.963-0.175-2.246,0.453-4.023
										c0.606-1.723,1.362-3.866,0.991-5.539c-0.589-2.684,0.804-5.006,1.636-6.393c0.165-0.275,0.371-0.619,0.411-0.735
										c0.25-2.537,1.896-5.048,4.875-7.358c4.063-3.153,8.09-6.505,11.643-9.463c0.644-0.538,1.277-1.144,1.916-1.753
										c2.043-1.95,4.156-3.964,6.934-4.35c0.27-0.037,0.577-0.057,0.896-0.075c0.456-0.027,1.022-0.061,1.309-0.172
										c0.558-0.226,1.17-0.888,1.762-1.528c0.469-0.506,0.952-1.03,1.489-1.428c1.581-1.185,2.788-1.411,4.313-1.697l0.429-0.081
										c3.092-0.593,6.25-1.436,8.891-2.371c3.127-1.108,6.143-1.997,9.489-2.796c2.832-0.675,5.657-0.672,8.392-0.667
										c0.775,0,1.551,0.001,2.328-0.013c2.009-0.036,4.044-0.172,6.013-0.302c2.58-0.171,5.248-0.348,7.914-0.31
										c2.171,0.029,4.481,0.096,6.799,0.541c1.978,0.379,3.82,1.208,5.595,2.008c1.787,0.807,3.467,1.563,5.313,1.917
										c0.886,0.168,1.773,0.322,2.668,0.476c1.316,0.227,2.645,0.455,3.953,0.732c0.291,0.059,0.592,0.106,0.896,0.155
										c1.26,0.2,2.459,0.493,3.324,1.062c0.75,0.496,1.469,1.031,2.189,1.571c0.627,0.469,1.26,0.941,1.928,1.394
										c2.09,1.431,3.842,3.253,5.535,5.014c1.226,1.274,2.494,2.593,3.855,3.724c1.01,0.836,2.287,1.551,3.521,2.243
										c1.234,0.693,2.515,1.41,3.564,2.268c0.367,0.299,0.725,0.606,1.072,0.911c0.898,0.777,1.746,1.511,2.828,2.071
										c0.514,0.264,1.119,0.483,1.76,0.714c1.283,0.465,2.74,0.993,3.828,2.078c1.018,1.015,1.799,2.374,2.557,3.689
										c0.332,0.577,0.656,1.142,0.986,1.642c0.262,0.395,0.523,0.761,0.783,1.124c0.488,0.682,0.994,1.389,1.428,2.2
										c0.396,0.735,0.672,1.462,0.939,2.166c0.176,0.463,0.352,0.928,0.561,1.391c0.158,0.338,0.313,0.644,0.449,0.925
										c0.717,1.443,1.395,2.807,0.057,4.669c-0.268,0.374-0.303,0.5-0.305,0.514c0.031,0.046,0.25,0.373,0.445,0.659
										c0.191,0.28,0.42,0.613,0.672,1.023c0.641,1.038,0.83,1.95,1.014,2.832c0.092,0.441,0.186,0.902,0.354,1.408
										c0.342,1.012,0.867,2.004,1.43,3.055c0.602,1.125,1.223,2.289,1.602,3.505c0.484,1.548,0.688,3.229,0.885,4.856
										c0.098,0.793,0.193,1.576,0.32,2.32c0.219,1.287,0.547,2.647,0.863,3.963c0.557,2.303,1.127,4.685,1.227,6.99
										c0.006,0.172,0.021,0.374,0.039,0.585c0.068,0.856,0.146,1.826-0.127,2.564c-0.277,0.745-0.813,1.271-1.277,1.734
										c-0.324,0.321-0.631,0.623-0.773,0.927c-0.201,0.428-0.402,0.909-0.613,1.412c-0.818,1.957-1.75,4.173-3.359,5.425
										c-1.041,0.815-1.85,0.627-2.494,0.48c-0.299-0.07-0.607-0.141-1.043-0.145c-0.881-0.01-1.063,0.189-1.217,0.882
										c-0.246,1.087-0.154,2.391-0.063,3.77c0.07,1.057,0.148,2.151,0.064,3.189c-0.238,3.163-2.104,6.455-4.75,8.384
										c-0.684,0.501-1.436,0.76-2.096,0.993c-0.648,0.227-1.207,0.422-1.609,0.783c-0.443,0.402-0.844,0.883-1.266,1.393
										c-0.713,0.857-1.447,1.742-2.516,2.4c-1.824,1.112-3.934,1.976-5.971,2.806l-0.238,0.103
										c-0.354,0.139-0.709,0.303-1.066,0.471c-1.076,0.496-2.299,1.063-3.695,1.156c-0.756,0.045-1.482-0.047-2.184-0.136
										c-0.584-0.071-1.129-0.144-1.643-0.13c-1.313,0.037-2.486,0.271-3.732,0.521c-2.117,0.426-4.305,0.861-7.041,0.226
										C156.225,135.164,156.176,135.15,156.174,135.15z M139.172,85.542c2.127,0.508,2.672,1.884,2.75,2.948
										c0.08,1.061-0.428,1.761-0.803,2.273c-0.287,0.396-0.404,0.58-0.402,0.815c0.014,1.127,0.904,3.102,1.736,4.385
										c0.646,1.003,1.471,1.916,2.342,2.884c2.053,2.283,4.178,4.644,3.924,8.231c-0.104,1.478-0.613,2.824-1.102,4.125
										c-0.873,2.305-1.559,4.128-0.043,6.231c1.525,2.128,3.576,5.791,4.336,9.119c0.156,0.684,0.215,1.301,0.268,1.85
										c0.127,1.308,0.201,2.095,1.373,3.049c0.813,0.656,2.078,1.271,3.145,1.523l-0.262,1.09l0.299-1.078
										c2.268,0.527,4.129,0.154,6.1-0.24c1.283-0.255,2.607-0.521,4.109-0.563c0.684-0.019,1.346,0.064,1.979,0.146
										c0.632,0.077,1.228,0.153,1.767,0.122c0.978-0.065,1.91-0.498,2.899-0.956c0.392-0.181,0.776-0.36,1.166-0.517l0.231-0.097
										c1.955-0.799,3.979-1.622,5.646-2.641c0.752-0.464,1.341-1.173,1.966-1.923c0.452-0.547,0.922-1.112,1.485-1.625
										c0.737-0.664,1.604-0.967,2.371-1.236c0.563-0.196,1.096-0.382,1.514-0.685c2.107-1.538,3.65-4.251,3.841-6.754
										c0.069-0.878,0.004-1.842-0.065-2.862c-0.103-1.479-0.207-3.01,0.11-4.417c0.396-1.762,1.549-2.645,3.42-2.622
										c0.677,0.005,1.166,0.117,1.521,0.2c0.142,0.033,0.353,0.08,0.397,0.072c0,0,0.063-0.016,0.222-0.137
										c1.149-0.894,1.961-2.823,2.674-4.526c0.226-0.532,0.438-1.043,0.651-1.499c0.313-0.664,0.8-1.143,1.224-1.565
										c0.336-0.33,0.647-0.639,0.754-0.928c0.104-0.276,0.035-1.137-0.002-1.601c-0.021-0.244-0.039-0.474-0.047-0.673
										c-0.088-2.087-0.636-4.361-1.166-6.559c-0.324-1.352-0.66-2.748-0.896-4.111c-0.133-0.779-0.229-1.598-0.332-2.428
										c-0.187-1.526-0.375-3.104-0.801-4.454c-0.318-1.02-0.863-2.042-1.438-3.124c-0.578-1.084-1.175-2.208-1.576-3.398
										c-0.205-0.615-0.319-1.172-0.422-1.662c-0.162-0.787-0.291-1.409-0.728-2.112c-0.229-0.375-0.438-0.68-0.613-0.938
										c-0.846-1.238-1.305-2.08-0.108-3.737c0.531-0.741,0.459-0.951-0.244-2.37c-0.149-0.301-0.313-0.627-0.479-0.991
										c-0.231-0.509-0.428-1.019-0.62-1.527c-0.253-0.667-0.492-1.296-0.82-1.904c-0.362-0.685-0.808-1.302-1.272-1.956
										c-0.274-0.384-0.558-0.775-0.83-1.193c-0.354-0.536-0.705-1.139-1.06-1.758c-0.687-1.188-1.393-2.417-2.198-3.223
										c-0.733-0.734-1.843-1.134-3.015-1.557c-0.678-0.246-1.377-0.499-2.021-0.831c-1.319-0.684-2.308-1.54-3.265-2.368
										c-0.334-0.289-0.668-0.58-1.021-0.864c-0.903-0.738-2.043-1.377-3.247-2.052c-1.32-0.741-2.687-1.508-3.853-2.472
										c-1.466-1.212-2.772-2.576-4.045-3.896c-1.689-1.758-3.285-3.417-5.185-4.717c-0.69-0.468-1.353-0.961-2.009-1.449
										c-0.688-0.516-1.368-1.026-2.079-1.496c-0.57-0.374-1.511-0.572-2.445-0.721c-0.336-0.052-0.672-0.107-1-0.175
										c-1.293-0.271-2.586-0.494-3.877-0.718c-0.905-0.154-1.812-0.31-2.705-0.481c-2.092-0.403-3.991-1.253-5.813-2.074
										c-1.735-0.783-3.364-1.513-5.096-1.851c-2.14-0.411-4.339-0.473-6.408-0.5c-2.58-0.037-5.201,0.136-7.735,0.305
										c-1.995,0.133-4.058,0.27-6.12,0.307c-0.791,0.015-1.581,0.015-2.372,0.013c-2.724-0.003-5.296-0.007-7.87,0.607
										c-3.267,0.779-6.209,1.646-9.262,2.728c-2.744,0.973-6.017,1.846-9.216,2.46l-0.438,0.083
										c-1.432,0.268-2.221,0.416-3.389,1.291c-0.372,0.277-0.767,0.703-1.185,1.154c-0.725,0.783-1.544,1.67-2.573,2.086
										c-0.628,0.247-1.359,0.289-2.006,0.328c-0.258,0.015-0.507,0.028-0.723,0.058c-2.061,0.287-3.908,2.048-5.694,3.753
										c-0.675,0.643-1.346,1.283-2.028,1.852c-3.567,2.971-7.61,6.336-11.704,9.513c-1.702,1.319-3.786,3.419-4.042,5.925
										c-0.048,0.468-0.306,0.899-0.696,1.55c-0.704,1.175-1.769,2.949-1.371,4.762c0.509,2.295-0.364,4.772-1.066,6.763
										c-0.265,0.752-0.621,1.765-0.625,2.148c0.111,0.141,0.219,0.182,0.311,0.205c0.197,0.047,0.438,0.011,0.613-0.016
										c0.188-0.028,0.398-0.06,0.646,0c0.408,0.098,0.75,0.433,0.849,0.841c0.174,0.719-0.211,1.049-1.139,1.844
										c-0.312,0.268-0.728,0.624-1.271,1.101c-3.326,2.943-2.57,5.171-2.537,5.265c0.043,0.116,0.075,0.265,0.077,0.389
										c0.014,0.884,0.191,1.767,0.381,2.702c0.159,0.789,0.324,1.605,0.394,2.461c0.191,2.239,0.183,4.523,0.175,6.542
										c-0.005,3.115,1.082,6.687,4.21,6.876c0.676,0.042,1.334,0.064,1.98,0.088c1.808,0.063,3.514,0.125,5.304,0.552
										l0.903,0.228c2.628,0.629,4.536,0.619,7.853-0.045c2.461-0.485,5.089-0.904,7.803-0.254
										c0.004,0.001,0.145,0.036,0.149,0.037c0.308,0.079,0.624,0.183,0.947,0.292c0.805,0.271,1.638,0.492,2.163,0.302
										c0.342-0.122,0.492-0.292,0.803-0.664c0.273-0.328,0.612-0.736,1.166-1.087c1.047-0.661,2.006-0.735,2.776-0.793
										c0.913-0.068,1.291-0.098,1.793-0.905c0.162-0.264,0.301-0.502,0.429-0.724c0.55-0.949,1.025-1.768,2.321-2.538
										c0.557-0.328,1.096-0.561,1.617-0.786c0.6-0.257,1.167-0.501,1.654-0.858c0.975-0.711,1.866-1.961,2.534-2.973
										c0.174-0.261,0.363-0.614,0.571-0.999c0.8-1.472,1.794-3.304,3.349-3.618c0.453-0.089,0.916,0.105,1.162,0.495
										c0.116,0.181,0.212,0.331,0.299,0.473c0.578,0.581,0.889,1.363,1.166,2.059c0.225,0.569,0.458,1.158,0.765,1.427
										c0.187,0.166,0.378,0.234,0.643,0.297l0.418,0.095c0.398,0.096,1.334,0.32,1.77,1.475c0.22,0.594,0.215,1.368,0.208,2.262
										c-0.004,0.458-0.009,1.22,0.062,1.673c0.125-0.076,0.311-0.196,0.554-0.388c0.433-0.341,0.682-1.012,0.944-1.723
										c0.181-0.487,0.368-0.991,0.64-1.463c0.77-1.344,1.937-2.677,3.285-3.755c1.801-1.453,3.574-2.867,5.426-4.161
										c0.417-0.292,0.881-0.689,1.372-1.105c1.21-1.028,2.584-2.196,3.956-2.514c0.696-0.162,1.398-0.153,2.147,0.026
										c0.668,0.16,1.28,0.436,1.801,0.682c0.464,0.22,0.927,0.415,1.386,0.607c1.137,0.479,2.313,0.974,3.418,1.81
										c1.279,0.971,2.5,2.118,3.535,3.318c0.269,0.313,0.524,0.71,0.789,1.124c0.318,0.501,0.754,1.187,1.07,1.335
										c0.305,0.143,1.002,0.217,1.711,0.278C137.855,85.33,138.527,85.387,139.172,85.542z"/>
								</g>
								<path fill="#00A7E5" d="M61.584,98.616l-0.902-1.186c0.839-0.639,1.662-1.226,2.451-1.789
									c3.932-2.804,6.773-4.83,7.095-9.874c0.251-3.888-0.696-7.269-1.7-10.848c-0.63-2.251-1.282-4.578-1.601-7.025
									c-1.199-9.141,6.732-19.125,16.639-20.947c0.378-0.077,9.622-1.917,12.951,1.404c1.016,1.012,1.364,2.353,1.036,3.984
									l-1.461-0.293c0.227-1.127,0.021-1.988-0.626-2.635c-2.059-2.048-8.074-1.72-11.618-0.998
									C74.657,50.1,67.302,59.294,68.404,67.701c0.305,2.341,0.942,4.615,1.559,6.814c0.994,3.542,2.021,7.204,1.752,11.347
									c-0.367,5.75-3.772,8.178-7.714,10.99C63.22,97.409,62.41,97.986,61.584,98.616z"/>
								<path fill="#00A7E5" d="M88.107,47.013c-0.612-1.964-0.297-4.185,0.892-6.252c1.553-2.701,4.449-4.877,7.376-5.548
									l0.332,1.453c-2.542,0.582-5.061,2.48-6.416,4.836c-0.691,1.206-1.388,3.062-0.76,5.068L88.107,47.013z"/>
								<path fill="#00A7E5" d="M91.444,90.27c-3.465-0.83-6.46-6.117-8.159-9.116l-0.391-0.685
									c-3.513-6.077-4.176-11.354-4.172-18.97l1.49,0.001c-0.004,7.356,0.628,12.438,3.972,18.223l0.398,0.698
									c1.491,2.634,4.984,8.799,8.029,8.457l0.169,1.48C92.329,90.408,91.883,90.375,91.444,90.27z"/>
								<path fill="#00A7E5" d="M95.546,59.671c-2.208-0.528-4.369-1.413-6.253-2.438l0.713-1.31
									c4.584,2.496,10.899,4.145,14.868,1.276c2.814-2.032,4.627-5.83,4.51-9.448c-0.089-2.758-1.256-4.979-3.285-6.253
									l0.793-1.262c2.463,1.546,3.877,4.199,3.982,7.466c0.134,4.157-1.878,8.358-5.127,10.705
									C102.93,60.442,99.178,60.541,95.546,59.671z"/>
								<path fill="#00A7E5" d="M96.355,86.894c-0.534-0.448-0.934-0.643-1.319-0.832c-0.511-0.249-1.038-0.506-1.631-1.225
									c-1.478-1.8-1.9-4.488-1.258-7.989c0.73-4.014,3.541-7.972,7.159-10.087c0.794-0.469,1.688-0.798,2.555-1.118
									c1.681-0.621,3.27-1.206,4.09-2.743c0.439-0.822,0.597-2.34,0.149-3.146c-0.174-0.312-0.406-0.456-0.758-0.481l0.095-1.488
									c0.85,0.055,1.547,0.498,1.964,1.246c0.729,1.307,0.497,3.392-0.136,4.573c-1.09,2.036-3.107,2.781-4.889,3.438
									c-0.841,0.31-1.634,0.603-2.313,1.005c-3.215,1.876-5.804,5.521-6.45,9.07c-0.561,3.052-0.243,5.33,0.942,6.774
									c0.387,0.469,0.684,0.614,1.134,0.834c0.423,0.207,0.949,0.463,1.624,1.03L96.355,86.894z"/>
								<path fill="#00A7E5" d="M64.343,60.881c-0.531-0.128-1.032-0.317-1.505-0.569c-3.229-1.722-4.501-5.969-5.623-9.717
									c-0.525-1.76-1.022-3.419-1.658-4.609l1.313-0.703c0.708,1.321,1.226,3.053,1.775,4.886
									c1.037,3.469,2.214,7.399,4.895,8.829c1.405,0.749,3.132,0.79,5.282,0.124l0.44,1.424
									C67.426,61.113,65.778,61.225,64.343,60.881z"/>
								<path fill="#00A7E5" d="M47.203,86.216c-0.27-0.065-0.518-0.14-0.741-0.222l0.517-1.397
									c2.554,0.946,9.181,0.459,12.744-2.127c1.587-1.151,2.358-2.56,2.295-4.185l1.488-0.058
									c0.084,2.123-0.922,4.007-2.908,5.449C56.775,86.449,50.429,86.988,47.203,86.216z"/>
								<path fill="#00A7E5" d="M56.326,84.628c-1.871-6.099-1.017-17.747,5.423-22.859l0.926,1.168
									c-5.702,4.526-6.71,15.43-4.925,21.254L56.326,84.628z"/>
								<path fill="#00A7E5" d="M123.718,77.925l-0.101-1.487c3.213-0.219,4.031-6.259,4.01-9.793
									c-0.007-0.853,0.005-1.701,0.018-2.546c0.045-3.101,0.086-6.029-0.736-8.965c-0.913-3.269-2.699-6.351-4.427-9.333
									l-0.105-0.182c-0.954-1.661-2.396-3.232-3.788-4.751c-2.551-2.786-5.188-5.666-5.369-9.468
									c-0.185-3.661,2.059-10.432,4.938-13.113l1.015,1.09c-2.306,2.147-4.643,8.401-4.465,11.95
									c0.156,3.267,2.5,5.825,4.981,8.533c1.446,1.58,2.942,3.214,3.979,5.014l0.104,0.18c1.774,3.063,3.609,6.229,4.571,9.678
									c0.885,3.142,0.842,6.318,0.795,9.389c-0.012,0.835-0.021,1.672-0.018,2.516C129.129,68.457,128.922,77.569,123.718,77.925z
									"/>
								<path fill="#00A7E5" d="M136.297,38.386c-0.391-0.093-0.756-0.224-1.086-0.401c-2.658-1.423-2.889-3.688-3.093-5.687
									c-0.077-0.75-0.155-1.525-0.356-2.241c-0.566-2.06-1.691-3.264-3.438-3.682c-0.015-0.004-0.026-0.007-0.04-0.01
									c-4.229-0.978-10.975,2.984-13.762,6.141l-1.116-0.985c3.032-3.437,10.194-7.766,15.214-6.606
									c2.27,0.506,3.869,2.17,4.58,4.745c0.232,0.836,0.318,1.676,0.402,2.488c0.197,1.94,0.355,3.475,2.314,4.524
									c1.063,0.575,3.066,0.563,5.648-0.025c3.918-0.894,4.451-2.994,5.418-6.804l0.754,0.063l0.723,0.183
									c-0.994,3.917-1.756,6.915-6.564,8.012C140.205,38.484,138.008,38.796,136.297,38.386z"/>
								<path fill="#00A7E5" d="M128.645,63.272l0.017-1.489c0.44,0.004,0.868,0.018,1.288,0.029
									c1.854,0.056,3.459,0.103,5.139-0.597c3.387-1.422,7.188-5.766,7.209-9.45l1.49,0.01c-0.023,4.373-4.305,9.209-8.125,10.814
									c-1.979,0.826-3.813,0.771-5.758,0.713C129.494,63.29,129.074,63.277,128.645,63.272z"/>
								<path fill="#00A7E5" d="M142.813,52.404c-3.479-0.833-7.984-4.317-7.715-8.443l1.484,0.097
									c-0.225,3.451,4.111,6.578,7.125,7.003c4.385,0.598,7.768-0.754,10.051-4.019l1.223,0.855
									c-2.631,3.758-6.492,5.318-11.479,4.639C143.277,52.505,143.047,52.46,142.813,52.404z"/>
								<path fill="#00A7E5" d="M114.792,81.45c-2.396-0.574-4.136-4.235-4.771-7.615c-0.639-3.39-0.379-7.425,2.267-8.584
									l0.599,1.364c-1.729,0.758-1.949,4.034-1.401,6.944c0.673,3.57,2.396,6.421,3.909,6.477l-0.061,1.49
									C115.149,81.518,114.97,81.493,114.792,81.45z"/>
								<path fill="#00A7E5" d="M138.215,87.616c-2.174-4.98,0.811-7.39,3.973-9.943c1.139-0.917,2.311-1.865,3.393-3.007
									c2.863-3.025,5.979-4.119,10.762-3.773c0.881,0.063,1.799,0.201,2.766,0.348c2.492,0.378,5.066,0.769,6.855-0.242
									c1.855-1.041,3.047-2.803,3.531-5.233c1.039-5.203-1.414-12.229-4.387-16.017l-0.441-0.561
									c-2.883-3.655-4.785-6.068-4.977-10.886c-0.07-1.807,0.033-3.598,0.141-5.33c0.1-1.69,0.203-3.438,0.135-5.154l1.49-0.059
									c0.068,1.79-0.037,3.576-0.141,5.302c-0.102,1.696-0.205,3.449-0.137,5.182c0.17,4.334,1.857,6.475,4.656,10.021
									l0.445,0.564c3.135,3.996,5.84,11.392,4.676,17.228c-0.566,2.837-2.041,4.995-4.264,6.241
									c-2.234,1.261-5.197,0.812-7.813,0.415c-0.938-0.141-1.821-0.275-2.646-0.334c-4.338-0.313-7.021,0.616-9.574,3.312
									c-1.148,1.215-2.416,2.238-3.533,3.142c-3.172,2.558-5.266,4.249-3.543,8.188L138.215,87.616z"/>
								<path fill="#00A7E5" d="M189.873,86.295c0.225-10.597-7.613-19.051-19.064-20.566L171,64.25
									c12.229,1.617,20.604,10.694,20.365,22.078L189.873,86.295z"/>
								<path fill="#00A7E5" d="M184.293,94.439l-0.988-1.116c1.279-1.13,1.945-2.509,2.594-3.841
									c1.203-2.472,2.445-5.028,7.436-4.463c3.371,0.408,4.5,1.199,6.037,4.235c0.248,0.493,0.479,1.081,0.719,1.7
									c0.938,2.41,1.73,4.111,3.541,4.038l0.063,1.488c-3.008,0.125-4.153-2.83-4.993-4.987c-0.22-0.57-0.431-1.114-0.656-1.567
									c-1.315-2.597-1.994-3.076-4.881-3.427c-3.938-0.445-4.728,1.177-5.92,3.635C186.563,91.53,185.791,93.111,184.293,94.439z"
									/>
								<path fill="#00A7E5" d="M158.113,134.395c-1.072-0.258-1.963-0.902-2.656-1.93c-3.938-5.839-0.092-22.46,0.996-25.409
									c0.887-2.404,2.234-3.535,3.664-4.732c0.6-0.499,1.215-1.016,1.859-1.668c2.975-3.008,3.803-6.86,4.221-10.231
									c0.719-5.824,0.053-9.746-5.5-13.785l-0.596-0.435c-2.047-1.501-3.982-2.917-6.375-3.245l0.199-1.476
									c2.77,0.377,4.947,1.974,7.057,3.518l0.59,0.431c6.094,4.433,6.854,9.093,6.104,15.173
									c-0.449,3.622-1.352,7.771-4.641,11.099c-0.695,0.701-1.367,1.264-1.961,1.761c-1.383,1.159-2.475,2.073-3.225,4.105
									c-1.217,3.299-4.539,19.048-1.158,24.061c0.615,0.907,1.408,1.366,2.422,1.397l-0.045,1.488
									C158.736,134.509,158.418,134.466,158.113,134.395z"/>
								<path fill="#00A7E5" d="M174.506,131.945c-2.672-2.832-4.039-10.958-4.305-13.579c-0.313-3.013-0.891-8.625,1.48-11.021
									c0.654-0.677,1.941-1.193,3.434-1.791c1.957-0.785,4.396-1.76,4.756-3.022c0.133-0.468-0.033-1.006-0.504-1.644l1.201-0.884
									c0.752,1.02,1,2.008,0.73,2.936c-0.559,1.966-3.252,3.045-5.629,3.999c-1.223,0.49-2.486,0.995-2.924,1.449
									c-1.883,1.902-1.33,7.252-1.064,9.826c0.309,3.009,1.719,10.388,3.906,12.709L174.506,131.945z"/>
								<path fill="#00A7E5" d="M183.969,102.672c-1.629-0.39-3.297-1.048-4.936-1.967c-3.949-2.205-4.477-4.937-5.088-8.101
									c-0.133-0.694-0.273-1.42-0.459-2.181l1.445-0.354c0.191,0.785,0.338,1.536,0.477,2.253
									c0.584,3.027,1.008,5.214,4.352,7.082c4.496,2.523,9.129,2.908,12.4,1.032l0.744,1.295
									C190.408,103.159,187.26,103.46,183.969,102.672z"/>
								<path fill="#00A7E5" d="M162.156,101.211c-6.639-2.175-9.17-10.803-8.789-15.948l1.484,0.109
									c-0.357,4.861,2.145,12.579,7.771,14.423L162.156,101.211z"/>
								<path fill="#00A7E5" d="M168.145,55.799c-0.063-0.015-0.125-0.03-0.186-0.046l0.387-1.438
									c1.346,0.353,2.516,0.135,3.469-0.674c1.73-1.466,2.41-4.485,2.191-6.711l1.48-0.147c0.252,2.531-0.49,6.113-2.707,7.994
									C171.494,55.868,169.895,56.218,168.145,55.799z"/>
								<path fill="#00A7E5" d="M165.047,71.376c-2.588-0.62-5.311-3.163-6.764-4.924c-1.73-2.099-1.684-4.126-1.637-6.273
									c0.012-0.318,0.016-0.644,0.016-0.976l1.492,0.006c-0.002,0.341-0.008,0.675-0.016,1.005
									c-0.049,2.021-0.084,3.619,1.293,5.291c1.719,2.076,5.24,5.116,7.4,4.422l0.455,1.418
									C166.578,71.575,165.816,71.561,165.047,71.376z"/>
								<path fill="#00A7E5" d="M167.785,122.226c-3.613-0.866-6.438-2.461-9.316-6.704l1.23-0.836
									c3.439,5.068,6.43,5.962,12.426,6.79l-0.203,1.476C170.422,122.743,169.055,122.528,167.785,122.226z"/>
							</g>
							<g>
								<path fill="#FFFFFF" d="M123.616,112.789l12.149-0.005l0.008,12.156h-5.988c0.003,7.75,2,11.625,5.992,11.623v5.637
									c-3.987,0-7.014-1.572-9.07-4.717c-2.056-3.146-3.085-7.328-3.086-12.542L123.616,112.789z"/>
								<path fill="#FFFFFF" d="M78.454,112.803l12.155-0.005l0.004,12.156l-5.986,0.001c0.001,7.75,1.999,11.623,5.988,11.623
									l0.004,5.634c-3.989,0-7.015-1.569-9.075-4.716c-2.052-3.146-3.083-7.326-3.085-12.54L78.454,112.803z"/>
								<path fill="#FFFFFF" d="M106.11,177.305c-0.246-0.059-0.485-0.162-0.706-0.306l-23.847-15.64l2.452-3.736l22.688,14.881
									l16.684-9.744l2.256,3.861l-17.88,10.438C107.253,177.355,106.661,177.436,106.11,177.305z"/>
							</g>
						</g>
					</g>
				</g>
			</g>
		</g>
	</g>
	<g>
		<polygon fill="#00A7E5" points="157.234,206 125,245 92.765,206 		"/>
		<path fill="#00A7E5" d="M125,250c-2.557,0-4.92-0.953-6.199-2.5l-32.236-39c-1.278-1.547-1.278-3.453,0-5s3.642-2.5,6.199-2.5
			h64.47c2.557,0,4.918,0.953,6.197,2.5c1.278,1.547,1.278,3.453,0,5l-32.232,39C129.921,249.047,127.557,250,125,250z M105.163,211
			L125,235l19.836-24H105.163z"/>
	</g>
</g>
</svg>
