<?xml version="1.0" encoding="utf-8"?>
<!-- Generator: Adobe Illustrator 16.0.0, SVG Export Plug-In . SVG Version: 6.00 Build 0)  -->
<!DOCTYPE svg PUBLIC "-//W3C//DTD SVG 1.1//EN" "http://www.w3.org/Graphics/SVG/1.1/DTD/svg11.dtd">
<svg version="1.1" id="圖層_1" xmlns="http://www.w3.org/2000/svg" xmlns:xlink="http://www.w3.org/1999/xlink" x="0px" y="0px"
	 width="580px" height="580px" viewBox="0 0 580 580" enable-background="new 0 0 580 580" xml:space="preserve">
<g>
	<path fill="#0F3782" d="M550.644,345.459c0,62.717-50.625,113.557-113.07,113.557c-62.448,0-113.071-50.84-113.071-113.557
		c0-62.715,50.623-113.556,113.071-113.556v113.556H550.644z"/>
	<path fill="#0D3779" d="M437.573,459.506c-62.618,0-113.562-51.161-113.562-114.047c0-62.885,50.943-114.046,113.562-114.046h0.49
		v113.556h113.07v0.49C551.134,408.345,500.189,459.506,437.573,459.506z M437.083,232.395
		c-61.854,0.266-112.091,50.884-112.091,113.064c0,62.345,50.504,113.066,112.581,113.066c61.914,0,112.314-50.456,112.578-112.576
		H437.083V232.395z"/>
	<path fill="#0F3782" d="M570.195,334.414h-113.07c-5.414,0-9.804-4.39-9.804-9.804V211.054c0-5.415,4.39-9.805,9.804-9.805
		c67.753,0,122.875,55.34,122.875,123.361C580,330.024,575.61,334.414,570.195,334.414z M466.93,314.806h93.004
		c-4.629-49.386-43.855-88.813-93.004-93.483V314.806z"/>
	<path fill="#0F3782" d="M223.935,333.88H100.088c-5.415,0-9.804-4.39-9.804-9.805c0-5.414,4.389-9.804,9.804-9.804h123.846
		c5.415,0,9.805,4.39,9.805,9.804C233.739,329.49,229.35,333.88,223.935,333.88z"/>
	<path fill="#0F3782" d="M258.827,386.991H100.088c-5.415,0-9.804-4.39-9.804-9.805c0-5.414,4.389-9.805,9.804-9.805h158.738
		c5.415,0,9.804,4.391,9.804,9.805C268.631,382.602,264.242,386.991,258.827,386.991z"/>
	<path fill="#0F3782" d="M258.827,440.103H100.088c-5.415,0-9.804-4.39-9.804-9.805c0-5.414,4.389-9.805,9.804-9.805h158.738
		c5.415,0,9.804,4.391,9.804,9.805C268.631,435.713,264.242,440.103,258.827,440.103z"/>
	<path fill="#0F3782" d="M9.805,274.26c-2.503,0-5.004-0.952-6.917-2.857c-3.838-3.82-3.851-10.028-0.03-13.866L125.28,134.589
		c1.84-1.848,4.34-2.887,6.947-2.887c2.608,0,5.108,1.039,6.948,2.887l75.131,75.455L355.545,68.2
		c3.819-3.838,10.028-3.851,13.865-0.029c3.838,3.82,3.851,10.028,0.029,13.865L221.255,230.857c-1.84,1.848-4.34,2.887-6.948,2.887
		c-2.607,0-5.107-1.039-6.948-2.887l-75.132-75.455L16.752,271.372C14.837,273.297,12.321,274.259,9.805,274.26z"/>
	<path fill="#0F3782" d="M364.165,156.787c-5.414,0-9.805-4.389-9.805-9.804V83.364h-60.907c-5.415,0-9.804-4.39-9.804-9.805
		s4.39-9.805,9.804-9.805h70.712c5.415,0,9.805,4.39,9.805,9.805v73.424C373.97,152.398,369.58,156.787,364.165,156.787z"/>
	<path fill="#0F3782" d="M71.398,521.612c-5.415,0-9.805-4.39-9.805-9.805V261.368c0-5.415,4.39-9.805,9.805-9.805
		s9.804,4.39,9.804,9.805v250.439C81.203,517.223,76.813,521.612,71.398,521.612z"/>
	<path fill="#0F3782" d="M364.983,578.251c-1.492,0-3.301-0.05-5.348-0.203l-294.793-2.369c-20.852,0-38.211-10.981-50.123-31.76
		c-8.436-14.714-11.151-29.347-11.263-29.963c-0.518-2.858,0.26-5.801,2.123-8.031c1.863-2.23,4.619-3.52,7.525-3.52H312.67
		c5.415,0,9.805,4.391,9.805,9.805c0,16.357,4.336,28.568,12.885,36.291c7.995,7.222,18.358,9.363,25.136,9.943l8.078,0.065
		c18.477-0.011,31.033-6.97,38.382-21.275c5.858-11.406,6.02-23.318,6.021-23.438V460.46c0-5.414,4.39-9.804,9.805-9.804
		c5.414,0,9.804,4.39,9.804,9.804v53.375c0,0.65-0.089,16.104-7.808,31.609c-7.39,14.844-23.069,32.525-55.825,32.674
		C368.215,578.173,366.843,578.251,364.983,578.251z M26.119,522.015c1.409,3.829,3.323,8.225,5.851,12.564
		c8.309,14.261,19.395,21.491,32.952,21.491l252.478,2.028c-7.945-9.316-12.66-21.402-14.077-36.084H26.119z"/>
	<path fill="#0F3782" d="M92.948,133.113c-5.415,0-9.805-4.39-9.805-9.805V64.665c0-0.733,0.083-1.465,0.246-2.181
		c0.141-0.616,3.56-15.265,13.587-29.913C110.78,12.408,130.34,1.75,153.544,1.75h353.66c5.415,0,9.805,4.39,9.805,9.805
		s-4.39,9.805-9.805,9.805h-353.66c-37.098,0-48.953,37.714-50.791,44.527v57.422C102.753,128.724,98.363,133.113,92.948,133.113z"
		/>
	<path fill="#0F3782" d="M570.022,80.002c-0.005,0-0.012,0-0.02,0H453.218c-5.414,0-9.805-4.39-9.805-9.805
		c0-37.742,30.594-68.448,68.197-68.448c37.379,0,67.831,30.341,68.194,67.773c0.015,0.223,0.022,0.448,0.022,0.675
		C579.827,75.612,575.438,80.002,570.022,80.002z M464.006,60.393h95.21c-4.528-22.248-24.152-39.034-47.605-39.034
		C488.158,21.358,468.534,38.145,464.006,60.393z"/>
	<path fill="#0F3782" d="M453.218,162.987c-5.414,0-9.805-4.389-9.805-9.804V70.197c0-5.415,4.391-9.805,9.805-9.805
		c5.415,0,9.805,4.39,9.805,9.805v82.986C463.022,158.599,458.633,162.987,453.218,162.987z"/>
	<rect x="7.222" y="5.671" fill="none" width="568.664" height="568.664"/>
</g>
</svg>
