<?xml version="1.0" encoding="utf-8"?>
<!-- Generator: Adobe Illustrator 16.0.0, SVG Export Plug-In . SVG Version: 6.00 Build 0)  -->
<!DOCTYPE svg PUBLIC "-//W3C//DTD SVG 1.1//EN" "http://www.w3.org/Graphics/SVG/1.1/DTD/svg11.dtd">
<svg version="1.1" id="圖層_1" xmlns="http://www.w3.org/2000/svg" xmlns:xlink="http://www.w3.org/1999/xlink" x="0px" y="0px"
	 width="60px" height="60px" viewBox="0 0 60 60" enable-background="new 0 0 60 60" xml:space="preserve">
<g>
	<path fill="#4B4B4B" d="M57.534,52.686H2.466C1.104,52.686,0,51.581,0,50.219V9.781c0-1.362,1.104-2.467,2.466-2.467h55.068
		C58.896,7.314,60,8.419,60,9.781v40.438C60,51.581,58.896,52.686,57.534,52.686z M4.932,47.753h50.136V12.247H4.932V47.753z"/>
	<g>
		<path fill="#4B4B4B" d="M24.667,33.637c-0.617,0-1.235-0.229-1.713-0.693L1.338,12.047C0.359,11.101,0.333,9.539,1.28,8.56
			c0.944-0.979,2.506-1.006,3.486-0.059l21.615,20.896c0.979,0.946,1.005,2.509,0.059,3.486
			C25.956,33.386,25.312,33.637,24.667,33.637z"/>
		<path fill="#4B4B4B" d="M35.427,33.545c-0.645,0-1.288-0.252-1.772-0.753c-0.946-0.979-0.92-2.54,0.06-3.486L55.234,8.501
			c0.979-0.946,2.539-0.921,3.486,0.059c0.945,0.979,0.92,2.541-0.061,3.487l-21.52,20.805
			C36.661,33.314,36.044,33.545,35.427,33.545z"/>
		<path fill="#4B4B4B" d="M30.001,36.329c-3.893,0-6.565-2.745-8.333-4.562c-0.188-0.193-0.37-0.383-0.546-0.559
			c-0.963-0.963-0.963-2.524,0-3.487c0.962-0.963,2.524-0.963,3.486,0c0.192,0.191,0.39,0.396,0.595,0.605
			c1.4,1.438,2.987,3.069,4.798,3.069c1.728,0,3.845-2.134,5.392-3.69c0.321-0.324,0.629-0.633,0.922-0.916
			c0.979-0.946,2.539-0.92,3.486,0.06c0.945,0.979,0.92,2.54-0.061,3.486c-0.27,0.262-0.553,0.547-0.85,0.846
			C36.734,33.354,33.781,36.329,30.001,36.329z"/>
	</g>
	<g>
		<path fill="#4B4B4B" d="M3.052,50.712c-0.598,0-1.197-0.216-1.671-0.653c-1.001-0.922-1.064-2.481-0.141-3.482l18.51-20.077
			c0.924-1,2.483-1.064,3.484-0.142c1.001,0.924,1.064,2.483,0.141,3.484L4.865,49.918C4.379,50.445,3.716,50.712,3.052,50.712z"/>
		<path fill="#4B4B4B" d="M56.948,50.712c-0.664,0-1.327-0.267-1.813-0.794l-18.51-20.076c-0.923-1.001-0.859-2.563,0.143-3.484
			c1-0.923,2.56-0.858,3.482,0.142l18.512,20.077c0.922,1.001,0.858,2.563-0.143,3.482C58.145,50.496,57.546,50.712,56.948,50.712z"
			/>
	</g>
</g>
</svg>
