<?xml version="1.0" encoding="utf-8"?>
<!-- Generator: Adobe Illustrator 16.0.0, SVG Export Plug-In . SVG Version: 6.00 Build 0)  -->
<!DOCTYPE svg PUBLIC "-//W3C//DTD SVG 1.1//EN" "http://www.w3.org/Graphics/SVG/1.1/DTD/svg11.dtd">
<svg version="1.1" id="圖層_1" xmlns="http://www.w3.org/2000/svg" xmlns:xlink="http://www.w3.org/1999/xlink" x="0px" y="0px"
	 width="60px" height="60px" viewBox="0 0 60 60" enable-background="new 0 0 60 60" xml:space="preserve">
<g>
	<path fill="#4B4B4B" d="M30,60c-0.809,0-1.558-0.439-1.95-1.145L12.113,30.204c-0.001-0.001-0.058-0.11-0.059-0.112l-0.059-0.104
		c-0.036-0.066-0.069-0.134-0.099-0.197c-1.502-2.892-2.295-6.134-2.295-9.392C9.602,9.15,18.753,0,30,0s20.399,9.15,20.399,20.398
		c0,3.259-0.795,6.507-2.299,9.396c-0.029,0.063-0.061,0.13-0.097,0.195L31.951,58.855C31.559,59.561,30.81,60,30,60z
		 M15.989,27.984L30,53.174l13.969-25.122c0.004-0.003,0.027-0.049,0.05-0.088c0.017-0.034,0.034-0.071,0.055-0.108
		c1.233-2.321,1.856-4.83,1.856-7.458c0-8.785-7.146-15.931-15.93-15.931s-15.93,7.146-15.93,15.931
		c0,2.629,0.624,5.138,1.858,7.461C15.951,27.901,15.971,27.94,15.989,27.984z"/>
	<path fill="#4B4B4B" d="M30,31.494c-6.528,0-11.841-5.314-11.841-11.843S23.471,7.81,30,7.81c6.529,0,11.842,5.313,11.842,11.841
		S36.528,31.494,30,31.494z M30,12.278c-4.065,0-7.373,3.308-7.373,7.373s3.308,7.375,7.373,7.375c4.066,0,7.374-3.31,7.374-7.375
		S34.065,12.278,30,12.278z"/>
</g>
</svg>
