<?xml version="1.0" encoding="utf-8"?>
<!-- Generator: Adobe Illustrator 17.0.0, SVG Export Plug-In . SVG Version: 6.00 Build 0)  -->
<!DOCTYPE svg PUBLIC "-//W3C//DTD SVG 1.1//EN" "http://www.w3.org/Graphics/SVG/1.1/DTD/svg11.dtd">
<svg version="1.1" id="圖層_1" xmlns="http://www.w3.org/2000/svg" xmlns:xlink="http://www.w3.org/1999/xlink" x="0px" y="0px"
	 width="75px" height="75px" viewBox="0 0 75 75" enable-background="new 0 0 75 75" xml:space="preserve">
<g>
	<path fill-rule="evenodd" clip-rule="evenodd" fill="#7FBF2C" d="M75,37.498C75,58.21,58.21,75,37.501,75
		C16.791,75,0,58.21,0,37.498C0,16.791,16.791,0,37.501,0C58.21,0,75,16.791,75,37.498z"/>
	<g>
		<path fill="#F8F9FB" d="M59.035,17.131c-0.02,0-0.039,0-0.059,0c3.584,0.002,5.642,2.038,5.648,5.592
			c0.013,9.862,0.014,19.724-0.002,29.588c-0.004,3.455-2.069,5.541-5.5,5.549c-7.219,0.02-14.438,0.006-21.656,0.006
			c0.013,0,0.027,0,0.041,0c7.226,0,14.45,0.014,21.675-0.006c3.429-0.008,5.494-2.095,5.498-5.549
			c0.016-9.864,0.015-19.726,0-29.588C64.678,19.169,62.618,17.134,59.035,17.131z"/>
		<path fill="#F8F9FB" d="M15.299,50.497c0.063-8.669,0.063-17.333,0-26.004c-0.014-1.783,0.574-2.455,2.391-2.437
			c-0.017,0-0.035,0-0.053,0c-1.822-0.018-2.41,0.653-2.397,2.437c0.061,8.671,0.061,17.335,0,26.004
			c-0.013,1.779,0.564,2.449,2.391,2.439c0.02,0,0.037,0,0.058,0C15.862,52.946,15.286,52.276,15.299,50.497z"/>
		<path fill="#F8F9FB" d="M37.337,47.683c2.503,0,5.006-0.024,7.509-0.027c-2.514,0.004-5.031,0.027-7.546,0.027
			C37.312,47.683,37.326,47.683,37.337,47.683z"/>
		<path fill="#F8F9FB" d="M57.208,52.905c0,0,0,0,0.001,0c-6.579,0.004-13.158-0.002-19.735,0
			C44.051,52.903,50.63,52.909,57.208,52.905z"/>
		<path fill="#F8F9FB" d="M22.463,47.713c2.474-0.037,4.948-0.045,7.423-0.043c-2.477-0.002-4.956,0.006-7.432,0.043
			C22.456,47.713,22.459,47.713,22.463,47.713z"/>
		<path fill="#F8F9FB" d="M29.637,41.58c0.397,0.454,0.73,0.648,1.068,0.623c-0.318-0.002-0.636-0.194-1.009-0.623
			c-0.862-0.993-1.844-1.881-2.783-2.81c-0.419-0.41-0.921-0.655-1.398-0.619c0.46-0.01,0.937,0.223,1.339,0.619
			C27.791,39.699,28.774,40.586,29.637,41.58z"/>
		<path fill="#F8F9FB" d="M54.527,40.798c0.072-1.18-0.356-1.997-1.186-2.792c-2.394-2.31-4.713-4.697-7.073-7.04
			c-0.899-0.893-1.437-1.326-1.99-1.301c0.533,0.008,1.064,0.439,1.932,1.301c2.359,2.344,4.676,4.73,7.073,7.04
			c0.829,0.796,1.257,1.613,1.183,2.792c-0.093,1.564-0.122,3.143,0.006,4.705c0.136,1.652-0.319,2.267-2.106,2.224
			c0.011,0.002,0.022,0.002,0.033,0.002c1.809,0.049,2.268-0.566,2.132-2.226C54.402,43.941,54.431,42.361,54.527,40.798z"/>
		<path fill="#FFFFFF" d="M10.373,52.084c-0.01-9.738-0.01-19.473,0-29.213c0.002-3.709,2.008-5.737,5.69-5.739
			c-0.02,0-0.039,0-0.059,0c-3.682,0.002-5.688,2.03-5.692,5.739c-0.008,9.74-0.007,19.475,0,29.213
			c0.003,3.811,1.995,5.776,5.839,5.78c7.099,0.008,14.198,0.002,21.297,0.002c0.006,0,0.011,0,0.018,0
			c-7.085,0-14.171,0.006-21.256-0.002C12.367,57.861,10.374,55.895,10.373,52.084z"/>
		<path fill="#FFFFFF" d="M64.623,52.312c0.016-9.864,0.015-19.726,0.002-29.588c-0.006-3.554-2.064-5.59-5.648-5.592
			c-14.305-0.008-28.61-0.008-42.913,0c-3.682,0.002-5.688,2.03-5.69,5.739c-0.01,9.74-0.01,19.475,0,29.213
			c0.001,3.811,1.994,5.776,5.837,5.78c7.085,0.008,14.171,0.002,21.256,0.002c7.218,0,14.437,0.014,21.656-0.006
			C62.554,57.853,64.619,55.766,64.623,52.312z M57.209,52.905c-0.001,0-0.001,0-0.001,0c-6.578,0.004-13.157-0.002-19.734,0
			c-6.594,0-13.19,0.004-19.785,0.031h-0.001c-0.02,0-0.038,0-0.058,0c-1.826,0.01-2.403-0.66-2.391-2.439
			c0.061-8.669,0.061-17.333,0-26.004c-0.014-1.785,0.574-2.455,2.397-2.437c0.017,0,0.036,0,0.053,0c0.003,0,0.004,0,0.006,0
			c0.398,0.006,0.795,0.002,1.192,0.006c3.702,0.033,7.404,0.041,11.106,0.033c2.559-0.004,5.119-0.01,7.678-0.01
			c6.533,0,13.066-0.004,19.6,0.004c2.249,0.002,2.453,0.208,2.454,2.502c0.006,8.606,0.006,17.214,0,25.818
			c-0.001,2.289-0.205,2.496-2.46,2.496C57.247,52.905,57.228,52.905,57.209,52.905z"/>
		<path fill="#F8F9FB" d="M59.727,50.409c0.006-8.604,0.006-17.212,0-25.818c-0.001-2.295-0.205-2.5-2.454-2.502
			c-6.535-0.008-13.068-0.004-19.6-0.004c-2.559,0-5.119,0.006-7.678,0.01c2.539-0.004,5.08-0.01,7.619-0.01
			c6.534,0,13.068-0.004,19.599,0.004c2.251,0.002,2.455,0.208,2.455,2.502c0.006,8.606,0.006,17.214,0,25.818
			c0,2.289-0.204,2.496-2.459,2.496c0.019,0,0.038,0,0.058,0C59.522,52.905,59.726,52.698,59.727,50.409z"/>
		<path fill="#F8F9FB" d="M17.696,22.056c-0.002,0-0.003,0-0.006,0c0.4,0.006,0.799,0.002,1.198,0.006
			C18.491,22.058,18.094,22.061,17.696,22.056z"/>
		<path fill="#F8F9FB" d="M17.69,52.937c6.594-0.027,13.19-0.031,19.785-0.031c-6.595,0-13.192,0.004-19.786,0.031H17.69z"/>
		<path fill="#3DB1D2" d="M37.279,47.683c0.007,0,0.014,0,0.022,0c-2.472,0-4.944-0.012-7.415-0.014
			C32.351,47.672,34.814,47.683,37.279,47.683z"/>
		<path fill="#3DB1D2" d="M20.469,45.887c-0.588-3.749,2.169-5.322,4.247-7.358c0.244-0.239,0.518-0.355,0.798-0.378
			c-0.302,0.01-0.596,0.123-0.857,0.378c-2.078,2.036-4.835,3.609-4.247,7.358c0.234,1.497,0.596,1.842,1.997,1.826
			c0.015,0,0.03,0,0.047,0C21.064,47.726,20.702,47.38,20.469,45.887z"/>
		<path fill="#3DB1D2" d="M52.34,47.728c0.01,0,0.016-0.002,0.025-0.002c-2.504-0.065-5.012-0.076-7.519-0.07
			C47.346,47.65,49.843,47.662,52.34,47.728z"/>
		<path fill="#3DB1D2" d="M42.305,31.028c0.895-0.893,1.44-1.344,1.973-1.364c-0.553-0.012-1.105,0.439-2.032,1.364
			c-3.51,3.502-7.035,6.987-10.503,10.532c-0.388,0.396-0.715,0.621-1.038,0.643c0.343,0.004,0.684-0.221,1.096-0.643
			C35.269,38.015,38.793,34.53,42.305,31.028z"/>
		<path fill="#FFFFFF" d="M54.472,45.502c-0.128-1.562-0.099-3.141-0.006-4.705c0.074-1.18-0.355-1.997-1.183-2.792
			c-2.396-2.31-4.713-4.697-7.073-7.04c-0.868-0.862-1.399-1.293-1.932-1.301c-0.533,0.02-1.078,0.47-1.973,1.364
			c-3.511,3.502-7.035,6.987-10.504,10.532c-0.412,0.421-0.753,0.647-1.096,0.643c-0.338,0.025-0.671-0.169-1.068-0.623
			c-0.863-0.993-1.846-1.881-2.783-2.81c-0.403-0.396-0.879-0.629-1.339-0.619c-0.28,0.023-0.554,0.139-0.798,0.378
			c-2.078,2.036-4.835,3.609-4.247,7.358c0.233,1.493,0.596,1.84,1.985,1.826c2.477-0.037,4.956-0.045,7.432-0.043
			c2.471,0.002,4.943,0.014,7.415,0.014c2.515,0,5.032-0.024,7.546-0.027c2.507-0.006,5.015,0.006,7.519,0.07
			C54.152,47.769,54.608,47.154,54.472,45.502z"/>
		<path fill="#FFFFFF" d="M23.817,34.865c2.269,0.08,4.235-1.783,4.289-4.072c0.055-2.279-1.828-4.217-4.121-4.24
			c-2.206-0.027-4.085,1.756-4.191,3.978C19.685,32.803,21.523,34.782,23.817,34.865z"/>
	</g>
</g>
</svg>
