<?xml version="1.0" encoding="utf-8"?>
<!-- Generator: Adobe Illustrator 16.0.0, SVG Export Plug-In . SVG Version: 6.00 Build 0)  -->
<!DOCTYPE svg PUBLIC "-//W3C//DTD SVG 1.1//EN" "http://www.w3.org/Graphics/SVG/1.1/DTD/svg11.dtd">
<svg version="1.1" id="圖層_1" xmlns="http://www.w3.org/2000/svg" xmlns:xlink="http://www.w3.org/1999/xlink" x="0px" y="0px"
	 width="75px" height="75px" viewBox="0 0 75 75" enable-background="new 0 0 75 75" xml:space="preserve">
<g>
	<path fill="#DADC8F" d="M2.827,38.92c0,0-0.476,15.686,6.664,20.303c4.402,2.848,9.924,5.828,13.769,9.86
		c10.072,10.565,34.262,5.893,36.975-5.452c1.205-5.038,6.639-3.213,8.798-7.595c2.158-4.383,3.147-16.302,3.147-16.302L2.827,38.92
		z"/>
	<path fill="#E9EB9A" d="M51.802,56.081c0,0,1.204,9.757,5.516,10.321c6.466,0.848,11.356-3.149,11.546-10.78L51.802,56.081z"/>
	<path fill="#64BD9A" d="M50.333,15.16c0-1.247,0.877-3.064,2.251-3.064c1.822,0,3.014,3.708,1.737,4.567
		C53.184,17.428,50.333,17.496,50.333,15.16"/>
	<path fill="#64BD9A" d="M44.747,14.988c0-1.62,1.142-3.982,2.928-3.982c2.367,0,3.916,4.818,2.257,5.936
		C48.453,17.936,44.747,18.024,44.747,14.988"/>
	<path fill="#50A37B" d="M21.359,19.01c-3.626-3.747,1.677-13.099,6.625-13.793c4.948-0.694,7.715,5.777,7.715,5.777
		s1.554-3.996,5.584-3.704c4.028,0.291,7.834,8.95,4.778,11.782C43.785,21.183,23.009,20.716,21.359,19.01"/>
	<path fill="#A6CD66" d="M12.556,30.146c-14.158,2.15-13.021,17.293,4.415,19.657c18.676,2.531,31.332,1.792,40.55-0.099
		c15.786-3.234,16.608-10.279,12.68-14.091C62.797,28.429,38.574,26.196,12.556,30.146"/>
	<path fill="#AED26C" d="M57.853,52.013c-3.618,0.289-8.748,4.159-4.363,4.978c4.697,0.875,9.166,0.946,11.529,0.645
		c4.046-0.518,4.353-2.154,3.41-3.104C66.652,52.735,64.501,51.482,57.853,52.013"/>
	<path fill="#5EAF73" d="M30.871,30.85c-2.785-8.727,6.882-18.436,15.033-15.789c7.646,2.482,9.366-1.289,13.804,2.458
		c5.614,4.74,6.401,13.653,4.006,15.145C57.37,36.608,32.363,35.529,30.871,30.85"/>
	<path fill="#51A46A" d="M59.196,32.304c0-2.559,1.805-6.291,4.624-6.291c3.74,0,6.188,7.612,3.564,9.377
		C65.051,36.958,59.196,37.101,59.196,32.304"/>
	<path fill="#AACD6E" d="M55.071,34.119c-1.426,1.746-42.886,1.868-44.784-0.501c-2.747-3.432,2.547-19.08,14.689-19.332
		c6.761-0.141,10.045,6.691,15.966,5.524C50.825,17.862,58.781,29.577,55.071,34.119"/>
	<path fill="#76BD5C" d="M24.969,37.461c-1.824-3.362,0.245-14.879,9.542-15.296c4.149-0.187,8.233,2.619,11.767,2.275
		c14.464-1.402,20.332,12.24,16.336,14.493C59.084,40.923,26.751,40.749,24.969,37.461"/>
	<path fill="#6D887D" d="M41.867,34.734c1.076,0,1.962,9.243,1.186,10.183c-0.341,0.415-1.787,0.39-2.212,0.056
		C40.067,44.365,40.509,34.734,41.867,34.734"/>
	<path fill="#57AF72" d="M36.637,39.773c-0.468-3.464,1.716-14.16,5.09-14.16c3.428,0,5.918,11.45,4.425,15.378
		C45.479,42.759,37.191,43.866,36.637,39.773"/>
	<path fill="#6D887D" d="M33.856,39.265c1.226,0,2.234,7.806,1.352,8.599c-0.39,0.352-2.037,0.329-2.523,0.047
		C31.803,47.396,32.307,39.265,33.856,39.265"/>
	<path fill="#51A46A" d="M27.893,43.521c-0.533-2.925,1.955-11.956,5.803-11.956c3.907,0,6.748,9.667,5.045,12.983
		C37.973,46.041,28.523,46.977,27.893,43.521"/>
	<path fill="#B6BD55" d="M49.107,40.389c-0.367-5.666,2.247-9.639,5.697-9.913c6.343-0.505,7.573,11.455,4.354,13.517
		C56.294,45.825,49.469,45.979,49.107,40.389"/>
	<path fill="#647E72" d="M54.944,36.745c0.681,0,0.7,3.488,0.7,3.488s2.512-1.624,2.862-1.155c0.293,0.39-2.722,2.584-2.722,2.584
		s0.338,5.891-0.05,6.194c-0.372,0.291-1.211,0.276-1.599,0c-0.223-0.159-0.159-4.49-0.159-4.49s-2.458-1.654-2.02-2.092
		c0.414-0.414,2.092,0.584,2.092,0.584S54.215,36.745,54.944,36.745"/>
	<path fill="#FBFADC" d="M57.575,8.54c2.933-2.314-0.316-8.077-4.318-8.506c-4.003-0.429-5.615,3.374-5.615,3.374
		s-1.257-2.469-4.517-2.288c-3.259,0.18-6.336,5.529-3.864,7.28C41.102,9.703,56.24,9.597,57.575,8.54"/>
	<path fill="#FBFADC" d="M15.796,15.514c4.192,0.226,9.782,5.464,1.403,5.464C5.616,20.978,11.845,15.301,15.796,15.514"/>
	<path fill="#73B45C" d="M60.928,52.682c0.779-0.59,1.603,0.645,1.603,0.645s0.29-1.979,1.435-1.979c1.5,0,0.75,3.959,0.75,3.959
		h-3.617C61.098,55.307,60.074,53.326,60.928,52.682"/>
	<path fill="#536A60" d="M21.399,36.241c0.507-0.059,0.96,3.066,0.96,3.066s1.124-2.287,1.602-2.014
		c0.319,0.183-1.144,2.929-1.144,2.929S23.183,41,23,41.55c-0.148,0.447-2.469,0.448-2.563,0
		C20.254,40.68,20.621,36.334,21.399,36.241"/>
	<path fill="#93B05C" d="M15.999,35.738c-2.027-6.165,2.405-11.893,6.146-11.896c3.234-0.002,3.455,3.234,5.293,5.352
		c2.105,2.425,1.302,5.909-1.236,8.282C24.785,38.805,17.098,39.078,15.999,35.738"/>
	<path fill="#B6BD55" d="M5.327,37.15c-0.394-5.281,2.417-8.982,6.129-9.238c6.823-0.471,8.146,10.675,4.684,12.596
		C13.057,42.216,5.717,42.359,5.327,37.15"/>
	<path fill="#647E72" d="M11.607,33.756c0.732,0,0.752,3.249,0.752,3.249s2.703-1.514,3.081-1.076
		c0.313,0.362-2.93,2.409-2.93,2.409s0.364,5.487-0.054,5.771c-0.4,0.272-1.304,0.259-1.719,0c-0.239-0.147-0.17-4.185-0.17-4.185
		s-2.645-1.54-2.174-1.948c0.445-0.387,2.251,0.544,2.251,0.544S10.821,33.756,11.607,33.756"/>
	<path fill="#E9EB9A" d="M7.042,51.798c0,0,0,15.341,7.973,16.446c9.071,1.259,9.727,4.944,17.781,2.675
		c8.054-2.268,8.497-11.005,9.257-18.465L7.042,51.798z"/>
	<path fill="#AED26C" d="M14.894,46.352c-7.137,0.534-11.819,7.066-3.167,8.58c9.268,1.621,18.083,1.755,22.745,1.195
		c7.98-0.959,8.586-3.987,6.729-5.749C37.696,47.057,28.012,45.37,14.894,46.352"/>
	<path fill="#73B45C" d="M16.614,49.471l5.901-0.233c0-1.778-0.621-4.886-1.826-4.96c-0.826-0.053-1.054,1.581-1.054,1.581
		s-0.388-2.73-1.581-2.561c-1.055,0.15-0.038,3.426-0.038,3.426s-0.846-1.3-1.581-0.678C15.456,46.874,16.614,49.471,16.614,49.471"
		/>
	<path fill="#73B45C" d="M30.016,52.197l-3.283-0.005c-0.805-0.825-0.738-3.368,0.334-3.42c0.736-0.035,0.938,1.09,0.938,1.09
		s0.346-1.882,1.407-1.765c0.938,0.104,0.034,2.361,0.034,2.361s0.753-0.896,1.407-0.468C31.724,50.563,30.016,52.197,30.016,52.197
		"/>
</g>
</svg>
