<?xml version="1.0" encoding="utf-8"?>
<!-- Generator: Adobe Illustrator 16.0.0, SVG Export Plug-In . SVG Version: 6.00 Build 0)  -->
<!DOCTYPE svg PUBLIC "-//W3C//DTD SVG 1.1//EN" "http://www.w3.org/Graphics/SVG/1.1/DTD/svg11.dtd">
<svg version="1.1" id="圖層_1" xmlns="http://www.w3.org/2000/svg" xmlns:xlink="http://www.w3.org/1999/xlink" x="0px" y="0px"
	 width="75px" height="75px" viewBox="0 0 75 75" enable-background="new 0 0 75 75" xml:space="preserve">
<g id="PRE_x5F_land">
	<path id="XMLID_00000134932102407009719680000014200827346699718334_" fill="#E1E391" d="M3.934,39.924
		c0,0,1.285,14.602,7.627,20.681c3.608,3.458,9.684,5.774,13.126,9.4c9.581,10.094,32.277,3.479,34.864-7.337
		c1.149-4.804,6.33-3.063,8.388-7.241s3.124-15.081,3.124-15.081L3.934,39.924z"/>
	<path fill="#F0F29B" d="M49.092,54.752c0,0,0.259,8.495,4.258,10.438c2.603,1.265,5.471,0.655,9.509-1.851
		c2.213-1.374,3.136-8.848,2.606-9.838L49.092,54.752z"/>
	<path fill="#C6DE80" d="M17.055,29.169C8.85,30.35,3.883,34.483,3.934,39.924c0.038,4.114,5.911,8.724,14.371,9.562
		c17.88,1.771,30.385,1.601,39.174-0.201c10.464-2.144,13.478-5.566,13.585-8.938C71.405,29.591,46.825,24.884,17.055,29.169z"/>
	<path fill="#9BBF65" d="M56.077,51.057c-3.449,0.275-7.353,1.995-6.985,3.695c0.783,3.628,8.799,2.647,11.051,2.359
		c3.857-0.494,5.852-1.458,5.322-3.609C65.187,52.372,62.416,50.551,56.077,51.057z"/>
	<path fill="#FFFFFF" d="M31.105,0.006c3.996,0.215,9.327,5.209,1.337,5.209C21.4,5.215,27.339-0.197,31.105,0.006z"/>
	<path fill="#F0F29B" d="M10.183,52.937c0,0,2.392,14.163,9.992,15.219c8.648,1.199,6.22,3.103,13.423,2.563
		c7.5-0.563,9.269-10.545,9.993-17.657L10.183,52.937z"/>
	<path fill="#C6DE80" d="M27.661,46.995c-9.876-0.497-18.268,2.54-17.478,5.941c1.783,7.676,17.71,4.734,23.698,6.049
		c3.958,0.868,9.709-3.239,9.71-5.925C43.592,50.987,41.494,47.691,27.661,46.995z"/>
	<path fill="#BDD47B" d="M22.418,38.559c3.864,0.373,6.32-0.453,10.66-1.243c3.425-0.624,11.062-0.569,12.626,1.775
		c1.491,2.232-3.825,6.311-7.855,6.941c-3.721,0.583-21.146,1.023-27.092-0.333C1.937,43.687,7.656,37.133,22.418,38.559z"/>
	<path fill="#51AB7F" d="M22.488,20.127c-3.456-3.573,1.6-12.488,6.317-13.15s7.356,5.508,7.356,5.508s1.481-3.81,5.323-3.532
		s7.469,8.532,4.557,11.233C43.87,22.199,24.062,21.754,22.488,20.127z"/>
	<path fill="#5FB877" d="M31.556,29.692c-2.654-8.318,6.563-17.575,14.333-15.052c7.29,2.367,8.93-1.229,13.16,2.343
		c5.354,4.52,6.104,13.018,3.819,14.438C56.82,35.184,32.979,34.156,31.556,29.692z"/>
	<path fill="#BDD47B" d="M53.924,34.36c-1.36,1.666-40.888,1.782-42.697-0.478c-2.62-3.271,2.428-18.19,14.004-18.431
		c6.446-0.134,9.577,6.38,15.222,5.268C49.875,18.862,57.46,30.03,53.924,34.36z"/>
	<path fill="#79C75C" d="M30.523,37.759c-1.738-3.206,0.112-15.032,8.977-15.43c3.955-0.178,7.849,2.498,11.218,2.17
		c13.789-1.338,19.385,11.669,15.575,13.816C62.929,40.211,32.223,40.894,30.523,37.759z"/>
	<path fill="#FFFFFF" d="M58.59,17.289c2.796-2.208-0.302-7.701-4.117-8.11c-3.816-0.409-5.354,3.217-5.354,3.217
		s-1.198-2.354-4.306-2.183c-3.107,0.172-6.041,5.272-3.686,6.941C42.883,18.398,57.316,18.294,58.59,17.289z"/>
	<path fill="#76BD5D" d="M27.186,47.725c0,0,0.38-1.74-1.67-3.863c-0.754-0.781,1.93-0.775,2.975,0.764
		c0.823,1.212,0.286-1.178,1.04-1.188c0.754-0.009,1.026,1.133,1.026,1.133s0.921-2.596,3.154-2.07
		c0.924,0.218-0.544,1.142-0.326,1.74c0,0,0.798-1.023,1.631-0.653c0.489,0.218-0.142,0.885,0.163,1.414
		c0,0,1.577,0.055,2.718-1.142c0.512-0.535,1.578,2.12-0.108,3.865H27.186z"/>
	<path fill="#71A35F" d="M59.3,51.42c0.743-0.563,1.543,0.762,1.543,0.762s0.133-2.023,1.224-2.023c1.593,0,1.02,3.764,1.02,3.764
		h-3.821C59.265,53.922,58.485,52.034,59.3,51.42z"/>
	<path fill="#76BD5D" d="M17.735,52.646h4.263c0.46-1.099,0.948-3.844-0.168-3.909c-0.919-0.054-1.14,1.398-1.14,1.398
		s-0.078-2.344-1.269-2.148c-1.042,0.171-0.796,2.312-0.796,2.312s-0.534-0.917-1.237-0.362
		C16.611,50.55,17.735,52.646,17.735,52.646z"/>
	<path fill="#76BD5D" d="M35.321,55.372l-3.478-0.006c-0.654-0.828-0.793-3.165,0.32-3.26c0.699-0.06,0.894,1.039,0.894,1.039
		s-0.009-1.668,0.995-1.501c0.928,0.154,0.448,1.857,0.448,1.857s0.402-0.806,1.068-0.48C36.472,53.463,35.321,55.372,35.321,55.372
		z"/>
	<g>
		<g>
			<path fill="#86BA59" d="M29.289,32.634c0.425-5.777-2.608-10.283-6.604-10.563c-7.347-0.515-10.593,11.423-5.586,14.435
				C20.242,38.396,28.871,38.334,29.289,32.634z"/>
			<path fill="#607A6C" d="M22.104,29.889c0.881,0,0.795,2.346,0.795,2.346s2.651-1.509,3.022-1.073
				c0.308,0.361-2.669,2.473-2.669,2.473s0.152,5.398-0.257,5.681c-0.393,0.271-1.541,0.23-1.949-0.026
				c-0.235-0.148-0.25-3.984-0.25-3.984s-3.078-1.415-3.001-2.101c0.093-0.845,3.088,0.25,3.088,0.25S21.022,29.889,22.104,29.889z"
				/>
			<path fill="#B1CF51" d="M23.947,27.636c0.149-1.479,1.129-1.367,1.167,0.142C25.164,29.841,23.806,29.03,23.947,27.636z"/>
			<path fill="#B1CF51" d="M24.895,25.288c0.134-1.102,1.115-1.008,1.168,0.118C26.135,26.946,24.769,26.327,24.895,25.288z"/>
			<path fill="#B1CF51" d="M26.273,26.845c0.105-1.104,1.218-1.021,1.239,0.104C27.541,28.487,26.174,27.884,26.273,26.845z"/>
		</g>
		<g>
			<path fill="#8EAD56" d="M26.215,34.941c0-2.789,2.082-6.854,5.335-6.854c4.314,0,7.139,8.293,4.112,10.215
				C32.97,40.012,26.215,40.167,26.215,34.941z"/>
			<path fill="#607A6C" d="M30.993,36.958c0,0-1.662-0.906-1.844-0.495c-0.198,0.445,1.637,1.638,1.637,1.638
				s-0.563,2.419-0.026,2.926c0.393,0.371,2.024,0.391,2.272-0.078c0.39-0.735-0.207-3.082-0.207-3.082s1.349-1.418,1.074-1.755
				c-0.27-0.331-1.322,0.585-1.322,0.585s-0.29-1.678-0.826-1.678C31.255,35.02,30.993,36.958,30.993,36.958z"/>
			<path fill="#B8B852" d="M27.385,32.771c0.136-1.277,1.033-1.181,1.067,0.123C28.498,34.676,27.256,33.976,27.385,32.771z"/>
			<path fill="#B8B852" d="M28.449,34.297c0.122-0.952,1.02-0.871,1.068,0.102C29.583,35.73,28.334,35.195,28.449,34.297z"/>
			<path fill="#B8B852" d="M29.951,33.165c0.096-0.953,0.922-0.794,0.941,0.178C30.918,34.671,29.86,34.063,29.951,33.165z"/>
		</g>
		<g>
			<path fill="#BCC454" d="M5.62,37.876c-0.356-4.377,2.185-7.446,5.54-7.658c6.168-0.39,7.365,8.849,4.234,10.441
				C12.608,42.075,5.972,42.195,5.62,37.876z"/>
			<path fill="#91906C" d="M11.296,35.062c0.662,0,0.68,2.694,0.68,2.694s2.443-1.255,2.785-0.893
				c0.284,0.301-2.648,1.997-2.648,1.997s0.329,4.549-0.048,4.784c-0.362,0.226-1.179,0.214-1.555,0
				c-0.216-0.123-0.154-3.469-0.154-3.469s-2.391-1.277-1.965-1.616c0.403-0.319,2.034,0.451,2.034,0.451
				S10.586,35.062,11.296,35.062z"/>
			<path fill="#E8D285" d="M6.604,35.354c0.104-0.946,0.786-0.875,0.812,0.09C7.452,36.764,6.507,36.246,6.604,35.354z"/>
			<path fill="#E8D285" d="M7.629,36.188c0.093-0.705,0.775-0.645,0.812,0.075C8.492,37.248,7.542,36.852,7.629,36.188z"/>
		</g>
		<g>
			<path fill="#BCC454" d="M50.74,34.665c-0.62-8.171,3.798-13.899,9.63-14.295c10.722-0.728,12.8,16.52,7.358,19.491
				C62.887,42.505,51.352,42.728,50.74,34.665z"/>
			<path fill="#91906C" d="M60.641,28.992c1.01,0.147,1.65,4.043,1.65,4.043s5.04-2.407,5.169-1.376
				c0.104,0.835-4.85,3.333-4.85,3.333s0.511,8.94-0.071,9.329c-0.558,0.374-3.186,0.39-3.766,0.036
				c-0.334-0.204-0.412-6.854-0.412-6.854s-5.3-2.625-4.039-3.667c0.629-0.52,4.182,0.849,4.182,0.849S58.602,28.695,60.641,28.992z
				"/>
			<path fill="#E8D285" d="M52.531,29.576c0.115-1.14,0.87-1.054,0.899,0.109C53.47,31.275,52.423,30.65,52.531,29.576z"/>
			<path fill="#E8D285" d="M65.71,38.604c0.115-1.14,0.871-1.054,0.899,0.108C66.648,40.304,65.603,39.679,65.71,38.604z"/>
			<path fill="#E8D285" d="M55.589,24.367c0.114-1.14,0.87-1.054,0.898,0.109C56.526,26.067,55.48,25.442,55.589,24.367z"/>
			<path fill="#E8D285" d="M53.667,30.484c0.103-0.85,0.859-0.777,0.899,0.091C54.622,31.762,53.569,31.285,53.667,30.484z"/>
			<path fill="#E8D285" d="M67.012,37.608c0.103-0.85,0.859-0.777,0.9,0.091C67.968,38.886,66.915,38.408,67.012,37.608z"/>
			<path fill="#E8D285" d="M56.932,23.517c0.103-0.849,0.858-0.777,0.899,0.091C57.887,24.795,56.834,24.318,56.932,23.517z"/>
			<path fill="#E8D285" d="M51.612,31.556c0.104-0.849,0.859-0.777,0.9,0.091C52.568,32.834,51.516,32.357,51.612,31.556z"/>
		</g>
		<g>
			<path fill="#8EAD56" d="M40.502,39.35c0-3.371,2.858-8.313,6.98-8.28c5.916,0.048,9.206,10.153,5.371,12.477
				C49.441,45.614,40.502,45.668,40.502,39.35z"/>
			<path fill="#729181" d="M46.683,41.017c0,0-1.856-0.966-2.061-0.527c-0.221,0.475,1.801,1.749,1.801,1.749
				s-0.601,4.015-0.001,4.555c0.439,0.396,2.396,0.456,2.673-0.043c0.435-0.785-0.408-4.596-0.408-4.596s1.551-1.68,1.243-2.04
				c-0.301-0.352-1.477,0.624-1.477,0.624S48.13,38.95,47.53,38.95C46.976,38.95,46.683,41.017,46.683,41.017z"/>
			<path fill="#B8B852" d="M42.731,35.255c0.123-1.018,1.03-0.932,1.079,0.109C43.877,36.787,42.615,36.214,42.731,35.255z"/>
			<path fill="#B8B852" d="M44.129,34.543c0.098-1.02,0.932-0.85,0.951,0.19C45.106,36.154,44.038,35.503,44.129,34.543z"/>
		</g>
	</g>
</g>
</svg>
