<?xml version="1.0" encoding="utf-8"?>
<!-- Generator: Adobe Illustrator 16.0.0, SVG Export Plug-In . SVG Version: 6.00 Build 0)  -->
<!DOCTYPE svg PUBLIC "-//W3C//DTD SVG 1.1//EN" "http://www.w3.org/Graphics/SVG/1.1/DTD/svg11.dtd">
<svg version="1.1" id="圖層_1" xmlns="http://www.w3.org/2000/svg" xmlns:xlink="http://www.w3.org/1999/xlink" x="0px" y="0px"
	 width="10px" height="10px" viewBox="0 0 10 10" enable-background="new 0 0 10 10" xml:space="preserve">
<circle fill="#727171" cx="5" cy="5" r="5"/>
<g>
	
		<path fill="#FFFFFF" stroke="#FFFFFF" stroke-width="0.5" stroke-linecap="round" stroke-linejoin="round" stroke-miterlimit="10" d="
		M4.624,6.416C4.621,6.316,4.62,6.242,4.62,6.193c0-0.293,0.041-0.545,0.124-0.756c0.061-0.16,0.159-0.321,0.294-0.484
		c0.099-0.118,0.277-0.291,0.535-0.519C5.83,4.208,5.997,4.027,6.074,3.892S6.19,3.61,6.19,3.45c0-0.29-0.113-0.543-0.339-0.762
		C5.626,2.469,5.349,2.359,5.021,2.359c-0.316,0-0.581,0.099-0.793,0.297s-0.351,0.508-0.417,0.93L3.046,3.496
		C3.115,2.931,3.319,2.499,3.66,2.198c0.34-0.3,0.789-0.45,1.349-0.45c0.592,0,1.064,0.161,1.417,0.483S6.954,2.943,6.954,3.4
		c0,0.265-0.062,0.508-0.186,0.731C6.645,4.354,6.402,4.626,6.041,4.945C5.799,5.16,5.641,5.318,5.566,5.42
		c-0.074,0.103-0.13,0.219-0.165,0.352C5.365,5.904,5.345,6.119,5.339,6.416H4.624z M4.579,8.252V7.404h0.847v0.848H4.579z"/>
</g>
</svg>
