<?xml version="1.0" encoding="utf-8"?>
<!-- Generator: Adobe Illustrator 16.0.0, SVG Export Plug-In . SVG Version: 6.00 Build 0)  -->
<!DOCTYPE svg PUBLIC "-//W3C//DTD SVG 1.1//EN" "http://www.w3.org/Graphics/SVG/1.1/DTD/svg11.dtd">
<svg version="1.1" id="圖層_1" xmlns="http://www.w3.org/2000/svg" xmlns:xlink="http://www.w3.org/1999/xlink" x="0px" y="0px"
	 width="75px" height="75px" viewBox="0 0 75 75" enable-background="new 0 0 75 75" xml:space="preserve">
<g>
	<path fill="#FFFFFF" d="M21.842,8.633c0,0,2.097,0.419,6.861-1.354l17.481-4.624l4.375,0.583L50.45,5.707l4.238,1.208l-0.55,1.688
		l4.7,2.002l-6.123,3.423l-30.222,3.213L21.842,8.633z"/>
	<path fill="#A4C9E7" d="M54.585,8.875l0.104-1.96c0,0-22.757,2.612-25.131,3.347C29.558,10.261,51.173,8.327,54.585,8.875z"/>
	<path fill="#83BCE1" d="M50.45,5.707l0.128-2.451c0,0-18.943,4.903-22.556,5.818C28.022,9.074,48.727,5.739,50.45,5.707z"/>
	<path fill="#219BD2" d="M46.347-0.41c0,0-12.854,5.961-20.615,8.625l20.453-5.56L46.347-0.41z"/>
	<path fill="#219BD2" d="M65.629,34.169c-0.084-0.926-0.86-1.651-1.808-1.651c-1.003,0-1.816,0.813-1.816,1.816
		c0,0.865,0.604,1.586,1.413,1.77c-0.63,2.282-1.619,3.728-2.949,4.306c-2.149,0.932-4.653-0.688-4.679-0.706
		c-0.436-0.286-1.023-0.168-1.312,0.268c-0.289,0.435-0.172,1.021,0.263,1.311c0.136,0.091,3.368,2.206,6.468,0.872
		c2.279-0.981,3.782-3.505,4.468-7.501C65.705,34.483,65.685,34.318,65.629,34.169z"/>
	<path fill="#219BD2" d="M32.543,54.164c-4.484,1.126-9.369,2.043-13.892,11.471c0,0-2.301-4.105-7.032-3.923l7.228,8.656
		c1.02,1.221,1.559,0.953,1.199-0.595c0,0,1.295-9.907,15.261-9.384C44.701,60.741,40.224,52.234,32.543,54.164z"/>
	<path fill="#219BD2" d="M45.062,53.414c-3.223,3.314-6.897,6.661-5.791,17.059c0,0-4.115-2.283-8.044,0.358l10.698,3.565
		c1.508,0.504,1.826-0.009,0.707-1.136c0,0-4.104-9.109,8.053-16.003C58.861,52.622,50.583,47.736,45.062,53.414z"/>
	<image overflow="visible" width="42" height="48" xlink:href="AA2F17F0.png"  transform="matrix(1 0 0 1 17 8)">
	</image>
	<g>
		<path fill="#FFFFFF" d="M24.606,49.879l0.352,0.005c0.003,0.142,0.03,0.261,0.081,0.357c0.052,0.096,0.139,0.178,0.26,0.246
			s0.261,0.109,0.42,0.125c0.141,0.014,0.267,0.004,0.379-0.026c0.111-0.032,0.198-0.082,0.257-0.15
			c0.06-0.068,0.095-0.146,0.103-0.233c0.009-0.087-0.01-0.166-0.055-0.237c-0.044-0.069-0.124-0.133-0.236-0.189
			c-0.072-0.037-0.233-0.099-0.484-0.185c-0.25-0.087-0.424-0.163-0.522-0.229c-0.126-0.084-0.218-0.181-0.273-0.291
			c-0.055-0.111-0.077-0.231-0.064-0.361c0.014-0.142,0.066-0.271,0.159-0.387c0.092-0.115,0.218-0.198,0.379-0.248
			c0.16-0.048,0.334-0.063,0.523-0.045c0.207,0.021,0.388,0.072,0.54,0.154c0.151,0.082,0.264,0.193,0.336,0.331
			c0.073,0.14,0.104,0.292,0.095,0.457l-0.361-0.01c-0.002-0.177-0.054-0.315-0.155-0.416c-0.101-0.1-0.259-0.16-0.473-0.182
			c-0.224-0.021-0.39,0.004-0.501,0.076c-0.109,0.072-0.17,0.166-0.182,0.282c-0.01,0.101,0.019,0.188,0.085,0.259
			c0.064,0.072,0.244,0.157,0.537,0.255c0.293,0.098,0.494,0.178,0.602,0.239c0.156,0.092,0.267,0.198,0.333,0.321
			c0.067,0.123,0.093,0.26,0.078,0.411c-0.014,0.148-0.071,0.286-0.169,0.409c-0.098,0.124-0.23,0.215-0.396,0.272
			c-0.167,0.058-0.35,0.077-0.549,0.058c-0.253-0.024-0.462-0.083-0.625-0.174c-0.165-0.091-0.288-0.216-0.37-0.375
			C24.627,50.241,24.593,50.068,24.606,49.879z"/>
		<path fill="#FFFFFF" d="M27.215,51.046l0.199-2.039l0.31,0.03l-0.027,0.288c0.073-0.094,0.166-0.166,0.277-0.217
			c0.112-0.05,0.236-0.068,0.371-0.055c0.151,0.015,0.271,0.058,0.36,0.13c0.09,0.072,0.15,0.166,0.179,0.282
			c0.185-0.222,0.407-0.32,0.666-0.295c0.203,0.02,0.352,0.091,0.451,0.213c0.098,0.122,0.136,0.301,0.113,0.533l-0.136,1.398
			l-0.344-0.034l0.125-1.282c0.014-0.139,0.012-0.239-0.005-0.303c-0.016-0.062-0.052-0.114-0.107-0.158
			c-0.056-0.042-0.123-0.067-0.202-0.075c-0.144-0.014-0.268,0.021-0.373,0.107s-0.167,0.234-0.187,0.443l-0.115,1.184l-0.344-0.033
			l0.129-1.323c0.015-0.154-0.002-0.271-0.051-0.354c-0.048-0.082-0.137-0.13-0.265-0.142c-0.097-0.01-0.189,0.007-0.277,0.05
			c-0.088,0.043-0.154,0.113-0.201,0.207c-0.047,0.095-0.079,0.234-0.097,0.42l-0.104,1.057L27.215,51.046z"/>
		<path fill="#FFFFFF" d="M31.842,51.239c-0.135,0.098-0.264,0.162-0.387,0.196c-0.124,0.033-0.254,0.044-0.39,0.03
			c-0.225-0.021-0.393-0.094-0.503-0.215c-0.11-0.12-0.157-0.266-0.141-0.436c0.009-0.1,0.042-0.188,0.095-0.266
			c0.054-0.078,0.12-0.139,0.199-0.181c0.08-0.043,0.167-0.072,0.261-0.09c0.07-0.011,0.175-0.018,0.314-0.021
			c0.284-0.006,0.495-0.025,0.632-0.059c0.006-0.047,0.01-0.077,0.011-0.09c0.013-0.141-0.01-0.244-0.07-0.308
			c-0.082-0.087-0.209-0.139-0.385-0.156c-0.164-0.016-0.287,0-0.371,0.05s-0.151,0.145-0.203,0.286l-0.335-0.077
			c0.045-0.142,0.106-0.255,0.186-0.336c0.079-0.083,0.188-0.142,0.325-0.177c0.138-0.035,0.295-0.044,0.47-0.026
			c0.174,0.017,0.313,0.051,0.419,0.103c0.104,0.052,0.179,0.111,0.225,0.178c0.044,0.067,0.073,0.149,0.084,0.246
			c0.006,0.061,0.001,0.167-0.014,0.32l-0.044,0.459c-0.031,0.32-0.044,0.523-0.039,0.61c0.005,0.087,0.025,0.171,0.059,0.254
			l-0.354-0.035C31.857,51.425,31.843,51.338,31.842,51.239z M31.887,50.47c-0.13,0.039-0.323,0.064-0.578,0.075
			c-0.145,0.006-0.248,0.02-0.309,0.039c-0.061,0.02-0.11,0.053-0.147,0.099c-0.036,0.046-0.058,0.1-0.063,0.159
			c-0.009,0.092,0.019,0.172,0.083,0.239c0.064,0.068,0.165,0.109,0.3,0.122c0.133,0.014,0.257-0.004,0.366-0.052
			c0.11-0.048,0.196-0.12,0.255-0.216c0.044-0.074,0.074-0.187,0.088-0.339L31.887,50.47z"/>
		<path fill="#FFFFFF" d="M32.665,51.577l0.199-2.039l0.309,0.03l-0.03,0.313c0.094-0.139,0.176-0.227,0.247-0.267
			c0.071-0.039,0.148-0.056,0.229-0.048c0.116,0.012,0.231,0.06,0.344,0.145l-0.154,0.307c-0.079-0.055-0.161-0.086-0.245-0.094
			c-0.075-0.008-0.144,0.009-0.208,0.048c-0.064,0.039-0.112,0.099-0.146,0.176c-0.05,0.12-0.082,0.252-0.096,0.397l-0.104,1.064
			L32.665,51.577z"/>
		<path fill="#FFFFFF" d="M34.764,51.466l0.015,0.31c-0.1,0.012-0.188,0.014-0.265,0.006c-0.125-0.012-0.221-0.042-0.286-0.088
			c-0.066-0.047-0.109-0.104-0.131-0.171c-0.022-0.067-0.023-0.204-0.002-0.411l0.114-1.17l-0.256-0.025l0.026-0.27l0.256,0.024
			l0.049-0.504l0.364-0.174l-0.069,0.712l0.354,0.034l-0.026,0.27l-0.353-0.034l-0.116,1.188c-0.01,0.099-0.01,0.163,0,0.191
			c0.01,0.029,0.027,0.054,0.054,0.072c0.026,0.02,0.066,0.032,0.118,0.037C34.647,51.467,34.7,51.469,34.764,51.466z"/>
		<path fill="#FFFFFF" d="M36.208,51.923l0.274-2.811l1.246,0.122c0.251,0.024,0.438,0.068,0.563,0.132
			c0.125,0.063,0.22,0.162,0.285,0.297c0.066,0.136,0.091,0.28,0.075,0.436c-0.02,0.2-0.1,0.361-0.241,0.486
			c-0.144,0.124-0.35,0.191-0.623,0.202c0.093,0.057,0.164,0.11,0.211,0.161c0.1,0.11,0.189,0.245,0.271,0.404l0.412,0.812
			l-0.465-0.046l-0.314-0.62c-0.092-0.18-0.169-0.316-0.23-0.413c-0.062-0.097-0.119-0.165-0.171-0.207
			c-0.051-0.04-0.105-0.071-0.162-0.091c-0.04-0.014-0.109-0.024-0.204-0.034l-0.431-0.042l-0.122,1.248L36.208,51.923z
			 M36.734,50.387l0.798,0.078c0.17,0.017,0.304,0.012,0.403-0.014c0.1-0.026,0.177-0.075,0.235-0.147
			c0.057-0.072,0.09-0.153,0.098-0.243c0.014-0.134-0.024-0.247-0.112-0.343s-0.235-0.152-0.444-0.173l-0.887-0.086L36.734,50.387z"
			/>
		<path fill="#FFFFFF" d="M40.45,51.672l0.352,0.079c-0.077,0.202-0.197,0.354-0.36,0.455c-0.163,0.1-0.362,0.139-0.6,0.115
			c-0.298-0.028-0.525-0.144-0.682-0.344s-0.219-0.466-0.187-0.797c0.033-0.343,0.148-0.599,0.343-0.771s0.434-0.245,0.714-0.218
			c0.272,0.027,0.485,0.141,0.64,0.342c0.154,0.202,0.216,0.472,0.183,0.807c-0.002,0.021-0.006,0.05-0.011,0.092l-1.521-0.148
			c-0.009,0.225,0.038,0.402,0.14,0.532c0.103,0.13,0.239,0.203,0.41,0.22c0.126,0.013,0.238-0.009,0.335-0.067
			C40.302,51.911,40.384,51.812,40.45,51.672z M39.368,51.001l1.14,0.111c0.001-0.172-0.029-0.303-0.093-0.395
			c-0.098-0.144-0.234-0.223-0.409-0.239c-0.159-0.016-0.298,0.022-0.417,0.118C39.471,50.69,39.397,50.826,39.368,51.001z"/>
		<path fill="#FFFFFF" d="M42.534,52.281c-0.135,0.098-0.264,0.163-0.388,0.197c-0.123,0.033-0.253,0.043-0.389,0.03
			c-0.227-0.022-0.395-0.094-0.504-0.215c-0.111-0.12-0.158-0.266-0.142-0.437c0.01-0.099,0.042-0.188,0.096-0.266
			s0.12-0.139,0.198-0.181c0.079-0.043,0.167-0.072,0.262-0.089c0.069-0.011,0.175-0.019,0.314-0.021
			c0.283-0.006,0.494-0.024,0.631-0.058c0.006-0.047,0.01-0.077,0.011-0.09c0.014-0.142-0.01-0.244-0.069-0.309
			c-0.082-0.087-0.209-0.139-0.385-0.155c-0.165-0.017-0.288,0-0.372,0.05c-0.083,0.049-0.15,0.145-0.202,0.285l-0.335-0.077
			c0.045-0.142,0.106-0.254,0.186-0.336c0.08-0.083,0.188-0.141,0.326-0.176c0.138-0.035,0.295-0.044,0.47-0.026
			c0.174,0.017,0.313,0.05,0.419,0.102c0.104,0.053,0.179,0.111,0.225,0.179c0.045,0.067,0.073,0.149,0.085,0.246
			c0.006,0.06,0.001,0.166-0.014,0.319l-0.045,0.459c-0.031,0.32-0.045,0.523-0.039,0.61c0.005,0.087,0.025,0.171,0.059,0.254
			l-0.353-0.034C42.55,52.467,42.535,52.38,42.534,52.281z M42.579,51.513c-0.131,0.038-0.322,0.063-0.577,0.075
			c-0.145,0.006-0.248,0.019-0.309,0.039c-0.062,0.02-0.11,0.053-0.147,0.098c-0.037,0.047-0.058,0.1-0.063,0.159
			c-0.009,0.093,0.018,0.172,0.083,0.24c0.064,0.068,0.164,0.108,0.3,0.122c0.134,0.013,0.256-0.004,0.366-0.052
			c0.11-0.049,0.194-0.12,0.253-0.217c0.046-0.074,0.076-0.187,0.091-0.339L42.579,51.513z"/>
		<path fill="#FFFFFF" d="M44.678,52.748l0.025-0.26c-0.148,0.19-0.348,0.273-0.599,0.249c-0.161-0.016-0.307-0.075-0.434-0.179
			c-0.128-0.102-0.22-0.237-0.279-0.404c-0.06-0.169-0.079-0.356-0.059-0.564c0.02-0.203,0.071-0.384,0.156-0.542
			c0.083-0.16,0.197-0.276,0.341-0.352c0.144-0.074,0.299-0.104,0.466-0.088c0.123,0.012,0.229,0.049,0.32,0.109
			c0.09,0.061,0.162,0.136,0.214,0.225l0.098-1.006l0.344,0.033l-0.274,2.81L44.678,52.748z M43.687,51.623
			c-0.025,0.262,0.011,0.462,0.109,0.602c0.097,0.14,0.221,0.216,0.371,0.23c0.151,0.015,0.286-0.033,0.403-0.146
			c0.118-0.113,0.189-0.296,0.214-0.549c0.027-0.278-0.006-0.488-0.102-0.629c-0.095-0.141-0.221-0.218-0.379-0.233
			c-0.154-0.016-0.288,0.034-0.403,0.15C43.783,51.162,43.713,51.354,43.687,51.623z"/>
		<path fill="#FFFFFF" d="M45.781,50.416l0.038-0.393l0.344,0.033l-0.038,0.394L45.781,50.416z M45.546,52.833l0.198-2.039
			l0.344,0.034l-0.198,2.039L45.546,52.833z"/>
		<path fill="#FFFFFF" d="M46.418,52.918l0.199-2.039l0.31,0.031l-0.028,0.288c0.17-0.207,0.396-0.297,0.679-0.27
			c0.122,0.012,0.232,0.045,0.33,0.099c0.1,0.054,0.17,0.12,0.214,0.196s0.072,0.165,0.083,0.266
			c0.006,0.065,0.002,0.178-0.014,0.337l-0.122,1.253l-0.344-0.033l0.12-1.238c0.014-0.142,0.011-0.247-0.009-0.32
			c-0.021-0.072-0.063-0.133-0.127-0.181c-0.063-0.048-0.142-0.077-0.234-0.086c-0.146-0.014-0.277,0.021-0.393,0.104
			c-0.116,0.083-0.187,0.255-0.212,0.516l-0.108,1.111L46.418,52.918z"/>
		<path fill="#FFFFFF" d="M48.521,53.292l0.329,0.076c0.004,0.107,0.036,0.188,0.096,0.242c0.079,0.074,0.194,0.119,0.344,0.133
			c0.161,0.016,0.288-0.004,0.383-0.059c0.093-0.056,0.16-0.139,0.202-0.25c0.025-0.069,0.048-0.216,0.068-0.44
			c-0.168,0.162-0.365,0.232-0.591,0.21c-0.281-0.027-0.489-0.15-0.623-0.366c-0.135-0.218-0.188-0.467-0.16-0.749
			c0.019-0.195,0.072-0.371,0.158-0.528c0.087-0.157,0.201-0.274,0.345-0.352c0.143-0.075,0.305-0.104,0.485-0.087
			c0.242,0.023,0.432,0.141,0.568,0.353l0.024-0.251l0.311,0.03l-0.172,1.762c-0.031,0.316-0.086,0.538-0.163,0.664
			s-0.189,0.221-0.337,0.284c-0.146,0.063-0.323,0.084-0.528,0.064c-0.241-0.024-0.433-0.098-0.571-0.222
			S48.495,53.511,48.521,53.292z M48.926,52.098c-0.026,0.268,0.008,0.468,0.103,0.602c0.095,0.133,0.223,0.208,0.383,0.224
			s0.3-0.033,0.42-0.145c0.119-0.112,0.192-0.299,0.218-0.56c0.024-0.249-0.013-0.443-0.112-0.581
			c-0.099-0.138-0.227-0.213-0.383-0.229c-0.154-0.016-0.292,0.034-0.412,0.148C49.021,51.672,48.949,51.853,48.926,52.098z"/>
	</g>
	<g>
		<g>
			<path fill="#DFC44A" d="M24.626,20.599c-0.08-0.672,0.536-1.2,0.569-1.364c0.114-0.564,0.579-1.004,1.082-1.32
				c0.899-0.567,1.784-1.166,2.658-1.76c0.595-0.406,1.176-1.037,1.869-1.064c0.155-0.006,0.378,0.026,0.526-0.016
				c0.29-0.085,0.544-0.426,0.803-0.581c0.341-0.207,0.56-0.209,0.937-0.244c0.633-0.059,1.338-0.169,1.959-0.323
				c0.676-0.168,1.331-0.292,2.036-0.389c0.751-0.104,1.484,0.021,2.224,0.079c0.986,0.078,1.963,0.048,2.943,0.157
				c0.469,0.053,0.929,0.112,1.382,0.247c0.777,0.23,1.415,0.816,2.221,1.053c0.451,0.133,0.913,0.247,1.366,0.39
				c0.268,0.083,0.563,0.121,0.789,0.303c0.273,0.223,0.521,0.474,0.803,0.708c0.688,0.576,1.146,1.377,1.786,2.022
				c0.411,0.415,1.013,0.713,1.402,1.1c0.261,0.258,0.471,0.527,0.799,0.74c0.334,0.216,0.802,0.333,1.067,0.657
				c0.257,0.313,0.423,0.8,0.611,1.158c0.136,0.257,0.282,0.469,0.389,0.727c0.106,0.255,0.149,0.509,0.237,0.768
				c0.157,0.454,0.311,0.646,0.037,0.957c-0.238,0.272-0.121,0.307,0.092,0.741c0.15,0.308,0.107,0.543,0.183,0.871
				c0.112,0.49,0.402,0.966,0.502,1.442c0.101,0.477,0.067,1.025,0.102,1.507c0.055,0.762,0.256,1.582,0.215,2.324
				c-0.01,0.164,0.007,0.436-0.061,0.571c-0.099,0.203-0.356,0.3-0.478,0.503c-0.238,0.4-0.5,1.027-0.902,1.281
				c-0.224,0.143-0.282-0.003-0.602-0.038c-0.271-0.029-0.435,0.052-0.525,0.322c-0.147,0.445-0.065,1.027-0.15,1.501
				c-0.109,0.625-0.554,1.208-1.063,1.508c-0.267,0.157-0.595,0.131-0.839,0.312c-0.292,0.217-0.502,0.535-0.839,0.7
				c-0.405,0.196-0.875,0.334-1.333,0.47c-0.307,0.09-0.62,0.247-0.965,0.237c-0.259-0.011-0.526-0.116-0.791-0.135
				c-0.787-0.056-1.4,0.228-2.229-0.054c-0.251-0.084-0.543-0.26-0.731-0.446c-0.411-0.408-0.253-0.729-0.313-1.204
				c-0.08-0.627-0.39-1.395-0.697-1.924c-0.517-0.89,0.29-1.516,0.427-2.32c0.16-0.945-0.665-1.544-1.069-2.326
				c-0.146-0.283-0.328-0.773-0.302-1.091c0.025-0.27,0.312-0.34,0.318-0.61c0.013-0.591-0.843-0.467-1.169-0.662
				c-0.186-0.11-0.286-0.44-0.413-0.624c-0.185-0.262-0.41-0.519-0.645-0.735c-0.277-0.255-0.603-0.387-0.924-0.58
				c-0.202-0.121-0.411-0.233-0.666-0.2c-0.35,0.046-0.799,0.448-1.114,0.625c-0.415,0.234-0.817,0.496-1.217,0.758
				c-0.264,0.171-0.525,0.408-0.707,0.663c-0.156,0.22-0.226,0.549-0.466,0.702c-0.776,0.498-0.375-0.598-0.456-0.903
				c-0.066-0.245-0.308-0.142-0.503-0.352c-0.192-0.208-0.179-0.611-0.362-0.807c-0.02-0.044-0.042-0.086-0.063-0.129
				c-0.299,0.03-0.58,0.581-0.763,0.806c-0.177,0.219-0.407,0.48-0.659,0.629c-0.236,0.139-0.491,0.172-0.744,0.29
				c-0.293,0.138-0.357,0.294-0.561,0.561c-0.335,0.438-0.645,0.112-1.079,0.331c-0.213,0.107-0.255,0.285-0.501,0.348
				c-0.282,0.071-0.545-0.109-0.782-0.197c-0.498-0.179-1.012-0.16-1.578-0.105c-0.752,0.076-1.21,0.042-1.885-0.21
				c-0.496-0.183-0.999-0.208-1.543-0.296c-0.822-0.132-1.021-1.031-0.944-1.795c0.046-0.459,0.091-0.911,0.097-1.364
				c0.006-0.377-0.087-0.745-0.056-1.12c0,0.002-0.197-0.642,0.733-1.315c0.931-0.668,0.241-0.084-0.003-0.555
				C23.964,22.245,24.718,21.353,24.626,20.599z"/>
			<path fill="#1078B7" d="M48.491,38.969h-0.035c-0.147-0.006-0.293-0.039-0.434-0.071c-0.126-0.028-0.245-0.055-0.363-0.063
				c-0.287-0.021-0.558,0.007-0.818,0.033c-0.197,0.02-0.4,0.04-0.608,0.04c-0.3,0-0.563-0.042-0.831-0.133
				c-0.272-0.091-0.577-0.277-0.775-0.474c-0.331-0.33-0.331-0.618-0.331-0.923c0-0.111,0-0.226-0.016-0.35
				c-0.085-0.667-0.42-1.43-0.682-1.881c-0.371-0.639-0.118-1.151,0.126-1.647c0.119-0.241,0.242-0.491,0.286-0.75
				c0.103-0.604-0.235-1.063-0.594-1.55c-0.164-0.223-0.335-0.454-0.464-0.703c-0.131-0.254-0.346-0.784-0.313-1.155
				c0.016-0.171,0.112-0.28,0.189-0.367c0.078-0.087,0.125-0.145,0.127-0.235c0.007-0.281-0.237-0.347-0.64-0.421
				c-0.18-0.033-0.349-0.064-0.472-0.138c-0.151-0.09-0.244-0.272-0.333-0.448c-0.04-0.079-0.078-0.154-0.116-0.209
				c-0.179-0.254-0.396-0.502-0.628-0.717c-0.184-0.168-0.392-0.282-0.612-0.401c-0.097-0.053-0.195-0.106-0.293-0.165
				c-0.188-0.113-0.374-0.212-0.591-0.184c-0.211,0.028-0.487,0.219-0.73,0.389c-0.122,0.084-0.237,0.164-0.341,0.223
				c-0.405,0.228-0.788,0.476-1.211,0.753c-0.267,0.173-0.513,0.404-0.676,0.633c-0.049,0.07-0.091,0.155-0.135,0.245
				c-0.084,0.174-0.18,0.371-0.363,0.487c-0.274,0.176-0.462,0.188-0.575,0.063c-0.126-0.14-0.097-0.415-0.069-0.68
				c0.014-0.135,0.03-0.288,0.013-0.354c-0.019-0.071-0.05-0.083-0.156-0.118c-0.094-0.031-0.211-0.068-0.319-0.184
				c-0.117-0.125-0.166-0.295-0.213-0.46c-0.04-0.139-0.078-0.27-0.149-0.346l-0.021-0.032c-0.006-0.013-0.012-0.025-0.018-0.038
				c-0.155,0.079-0.33,0.337-0.452,0.517c-0.059,0.086-0.112,0.166-0.16,0.224c-0.179,0.222-0.42,0.497-0.69,0.656
				c-0.145,0.085-0.294,0.133-0.438,0.179c-0.109,0.035-0.212,0.068-0.315,0.116c-0.207,0.097-0.282,0.202-0.407,0.376
				c-0.033,0.046-0.069,0.096-0.11,0.15c-0.207,0.271-0.419,0.293-0.601,0.293l-0.167-0.002c-0.107,0-0.224,0.009-0.351,0.073
				c-0.075,0.038-0.126,0.088-0.18,0.142c-0.082,0.081-0.174,0.171-0.345,0.215c-0.234,0.06-0.484-0.039-0.685-0.129
				c-0.057-0.026-0.112-0.051-0.167-0.071c-0.258-0.093-0.538-0.137-0.879-0.137c-0.229,0-0.466,0.02-0.647,0.038
				c-0.245,0.025-0.443,0.036-0.624,0.036c-0.451,0-0.832-0.073-1.313-0.252c-0.353-0.13-0.713-0.179-1.095-0.229
				c-0.139-0.019-0.281-0.038-0.426-0.061c-0.895-0.144-1.125-1.087-1.041-1.922c0.044-0.442,0.09-0.898,0.096-1.354
				c0.002-0.162-0.015-0.327-0.031-0.487c-0.021-0.203-0.042-0.413-0.026-0.627c-0.034-0.165-0.088-0.784,0.783-1.415
				c0.095-0.068,0.172-0.123,0.236-0.167c-0.146-0.049-0.228-0.151-0.274-0.24c-0.085-0.164,0.026-0.403,0.181-0.733
				c0.17-0.365,0.382-0.819,0.334-1.213c-0.063-0.53,0.261-0.967,0.454-1.229c0.048-0.066,0.109-0.147,0.117-0.174
				c0.104-0.517,0.486-0.986,1.133-1.394c0.924-0.583,1.843-1.207,2.654-1.758c0.147-0.101,0.292-0.214,0.446-0.334
				c0.457-0.358,0.929-0.728,1.484-0.75l0.05-0.001c0.042,0,0.086,0.001,0.132,0.003c0.125,0.005,0.25,0.005,0.316-0.014
				c0.149-0.044,0.302-0.18,0.45-0.311c0.105-0.094,0.214-0.19,0.326-0.258c0.334-0.203,0.569-0.223,0.893-0.251l0.094-0.009
				c0.67-0.062,1.36-0.175,1.942-0.32c0.678-0.168,1.329-0.292,2.048-0.392c0.53-0.073,1.167-0.025,1.751,0.033
				c0.166,0.017,0.332,0.033,0.498,0.046c0.429,0.034,0.863,0.048,1.283,0.061c0.544,0.017,1.107,0.034,1.663,0.097
				c0.473,0.053,0.937,0.113,1.402,0.25c0.397,0.118,0.762,0.327,1.113,0.528c0.351,0.201,0.713,0.409,1.106,0.525
				c0.187,0.055,0.374,0.106,0.563,0.158c0.27,0.074,0.54,0.148,0.807,0.232c0.063,0.02,0.128,0.037,0.193,0.054
				c0.218,0.057,0.443,0.116,0.633,0.269c0.146,0.119,0.287,0.247,0.423,0.371c0.124,0.114,0.25,0.228,0.383,0.338
				c0.401,0.336,0.729,0.751,1.046,1.153c0.234,0.297,0.478,0.604,0.747,0.876c0.204,0.206,0.464,0.387,0.715,0.562
				c0.241,0.168,0.491,0.342,0.688,0.537c0.07,0.069,0.137,0.14,0.203,0.209c0.179,0.188,0.348,0.367,0.577,0.516
				c0.109,0.071,0.236,0.131,0.37,0.195c0.263,0.125,0.534,0.254,0.724,0.486c0.184,0.222,0.317,0.518,0.447,0.804
				c0.059,0.131,0.117,0.259,0.178,0.374c0.047,0.089,0.096,0.173,0.144,0.256c0.091,0.158,0.177,0.307,0.249,0.481
				c0.065,0.156,0.107,0.312,0.148,0.462c0.028,0.104,0.056,0.208,0.092,0.312c0.026,0.076,0.053,0.145,0.077,0.208
				c0.122,0.321,0.211,0.553-0.063,0.864c-0.137,0.156-0.137,0.156-0.01,0.389c0.034,0.062,0.074,0.135,0.118,0.224
				c0.104,0.212,0.124,0.397,0.144,0.577c0.011,0.101,0.021,0.205,0.048,0.319c0.053,0.231,0.15,0.466,0.244,0.694
				c0.102,0.244,0.206,0.497,0.259,0.75c0.068,0.327,0.076,0.681,0.084,1.024c0.004,0.17,0.008,0.338,0.02,0.499
				c0.02,0.28,0.062,0.576,0.102,0.862c0.068,0.492,0.14,1,0.113,1.476c-0.002,0.038-0.003,0.082-0.004,0.128
				c-0.003,0.169-0.006,0.362-0.068,0.488c-0.063,0.128-0.17,0.215-0.273,0.3c-0.083,0.068-0.161,0.131-0.209,0.211
				c-0.052,0.087-0.105,0.186-0.161,0.29c-0.206,0.383-0.44,0.816-0.779,1.03c-0.161,0.104-0.298,0.083-0.433,0.038
				c-0.065-0.022-0.139-0.047-0.243-0.058c-0.19-0.021-0.32-0.002-0.402,0.243c-0.079,0.241-0.088,0.539-0.096,0.828
				c-0.007,0.22-0.013,0.448-0.051,0.657c-0.109,0.629-0.549,1.252-1.117,1.588c-0.14,0.082-0.287,0.118-0.431,0.153
				c-0.147,0.036-0.287,0.07-0.398,0.152c-0.109,0.081-0.206,0.177-0.309,0.279c-0.161,0.159-0.328,0.324-0.549,0.432
				c-0.4,0.194-0.859,0.331-1.304,0.463l-0.047,0.015c-0.08,0.023-0.16,0.052-0.241,0.079
				C48.987,38.887,48.752,38.969,48.491,38.969z M47.451,38.594c0.074,0,0.148,0.002,0.225,0.008c0.136,0.01,0.27,0.04,0.398,0.069
				c0.137,0.031,0.265,0.06,0.39,0.064l0.027,0.001c0.221,0,0.438-0.076,0.647-0.149c0.085-0.029,0.169-0.059,0.252-0.083
				l0.047-0.014c0.436-0.13,0.886-0.264,1.269-0.449c0.187-0.091,0.332-0.235,0.486-0.389c0.104-0.103,0.212-0.209,0.334-0.3
				c0.149-0.11,0.319-0.152,0.482-0.191c0.133-0.032,0.258-0.063,0.367-0.127c0.504-0.298,0.909-0.872,1.006-1.428
				c0.035-0.192,0.041-0.402,0.047-0.624c0.009-0.305,0.018-0.621,0.108-0.895c0.104-0.31,0.31-0.437,0.648-0.401
				c0.13,0.014,0.22,0.044,0.292,0.068c0.051,0.018,0.088,0.03,0.12,0.03c0.021,0,0.054-0.005,0.113-0.043
				c0.288-0.181,0.507-0.586,0.699-0.944c0.058-0.106,0.112-0.208,0.166-0.298c0.068-0.115,0.167-0.195,0.263-0.272
				c0.088-0.071,0.171-0.139,0.21-0.222c0.04-0.081,0.043-0.259,0.046-0.39c0.001-0.05,0.001-0.097,0.004-0.137
				c0.024-0.454-0.045-0.95-0.111-1.431c-0.041-0.29-0.083-0.589-0.104-0.878c-0.012-0.164-0.016-0.336-0.02-0.51
				c-0.008-0.333-0.016-0.676-0.08-0.981c-0.048-0.232-0.144-0.464-0.245-0.709c-0.098-0.236-0.199-0.481-0.257-0.731
				c-0.029-0.127-0.041-0.239-0.053-0.347c-0.019-0.173-0.034-0.323-0.12-0.499c-0.042-0.086-0.081-0.156-0.113-0.215
				c-0.143-0.26-0.196-0.387,0.039-0.654c0.181-0.205,0.137-0.32,0.02-0.627c-0.025-0.065-0.053-0.136-0.079-0.215
				c-0.038-0.109-0.067-0.218-0.097-0.327c-0.041-0.149-0.079-0.291-0.139-0.434c-0.066-0.16-0.149-0.303-0.236-0.454
				c-0.049-0.085-0.1-0.172-0.147-0.264c-0.063-0.118-0.123-0.25-0.184-0.385c-0.124-0.272-0.251-0.554-0.415-0.753
				c-0.157-0.191-0.404-0.309-0.645-0.423c-0.135-0.064-0.273-0.13-0.396-0.209c-0.253-0.164-0.439-0.361-0.619-0.551
				c-0.064-0.068-0.13-0.136-0.198-0.204c-0.183-0.181-0.413-0.342-0.657-0.512c-0.259-0.181-0.527-0.368-0.746-0.588
				c-0.279-0.281-0.526-0.594-0.765-0.896c-0.324-0.41-0.63-0.798-1.013-1.119c-0.136-0.112-0.264-0.229-0.391-0.345
				c-0.14-0.127-0.271-0.248-0.412-0.362c-0.15-0.122-0.342-0.172-0.545-0.225c-0.069-0.018-0.137-0.036-0.204-0.057
				c-0.265-0.083-0.532-0.157-0.799-0.23c-0.189-0.052-0.379-0.104-0.566-0.159c-0.42-0.124-0.795-0.338-1.157-0.546
				c-0.355-0.204-0.691-0.397-1.063-0.507c-0.447-0.132-0.899-0.19-1.362-0.243c-0.546-0.061-1.104-0.079-1.644-0.096
				c-0.424-0.013-0.861-0.027-1.295-0.061c-0.167-0.013-0.335-0.03-0.502-0.046c-0.572-0.057-1.19-0.103-1.697-0.034
				c-0.711,0.098-1.354,0.221-2.023,0.387c-0.594,0.147-1.296,0.263-1.977,0.326l-0.095,0.008c-0.314,0.028-0.504,0.044-0.792,0.219
				c-0.094,0.056-0.19,0.142-0.292,0.232c-0.167,0.148-0.34,0.302-0.54,0.36c-0.096,0.027-0.24,0.029-0.39,0.023
				c-0.043-0.002-0.085-0.003-0.124-0.003l-0.041,0c-0.48,0.02-0.922,0.366-1.35,0.701c-0.149,0.117-0.304,0.238-0.458,0.343
				c-0.813,0.552-1.734,1.178-2.662,1.762c-0.591,0.373-0.938,0.792-1.029,1.245c-0.015,0.071-0.071,0.148-0.158,0.265
				c-0.184,0.249-0.462,0.624-0.41,1.062c0.056,0.46-0.171,0.948-0.354,1.339c-0.086,0.186-0.217,0.466-0.185,0.528
				c0.051,0.1,0.132,0.144,0.261,0.144c0.021,0,0.039-0.001,0.054-0.001l0.122-0.001l0.046,0.086
				c0.029,0.093-0.014,0.123-0.224,0.27c-0.071,0.05-0.167,0.117-0.292,0.207c-0.841,0.609-0.696,1.164-0.689,1.188l0.012,0.027
				l-0.008,0.016c-0.016,0.197,0.004,0.392,0.025,0.599c0.017,0.167,0.035,0.339,0.032,0.514c-0.006,0.465-0.052,0.927-0.097,1.374
				c-0.073,0.729,0.11,1.551,0.846,1.669c0.143,0.023,0.282,0.042,0.42,0.06c0.395,0.053,0.768,0.103,1.145,0.242
				c0.454,0.169,0.81,0.238,1.231,0.238c0.173,0,0.364-0.011,0.601-0.035c0.187-0.019,0.431-0.039,0.67-0.039
				c0.369,0,0.674,0.048,0.959,0.15c0.06,0.022,0.121,0.049,0.183,0.078c0.177,0.08,0.366,0.158,0.532,0.116
				c0.109-0.028,0.166-0.084,0.238-0.155c0.062-0.061,0.131-0.129,0.239-0.184c0.172-0.086,0.327-0.098,0.456-0.098l0.167,0.002
				c0.148,0,0.272-0.015,0.416-0.202c0.04-0.052,0.074-0.1,0.106-0.144c0.132-0.184,0.236-0.329,0.498-0.452
				c0.117-0.054,0.231-0.091,0.342-0.126c0.139-0.044,0.27-0.086,0.392-0.158c0.238-0.14,0.46-0.396,0.627-0.602
				c0.044-0.054,0.094-0.127,0.148-0.208c0.185-0.273,0.415-0.613,0.693-0.641l0.08-0.008l0.036,0.071
				c0.024,0.046,0.042,0.082,0.058,0.117c0.101,0.116,0.146,0.273,0.19,0.426c0.042,0.145,0.081,0.281,0.159,0.365
				c0.067,0.072,0.142,0.096,0.221,0.121c0.114,0.037,0.256,0.083,0.31,0.28c0.028,0.108,0.012,0.261-0.006,0.438
				c-0.017,0.163-0.046,0.437,0.011,0.5c0.007,0.007,0.043,0.047,0.277-0.103c0.127-0.082,0.201-0.233,0.279-0.394
				c0.046-0.095,0.094-0.192,0.154-0.278c0.182-0.255,0.444-0.501,0.738-0.693c0.426-0.28,0.813-0.531,1.224-0.762
				c0.095-0.053,0.205-0.13,0.321-0.211c0.266-0.185,0.567-0.393,0.834-0.429c0.291-0.037,0.526,0.087,0.741,0.215
				c0.095,0.057,0.19,0.108,0.284,0.159c0.223,0.121,0.454,0.246,0.659,0.435c0.243,0.227,0.472,0.487,0.66,0.754
				c0.048,0.069,0.09,0.151,0.134,0.237c0.07,0.14,0.151,0.298,0.244,0.354c0.088,0.052,0.236,0.08,0.395,0.109
				c0.355,0.066,0.842,0.156,0.831,0.655c-0.004,0.181-0.105,0.294-0.187,0.385c-0.068,0.078-0.123,0.139-0.132,0.233
				c-0.022,0.264,0.129,0.717,0.289,1.027c0.121,0.233,0.285,0.456,0.444,0.672c0.371,0.504,0.755,1.025,0.636,1.727
				c-0.049,0.292-0.18,0.558-0.307,0.814c-0.237,0.481-0.442,0.897-0.134,1.428c0.272,0.47,0.623,1.267,0.712,1.968
				c0.018,0.139,0.018,0.267,0.018,0.379c-0.001,0.288-0.001,0.497,0.262,0.757c0.173,0.171,0.448,0.34,0.687,0.419
				c0.242,0.082,0.482,0.12,0.756,0.12c0.196,0,0.385-0.019,0.585-0.038C47.02,38.615,47.23,38.594,47.451,38.594z"/>
		</g>
		<path fill="#1078B7" d="M26.13,29.19l-0.123-0.198c0.19-0.118,0.375-0.225,0.554-0.327c0.863-0.497,1.545-0.889,1.721-1.965
			c0.134-0.822,0.003-1.558-0.135-2.337c-0.086-0.486-0.176-0.99-0.192-1.51c-0.064-1.932,1.797-3.854,3.904-4.033
			c0.081-0.008,2.048-0.203,2.668,0.549c0.184,0.223,0.227,0.5,0.129,0.823l-0.223-0.067c0.075-0.248,0.047-0.446-0.085-0.607
			c-0.449-0.545-1.933-0.521-2.466-0.465c-1.994,0.169-3.754,1.978-3.693,3.794c0.016,0.503,0.104,0.998,0.189,1.476
			c0.135,0.764,0.276,1.554,0.135,2.416c-0.193,1.186-0.954,1.623-1.834,2.129C26.501,28.969,26.318,29.074,26.13,29.19z"/>
		<path fill="#1078B7" d="M32.853,18.879c-0.086-0.417,0.024-0.867,0.311-1.269c0.376-0.528,1.021-0.921,1.642-1l0.029,0.231
			c-0.559,0.072-1.141,0.427-1.481,0.905c-0.176,0.247-0.366,0.635-0.272,1.086L32.853,18.879z"/>
		<path fill="#1078B7" d="M32.891,28.086c-0.825,0-1.458-1.426-1.763-2.113L31.06,25.82c-0.612-1.345-0.643-2.467-0.485-4.067
			l0.232,0.022c-0.154,1.56-0.125,2.65,0.465,3.948l0.069,0.155c0.263,0.592,0.876,1.974,1.55,1.975c0.003,0,0.005,0,0.008,0
			l0.004,0.233C32.899,28.085,32.895,28.086,32.891,28.086z"/>
		<path fill="#1078B7" d="M35.251,21.878c-0.813,0-1.696-0.383-2.376-0.845l0.131-0.192c0.926,0.628,2.241,1.11,3.155,0.578
			c0.647-0.378,1.116-1.155,1.167-1.934c0.039-0.598-0.167-1.102-0.58-1.421l0.142-0.184c0.477,0.368,0.714,0.943,0.67,1.621
			c-0.056,0.866-0.56,1.699-1.282,2.12C35.966,21.801,35.615,21.878,35.251,21.878z"/>
		<path fill="#1078B7" d="M33.759,27.441c-0.107-0.109-0.189-0.16-0.269-0.209c-0.103-0.064-0.201-0.124-0.306-0.28
			c-0.268-0.399-0.299-0.963-0.095-1.677c0.233-0.82,0.898-1.587,1.696-1.954c0.174-0.082,0.368-0.132,0.556-0.181
			c0.375-0.098,0.729-0.191,0.943-0.511c0.115-0.173,0.183-0.508,0.1-0.7c-0.036-0.083-0.094-0.128-0.182-0.142l0.038-0.23
			c0.167,0.027,0.29,0.124,0.358,0.279c0.121,0.278,0.032,0.695-0.12,0.922c-0.263,0.394-0.677,0.502-1.077,0.606
			c-0.186,0.049-0.361,0.095-0.517,0.167c-0.739,0.34-1.355,1.049-1.57,1.806c-0.185,0.645-0.163,1.144,0.064,1.483
			c0.077,0.114,0.144,0.155,0.235,0.212c0.083,0.051,0.186,0.115,0.313,0.244L33.759,27.441z"/>
		<path fill="#1078B7" d="M28.048,21.367c-0.317,0-0.587-0.076-0.818-0.23c-0.631-0.42-0.81-1.333-0.968-2.14
			c-0.075-0.384-0.146-0.747-0.257-1.015l0.215-0.089c0.12,0.29,0.193,0.664,0.271,1.06c0.149,0.761,0.318,1.624,0.868,1.99
			c0.291,0.193,0.664,0.239,1.143,0.141l0.047,0.228C28.37,21.349,28.204,21.367,28.048,21.367z"/>
		<path fill="#1078B7" d="M24.471,26.426c-0.507,0-0.964-0.083-1.23-0.212l0.102-0.209c0.539,0.262,1.94,0.299,2.77-0.187
			c0.372-0.218,0.571-0.51,0.592-0.869l0.232,0.014c-0.025,0.435-0.27,0.8-0.707,1.056C25.731,26.311,25.067,26.426,24.471,26.426z"
			/>
		<path fill="#1078B7" d="M25.372,26.158c-0.272-1.342,0.204-3.768,1.598-4.667l0.126,0.196c-1.311,0.846-1.755,3.147-1.496,4.425
			L25.372,26.158z"/>
		<path fill="#1078B7" d="M39.715,26.102c-0.009,0-0.018,0-0.027,0l0.007-0.233c0.715,0.023,1.021-1.26,1.091-2.02
			c0.016-0.181,0.036-0.36,0.056-0.538c0.074-0.656,0.144-1.275,0.029-1.917c-0.126-0.711-0.438-1.399-0.741-2.064l-0.021-0.047
			c-0.17-0.374-0.442-0.736-0.706-1.087c-0.477-0.634-0.969-1.291-0.93-2.082c0.036-0.767,0.642-2.133,1.296-2.634l0.142,0.185
			c-0.549,0.42-1.168,1.684-1.205,2.46c-0.034,0.708,0.411,1.302,0.884,1.931c0.271,0.361,0.552,0.734,0.731,1.131l0.021,0.046
			c0.309,0.679,0.628,1.38,0.759,2.12c0.12,0.674,0.045,1.339-0.026,1.983c-0.021,0.177-0.04,0.354-0.057,0.533
			C40.982,24.244,40.761,26.102,39.715,26.102z"/>
		<path fill="#1078B7" d="M43.813,18.112c-0.317,0-0.637-0.046-0.854-0.191c-0.514-0.343-0.516-0.793-0.518-1.229
			c0-0.162-0.001-0.329-0.029-0.487c-0.079-0.459-0.311-0.756-0.686-0.883c-0.887-0.298-2.411,0.405-3.071,1.02l-0.159-0.17
			c0.72-0.67,2.324-1.4,3.305-1.07c0.456,0.154,0.747,0.521,0.841,1.063c0.031,0.178,0.032,0.355,0.033,0.526
			c0.002,0.409,0.003,0.763,0.414,1.037c0.22,0.147,0.653,0.189,1.22,0.118c0.87-0.111,1.038-0.578,1.317-1.351l0.009-0.025
			l0.219,0.079l-0.009,0.025c-0.287,0.797-0.495,1.374-1.507,1.503C44.177,18.097,43.995,18.112,43.813,18.112z"/>
		<path fill="#1078B7" d="M41.926,23.199c-0.21,0-0.416-0.027-0.629-0.054c-0.086-0.011-0.174-0.022-0.265-0.032l0.025-0.232
			c0.092,0.01,0.182,0.021,0.27,0.033c0.395,0.051,0.737,0.095,1.114-0.021c0.757-0.234,1.663-1.088,1.745-1.88l0.231,0.024
			c-0.093,0.905-1.08,1.822-1.908,2.079C42.308,23.177,42.115,23.199,41.926,23.199z"/>
		<path fill="#1078B7" d="M45.121,21.246c-0.23,0-0.474-0.03-0.728-0.091c-0.722-0.174-1.713-1.034-1.564-1.936l0.229,0.038
			c-0.122,0.746,0.745,1.516,1.389,1.671c0.93,0.221,1.686,0.001,2.245-0.653l0.178,0.151
			C46.403,20.972,45.817,21.246,45.121,21.246z"/>
		<path fill="#1078B7" d="M37.849,26.688c-0.54-0.075-0.858-0.931-0.926-1.694c-0.063-0.712,0.068-1.539,0.627-1.721l0.072,0.221
			c-0.402,0.131-0.524,0.838-0.467,1.479c0.071,0.798,0.383,1.437,0.726,1.484L37.849,26.688z"/>
		<path fill="#1078B7" d="M42.584,28.474c-0.346-1.066,0.29-1.484,1.026-1.968c0.26-0.171,0.527-0.347,0.781-0.568
			c0.656-0.57,1.327-0.734,2.314-0.564c0.184,0.031,0.373,0.079,0.574,0.13c0.524,0.133,1.066,0.27,1.478,0.088
			c0.425-0.187,0.719-0.542,0.875-1.056c0.331-1.088-0.045-2.636-0.599-3.505l-0.08-0.125c-0.529-0.825-0.879-1.369-0.82-2.377
			c0.022-0.381,0.081-0.757,0.139-1.12c0.056-0.355,0.114-0.722,0.136-1.087l0.232,0.013c-0.022,0.377-0.081,0.75-0.138,1.11
			c-0.057,0.357-0.115,0.727-0.137,1.097c-0.054,0.933,0.262,1.424,0.784,2.238l0.08,0.125c0.574,0.9,0.989,2.502,0.626,3.698
			c-0.178,0.583-0.516,0.987-1.005,1.202c-0.484,0.214-1.065,0.067-1.629-0.075c-0.196-0.05-0.382-0.097-0.557-0.126
			c-0.921-0.158-1.517-0.015-2.121,0.51c-0.266,0.231-0.541,0.412-0.807,0.586c-0.711,0.467-1.224,0.805-0.933,1.701L42.584,28.474z
			"/>
		<path fill="#1078B7" d="M53.742,29.307l-0.231-0.028c0.269-2.252-1.224-4.216-3.629-4.776l0.053-0.227
			C52.459,24.863,54.025,26.932,53.742,29.307z"/>
		<path fill="#1078B7" d="M56.176,31.667c-0.606-0.034-0.775-0.639-0.912-1.125c-0.035-0.128-0.069-0.249-0.108-0.348
			c-0.229-0.587-0.376-0.714-0.987-0.849c-0.851-0.182-1.068,0.172-1.369,0.663c-0.17,0.277-0.362,0.591-0.699,0.835l-0.137-0.188
			c0.299-0.217,0.471-0.497,0.638-0.768c0.311-0.507,0.604-0.986,1.616-0.77c0.692,0.153,0.897,0.329,1.156,0.993
			c0.043,0.11,0.078,0.236,0.115,0.37c0.152,0.545,0.292,0.932,0.701,0.955L56.176,31.667z"/>
		<path fill="#1078B7" d="M45.981,38.771c-0.304-0.039-0.535-0.203-0.688-0.486c-0.666-1.233,0.387-4.581,0.735-5.302
			c0.231-0.479,0.521-0.677,0.857-0.907c0.137-0.094,0.278-0.19,0.429-0.315c0.7-0.583,0.957-1.386,1.115-2.094
			c0.27-1.2,0.21-2.086-0.888-3.063L47.425,26.5c-0.405-0.362-0.788-0.704-1.296-0.825l0.054-0.227
			c0.565,0.134,0.97,0.495,1.397,0.877l0.116,0.104c1.185,1.053,1.249,2.002,0.961,3.287c-0.167,0.747-0.439,1.595-1.194,2.223
			c-0.159,0.132-0.305,0.231-0.446,0.328c-0.32,0.219-0.574,0.393-0.778,0.816c-0.326,0.674-1.357,3.949-0.74,5.089
			c0.117,0.218,0.285,0.337,0.513,0.366L45.981,38.771z"/>
		<path fill="#1078B7" d="M49.318,38.562c-0.499-0.645-0.617-2.374-0.619-2.928c-0.004-0.635-0.01-1.817,0.523-2.262
			c0.146-0.124,0.425-0.205,0.746-0.298c0.438-0.127,0.983-0.286,1.094-0.564c0.042-0.108,0.018-0.237-0.075-0.394l0.2-0.119
			c0.131,0.219,0.161,0.42,0.092,0.598c-0.151,0.384-0.732,0.554-1.245,0.703c-0.284,0.083-0.553,0.161-0.661,0.253
			c-0.45,0.375-0.443,1.529-0.44,2.083c0.002,0.646,0.149,2.243,0.57,2.787L49.318,38.562z"/>
		<path fill="#1078B7" d="M52.87,32.741c-0.629,0-1.315-0.234-1.961-0.684c-0.772-0.536-0.826-1.114-0.889-1.784
			c-0.014-0.15-0.028-0.307-0.052-0.472l0.23-0.033c0.024,0.168,0.039,0.329,0.054,0.483c0.062,0.661,0.105,1.14,0.789,1.614
			c0.907,0.632,1.892,0.811,2.636,0.477l0.095,0.212C53.496,32.68,53.19,32.741,52.87,32.741z"/>
		<path fill="#1078B7" d="M47.331,31.811c-1.335-0.587-1.685-2.437-1.501-3.501l0.229,0.04c-0.178,1.032,0.197,2.734,1.365,3.249
			L47.331,31.811z"/>
		<path fill="#1078B7" d="M49.915,22.422c-0.138,0-0.279-0.027-0.423-0.082l0.082-0.218c0.29,0.109,0.554,0.084,0.783-0.075
			c0.407-0.282,0.619-0.92,0.618-1.405h0.233c0.001,0.529-0.224,1.254-0.719,1.597C50.314,22.36,50.12,22.422,49.915,22.422z"/>
		<path fill="#1078B7" d="M48.854,25.63c-0.614,0-1.285-0.744-1.604-1.217c-0.313-0.465-0.264-0.884-0.21-1.328
			c0.009-0.068,0.017-0.137,0.023-0.208l0.232,0.023c-0.008,0.072-0.016,0.143-0.024,0.212c-0.051,0.417-0.094,0.777,0.172,1.17
			c0.338,0.501,1.02,1.211,1.513,1.103l0.05,0.228C48.955,25.625,48.904,25.63,48.854,25.63z"/>
		<path fill="#1078B7" d="M48.936,36.596c-1.301-0.311-1.987-0.592-2.658-1.824l0.205-0.111c0.628,1.155,1.247,1.408,2.508,1.708
			L48.936,36.596z"/>
	</g>
	<g>
		<path fill="#FFFFFF" d="M31.731,35.38c-0.107,1.1-0.41,1.961-0.908,2.583c-0.498,0.621-1.168,0.891-2.01,0.809l0.116-1.189
			c0.842,0.083,1.343-0.694,1.502-2.329l-1.264-0.123l0.25-2.564l2.563,0.25L31.731,35.38z"/>
		<path fill="#FFFFFF" d="M41.259,36.31c-0.107,1.099-0.411,1.961-0.908,2.582c-0.499,0.621-1.169,0.891-2.011,0.809l0.115-1.188
			c0.842,0.082,1.344-0.695,1.503-2.329l-1.264-0.123l0.25-2.564l2.564,0.25L41.259,36.31z"/>
		<path fill="#FFFFFF" d="M34.287,46.666c-0.072,0-0.144-0.022-0.204-0.066l-3.558-2.567l0.409-0.567l3.382,2.441l5.161-2.709
			l0.324,0.618l-5.352,2.811C34.398,46.652,34.342,46.666,34.287,46.666z"/>
	</g>
	<path fill="#219BD2" d="M20.414,39.292c0.14,0.604-0.236,1.208-0.84,1.349c-3.052,0.708-5.133,2.02-6.184,3.898
		c-0.575,1.027-0.765,2.099-0.79,3.018c0.818-0.022,1.614,0.422,1.997,1.205c0.523,1.068,0.08,2.36-0.989,2.883
		c-1.069,0.522-2.36,0.079-2.882-0.989c-0.165-0.338-0.233-0.697-0.217-1.047c-0.244-1.351-0.401-3.788,0.901-6.139
		c1.37-2.47,3.945-4.159,7.655-5.02C19.67,38.31,20.273,38.687,20.414,39.292z"/>
	<path fill="#CDD0D5" d="M33.202,50.031l0.353-0.676c0,0-4.838-10.098-17.002-5.473l0.308,1.303L33.202,50.031z"/>
	<image overflow="visible" width="18" height="9" xlink:href="AA2F17F1.png"  transform="matrix(1 0 0 1 16 42)">
	</image>
	<path fill="#DFC44A" d="M13.244,44.997c15.364-6.17,19.958,5.034,19.958,5.034c12-3.949,17.355,5.331,17.355,5.331l0.929,16.125
		c0,0-7.041-9.124-19.76-4.466c0,0-7.88-11.138-17.543-5.229L13.244,44.997z"/>
	<path fill="#898F92" d="M49.64,54.104l-0.058-2.082c0,0-7.25-6.745-16.028-2.666l-0.353,0.676L49.64,54.104z"/>
	<image overflow="visible" width="17" height="7" xlink:href="AA2F17F7.png"  transform="matrix(1 0 0 1 33 48)">
	</image>
	<path fill="#DFC44A" d="M50.557,55.362l0.929,16.125c0,0-7.041-9.124-19.76-4.466l1.477-16.99
		C45.201,46.082,50.557,55.362,50.557,55.362z"/>
	<path fill="#DFC44A" d="M33.202,50.031l-1.477,16.99c0,0-7.88-11.138-17.543-5.229l-0.938-16.795
		C28.608,38.827,33.202,50.031,33.202,50.031z"/>
	<image overflow="visible" width="21" height="25" xlink:href="AA2F17F2.png"  transform="matrix(1 0 0 1 13 43)">
	</image>
	<path fill="#E1E3E7" d="M29.174,49.961l-0.192,2.344c0,0-6.043-5.3-12.038-1.276l-0.045-3.25
		C16.899,47.778,23.619,43.968,29.174,49.961z"/>
	<image overflow="visible" width="14" height="7" xlink:href="AA2F17F3.png"  transform="matrix(1 0 0 1 16 46)">
	</image>
	<path fill="#219BD2" d="M14.733,48.876c0.417,1.114-0.149,2.355-1.265,2.771c-1.095,0.41-2.312-0.13-2.75-1.205"/>
</g>
</svg>
