<?xml version="1.0" encoding="utf-8"?>
<!-- Generator: Adobe Illustrator 16.0.0, SVG Export Plug-In . SVG Version: 6.00 Build 0)  -->
<!DOCTYPE svg PUBLIC "-//W3C//DTD SVG 1.1//EN" "http://www.w3.org/Graphics/SVG/1.1/DTD/svg11.dtd">
<svg version="1.1" id="圖層_1" xmlns="http://www.w3.org/2000/svg" xmlns:xlink="http://www.w3.org/1999/xlink" x="0px" y="0px"
	 width="75px" height="75px" viewBox="0 0 75 75" enable-background="new 0 0 75 75" xml:space="preserve">
<g>
	<path fill="#FFFFFF" d="M72.211,32.909C71.236,14.578,56.105,0,37.531,0C18.955,0,3.825,14.578,2.848,32.909H2.804
		c0,0-0.184,1.843,0.095,4.737c0.779,9.534,5.388,17.98,12.307,23.784c0.024,0.021,0.045,0.041,0.068,0.063
		c0.124,0.104,0.256,0.203,0.38,0.306c9.754,8.265,26.805,14.653,56.6,12.917L72.211,32.909z"/>
	<path fill="#3F9979" d="M68.545,33.393C67.673,17,54.139,3.964,37.526,3.964C20.917,3.964,7.382,17,6.51,33.393H6.471
		c0,0-0.166,1.651,0.083,4.237C7.25,46.162,11.373,53.713,17.561,58.9c0.025,0.021,0.042,0.041,0.064,0.059
		c0.109,0.091,0.225,0.18,0.339,0.271c8.723,7.396,23.97,13.107,50.617,11.553L68.545,33.393z"/>
</g>
<g>
	<g>
		<path fill="#FFFFFF" d="M38.715,44.75H27.018v-4.635l9.679-16.18h8.221v15.733h3.064v5.082h-3.064v6.314h-6.203V44.75z
			 M38.715,39.668v-3.961c0-1.756,0.148-4.447,0.225-6.204h-0.15c-0.711,1.57-1.458,3.102-2.242,4.708l-3.177,5.457H38.715z"/>
	</g>
</g>
</svg>
