<?xml version="1.0" encoding="utf-8"?>
<!-- Generator: Adobe Illustrator 16.0.0, SVG Export Plug-In . SVG Version: 6.00 Build 0)  -->
<!DOCTYPE svg PUBLIC "-//W3C//DTD SVG 1.1//EN" "http://www.w3.org/Graphics/SVG/1.1/DTD/svg11.dtd">
<svg version="1.1" id="圖層_1" xmlns="http://www.w3.org/2000/svg" xmlns:xlink="http://www.w3.org/1999/xlink" x="0px" y="0px"
	 width="75px" height="75px" viewBox="0 0 75 75" enable-background="new 0 0 75 75" xml:space="preserve">
<g>
	<g>
		<path fill="#FFFFFF" d="M41.772,2.234H4.521C2.024,2.234,0,4.264,0,6.762v48.449c0,2.496,2.024,4.529,4.521,4.529h37.252
			c2.497,0,4.528-2.033,4.528-4.529V6.762C46.301,4.264,44.27,2.234,41.772,2.234z M4.521,5.656h37.252
			c0.612,0,1.105,0.502,1.105,1.105v8.72H3.422v-8.72C3.422,6.158,3.915,5.656,4.521,5.656z M41.772,56.318H4.521
			c-0.605,0-1.099-0.497-1.099-1.107V17.767h39.456v37.444C42.878,55.821,42.385,56.318,41.772,56.318z"/>
		<path fill="#FFFFFF" d="M38.662,27.021H7.643c-0.853,0-1.538,0.519-1.538,1.146c0,0.629,0.686,1.142,1.538,1.142h31.02
			c0.848,0,1.534-0.513,1.534-1.142C40.196,27.539,39.51,27.021,38.662,27.021z"/>
		<path fill="#FFFFFF" d="M38.662,36.958H7.643c-0.853,0-1.538,0.513-1.538,1.143c0,0.622,0.686,1.133,1.538,1.133h31.02
			c0.848,0,1.534-0.511,1.534-1.133C40.196,37.471,39.51,36.958,38.662,36.958z"/>
		<path fill="#FFFFFF" d="M38.662,48.022H7.643c-0.853,0-1.538,0.52-1.538,1.145c0,0.632,0.686,1.142,1.538,1.142h31.02
			c0.848,0,1.534-0.51,1.534-1.142C40.196,48.542,39.51,48.022,38.662,48.022z"/>
	</g>
	<g>
		<g>
			<path fill="#FFFFFF" d="M73.845,66.049l-9.624-9.629c-1.433,2.23-3.334,4.13-5.566,5.566l9.629,9.628
				c1.54,1.534,4.032,1.534,5.562,0C75.385,70.08,75.385,67.584,73.845,66.049"/>
			<path fill="#FFFFFF" d="M73.464,44.101c0-14.984-12.148-27.135-27.138-27.135c-14.976,0-27.126,12.15-27.126,27.135
				c0,14.978,12.15,27.122,27.126,27.122C61.315,71.223,73.464,59.078,73.464,44.101 M46.326,64.447
				c-11.211,0-20.342-9.128-20.342-20.347c0-11.223,9.131-20.351,20.342-20.351c11.223,0,20.352,9.128,20.352,20.351
				C66.678,55.319,57.549,64.447,46.326,64.447"/>
			<path fill="#FFFFFF" d="M30.053,40.025h3.489c0-4.807,3.915-8.72,8.718-8.72v-3.48C35.532,27.825,30.053,33.298,30.053,40.025"/>
		</g>
		<g>
			<rect x="36.155" y="42.474" fill="#FFFFFF" width="22.499" height="3.812"/>
		</g>
		<g>
			<rect x="36.155" y="52.585" fill="#FFFFFF" width="10.507" height="3.812"/>
		</g>
	</g>
</g>
</svg>
