<?xml version="1.0" encoding="utf-8"?>
<!-- Generator: Adobe Illustrator 16.0.0, SVG Export Plug-In . SVG Version: 6.00 Build 0)  -->
<!DOCTYPE svg PUBLIC "-//W3C//DTD SVG 1.1//EN" "http://www.w3.org/Graphics/SVG/1.1/DTD/svg11.dtd">
<svg version="1.1" id="圖層_1" xmlns="http://www.w3.org/2000/svg" xmlns:xlink="http://www.w3.org/1999/xlink" x="0px" y="0px"
	 width="75px" height="75px" viewBox="0 0 75 75" enable-background="new 0 0 75 75" xml:space="preserve">
<g>
	<path fill="#FFFFFF" d="M72.213,32.907C71.236,14.579,56.105,0,37.531,0C18.955,0,3.824,14.579,2.847,32.907H2.803
		c0,0-0.184,1.848,0.095,4.741c0.779,9.534,5.388,17.98,12.307,23.78c0.025,0.022,0.046,0.045,0.068,0.065
		c0.124,0.103,0.256,0.2,0.38,0.307c9.755,8.265,26.806,14.65,56.603,12.913L72.213,32.907z"/>
	<path fill="#2883BE" d="M68.547,33.395C67.675,16.997,54.141,3.96,37.526,3.96c-16.61,0-30.146,13.037-31.018,29.435H6.47
		c0,0-0.166,1.651,0.083,4.235c0.696,8.529,4.82,16.084,11.007,21.272c0.025,0.02,0.042,0.037,0.064,0.059
		c0.109,0.091,0.225,0.18,0.339,0.27c8.724,7.396,23.971,13.106,50.619,11.559L68.547,33.395z"/>
</g>
<g>
	<g>
		<path fill="#FFFFFF" d="M28.718,45.684h5.905V30.587h-5.12v-4.111c2.989-0.598,4.933-1.345,6.876-2.541h4.896v21.749h5.008v5.381
			H28.718V45.684z"/>
	</g>
</g>
</svg>
