<?xml version="1.0" encoding="utf-8"?>
<!-- Generator: Adobe Illustrator 16.0.0, SVG Export Plug-In . SVG Version: 6.00 Build 0)  -->
<!DOCTYPE svg PUBLIC "-//W3C//DTD SVG 1.1//EN" "http://www.w3.org/Graphics/SVG/1.1/DTD/svg11.dtd">
<svg version="1.1" id="圖層_1" xmlns="http://www.w3.org/2000/svg" xmlns:xlink="http://www.w3.org/1999/xlink" x="0px" y="0px"
	 width="75px" height="75px" viewBox="0 0 75 75" enable-background="new 0 0 75 75" xml:space="preserve">
<g>
	<path fill="#9394C8" d="M75,37.502C75,58.213,58.209,75,37.501,75C16.788,75,0,58.213,0,37.502C0,16.792,16.788,0.003,37.501,0.003
		C58.209,0.003,75,16.792,75,37.502"/>
	<path fill="#675F91" d="M69.47,37.502c0,17.653-14.315,31.967-31.969,31.967c-17.656,0-31.97-14.313-31.97-31.967
		c0-17.658,14.313-31.971,31.97-31.971C55.154,5.531,69.47,19.844,69.47,37.502"/>
	<g opacity="0.7">
		<g>
			<path fill="#FFFFFF" d="M37.498,3.285c20.157,0,36.554,15.915,37.419,35.859C74.941,38.596,75,38.054,75,37.502
				c0-20.71-16.789-37.499-37.502-37.499C16.788,0.003,0,16.792,0,37.502c0,0.552,0.06,1.094,0.083,1.643
				C0.949,19.2,17.345,3.285,37.498,3.285"/>
			<rect fill="none" width="75" height="39.145"/>
		</g>
	</g>
	<g>
		<path fill="#FFFFFF" d="M45.198,35.052c-6.302,0-11.41,5.108-11.41,11.412c0,6.303,5.108,11.412,11.41,11.412
			c6.305,0,11.415-5.109,11.415-11.412H45.198V35.052z"/>
		<path fill="#FFFFFF" d="M60.073,44.663H47.002V31.589h0.828c6.751,0,12.243,5.492,12.243,12.243V44.663z M48.661,43.002h9.72
			c-0.404-5.177-4.541-9.319-9.72-9.72V43.002z"/>
	</g>
	<g>
		<rect x="23.511" y="25.864" fill="#F5F5F5" width="16.181" height="0.819"/>
		<rect x="23.511" y="28.767" fill="#F5F5F5" width="16.181" height="0.82"/>
		<rect x="23.511" y="31.668" fill="#F5F5F5" width="16.181" height="0.82"/>
		<rect x="23.511" y="34.571" fill="#F5F5F5" width="16.181" height="0.816"/>
		<rect x="23.511" y="37.47" fill="#F5F5F5" width="16.181" height="0.822"/>
		<rect x="23.511" y="40.373" fill="#F5F5F5" width="16.181" height="0.82"/>
		<rect x="23.511" y="43.276" fill="#F5F5F5" width="8.364" height="0.817"/>
		<g>
			<path fill="#F5F5F5" d="M41.731,43.493V23.965c0-0.554-0.451-1.002-1.002-1.002H22.25c-0.553,0-1,0.448-1,1.002V49.16
				c0,0.553,0.447,1.002,1,1.002h12.911l0.439-0.477l0.32-0.325l5.008-5.037l0.387-0.39l0.416-0.416l0.023-0.024H41.731z
				 M35.709,43.493c-0.304,0-0.548,0.246-0.548,0.55v5.317H22.25c-0.105,0-0.199-0.093-0.199-0.2V23.965
				c0-0.109,0.094-0.202,0.199-0.202h18.479c0.106,0,0.199,0.093,0.199,0.202v19.528H35.709z"/>
			<path fill="#F5F5F5" d="M35.161,50.474H22.25c-0.725,0-1.311-0.589-1.311-1.313V23.965c0-0.723,0.586-1.313,1.311-1.313h18.479
				c0.724,0,1.313,0.591,1.313,1.313v19.444c0.031,0.104,0.015,0.217-0.063,0.298l-6.59,6.668
				C35.33,50.438,35.248,50.474,35.161,50.474z M22.25,23.273c-0.381,0-0.691,0.312-0.691,0.691V49.16
				c0,0.384,0.311,0.692,0.691,0.692h12.775l0.169-0.183c0,0-0.022,0.002-0.033,0.002H22.25c-0.275,0-0.509-0.233-0.509-0.512
				V23.965c0-0.281,0.229-0.512,0.509-0.512h18.479c0.281,0,0.511,0.23,0.511,0.512v19.528c0,0.032-0.006,0.062-0.014,0.093
				l0.194-0.197V23.965c0-0.38-0.312-0.691-0.691-0.691H22.25z M35.709,43.803c-0.132,0-0.237,0.106-0.237,0.24v5.317v0.014
				l5.55-5.584c-0.027,0.009-0.059,0.013-0.093,0.013H35.709z M22.363,49.049h12.487v-5.006c0-0.476,0.386-0.861,0.858-0.861h4.91
				V24.074H22.363V49.049z"/>
		</g>
	</g>
</g>
</svg>
