<?xml version="1.0" encoding="utf-8"?>
<!-- Generator: Adobe Illustrator 16.0.0, SVG Export Plug-In . SVG Version: 6.00 Build 0)  -->
<!DOCTYPE svg PUBLIC "-//W3C//DTD SVG 1.1//EN" "http://www.w3.org/Graphics/SVG/1.1/DTD/svg11.dtd">
<svg version="1.1" id="圖層_1" xmlns="http://www.w3.org/2000/svg" xmlns:xlink="http://www.w3.org/1999/xlink" x="0px" y="0px"
	 width="75px" height="75px" viewBox="0 0 75 75" enable-background="new 0 0 75 75" xml:space="preserve">
<g>
	<path fill="#FFFFFF" d="M72.213,32.907C71.236,14.574,56.107,0,37.531,0S3.824,14.574,2.845,32.907H2.803
		c0,0-0.185,1.848,0.095,4.737C3.677,47.18,8.285,55.626,15.206,61.43c0.024,0.02,0.045,0.039,0.068,0.063
		c0.124,0.103,0.256,0.2,0.38,0.301c9.756,8.269,26.806,14.656,56.603,12.92L72.213,32.907z"/>
	<path fill="#E1B539" d="M68.547,33.393c-0.871-16.396-14.408-29.43-31.02-29.43S7.38,16.996,6.508,33.392h-0.04
		c0,0-0.165,1.649,0.083,4.234c0.697,8.53,4.82,16.08,11.008,21.272c0.024,0.021,0.041,0.041,0.064,0.061
		c0.108,0.092,0.225,0.178,0.339,0.268c8.723,7.395,23.97,13.11,50.619,11.559L68.547,33.393z"/>
</g>
<g>
	<g>
		<path fill="#FFFFFF" d="M27.598,47.701l3.063-4.186c1.682,1.57,3.625,2.69,5.792,2.69c2.579,0,4.261-1.046,4.261-2.989
			c0-2.279-1.271-3.624-7.101-3.624v-4.709c4.746,0,6.241-1.42,6.241-3.438c0-1.831-1.121-2.84-3.177-2.84
			c-1.868,0-3.288,0.859-4.97,2.354l-3.363-4.073c2.578-2.13,5.344-3.475,8.632-3.475c5.755,0,9.529,2.728,9.529,7.511
			c0,2.728-1.532,4.746-4.447,5.979v0.187c3.064,0.896,5.344,3.101,5.344,6.576c0,5.083-4.746,7.923-10.276,7.923
			C32.717,51.588,29.615,50.056,27.598,47.701z"/>
	</g>
</g>
</svg>
