<?xml version="1.0" encoding="utf-8"?>
<!-- Generator: Adobe Illustrator 16.0.0, SVG Export Plug-In . SVG Version: 6.00 Build 0)  -->
<!DOCTYPE svg PUBLIC "-//W3C//DTD SVG 1.1//EN" "http://www.w3.org/Graphics/SVG/1.1/DTD/svg11.dtd">
<svg version="1.1" id="圖層_1" xmlns="http://www.w3.org/2000/svg" xmlns:xlink="http://www.w3.org/1999/xlink" x="0px" y="0px"
	 width="75px" height="75px" viewBox="0 0 75 75" enable-background="new 0 0 75 75" xml:space="preserve">
<g>
	<path fill="#FFFFFF" d="M72.211,32.909C71.234,14.579,56.105,0,37.531,0S3.827,14.579,2.849,32.909H2.805
		c0,0-0.184,1.844,0.096,4.737c0.778,9.531,5.388,17.98,12.307,23.786c0.025,0.014,0.045,0.043,0.068,0.058
		c0.124,0.106,0.257,0.204,0.381,0.307C25.41,70.061,42.46,76.45,72.254,74.714L72.211,32.909z"/>
	<path fill="#D4655C" d="M68.545,33.393C67.673,17,54.139,3.962,37.528,3.962C20.918,3.962,7.383,17,6.511,33.393h-0.04
		c0,0-0.165,1.649,0.083,4.236c0.696,8.532,4.819,16.083,11.007,21.27c0.024,0.021,0.042,0.043,0.064,0.059
		c0.109,0.096,0.226,0.178,0.339,0.273c8.723,7.391,23.968,13.103,50.615,11.552L68.545,33.393z"/>
</g>
<g>
	<g>
		<path fill="#FFFFFF" d="M28.027,47.515c6.727-6.278,11.622-10.911,11.622-14.724c0-2.578-1.383-3.923-3.625-3.923
			c-1.906,0-3.363,1.345-4.708,2.69l-3.625-3.588c2.728-2.877,5.269-4.297,9.229-4.297c5.382,0,9.119,3.438,9.119,8.744
			c0,4.521-4.223,9.342-8.409,13.677c1.383-0.188,3.29-0.374,4.559-0.374h5.119v5.605H28.027V47.515z"/>
	</g>
</g>
</svg>
