<?xml version="1.0" encoding="utf-8"?>
<!-- Generator: Adobe Illustrator 16.0.0, SVG Export Plug-In . SVG Version: 6.00 Build 0)  -->
<!DOCTYPE svg PUBLIC "-//W3C//DTD SVG 1.1//EN" "http://www.w3.org/Graphics/SVG/1.1/DTD/svg11.dtd">
<svg version="1.1" id="圖層_1" xmlns="http://www.w3.org/2000/svg" xmlns:xlink="http://www.w3.org/1999/xlink" x="0px" y="0px"
	 width="75px" height="75px" viewBox="0 0 75 75" enable-background="new 0 0 75 75" xml:space="preserve">
<g>
	<path fill="#93C980" d="M75,37.5C75,58.21,58.207,75,37.5,75C16.789,75,0,58.21,0,37.5C0,16.791,16.789,0,37.5,0
		C58.207,0,75,16.791,75,37.5"/>
	<path fill="#3F9979" d="M69.469,37.5c0,17.655-14.314,31.969-31.968,31.969c-17.655,0-31.969-14.313-31.969-31.969
		c0-17.654,14.314-31.967,31.969-31.967C55.154,5.533,69.469,19.846,69.469,37.5"/>
	<g opacity="0.3">
		<g>
			<path fill="#F2A306" d="M37.498,64.807c-16.868,0-30.65-13.075-31.849-29.637c-0.055,0.774-0.118,1.544-0.118,2.331
				c0,17.655,14.314,31.969,31.967,31.969c17.656,0,31.971-14.313,31.971-31.969c0-0.787-0.063-1.557-0.119-2.331
				C68.152,51.731,54.369,64.807,37.498,64.807"/>
			<rect x="5.531" y="35.169" fill="none" width="63.938" height="34.299"/>
		</g>
	</g>
	<g opacity="0.4">
		<g>
			<path fill="#FFFFFF" d="M37.498,3.288c20.156,0,36.553,15.913,37.418,35.854C74.939,38.595,75,38.055,75,37.5
				C75,16.791,58.211,0,37.498,0C16.789,0,0,16.791,0,37.5c0,0.555,0.06,1.095,0.083,1.643C0.95,19.201,17.345,3.288,37.498,3.288"
				/>
			<rect x="0" fill="none" width="75" height="39.143"/>
		</g>
	</g>
	<g>
		<path fill="#F5F5F5" d="M40.965,24.449c0,0,9.68-4.52,14.297,6.865c3.863-0.403,3.787-0.393,3.787-0.393l-5.168,11.854
			L45.029,32.38l3.553-0.385l1.17-0.106C49.752,31.889,48.656,25.598,40.965,24.449z"/>
		<path fill="#F5F5F5" d="M36.017,53.468c0,0-9.04,5.178-14.452-5.516c-3.72,0.706-3.646,0.69-3.646,0.69l4.063-11.941l9.444,9.388
			l-3.421,0.66l-1.129,0.2C26.876,46.949,28.45,52.974,36.017,53.468z"/>
		<g>
			<rect x="27.611" y="27.638" fill="#F5F5F5" width="19.967" height="0.754"/>
			<rect x="27.611" y="30.313" fill="#F5F5F5" width="19.967" height="0.756"/>
			<rect x="27.611" y="32.989" fill="#F5F5F5" width="19.967" height="0.755"/>
			<rect x="27.611" y="35.664" fill="#F5F5F5" width="19.967" height="0.753"/>
			<rect x="27.611" y="38.339" fill="#F5F5F5" width="19.967" height="0.757"/>
			<rect x="27.611" y="41.015" fill="#F5F5F5" width="19.967" height="0.754"/>
			<rect x="27.611" y="43.689" fill="#F5F5F5" width="7.711" height="0.755"/>
			<g>
				<path fill="#F5F5F5" d="M49.459,43.891V25.886c0-0.512-0.416-0.924-0.926-0.924H26.451c-0.51,0-0.924,0.413-0.924,0.924v23.229
					c0,0.511,0.414,0.923,0.924,0.923h16.948l0.408-0.438L44.1,49.3l4.621-4.645l0.354-0.359l0.385-0.386l0.021-0.02H49.459z
					 M43.908,43.891c-0.281,0-0.51,0.227-0.51,0.506V49.3H26.451c-0.099,0-0.186-0.086-0.186-0.185V25.886
					c0-0.1,0.087-0.185,0.186-0.185h22.083c0.1,0,0.188,0.085,0.188,0.185v18.005H43.908z"/>
				<path fill="#F5F5F5" d="M43.398,50.327H26.451c-0.667,0-1.21-0.545-1.21-1.212V25.886c0-0.667,0.542-1.211,1.21-1.211h22.083
					c0.668,0,1.211,0.544,1.211,1.211v17.927c0.031,0.095,0.016,0.199-0.057,0.274l-6.076,6.148
					C43.557,50.292,43.48,50.327,43.398,50.327z M26.451,25.248c-0.353,0-0.639,0.288-0.639,0.638v23.229
					c0,0.354,0.286,0.64,0.639,0.64h16.825l0.156-0.173c0,0-0.021,0.003-0.033,0.003H26.451c-0.255,0-0.472-0.214-0.472-0.47V25.886
					c0-0.26,0.212-0.471,0.472-0.471h22.083c0.262,0,0.473,0.21,0.473,0.471v18.005c0,0.028-0.006,0.057-0.012,0.085l0.178-0.182
					V25.886c0-0.35-0.287-0.638-0.639-0.638H26.451z M43.908,44.177c-0.123,0-0.221,0.099-0.221,0.22V49.3v0.013l5.117-5.15
					c-0.025,0.008-0.057,0.015-0.084,0.015H43.908z M26.554,49.013h16.56v-4.616c0-0.436,0.355-0.794,0.795-0.794h4.525V25.986
					h-21.88V49.013z"/>
			</g>
		</g>
	</g>
</g>
</svg>
