<?xml version="1.0" encoding="utf-8"?>
<!-- Generator: Adobe Illustrator 16.0.0, SVG Export Plug-In . SVG Version: 6.00 Build 0)  -->
<!DOCTYPE svg PUBLIC "-//W3C//DTD SVG 1.1//EN" "http://www.w3.org/Graphics/SVG/1.1/DTD/svg11.dtd">
<svg version="1.1" id="圖層_1" xmlns="http://www.w3.org/2000/svg" xmlns:xlink="http://www.w3.org/1999/xlink" x="0px" y="0px"
	 width="75px" height="75px" viewBox="0 0 75 75" enable-background="new 0 0 75 75" xml:space="preserve">
<g>
	<path fill="#FFFFFF" d="M72.213,32.903C71.237,14.575,56.106,0,37.531,0C18.955,0,3.824,14.575,2.846,32.903H2.803
		c0,0-0.184,1.852,0.095,4.741c0.779,9.535,5.388,17.985,12.308,23.785c0.025,0.021,0.045,0.039,0.068,0.062
		c0.124,0.102,0.256,0.203,0.38,0.302c9.755,8.27,26.806,14.658,56.603,12.922L72.213,32.903z"/>
	<path fill="#675F91" d="M68.547,33.395C67.675,16.997,54.14,3.959,37.526,3.959c-16.61,0-30.146,13.038-31.018,29.435h-0.04
		c0,0-0.165,1.649,0.083,4.237c0.696,8.526,4.819,16.076,11.007,21.272c0.025,0.015,0.042,0.037,0.064,0.056
		c0.11,0.091,0.226,0.176,0.339,0.271c8.724,7.396,23.97,13.104,50.619,11.554L68.547,33.395z"/>
</g>
<g>
	<g>
		<path fill="#FFFFFF" d="M27.616,47.477l3.026-4.184c1.57,1.494,3.513,2.652,5.718,2.652c2.69,0,4.372-1.346,4.372-3.961
			c0-2.578-1.682-3.999-4.073-3.999c-1.532,0-2.279,0.336-3.924,1.382l-2.914-1.906l0.71-13.789H46.15v5.568h-9.902l-0.411,4.708
			c1.009-0.411,1.831-0.561,2.878-0.561c4.708,0,8.669,2.653,8.669,8.408c0,6.018-4.708,9.529-10.052,9.529
			C32.885,51.326,29.821,49.645,27.616,47.477z"/>
	</g>
</g>
</svg>
