<?xml version="1.0" encoding="utf-8"?>
<!-- Generator: Adobe Illustrator 16.0.0, SVG Export Plug-In . SVG Version: 6.00 Build 0)  -->
<!DOCTYPE svg PUBLIC "-//W3C//DTD SVG 1.1//EN" "http://www.w3.org/Graphics/SVG/1.1/DTD/svg11.dtd">
<svg version="1.1" id="圖層_1" xmlns="http://www.w3.org/2000/svg" xmlns:xlink="http://www.w3.org/1999/xlink" x="0px" y="0px"
	 width="75px" height="75px" viewBox="0 0 75 75" enable-background="new 0 0 75 75" xml:space="preserve">
<g>
	<g opacity="0.3">
		<g>
			<path fill="#6C2F8D" d="M37.499,64.806c-16.868,0-30.65-13.073-31.849-29.636c-0.055,0.773-0.118,1.543-0.118,2.331
				c0,17.655,14.314,31.968,31.968,31.968c17.655,0,31.971-14.313,31.971-31.968c0-0.787-0.063-1.557-0.118-2.331
				C68.153,51.733,54.369,64.806,37.499,64.806"/>
			<rect x="5.531" y="35.17" fill="none" width="63.937" height="34.299"/>
		</g>
	</g>
	<path fill="#4EC1E6" d="M75,37.501c0,20.71-16.792,37.498-37.5,37.498C16.788,74.999,0,58.211,0,37.501
		c0-20.713,16.788-37.5,37.5-37.5C58.209,0.001,75,16.788,75,37.501"/>
	<g opacity="0.2">
		<g>
			<path fill="#FFFFFF" d="M37.499,3.288c20.155,0,36.552,15.913,37.418,35.855C74.941,38.596,75,38.055,75,37.498
				C75,16.789,58.21,0.002,37.498,0.002C16.788,0.002,0,16.791,0,37.498c0,0.556,0.06,1.096,0.083,1.646
				C0.95,19.202,17.345,3.288,37.499,3.288"/>
			<rect x="0.001" y="0.004" fill="none" width="74.999" height="39.14"/>
		</g>
	</g>
	<path fill="#2883BE" d="M69.468,37.501c0,17.655-14.313,31.966-31.968,31.966c-17.656,0-31.97-14.311-31.97-31.966
		c0-17.656,14.313-31.969,31.97-31.969C55.154,5.532,69.468,19.845,69.468,37.501"/>
	<g opacity="0.3">
		<g>
			<path fill="#6C2F8D" d="M37.499,64.806c-16.868,0-30.65-13.073-31.849-29.636c-0.055,0.773-0.118,1.543-0.118,2.331
				c0,17.655,14.314,31.968,31.968,31.968c17.655,0,31.971-14.313,31.971-31.968c0-0.787-0.063-1.557-0.118-2.331
				C68.153,51.733,54.369,64.806,37.499,64.806"/>
			<rect x="5.531" y="35.17" fill="none" width="63.937" height="34.299"/>
		</g>
	</g>
	<g>
		<g>
			<path fill="#FFFFFF" d="M53.628,50.512l-6.131-6.132c-0.912,1.42-2.126,2.629-3.549,3.544l6.136,6.134
				c0.979,0.976,2.57,0.976,3.544,0C54.606,53.08,54.606,51.491,53.628,50.512"/>
			<path fill="#FFFFFF" d="M53.383,36.529c0-9.546-7.738-17.289-17.285-17.289c-9.543,0-17.283,7.743-17.283,17.289
				c0,9.541,7.74,17.28,17.283,17.28C45.645,53.81,53.383,46.071,53.383,36.529 M36.099,49.492c-7.146,0-12.963-5.815-12.963-12.963
				c0-7.152,5.817-12.966,12.963-12.966c7.149,0,12.963,5.813,12.963,12.966C49.062,43.677,43.248,49.492,36.099,49.492"/>
			<g>
				<path fill="#FFFFFF" d="M44.73,39.649h-5.913v3.275c0,0.672-0.169,1.007-0.701,1.175c-0.533,0.183-1.326,0.198-2.592,0.198
					c-0.09-0.321-0.319-0.822-0.518-1.113c1.035,0.029,2.011,0.029,2.271,0.016c0.289-0.016,0.365-0.074,0.365-0.29v-3.261h-5.943
					v-1.084h5.943v-0.944c0.885-0.427,1.89-1.112,2.652-1.783H34.2v-1.067h7.238l0.245-0.061l0.777,0.58
					c-0.96,0.99-2.315,2.011-3.643,2.712v0.564h5.914v1.083H44.73z M32.997,35.107h-1.113v-3.109h6.005
					c-0.214-0.441-0.503-0.944-0.793-1.341l1.082-0.366c0.396,0.519,0.809,1.189,1.02,1.707h5.382v3.109h-1.158V33.08H32.997V35.107
					z"/>
			</g>
		</g>
		<path fill="#FFFFFF" d="M25.729,33.935h2.221c0-3.062,2.494-5.558,5.555-5.558v-2.215C29.219,26.162,25.729,29.647,25.729,33.935"
			/>
	</g>
</g>
</svg>
