<?xml version="1.0" encoding="utf-8"?>
<!-- Generator: Adobe Illustrator 16.0.0, SVG Export Plug-In . SVG Version: 6.00 Build 0)  -->
<!DOCTYPE svg PUBLIC "-//W3C//DTD SVG 1.1//EN" "http://www.w3.org/Graphics/SVG/1.1/DTD/svg11.dtd">
<svg version="1.1" id="圖層_1" xmlns="http://www.w3.org/2000/svg" xmlns:xlink="http://www.w3.org/1999/xlink" x="0px" y="0px"
	 width="75px" height="75px" viewBox="0 0 75 75" enable-background="new 0 0 75 75" xml:space="preserve">
<g>
	<path fill="#D89DAB" d="M75,37.502C75,58.21,58.209,75,37.5,75C16.789,75,0,58.21,0,37.502C0,16.79,16.789,0,37.5,0
		C58.209,0,75,16.79,75,37.502"/>
	<path fill="#D4655C" d="M69.469,37.502c0,17.652-14.314,31.964-31.968,31.964c-17.655,0-31.969-14.313-31.969-31.964
		c0-17.658,14.314-31.971,31.969-31.971C55.154,5.532,69.469,19.844,69.469,37.502"/>
	<g opacity="0.3">
		<g>
			<path fill="#F2A306" d="M37.498,64.807c-16.868,0-30.65-13.076-31.849-29.636c-0.055,0.772-0.118,1.542-0.118,2.332
				c0,17.652,14.314,31.964,31.967,31.964c17.656,0,31.971-14.313,31.971-31.964c0-0.79-0.063-1.56-0.119-2.332
				C68.152,51.73,54.369,64.807,37.498,64.807"/>
			<rect x="5.531" y="35.168" fill="none" width="63.938" height="34.299"/>
		</g>
	</g>
	<g opacity="0.4">
		<g>
			<path fill="#FFFFFF" d="M37.498,3.288c20.156,0,36.553,15.913,37.418,35.854C74.939,38.595,75,38.055,75,37.499
				C75,16.792,58.211,0,37.498,0C16.789,0,0,16.792,0,37.499c0,0.556,0.06,1.096,0.083,1.643C0.95,19.201,17.345,3.288,37.498,3.288
				"/>
			<rect x="0" fill="none" width="75" height="39.142"/>
		</g>
	</g>
	<g>
		<path fill="#FFFFFF" d="M41.811,20.096H22.096c-1.321,0-2.393,1.074-2.393,2.396v25.64c0,1.321,1.071,2.397,2.393,2.397h19.715
			c1.322,0,2.396-1.076,2.396-2.397v-25.64C44.207,21.17,43.133,20.096,41.811,20.096z M22.096,21.907h19.715
			c0.324,0,0.586,0.266,0.586,0.585v4.615H21.514v-4.615C21.514,22.173,21.775,21.907,22.096,21.907z M41.811,48.72H22.096
			c-0.32,0-0.582-0.264-0.582-0.587V28.316h20.882v19.816C42.396,48.456,42.135,48.72,41.811,48.72z"/>
		<path fill="#FFFFFF" d="M40.164,33.214H23.748c-0.451,0-0.814,0.274-0.814,0.606c0,0.333,0.363,0.604,0.814,0.604h16.417
			c0.449,0,0.813-0.271,0.813-0.604C40.977,33.488,40.613,33.214,40.164,33.214z"/>
		<path fill="#FFFFFF" d="M40.164,38.473H23.748c-0.451,0-0.814,0.271-0.814,0.604c0,0.33,0.363,0.601,0.814,0.601h16.417
			c0.449,0,0.813-0.271,0.813-0.601C40.977,38.744,40.613,38.473,40.164,38.473z"/>
		<path fill="#FFFFFF" d="M40.164,44.329H23.748c-0.451,0-0.814,0.274-0.814,0.605c0,0.334,0.363,0.604,0.814,0.604h16.417
			c0.449,0,0.813-0.271,0.813-0.604C40.977,44.604,40.613,44.329,40.164,44.329z"/>
	</g>
	<g>
		<path fill="#D4655C" d="M56.67,42.565c0,6.688-5.42,12.104-12.104,12.104H44.23c-6.684,0-12.103-5.417-12.103-12.104v-0.333
			c0-6.683,5.418-12.103,12.103-12.103h0.336c6.684,0,12.104,5.42,12.104,12.103V42.565z"/>
		<g>
			<path fill="#FFFFFF" d="M58.783,53.869l-5.092-5.096c-0.758,1.18-1.766,2.186-2.947,2.945l5.096,5.096
				c0.816,0.812,2.135,0.812,2.943,0C59.6,56.003,59.6,54.682,58.783,53.869"/>
			<path fill="#FFFFFF" d="M58.582,42.253c0-7.93-6.43-14.36-14.361-14.36c-7.926,0-14.356,6.431-14.356,14.36
				c0,7.927,6.43,14.354,14.356,14.354C52.152,56.607,58.582,50.18,58.582,42.253 M44.221,53.021
				c-5.934,0-10.766-4.831-10.766-10.769c0-5.939,4.833-10.77,10.766-10.77c5.939,0,10.771,4.831,10.771,10.77
				C54.992,48.19,50.16,53.021,44.221,53.021"/>
			<path fill="#FFFFFF" d="M35.608,40.097h1.846c0-2.544,2.073-4.615,4.614-4.615V33.64C38.508,33.64,35.608,36.536,35.608,40.097"
				/>
		</g>
		<g>
			<rect x="38.838" y="41.393" fill="#FFFFFF" width="11.906" height="2.017"/>
		</g>
		<g>
			<rect x="38.838" y="46.743" fill="#FFFFFF" width="5.561" height="2.018"/>
		</g>
	</g>
</g>
</svg>
