<?xml version="1.0" encoding="utf-8"?>
<!-- Generator: Adobe Illustrator 16.0.0, SVG Export Plug-In . SVG Version: 6.00 Build 0)  -->
<!DOCTYPE svg PUBLIC "-//W3C//DTD SVG 1.1//EN" "http://www.w3.org/Graphics/SVG/1.1/DTD/svg11.dtd">
<svg version="1.1" id="圖層_1" xmlns="http://www.w3.org/2000/svg" xmlns:xlink="http://www.w3.org/1999/xlink" x="0px" y="0px"
	 width="75px" height="75px" viewBox="0 0 75 75" enable-background="new 0 0 75 75" xml:space="preserve">
<g>
	<g>
		<path fill="#FFFFFF" d="M48.062,0H9.106c-2.61,0-4.728,2.122-4.728,4.732v50.662c0,2.608,2.117,4.734,4.728,4.734h38.955
			c2.612,0,4.732-2.126,4.732-4.734V4.732C52.794,2.122,50.674,0,48.062,0z M9.106,3.579h38.955c0.64,0,1.153,0.52,1.153,1.154v9.12
			H7.958v-9.12C7.958,4.099,8.474,3.579,9.106,3.579z M48.062,56.553H9.106c-0.633,0-1.148-0.518-1.148-1.158V16.239h41.257v39.155
			C49.215,56.035,48.701,56.553,48.062,56.553z"/>
		<path fill="#FFFFFF" d="M44.809,25.918H12.371c-0.892,0-1.608,0.541-1.608,1.197c0,0.658,0.717,1.192,1.608,1.192h32.438
			c0.889,0,1.604-0.534,1.604-1.192C46.412,26.459,45.697,25.918,44.809,25.918z"/>
		<path fill="#FFFFFF" d="M44.809,36.31H12.371c-0.892,0-1.608,0.534-1.608,1.19c0,0.658,0.717,1.188,1.608,1.188h32.438
			c0.889,0,1.604-0.529,1.604-1.188C46.412,36.844,45.697,36.31,44.809,36.31z"/>
		<path fill="#FFFFFF" d="M44.809,47.878H12.371c-0.892,0-1.608,0.543-1.608,1.199c0,0.66,0.717,1.194,1.608,1.194h32.438
			c0.889,0,1.604-0.534,1.604-1.194C46.412,48.421,45.697,47.878,44.809,47.878z"/>
	</g>
	<g>
		<rect x="14.688" y="9.867" fill="#E2B639" width="45.396" height="54.673"/>
		<g>
			<path fill="#FFFFFF" d="M56.974,7.433H18.021c-2.612,0-4.73,2.124-4.73,4.732V62.83c0,2.61,2.118,4.737,4.73,4.737h38.952
				c2.61,0,4.734-2.127,4.734-4.737V12.165C61.708,9.557,59.584,7.433,56.974,7.433z M18.021,11.012h38.952
				c0.641,0,1.156,0.52,1.156,1.153v9.121H16.87v-9.121C16.87,11.532,17.386,11.012,18.021,11.012z M56.974,63.988H18.021
				c-0.636,0-1.151-0.518-1.151-1.158V23.674h41.26V62.83C58.13,63.471,57.614,63.988,56.974,63.988z"/>
			<path fill="#FFFFFF" d="M53.719,33.354H21.281c-0.892,0-1.606,0.541-1.606,1.197c0,0.661,0.715,1.194,1.606,1.194h32.438
				c0.889,0,1.604-0.534,1.604-1.194C55.322,33.895,54.607,33.354,53.719,33.354z"/>
			<path fill="#FFFFFF" d="M53.719,43.748H21.281c-0.892,0-1.606,0.531-1.606,1.188c0,0.653,0.715,1.189,1.606,1.189h32.438
				c0.889,0,1.604-0.536,1.604-1.189C55.322,44.279,54.607,43.748,53.719,43.748z"/>
			<path fill="#FFFFFF" d="M53.719,55.315H21.281c-0.892,0-1.606,0.539-1.606,1.194c0,0.661,0.715,1.197,1.606,1.197h32.438
				c0.889,0,1.604-0.536,1.604-1.197C55.322,55.854,54.607,55.315,53.719,55.315z"/>
		</g>
	</g>
	<g>
		<rect x="23.598" y="17.3" fill="#E2B639" width="45.398" height="54.676"/>
		<g>
			<path fill="#FFFFFF" d="M65.887,14.871H26.932c-2.61,0-4.73,2.122-4.73,4.732v50.661c0,2.61,2.12,4.736,4.73,4.736h38.955
				c2.607,0,4.734-2.126,4.734-4.736V19.603C70.621,16.992,68.494,14.871,65.887,14.871z M26.932,18.449h38.955
				c0.638,0,1.151,0.52,1.151,1.154v9.118H25.785v-9.118C25.785,18.969,26.298,18.449,26.932,18.449z M65.887,71.422H26.932
				c-0.634,0-1.146-0.517-1.146-1.158V31.107h41.253v39.156C67.038,70.905,66.524,71.422,65.887,71.422z"/>
			<path fill="#FFFFFF" d="M62.631,40.789H30.193c-0.889,0-1.606,0.538-1.606,1.194c0,0.66,0.718,1.194,1.606,1.194h32.438
				c0.887,0,1.606-0.534,1.606-1.194C64.237,41.327,63.518,40.789,62.631,40.789z"/>
			<path fill="#FFFFFF" d="M62.631,51.176H30.193c-0.889,0-1.606,0.539-1.606,1.195c0,0.655,0.718,1.189,1.606,1.189h32.438
				c0.887,0,1.606-0.534,1.606-1.189C64.237,51.715,63.518,51.176,62.631,51.176z"/>
			<path fill="#FFFFFF" d="M62.631,62.746H30.193c-0.889,0-1.606,0.543-1.606,1.201c0,0.661,0.718,1.192,1.606,1.192h32.438
				c0.887,0,1.606-0.531,1.606-1.192C64.237,63.289,63.518,62.746,62.631,62.746z"/>
		</g>
	</g>
</g>
</svg>
