<?xml version="1.0" encoding="utf-8"?>
<!-- Generator: Adobe Illustrator 16.0.0, SVG Export Plug-In . SVG Version: 6.00 Build 0)  -->
<!DOCTYPE svg PUBLIC "-//W3C//DTD SVG 1.1//EN" "http://www.w3.org/Graphics/SVG/1.1/DTD/svg11.dtd">
<svg version="1.1" id="圖層_1" xmlns="http://www.w3.org/2000/svg" xmlns:xlink="http://www.w3.org/1999/xlink" x="0px" y="0px"
	 width="75px" height="75px" viewBox="0 0 75 75" enable-background="new 0 0 75 75" xml:space="preserve">
<g>
	<path fill="#FFFFFF" d="M72.213,32.907C71.237,14.579,56.106,0,37.531,0C18.955,0,3.824,14.579,2.847,32.907H2.803
		c0,0-0.184,1.848,0.095,4.741c0.779,9.534,5.388,17.98,12.307,23.78c0.025,0.022,0.046,0.045,0.068,0.065
		c0.124,0.102,0.256,0.201,0.38,0.307c9.755,8.265,26.806,14.65,56.603,12.913L72.213,32.907z"/>
	<path fill="#2883BE" d="M68.547,33.395C67.675,16.997,54.14,3.96,37.526,3.96c-16.61,0-30.146,13.037-31.018,29.435H6.47
		c0,0-0.166,1.651,0.083,4.235c0.696,8.529,4.82,16.084,11.007,21.273c0.025,0.019,0.042,0.037,0.064,0.058
		c0.109,0.091,0.225,0.18,0.339,0.269c8.724,7.395,23.97,13.107,50.619,11.558L68.547,33.395z"/>
	<g>
		<g>
			<path fill="#FFFFFF" d="M32.329,47.684h5.942V30.908h-5.007v-3.4c2.765-0.525,4.67-1.234,6.427-2.317h4.071v22.492h5.194v4.445
				H32.329V47.684z"/>
		</g>
	</g>
</g>
</svg>
