<?xml version="1.0" encoding="utf-8"?>
<!-- Generator: Adobe Illustrator 16.0.0, SVG Export Plug-In . SVG Version: 6.00 Build 0)  -->
<!DOCTYPE svg PUBLIC "-//W3C//DTD SVG 1.1//EN" "http://www.w3.org/Graphics/SVG/1.1/DTD/svg11.dtd">
<svg version="1.1" id="圖層_1" xmlns="http://www.w3.org/2000/svg" xmlns:xlink="http://www.w3.org/1999/xlink" x="0px" y="0px"
	 width="75px" height="75px" viewBox="0 0 75 75" enable-background="new 0 0 75 75" xml:space="preserve">
<g>
	<path fill="#FFFFFF" d="M42.023,10.707c0,0,17.649-8.242,26.072,12.517C75.14,22.489,75,22.508,75,22.508l-9.424,21.616
		L49.435,25.169l6.479-0.702l2.133-0.194C58.046,24.274,56.049,12.802,42.023,10.707z"/>
	<path fill="#FFFFFF" d="M33.001,63.623c0,0-16.483,9.442-26.352-10.059C-0.136,54.851,0,54.823,0,54.823l7.409-21.775L24.63,50.166
		l-6.238,1.204l-2.059,0.366C16.333,51.736,19.202,62.721,33.001,63.623z"/>
	<g>
		<rect x="17.674" y="16.522" fill="#FFFFFF" width="36.41" height="1.374"/>
		<rect x="17.674" y="21.399" fill="#FFFFFF" width="36.41" height="1.378"/>
		<rect x="17.674" y="26.28" fill="#FFFFFF" width="36.41" height="1.376"/>
		<rect x="17.674" y="31.157" fill="#FFFFFF" width="36.41" height="1.374"/>
		<rect x="17.674" y="36.033" fill="#FFFFFF" width="36.41" height="1.382"/>
		<rect x="17.674" y="40.914" fill="#FFFFFF" width="36.41" height="1.373"/>
		<rect x="17.674" y="45.79" fill="#FFFFFF" width="14.063" height="1.378"/>
		<g>
			<path fill="#FFFFFF" d="M57.512,46.158V13.326c0-0.933-0.756-1.685-1.685-1.685h-40.27c-0.931,0-1.685,0.751-1.685,1.685v42.359
				c0,0.932,0.753,1.683,1.685,1.683h30.905l0.743-0.797l0.535-0.55l8.425-8.469l0.647-0.656l0.699-0.701l0.04-0.037H57.512z
				 M47.389,46.158c-0.511,0-0.927,0.413-0.927,0.922v8.941H15.557c-0.18,0-0.338-0.156-0.338-0.336V13.326
				c0-0.182,0.159-0.336,0.338-0.336h40.27c0.18,0,0.338,0.154,0.338,0.336v32.832H47.389z"/>
			<path fill="#FFFFFF" d="M46.462,57.895H15.557c-1.217,0-2.207-0.992-2.207-2.209V13.326c0-1.217,0.989-2.208,2.207-2.208h40.27
				c1.217,0,2.207,0.992,2.207,2.208v32.689c0.056,0.171,0.026,0.363-0.104,0.501L46.849,57.728
				C46.752,57.832,46.612,57.895,46.462,57.895z M15.557,12.164c-0.643,0-1.165,0.524-1.165,1.163v42.359
				c0,0.644,0.522,1.165,1.165,1.165h30.679l0.284-0.313c0,0-0.037,0.005-0.059,0.005H15.557c-0.466,0-0.86-0.391-0.86-0.856V13.326
				c0-0.474,0.386-0.858,0.86-0.858h40.27c0.474,0,0.858,0.384,0.858,0.858v32.832c0,0.052-0.011,0.104-0.021,0.154l0.324-0.33
				V13.326c0-0.639-0.522-1.163-1.161-1.163H15.557z M47.389,46.68c-0.221,0-0.4,0.18-0.4,0.4v8.941v0.023l9.332-9.393
				c-0.046,0.015-0.103,0.027-0.155,0.027H47.389z M15.745,55.498h30.197V47.08c0-0.795,0.649-1.448,1.446-1.448h8.253V13.51H15.745
				V55.498z"/>
		</g>
	</g>
</g>
</svg>
