<?xml version="1.0" encoding="utf-8"?>
<!-- Generator: Adobe Illustrator 16.0.0, SVG Export Plug-In . SVG Version: 6.00 Build 0)  -->
<!DOCTYPE svg PUBLIC "-//W3C//DTD SVG 1.1//EN" "http://www.w3.org/Graphics/SVG/1.1/DTD/svg11.dtd">
<svg version="1.1" id="圖層_1" xmlns="http://www.w3.org/2000/svg" xmlns:xlink="http://www.w3.org/1999/xlink" x="0px" y="0px"
	 width="75px" height="75px" viewBox="0 0 75 75" enable-background="new 0 0 75 75" xml:space="preserve">
<g>
	<path fill="#E6DB39" d="M75,37.502C75,58.21,58.209,75,37.5,75C16.789,75,0,58.21,0,37.502c0-20.712,16.788-37.5,37.5-37.5
		C58.209,0.002,75,16.79,75,37.502"/>
	<path fill="#E1B539" d="M69.469,37.502c0,17.653-14.314,31.965-31.968,31.965c-17.655,0-31.969-14.313-31.969-31.965
		c0-17.657,14.314-31.97,31.969-31.97C55.154,5.533,69.469,19.846,69.469,37.502"/>
	<g opacity="0.7">
		<g>
			<path fill="#FFFFFF" d="M37.498,3.288c20.156,0,36.553,15.913,37.418,35.855C74.939,38.596,75,38.055,75,37.502
				c0-20.712-16.789-37.5-37.502-37.5C16.789,0.002,0,16.79,0,37.502c0,0.552,0.06,1.093,0.083,1.641
				C0.95,19.201,17.345,3.288,37.498,3.288"/>
			<rect x="0" fill="none" width="75" height="39.144"/>
		</g>
	</g>
	<g>
		<g>
			<path fill="#FFFFFF" d="M43.83,20.165H24.115c-1.321,0-2.393,1.074-2.393,2.395v25.641c0,1.319,1.071,2.396,2.393,2.396H43.83
				c1.322,0,2.395-1.076,2.395-2.396V22.56C46.225,21.239,45.152,20.165,43.83,20.165z M24.115,21.976H43.83
				c0.324,0,0.584,0.263,0.584,0.584v4.616h-20.88V22.56C23.534,22.239,23.795,21.976,24.115,21.976z M43.83,48.787H24.115
				c-0.32,0-0.582-0.263-0.582-0.586V28.384h20.88v19.817C44.414,48.524,44.154,48.787,43.83,48.787z"/>
			<path fill="#FFFFFF" d="M42.184,33.282H25.767c-0.451,0-0.814,0.274-0.814,0.606c0,0.333,0.363,0.603,0.814,0.603h16.417
				c0.451,0,0.813-0.27,0.813-0.603C42.996,33.556,42.635,33.282,42.184,33.282z"/>
			<path fill="#FFFFFF" d="M42.184,38.542H25.767c-0.451,0-0.814,0.27-0.814,0.602c0,0.334,0.363,0.602,0.814,0.602h16.417
				c0.451,0,0.813-0.268,0.813-0.602C42.996,38.812,42.635,38.542,42.184,38.542z"/>
			<path fill="#FFFFFF" d="M42.184,44.396H25.767c-0.451,0-0.814,0.274-0.814,0.606c0,0.335,0.363,0.604,0.814,0.604h16.417
				c0.451,0,0.813-0.27,0.813-0.604C42.996,44.671,42.635,44.396,42.184,44.396z"/>
		</g>
		<g>
			<rect x="26.939" y="25.159" fill="#E1B539" width="22.977" height="27.67"/>
			<g>
				<path fill="#FFFFFF" d="M48.342,23.927H28.627c-1.322,0-2.394,1.075-2.394,2.395v25.642c0,1.321,1.071,2.397,2.394,2.397h19.715
					c1.32,0,2.395-1.076,2.395-2.397V26.322C50.736,25.002,49.662,23.927,48.342,23.927z M28.627,25.738h19.715
					c0.322,0,0.584,0.264,0.584,0.584v4.616H28.044v-4.616C28.044,26.001,28.305,25.738,28.627,25.738z M48.342,52.55H28.627
					c-0.322,0-0.583-0.262-0.583-0.586V32.147h20.881v19.817C48.926,52.288,48.664,52.55,48.342,52.55z"/>
				<path fill="#FFFFFF" d="M46.693,37.045H30.277c-0.451,0-0.813,0.274-0.813,0.605c0,0.334,0.362,0.605,0.813,0.605h16.417
					c0.449,0,0.813-0.271,0.813-0.605C47.506,37.319,47.143,37.045,46.693,37.045z"/>
				<path fill="#FFFFFF" d="M46.693,42.306H30.277c-0.451,0-0.813,0.27-0.813,0.602c0,0.331,0.362,0.602,0.813,0.602h16.417
					c0.449,0,0.813-0.271,0.813-0.602C47.506,42.575,47.143,42.306,46.693,42.306z"/>
				<path fill="#FFFFFF" d="M46.693,48.16H30.277c-0.451,0-0.813,0.273-0.813,0.604c0,0.335,0.362,0.606,0.813,0.606h16.417
					c0.449,0,0.813-0.271,0.813-0.606C47.506,48.434,47.143,48.16,46.693,48.16z"/>
			</g>
		</g>
		<g>
			<rect x="31.449" y="28.921" fill="#E1B539" width="22.977" height="27.672"/>
			<g>
				<path fill="#FFFFFF" d="M52.852,27.691H33.137c-1.321,0-2.394,1.074-2.394,2.395v25.64c0,1.321,1.073,2.397,2.394,2.397h19.715
					c1.32,0,2.396-1.076,2.396-2.397v-25.64C55.248,28.765,54.172,27.691,52.852,27.691z M33.137,29.502h19.715
					c0.322,0,0.582,0.263,0.582,0.583v4.615H32.556v-4.615C32.556,29.766,32.816,29.502,33.137,29.502z M52.852,56.312H33.137
					c-0.321,0-0.581-0.261-0.581-0.586V35.909h20.877v19.817C53.434,56.051,53.174,56.312,52.852,56.312z"/>
				<path fill="#FFFFFF" d="M51.205,40.809H34.787c-0.45,0-0.813,0.272-0.813,0.604c0,0.334,0.363,0.604,0.813,0.604h16.418
					c0.447,0,0.813-0.271,0.813-0.604C52.018,41.081,51.652,40.809,51.205,40.809z"/>
				<path fill="#FFFFFF" d="M51.205,46.065H34.787c-0.45,0-0.813,0.272-0.813,0.604s0.363,0.603,0.813,0.603h16.418
					c0.447,0,0.813-0.271,0.813-0.603S51.652,46.065,51.205,46.065z"/>
				<path fill="#FFFFFF" d="M51.205,51.922H34.787c-0.45,0-0.813,0.274-0.813,0.607c0,0.334,0.363,0.604,0.813,0.604h16.418
					c0.447,0,0.813-0.27,0.813-0.604C52.018,52.196,51.652,51.922,51.205,51.922z"/>
			</g>
		</g>
	</g>
</g>
</svg>
