<?xml version="1.0" encoding="utf-8"?>
<!-- Generator: Adobe Illustrator 16.0.0, SVG Export Plug-In . SVG Version: 6.00 Build 0)  -->
<!DOCTYPE svg PUBLIC "-//W3C//DTD SVG 1.1//EN" "http://www.w3.org/Graphics/SVG/1.1/DTD/svg11.dtd">
<svg version="1.1" id="圖層_1" xmlns="http://www.w3.org/2000/svg" xmlns:xlink="http://www.w3.org/1999/xlink" x="0px" y="0px"
	 width="75px" height="75px" viewBox="0 0 75 75" enable-background="new 0 0 75 75" xml:space="preserve">
<g>
	<g>
		<path fill="#FFFFFF" d="M46.491,27.512c-12.076,0-21.866,9.791-21.866,21.872c0,12.078,9.79,21.871,21.866,21.871
			c12.083,0,21.878-9.793,21.878-21.871H46.491V27.512z"/>
		<path fill="#FFFFFF" d="M75,45.932H49.949V20.875h1.587C64.475,20.875,75,31.4,75,44.339V45.932z M53.129,42.748h18.628
			c-0.774-9.922-8.702-17.86-18.628-18.628V42.748z"/>
	</g>
	<g>
		<rect x="4.928" y="9.904" fill="#FFFFFF" width="31.01" height="1.568"/>
		<rect x="4.928" y="15.466" fill="#FFFFFF" width="31.01" height="1.571"/>
		<rect x="4.928" y="21.026" fill="#FFFFFF" width="31.01" height="1.573"/>
		<rect x="4.928" y="26.591" fill="#FFFFFF" width="31.01" height="1.564"/>
		<rect x="4.928" y="32.146" fill="#FFFFFF" width="31.01" height="1.575"/>
		<rect x="4.928" y="37.71" fill="#FFFFFF" width="31.01" height="1.571"/>
		<rect x="4.928" y="43.275" fill="#FFFFFF" width="16.03" height="1.566"/>
		<g>
			<path fill="#FFFFFF" d="M39.848,43.689V6.264c0-1.062-0.864-1.922-1.92-1.922H2.512c-1.06,0-1.917,0.86-1.917,1.922v48.287
				c0,1.06,0.858,1.92,1.917,1.92h24.743l0.843-0.913l0.614-0.623l9.597-9.654l0.741-0.746l0.797-0.799l0.046-0.046H39.848z
				 M28.307,43.689c-0.582,0-1.051,0.472-1.051,1.054v10.191H2.512c-0.202,0-0.382-0.178-0.382-0.384V6.264
				c0-0.21,0.18-0.388,0.382-0.388h35.416c0.204,0,0.382,0.178,0.382,0.388v37.426H28.307z"/>
			<path fill="#FFFFFF" d="M27.255,57.067H2.512C1.124,57.067,0,55.939,0,54.551V6.264c0-1.387,1.124-2.519,2.512-2.519h35.416
				c1.387,0,2.515,1.132,2.515,2.519v37.266c0.062,0.197,0.028,0.415-0.121,0.57L27.692,56.879
				C27.58,56.999,27.422,57.067,27.255,57.067z M2.512,4.938c-0.73,0-1.325,0.597-1.325,1.325v48.287
				c0,0.735,0.595,1.327,1.325,1.327h24.484l0.323-0.351c0,0-0.042,0.004-0.064,0.004H2.512c-0.529,0-0.976-0.447-0.976-0.98V6.264
				c0-0.539,0.438-0.98,0.976-0.98h35.416c0.54,0,0.979,0.441,0.979,0.98v37.426c0,0.062-0.011,0.119-0.026,0.178l0.373-0.377V6.264
				c0-0.729-0.597-1.325-1.325-1.325H2.512z M28.307,44.282c-0.252,0-0.454,0.204-0.454,0.461v10.191v0.026l10.635-10.703
				c-0.053,0.018-0.112,0.024-0.178,0.024H28.307z M2.729,54.338h23.932v-9.595c0-0.911,0.739-1.65,1.646-1.65h9.41V6.473H2.729
				V54.338z"/>
		</g>
	</g>
</g>
</svg>
