<?xml version="1.0" encoding="utf-8"?>
<!-- Generator: Adobe Illustrator 16.0.0, SVG Export Plug-In . SVG Version: 6.00 Build 0)  -->
<!DOCTYPE svg PUBLIC "-//W3C//DTD SVG 1.1//EN" "http://www.w3.org/Graphics/SVG/1.1/DTD/svg11.dtd">
<svg version="1.1" id="圖層_1" xmlns="http://www.w3.org/2000/svg" xmlns:xlink="http://www.w3.org/1999/xlink" x="0px" y="0px"
	 width="75px" height="75px" viewBox="0 0 75 75" enable-background="new 0 0 75 75" xml:space="preserve">
<g>
	<g>
		<polygon fill="#FFFFFF" points="37.184,11.195 17.848,27.751 17.848,27.676 4.01,27.676 4.01,33.776 4.01,41.223 4.01,47.323 
			17.848,47.323 17.848,47.248 37.184,63.805 42.223,63.805 42.223,41.223 42.223,33.776 42.223,11.195 		"/>
		<path fill="#FFFFFF" d="M42.223,66.305h-5.039c-0.597,0-1.173-0.214-1.626-0.602l-18.546-15.88H4.01c-1.381,0-2.5-1.119-2.5-2.5
			V27.677c0-1.381,1.119-2.5,2.5-2.5h13.001l18.547-15.88c0.453-0.388,1.029-0.601,1.626-0.601h5.039c1.381,0,2.5,1.119,2.5,2.5
			v52.609C44.723,65.186,43.604,66.305,42.223,66.305z M38.107,61.305h1.615V13.696h-1.615L19.474,29.65
			c-0.622,0.533-1.46,0.72-2.232,0.526H6.51v14.647h10.881c0.73-0.144,1.5,0.026,2.083,0.526L38.107,61.305z"/>
	</g>
	<path fill="#FFFFFF" d="M52.434,51.01c-0.619,0-1.24-0.229-1.724-0.689c-1-0.95-1.039-2.532-0.087-3.532
		c8.781-9.225,0.371-18.185,0.009-18.562c-0.957-0.995-0.926-2.578,0.069-3.535c0.994-0.956,2.576-0.927,3.533,0.07
		c4.218,4.385,9.646,15.354,0.01,25.476C53.753,50.749,53.094,51.01,52.434,51.01z"/>
	<path fill="#FFFFFF" d="M62.212,60.689c-0.62,0-1.239-0.229-1.724-0.688c-1-0.952-1.039-2.534-0.088-3.534
		c17.873-18.773,0.744-37.155,0.006-37.928c-0.951-0.998-0.918-2.58,0.078-3.533c0.994-0.954,2.572-0.923,3.529,0.071
		c0.215,0.223,21.207,22.57,0.008,44.837C63.531,60.43,62.872,60.689,62.212,60.689z"/>
</g>
</svg>
