<?xml version="1.0" encoding="utf-8"?>
<!-- Generator: Adobe Illustrator 16.0.0, SVG Export Plug-In . SVG Version: 6.00 Build 0)  -->
<!DOCTYPE svg PUBLIC "-//W3C//DTD SVG 1.1//EN" "http://www.w3.org/Graphics/SVG/1.1/DTD/svg11.dtd">
<svg version="1.1" id="圖層_1" xmlns="http://www.w3.org/2000/svg" xmlns:xlink="http://www.w3.org/1999/xlink" x="0px" y="0px"
	 width="60px" height="60px" viewBox="0 0 60 60" enable-background="new 0 0 60 60" xml:space="preserve">
<g>
	<path fill="#D5665C" d="M30,60C13.459,60,0,46.544,0,30C0,13.459,13.459,0,30,0c16.544,0,30,13.459,30,30
		C60,46.544,46.544,60,30,60z M30,4.614C16.003,4.614,4.614,16.003,4.614,30c0,13.996,11.389,25.386,25.386,25.386
		c13.996,0,25.386-11.39,25.386-25.386C55.386,16.003,43.996,4.614,30,4.614z"/>
	<g>
		<path fill="#D5665C" d="M41.423,43.732c-0.591,0-1.182-0.227-1.631-0.679L16.946,20.208c-0.903-0.9-0.903-2.361,0-3.262
			c0.9-0.903,2.362-0.903,3.262,0l22.846,22.846c0.903,0.901,0.903,2.363,0,3.262C42.604,43.506,42.014,43.732,41.423,43.732z"/>
		<path fill="#D5665C" d="M18.577,43.732c-0.591,0-1.182-0.227-1.631-0.679c-0.903-0.898-0.903-2.36,0-3.262l22.846-22.846
			c0.901-0.903,2.363-0.903,3.262,0c0.903,0.9,0.903,2.361,0,3.262L20.208,43.054C19.759,43.506,19.168,43.732,18.577,43.732z"/>
	</g>
</g>
</svg>
