<?xml version="1.0" encoding="utf-8"?>
<!-- Generator: Adobe Illustrator 16.0.0, SVG Export Plug-In . SVG Version: 6.00 Build 0)  -->
<!DOCTYPE svg PUBLIC "-//W3C//DTD SVG 1.1//EN" "http://www.w3.org/Graphics/SVG/1.1/DTD/svg11.dtd">
<svg version="1.1" id="圖層_1" xmlns="http://www.w3.org/2000/svg" xmlns:xlink="http://www.w3.org/1999/xlink" x="0px" y="0px"
	 width="60px" height="60px" viewBox="0 0 60 60" enable-background="new 0 0 60 60" xml:space="preserve">
<g>
	<path fill="#D5665C" d="M46.646,60H13.356C5.991,60,0,54.009,0,46.644V13.356C0,5.991,5.991,0,13.356,0h33.289
		C54.009,0,60,5.991,60,13.356v33.288C60,54.009,54.009,60,46.646,60z M13.356,6.05c-4.028,0-7.306,3.278-7.306,7.306v33.288
		c0,4.028,3.277,7.307,7.306,7.307h33.289c4.028,0,7.305-3.278,7.305-7.307V13.356c0-4.028-3.276-7.306-7.305-7.306H13.356z"/>
	<path fill="#D5665C" d="M14.445,46.417c-0.393,0-0.793-0.077-1.178-0.239c-1.538-0.65-2.258-2.426-1.606-3.965
		C14.8,34.795,22.032,30,30.087,30c7.836,0,14.99,4.614,18.224,11.753c0.688,1.523,0.013,3.315-1.509,4.005
		c-1.518,0.686-3.313,0.015-4.004-1.508c-2.256-4.981-7.244-8.2-12.711-8.2c-5.618,0-10.664,3.345-12.854,8.521
		C16.744,45.724,15.624,46.417,14.445,46.417z"/>
	<g>
		<circle fill="#D5665C" cx="19.844" cy="18.526" r="5.958"/>
		<circle fill="#D5665C" cx="40.158" cy="18.526" r="5.959"/>
	</g>
</g>
</svg>
