<?xml version="1.0" encoding="utf-8"?>
<!-- Generator: Adobe Illustrator 16.0.0, SVG Export Plug-In . SVG Version: 6.00 Build 0)  -->
<!DOCTYPE svg PUBLIC "-//W3C//DTD SVG 1.1//EN" "http://www.w3.org/Graphics/SVG/1.1/DTD/svg11.dtd">
<svg version="1.1" id="圖層_1" xmlns="http://www.w3.org/2000/svg" xmlns:xlink="http://www.w3.org/1999/xlink" x="0px" y="0px"
	 width="130px" height="191.838px" viewBox="0 0 130 191.838" enable-background="new 0 0 130 191.838" xml:space="preserve">
<g>
	<path fill="#FFFFFF" d="M0.45,39.684c0,0,7.422,0.746,23.361-7.021l59.118-21.968l15.385,0.541l0.455,8.609l15.124,2.755
		l-1.34,6.046l16.995,5.36L109.45,47.961L5.626,69.347L0.45,39.684z"/>
	<path fill="#A5CBE8" d="M114.196,29.442l-0.303-6.842c0,0-78.117,16.77-86.108,20.126C27.785,42.727,102.164,28.693,114.196,29.442
		z"/>
	<path fill="#83BCE2" d="M98.769,19.845l-0.384-8.555c0,0-64.1,23.432-76.334,27.834C22.051,39.125,92.798,20.54,98.769,19.845z"/>
	<path fill="#209CD4" d="M82.454-0.001c0,0-42.601,25.045-68.645,36.92l69.12-26.225L82.454-0.001z"/>
	
		<image overflow="visible" width="542" height="658" xlink:href="EDAA080.png"  transform="matrix(0.24 0 0 0.24 -4.882813e-004 34.1357)">
	</image>
	<g>
		<path fill="#FFFFFF" d="M24.004,181.931l1.222-0.104c0.059,0.494,0.193,0.897,0.403,1.215c0.214,0.315,0.54,0.57,0.986,0.767
			c0.446,0.194,0.945,0.292,1.502,0.292c0.492,0,0.929-0.076,1.309-0.224c0.376-0.148,0.658-0.351,0.843-0.609
			c0.185-0.257,0.278-0.537,0.278-0.841c0-0.308-0.091-0.576-0.271-0.808c-0.178-0.226-0.475-0.419-0.883-0.578
			c-0.263-0.102-0.845-0.263-1.744-0.476c-0.897-0.22-1.527-0.424-1.89-0.618c-0.468-0.246-0.818-0.553-1.048-0.917
			c-0.23-0.366-0.345-0.778-0.345-1.23c0-0.498,0.14-0.965,0.422-1.397c0.28-0.432,0.691-0.763,1.231-0.986
			c0.54-0.225,1.14-0.337,1.801-0.337c0.726,0,1.37,0.12,1.925,0.354c0.555,0.236,0.983,0.58,1.282,1.036
			c0.3,0.457,0.459,0.977,0.482,1.555l-1.256,0.086c-0.067-0.613-0.292-1.076-0.678-1.39s-0.954-0.471-1.704-0.471
			c-0.784,0-1.354,0.144-1.714,0.434c-0.357,0.288-0.536,0.635-0.536,1.043c0,0.353,0.127,0.643,0.381,0.87
			c0.248,0.227,0.899,0.462,1.952,0.701c1.05,0.239,1.773,0.449,2.169,0.627c0.571,0.265,0.994,0.598,1.266,1.002
			c0.273,0.403,0.411,0.872,0.411,1.399c0,0.521-0.15,1.017-0.447,1.479c-0.298,0.463-0.728,0.821-1.287,1.08
			c-0.56,0.257-1.187,0.386-1.887,0.386c-0.886,0-1.631-0.131-2.229-0.392c-0.601-0.261-1.07-0.653-1.41-1.174
			C24.201,183.182,24.023,182.592,24.004,181.931z"/>
		<path fill="#FFFFFF" d="M33.458,185.099v-7.145h1.085v1.01c0.223-0.351,0.521-0.634,0.89-0.847
			c0.372-0.214,0.794-0.317,1.268-0.317c0.527,0,0.96,0.107,1.294,0.329c0.338,0.22,0.577,0.527,0.714,0.921
			c0.566-0.833,1.305-1.25,2.213-1.25c0.71,0,1.254,0.196,1.636,0.586c0.382,0.392,0.573,0.997,0.573,1.811v4.902h-1.204v-4.496
			c0-0.482-0.04-0.831-0.12-1.047c-0.077-0.211-0.222-0.382-0.428-0.514c-0.206-0.127-0.449-0.191-0.726-0.191
			c-0.506,0-0.924,0.164-1.257,0.497c-0.333,0.335-0.5,0.87-0.5,1.604v4.147h-1.204v-4.638c0-0.537-0.098-0.94-0.295-1.209
			c-0.197-0.269-0.521-0.401-0.968-0.401c-0.34,0-0.654,0.088-0.942,0.268c-0.292,0.179-0.499,0.441-0.628,0.786
			c-0.131,0.345-0.195,0.841-0.195,1.491v3.703H33.458z"/>
		<path fill="#FFFFFF" d="M49.584,184.203c-0.434,0.385-0.86,0.655-1.278,0.813c-0.417,0.157-0.865,0.237-1.343,0.237
			c-0.79,0-1.397-0.192-1.82-0.576c-0.424-0.38-0.637-0.866-0.637-1.464c0-0.349,0.08-0.666,0.241-0.956
			c0.16-0.289,0.369-0.521,0.628-0.694c0.261-0.175,0.554-0.304,0.878-0.396c0.239-0.063,0.6-0.122,1.083-0.183
			c0.982-0.113,1.708-0.253,2.172-0.413c0.004-0.165,0.007-0.272,0.007-0.316c0-0.495-0.117-0.844-0.347-1.046
			c-0.313-0.274-0.774-0.412-1.39-0.412c-0.575,0-0.999,0.101-1.272,0.3c-0.272,0.2-0.475,0.553-0.606,1.061l-1.188-0.154
			c0.107-0.508,0.283-0.922,0.532-1.231c0.247-0.312,0.604-0.551,1.069-0.721c0.466-0.167,1.009-0.251,1.621-0.251
			c0.612,0,1.107,0.07,1.49,0.214c0.38,0.145,0.66,0.327,0.842,0.542c0.178,0.218,0.303,0.494,0.376,0.825
			c0.04,0.206,0.06,0.578,0.06,1.115v1.609c0,1.123,0.022,1.832,0.073,2.132c0.047,0.299,0.143,0.587,0.288,0.861h-1.24
			C49.7,184.844,49.622,184.544,49.584,184.203z M49.481,181.52c-0.439,0.177-1.1,0.329-1.979,0.452
			c-0.499,0.073-0.854,0.151-1.058,0.243c-0.207,0.089-0.367,0.22-0.479,0.391c-0.111,0.174-0.167,0.364-0.167,0.574
			c0,0.321,0.123,0.59,0.37,0.804c0.245,0.215,0.607,0.323,1.083,0.323c0.468,0,0.889-0.101,1.253-0.306
			c0.367-0.204,0.637-0.482,0.811-0.833c0.128-0.276,0.195-0.679,0.195-1.21L49.481,181.52z"/>
		<path fill="#FFFFFF" d="M52.556,185.099v-7.145h1.084v1.096c0.278-0.512,0.535-0.845,0.768-1.009
			c0.235-0.161,0.496-0.241,0.779-0.241c0.406,0,0.82,0.127,1.243,0.384l-0.433,1.117c-0.292-0.162-0.587-0.245-0.88-0.245
			c-0.262,0-0.496,0.081-0.708,0.239c-0.208,0.157-0.356,0.378-0.448,0.66c-0.132,0.432-0.199,0.898-0.199,1.409v3.734H52.556z"/>
		<path fill="#FFFFFF" d="M59.804,184.003l0.157,1.067c-0.343,0.073-0.646,0.108-0.917,0.108c-0.44,0-0.781-0.068-1.022-0.208
			c-0.243-0.137-0.414-0.321-0.512-0.549c-0.1-0.224-0.148-0.699-0.148-1.425v-4.1h-0.896v-0.947h0.896v-1.766l1.204-0.727v2.492
			h1.238v0.947h-1.238v4.16c0,0.344,0.021,0.566,0.065,0.663c0.042,0.1,0.115,0.176,0.212,0.234
			c0.098,0.058,0.239,0.087,0.422,0.087C59.4,184.042,59.582,184.031,59.804,184.003z"/>
		<path fill="#FFFFFF" d="M64.971,185.099v-9.849h4.365c0.879,0,1.543,0.09,2,0.267c0.455,0.176,0.819,0.49,1.092,0.938
			c0.275,0.447,0.41,0.94,0.41,1.483c0,0.7-0.226,1.29-0.677,1.769c-0.451,0.481-1.149,0.785-2.092,0.917
			c0.345,0.164,0.605,0.325,0.784,0.485c0.382,0.35,0.74,0.788,1.079,1.312l1.703,2.678h-1.629l-1.302-2.047
			c-0.379-0.592-0.692-1.044-0.937-1.355c-0.246-0.314-0.469-0.533-0.663-0.661c-0.192-0.123-0.392-0.214-0.593-0.263
			c-0.147-0.033-0.389-0.047-0.723-0.047h-1.51v4.373H64.971z M66.28,179.589h2.796c0.594,0,1.058-0.063,1.394-0.185
			c0.336-0.123,0.591-0.319,0.766-0.592c0.173-0.271,0.26-0.564,0.26-0.88c0-0.464-0.168-0.847-0.507-1.148
			c-0.338-0.3-0.868-0.448-1.598-0.448H66.28V179.589z"/>
		<path fill="#FFFFFF" d="M79.611,182.792l1.25,0.155c-0.199,0.73-0.566,1.297-1.097,1.701c-0.533,0.401-1.212,0.605-2.042,0.605
			c-1.044,0-1.873-0.321-2.482-0.964c-0.611-0.642-0.918-1.543-0.918-2.703c0-1.199,0.312-2.13,0.929-2.793
			c0.617-0.662,1.42-0.993,2.406-0.993c0.952,0,1.731,0.323,2.336,0.97c0.604,0.649,0.905,1.561,0.905,2.735
			c0,0.073-0.002,0.177-0.006,0.322h-5.33c0.044,0.782,0.269,1.386,0.666,1.801c0.401,0.418,0.899,0.626,1.497,0.626
			c0.444,0,0.825-0.116,1.14-0.35C79.18,183.673,79.43,183.301,79.611,182.792z M75.631,180.83h3.992
			c-0.053-0.596-0.206-1.042-0.455-1.338c-0.389-0.465-0.889-0.694-1.501-0.694c-0.559,0-1.027,0.185-1.405,0.555
			C75.883,179.717,75.672,180.21,75.631,180.83z"/>
		<path fill="#FFFFFF" d="M87.055,184.203c-0.437,0.385-0.861,0.655-1.28,0.813c-0.416,0.157-0.863,0.237-1.341,0.237
			c-0.789,0-1.398-0.192-1.82-0.576c-0.428-0.38-0.636-0.866-0.636-1.464c0-0.349,0.077-0.666,0.238-0.956
			c0.16-0.289,0.37-0.521,0.629-0.694c0.261-0.175,0.554-0.304,0.878-0.396c0.238-0.063,0.599-0.122,1.083-0.183
			c0.983-0.113,1.708-0.253,2.173-0.413c0.004-0.165,0.006-0.272,0.006-0.316c0-0.495-0.116-0.844-0.347-1.046
			c-0.311-0.274-0.774-0.412-1.39-0.412c-0.574,0-0.999,0.101-1.271,0.3c-0.272,0.2-0.475,0.553-0.605,1.061l-1.19-0.154
			c0.108-0.508,0.284-0.922,0.532-1.231c0.248-0.312,0.603-0.551,1.07-0.721c0.466-0.167,1.01-0.251,1.623-0.251
			c0.609,0,1.105,0.07,1.487,0.214c0.382,0.145,0.66,0.327,0.843,0.542c0.178,0.218,0.302,0.494,0.377,0.825
			c0.04,0.206,0.059,0.578,0.059,1.115v1.609c0,1.123,0.025,1.832,0.074,2.132c0.047,0.299,0.144,0.587,0.288,0.861h-1.24
			C87.169,184.844,87.089,184.544,87.055,184.203z M86.952,181.52c-0.442,0.177-1.101,0.329-1.98,0.452
			c-0.5,0.073-0.854,0.151-1.059,0.243c-0.207,0.089-0.366,0.22-0.478,0.391c-0.113,0.174-0.167,0.364-0.167,0.574
			c0,0.321,0.123,0.59,0.37,0.804c0.245,0.215,0.605,0.323,1.081,0.323c0.471,0,0.889-0.101,1.255-0.306
			c0.366-0.204,0.634-0.482,0.806-0.833c0.131-0.276,0.199-0.679,0.199-1.21L86.952,181.52z"/>
		<path fill="#FFFFFF" d="M94.653,185.099v-0.912c-0.449,0.71-1.113,1.066-1.991,1.066c-0.568,0-1.092-0.157-1.566-0.473
			c-0.477-0.31-0.845-0.75-1.107-1.311c-0.263-0.563-0.394-1.209-0.394-1.937c0-0.714,0.116-1.358,0.356-1.938
			c0.236-0.58,0.592-1.024,1.065-1.333c0.473-0.308,1.004-0.462,1.587-0.462c0.432,0,0.813,0.09,1.147,0.271
			c0.335,0.179,0.608,0.416,0.819,0.704v-3.525h1.202v9.849H94.653z M90.833,181.53c0,0.913,0.193,1.596,0.582,2.048
			c0.384,0.451,0.84,0.677,1.368,0.677c0.53,0,0.979-0.216,1.35-0.647c0.371-0.431,0.557-1.092,0.557-1.979
			c0-0.972-0.188-1.689-0.567-2.144c-0.376-0.457-0.84-0.687-1.395-0.687c-0.538,0-0.989,0.22-1.349,0.659
			C91.013,179.893,90.833,180.585,90.833,181.53z"/>
		<path fill="#FFFFFF" d="M97.694,176.63v-1.38H98.9v1.38H97.694z M97.694,185.099v-7.145H98.9v7.145H97.694z"/>
		<path fill="#FFFFFF" d="M100.752,185.099v-7.145h1.084v1.014c0.522-0.78,1.278-1.168,2.266-1.168c0.428,0,0.821,0.076,1.182,0.231
			c0.361,0.152,0.63,0.358,0.808,0.607c0.18,0.253,0.306,0.549,0.375,0.894c0.047,0.226,0.07,0.617,0.07,1.176v4.391h-1.207v-4.34
			c0-0.494-0.046-0.862-0.142-1.107c-0.094-0.242-0.261-0.44-0.499-0.586c-0.238-0.143-0.52-0.215-0.841-0.215
			c-0.514,0-0.96,0.162-1.332,0.487c-0.374,0.329-0.56,0.949-0.56,1.862v3.898H100.752z"/>
		<path fill="#FFFFFF" d="M108.18,185.683l1.17,0.156c0.049,0.37,0.188,0.641,0.413,0.808c0.303,0.231,0.715,0.345,1.238,0.345
			c0.563,0,0.998-0.111,1.305-0.335c0.306-0.226,0.514-0.535,0.622-0.937c0.064-0.249,0.094-0.763,0.089-1.553
			c-0.53,0.619-1.192,0.932-1.982,0.932c-0.985,0-1.747-0.355-2.287-1.064c-0.54-0.706-0.809-1.555-0.809-2.546
			c0-0.683,0.125-1.31,0.372-1.886c0.248-0.576,0.604-1.019,1.075-1.335c0.472-0.312,1.022-0.468,1.657-0.468
			c0.849,0,1.545,0.345,2.094,1.03v-0.876h1.084v6.172c0,1.109-0.114,1.897-0.339,2.361c-0.226,0.463-0.583,0.829-1.075,1.098
			c-0.488,0.268-1.091,0.404-1.809,0.404c-0.85,0-1.536-0.192-2.06-0.574C108.416,187.031,108.164,186.453,108.18,185.683z
			 M109.179,181.402c0,0.938,0.186,1.621,0.56,2.053c0.376,0.429,0.845,0.646,1.405,0.646s1.029-0.218,1.407-0.645
			c0.379-0.43,0.569-1.1,0.569-2.015c0-0.874-0.197-1.533-0.586-1.979c-0.389-0.443-0.859-0.665-1.409-0.665
			c-0.54,0-1,0.218-1.38,0.657C109.367,179.891,109.179,180.542,109.179,181.402z"/>
	</g>
	<g>
		<path fill="#DFC44A" stroke="#1379B8" stroke-miterlimit="10" d="M14.166,80.28c-0.507-2.309,1.453-4.35,1.514-4.928
			c0.204-1.997,1.67-3.682,3.306-4.949c2.93-2.271,5.796-4.651,8.631-7.009c1.928-1.612,3.729-3.996,6.127-4.327
			c0.537-0.074,1.32-0.036,1.822-0.233c0.976-0.394,1.746-1.661,2.593-2.289c1.112-0.832,1.872-0.916,3.168-1.164
			c2.178-0.418,4.591-1.039,6.695-1.784c2.289-0.811,4.52-1.465,6.933-2.04c2.574-0.613,5.162-0.43,7.749-0.478
			c3.448-0.062,6.83-0.499,10.27-0.45c1.647,0.025,3.26,0.075,4.88,0.388c2.778,0.536,5.187,2.355,8.066,2.905
			c1.61,0.309,3.254,0.55,4.877,0.891c0.954,0.196,1.992,0.229,2.836,0.783c1.027,0.68,1.976,1.47,3.03,2.186
			c2.578,1.765,4.442,4.393,6.881,6.415c1.571,1.299,3.76,2.132,5.244,3.34c0.992,0.807,1.812,1.672,3.021,2.299
			c1.234,0.635,2.897,0.884,3.929,1.918c0.999,0.998,1.737,2.635,2.514,3.813c0.557,0.845,1.137,1.535,1.596,2.392
			c0.455,0.851,0.689,1.718,1.085,2.584c0.698,1.523,1.296,2.137,0.453,3.308c-0.737,1.027-0.319,1.106,0.567,2.542
			c0.627,1.016,0.559,1.85,0.928,2.961c0.558,1.663,1.726,3.216,2.232,4.837c0.509,1.62,0.58,3.535,0.861,5.195
			c0.449,2.63,1.424,5.405,1.532,7.994c0.024,0.574,0.17,1.514-0.015,2.003c-0.272,0.739-1.138,1.162-1.49,1.907
			c-0.689,1.472-1.387,3.735-2.699,4.753c-0.729,0.57-0.979,0.084-2.101,0.074c-0.95-0.012-1.492,0.327-1.712,1.294
			c-0.362,1.595,0.118,3.586-0.017,5.262c-0.17,2.209-1.511,4.382-3.177,5.598c-0.873,0.637-2.019,0.656-2.806,1.364
			c-0.943,0.853-1.563,2.028-2.678,2.714c-1.341,0.817-2.924,1.452-4.469,2.083c-1.033,0.414-2.067,1.063-3.266,1.145
			c-0.904,0.054-1.871-0.223-2.793-0.195c-2.753,0.072-4.786,1.26-7.756,0.568c-0.899-0.21-1.973-0.722-2.69-1.304
			c-1.564-1.275-1.124-2.445-1.493-4.072c-0.489-2.152-1.823-4.71-3.068-6.446c-2.099-2.914,0.493-5.36,0.694-8.198
			c0.237-3.333-2.83-5.137-4.498-7.71c-0.604-0.935-1.401-2.573-1.415-3.687c-0.007-0.946,0.965-1.285,0.896-2.227
			c-0.156-2.054-3.084-1.334-4.28-1.9c-0.679-0.319-1.143-1.431-1.648-2.026c-0.727-0.845-1.599-1.659-2.486-2.334
			c-1.047-0.791-2.221-1.139-3.401-1.7c-0.743-0.35-1.507-0.668-2.381-0.466c-1.196,0.277-2.619,1.825-3.654,2.547
			c-1.361,0.95-2.67,1.997-3.97,3.042c-0.858,0.687-1.685,1.592-2.229,2.54c-0.468,0.817-0.598,1.981-1.378,2.593
			c-2.53,1.994-1.507-1.943-1.89-2.979c-0.313-0.829-1.116-0.39-1.866-1.051c-0.74-0.656-0.828-2.062-1.532-2.677
			c-0.085-0.147-0.174-0.286-0.265-0.428c-1.027,0.208-1.814,2.215-2.373,3.058c-0.543,0.821-1.251,1.806-2.076,2.407
			c-0.771,0.564-1.644,0.762-2.483,1.258c-0.971,0.578-1.14,1.143-1.756,2.137c-1.015,1.638-2.201,0.609-3.635,1.517
			c-0.7,0.442-0.789,1.076-1.621,1.376c-0.953,0.341-1.928-0.198-2.783-0.42c-1.788-0.452-3.567-0.213-5.512,0.169
			c-2.587,0.518-4.189,0.557-6.617-0.09c-1.784-0.469-3.534-0.387-5.455-0.508c-2.9-0.179-3.893-3.23-3.886-5.913
			c0.006-1.609,0.008-3.192-0.125-4.767c-0.106-1.312-0.554-2.557-0.574-3.871c0.003,0.007-0.899-2.16,2.102-4.813
			c3.006-2.633,0.807-0.374-0.198-1.926C12.422,86.218,14.737,82.866,14.166,80.28z"/>
		<path fill="none" stroke="#1379B8" d="M22.046,109.272c3.703-2.82,6.97-4.235,7.277-9.023c0.315-4.861-1.851-8.775-2.439-13.319
			c-0.875-6.687,5.061-13.623,11.86-14.872c2.541-0.517,10.646-1.372,9.7,3.337"/>
		<path fill="none" stroke="#1379B8" d="M42.529,71.404c-1.065-3.418,2.231-7.228,5.711-8.022"/>
		<path fill="none" stroke="#1379B8" d="M35.61,82.274c-0.004,5.369,0.407,9.25,3.006,13.75c1.078,1.863,3.93,7.365,6.768,7.038"/>
		<path fill="none" stroke="#1379B8" d="M43.139,78.638c2.966,1.616,8.174,3.37,11.579,0.909c4.077-2.942,5.044-9.904,0.88-12.519"
			/>
		<path fill="none" stroke="#1379B8" d="M54.776,80.085c1.549,0.098,1.461,2.446,0.899,3.491c-1.049,1.963-3.451,2.08-5.12,3.068
			c-2.581,1.506-4.532,4.335-5.03,7.079c-0.341,1.851-0.377,4.01,0.81,5.456c0.668,0.808,1.132,0.632,2.109,1.451"/>
		<path fill="none" stroke="#1379B8" d="M27.903,81.041c-7.452,2.304-7.477-6.758-9.479-10.5"/>
		<path fill="none" stroke="#1379B8" d="M11.396,99.859c3,1.113,12.056-0.177,11.86-5.201"/>
		<path fill="none" stroke="#1379B8" d="M19.023,99.207c-1.312-4.286-0.684-12.726,3.831-16.306"/>
		<path fill="none" stroke="#1379B8" d="M64.599,50.738c-1.913,1.781-3.612,6.579-3.479,9.264c0.195,4.121,4.682,6.77,6.694,10.266
			c1.312,2.27,2.692,4.63,3.4,7.163c0.802,2.856,0.531,5.719,0.549,8.656c0.014,2.039-0.394,7.583-3.478,7.792"/>
		<path fill="none" stroke="#1379B8" d="M61.12,60.484c2.986-3.38,11.905-8.085,13.691-1.589c0.564,2.018-0.11,4.245,2.279,5.525
			c1.225,0.659,3.354,0.309,4.558,0.036c3.26-0.744,3.715-2.663,4.442-5.52"/>
		<path fill="none" stroke="#1379B8" d="M71.973,83.046c1.803,0.021,3.322,0.227,4.968-0.46c2.676-1.124,5.655-4.552,5.673-7.489"/>
		<path fill="none" stroke="#1379B8" d="M77.292,69.358c-0.188,2.87,3.238,5.409,5.736,5.761c3.432,0.467,6.126-0.578,7.963-3.199"
			/>
		<path fill="none" stroke="#1379B8" d="M62.144,96.539c-3.056-0.125-5.228-9.586-2.049-10.978"/>
		<path fill="none" stroke="#1379B8" d="M95.679,57.373c0.103,2.596-0.307,5.137-0.204,7.751c0.14,3.559,1.622,5.266,3.885,8.146
			c3.355,4.277,5.7,13.597,0.464,16.53c-2.028,1.145-5.056,0.156-7.424-0.011c-3.11-0.227-5.376,0.354-7.518,2.615
			c-3.123,3.299-7.296,4.492-5.341,8.973"/>
		<path fill="none" stroke="#1379B8" d="M103.21,84.878c8.307,1.1,14.752,7.269,14.567,15.767"/>
		<path fill="none" stroke="#1379B8" d="M112.736,106.24c2.886-2.554,1.865-6.585,6.988-6.001c2.256,0.272,2.956,0.71,4.032,2.834
			c0.807,1.602,1.323,4.641,3.66,4.545"/>
		<path fill="none" stroke="#1379B8" d="M94.459,135.728c-5.971-0.188-2.493-16.675-1.427-19.565
			c0.857-2.324,2.283-2.844,3.958-4.529c2.144-2.167,2.902-4.835,3.28-7.884c0.565-4.577-0.093-7.654-4.286-10.708
			c-1.721-1.25-3.316-2.536-5.402-2.821"/>
		<path fill="none" stroke="#1379B8" d="M106.257,134.003c-1.744-1.853-2.798-7.412-3.033-9.721
			c-0.225-2.193-0.615-6.131,0.939-7.702c1.324-1.364,8.146-2.217,5.736-5.488"/>
		<path fill="none" stroke="#1379B8" d="M105.649,103.551c0.744,3.058,0.515,5.401,3.83,7.253c3.264,1.833,6.938,2.351,9.711,0.763"
			/>
		<path fill="none" stroke="#1379B8" d="M96.905,111.131c-4.352-1.431-6.409-7.28-6.117-11.231"/>
		<path fill="none" stroke="#1379B8" d="M101.178,77.517c3.601,0.969,5.159-3.171,4.875-6.044"/>
		<path fill="none" stroke="#1379B8" d="M100.367,89.053c-1.977,0.635-4.804-1.921-6.062-3.447c-1.332-1.614-1.08-3.183-1.072-5.007
			"/>
		<path fill="none" stroke="#1379B8" d="M104.023,127.183c-4.488-0.621-6.902-1.331-9.563-5.259"/>
	</g>
	<g>
		<path fill="#FFFFFF" d="M43.833,129.19c0,3.853-0.759,6.943-2.279,9.271c-1.519,2.324-3.754,3.488-6.704,3.488v-4.167
			c2.95,0,4.425-2.865,4.425-8.592H34.85v-8.988h8.983V129.19z"/>
		<path fill="#FFFFFF" d="M77.22,129.19c0,3.853-0.762,6.943-2.278,9.271c-1.521,2.324-3.756,3.488-6.708,3.488v-4.167
			c2.952,0,4.428-2.865,4.428-8.592h-4.428v-8.988h8.986V129.19z"/>
		<polyline fill="none" stroke="#FFFFFF" stroke-width="3" stroke-linejoin="round" points="43.186,158.576 56.405,166.288 
			74.033,154.721 		"/>
	</g>
</g>
</svg>
