<?xml version="1.0" encoding="utf-8"?>
<!-- Generator: Adobe Illustrator 16.0.0, SVG Export Plug-In . SVG Version: 6.00 Build 0)  -->
<!DOCTYPE svg PUBLIC "-//W3C//DTD SVG 1.1//EN" "http://www.w3.org/Graphics/SVG/1.1/DTD/svg11.dtd">
<svg version="1.1" id="圖層_1" xmlns="http://www.w3.org/2000/svg" xmlns:xlink="http://www.w3.org/1999/xlink" x="0px" y="0px"
	 width="220px" height="236.593px" viewBox="0 0 220 236.593" enable-background="new 0 0 220 236.593" xml:space="preserve">
<g>
	<path fill="#FFFFFF" d="M62.042,39.514c0,0,7.389,0.743,23.261-6.99l58.866-21.875l15.318,0.539l0.451,8.573l15.06,2.742
		l-1.333,6.021l16.923,5.336l-20.013,13.896L67.196,69.051L62.042,39.514z"/>
	<path fill="#A5CBE8" d="M175.302,29.315l-0.304-6.813c0,0-77.781,16.7-85.738,20.041C89.26,42.543,163.321,28.57,175.302,29.315z"
		/>
	<path fill="#83BCE2" d="M159.939,19.76l-0.379-8.518c0,0-63.828,23.332-76.009,27.715C83.551,38.958,153.996,20.451,159.939,19.76z
		"/>
	<path fill="#209CD4" d="M143.697-0.001c0,0-42.42,24.937-68.353,36.763l68.826-26.113L143.697-0.001z"/>
	<path fill="#209CD4" d="M219.792,105.969c-0.291-3.215-2.989-5.733-6.278-5.733c-3.485,0-6.311,2.824-6.311,6.307
		c0,3.003,2.1,5.51,4.909,6.145c-2.188,7.927-5.623,12.946-10.244,14.951c-7.462,3.239-16.161-2.39-16.247-2.45
		c-1.515-0.996-3.556-0.584-4.556,0.929c-1.002,1.51-0.597,3.547,0.913,4.555c0.471,0.313,11.694,7.661,22.46,3.028
		c7.915-3.409,13.139-12.175,15.52-26.054C220.054,107.061,219.982,106.489,219.792,105.969z"/>
	<ellipse opacity="0.2" fill="#231815" cx="125.253" cy="229.222" rx="59.463" ry="7.37"/>
	<path fill="#209CD4" d="M104.662,165.662c-6.392,13.243-14.113,27.036-0.319,57.299c0,0-14.714-2.752-23.911,9.17h35.866
		c5.059,0,5.505-1.862,0.992-4.141c0,0-21.544-23.356,8.205-56.385C145.503,149.394,115.608,142.978,104.662,165.662z"/>
	<path fill="#209CD4" d="M132.897,169.198c13.158,6.559,27.707,12.741,35.317,45.117c0,0,9.952-11.183,24.522-7.382l-28.363,21.952
		c-4.001,3.096-5.492,1.892-3.317-2.669c0,0,2.74-31.656-40.998-39.569C90.64,181.327,110.351,157.961,132.897,169.198z"/>
	
		<image overflow="visible" width="540" height="655" xlink:href="5AC5DC65.png"  transform="matrix(0.24 0 0 0.24 61.5942 33.9897)">
	</image>
	<g>
		<path fill="#FFFFFF" d="M85.496,181.155l1.216-0.104c0.059,0.49,0.193,0.893,0.402,1.21c0.212,0.313,0.537,0.566,0.981,0.761
			c0.444,0.195,0.941,0.294,1.496,0.294c0.491,0,0.926-0.077,1.303-0.222c0.375-0.15,0.656-0.351,0.839-0.607
			c0.185-0.255,0.277-0.537,0.277-0.839c0-0.307-0.09-0.573-0.271-0.804c-0.178-0.226-0.471-0.418-0.879-0.577
			c-0.262-0.1-0.84-0.261-1.735-0.474c-0.895-0.218-1.521-0.422-1.883-0.614c-0.466-0.246-0.814-0.55-1.044-0.913
			c-0.229-0.366-0.343-0.776-0.343-1.226c0-0.495,0.14-0.96,0.42-1.391c0.279-0.43,0.688-0.76,1.227-0.984
			c0.537-0.224,1.134-0.333,1.792-0.333c0.724,0,1.365,0.117,1.918,0.349c0.552,0.239,0.978,0.58,1.277,1.033
			c0.298,0.456,0.457,0.973,0.48,1.548l-1.251,0.087c-0.067-0.611-0.292-1.07-0.674-1.385c-0.384-0.311-0.95-0.468-1.697-0.468
			c-0.781,0-1.349,0.144-1.707,0.431c-0.354,0.289-0.533,0.632-0.533,1.039c0,0.352,0.126,0.64,0.379,0.865
			c0.248,0.229,0.897,0.462,1.944,0.699c1.045,0.237,1.766,0.446,2.161,0.625c0.568,0.263,0.989,0.595,1.259,0.998
			c0.273,0.402,0.41,0.868,0.41,1.392c0,0.521-0.149,1.014-0.445,1.473c-0.297,0.462-0.725,0.819-1.281,1.077
			c-0.557,0.255-1.182,0.385-1.878,0.385c-0.884,0-1.625-0.132-2.219-0.391c-0.599-0.26-1.066-0.65-1.404-1.169
			C85.692,182.397,85.514,181.813,85.496,181.155z"/>
		<path fill="#FFFFFF" d="M94.909,184.307v-7.113h1.081v1.006c0.223-0.351,0.517-0.631,0.885-0.843
			c0.37-0.212,0.791-0.316,1.263-0.316c0.524,0,0.956,0.108,1.289,0.328c0.337,0.218,0.574,0.523,0.711,0.917
			c0.564-0.831,1.299-1.245,2.204-1.245c0.707,0,1.248,0.194,1.629,0.583c0.38,0.392,0.57,0.994,0.57,1.803v4.881h-1.199v-4.477
			c0-0.48-0.039-0.828-0.119-1.041c-0.077-0.209-0.221-0.38-0.426-0.512c-0.205-0.125-0.447-0.192-0.724-0.192
			c-0.502,0-0.918,0.165-1.25,0.497c-0.333,0.333-0.498,0.868-0.498,1.597v4.128h-1.199v-4.615c0-0.536-0.099-0.939-0.295-1.206
			s-0.518-0.4-0.963-0.4c-0.338,0-0.651,0.091-0.939,0.267c-0.289,0.179-0.496,0.442-0.625,0.784
			c-0.131,0.344-0.194,0.836-0.194,1.484v3.687H94.909z"/>
		<path fill="#FFFFFF" d="M110.967,183.415c-0.433,0.383-0.857,0.651-1.273,0.812c-0.416,0.157-0.862,0.235-1.336,0.235
			c-0.788,0-1.392-0.19-1.813-0.574c-0.422-0.378-0.634-0.864-0.634-1.459c0-0.345,0.08-0.664,0.239-0.95s0.369-0.519,0.626-0.691
			c0.259-0.175,0.551-0.305,0.874-0.395c0.238-0.061,0.599-0.122,1.079-0.181c0.978-0.113,1.701-0.252,2.163-0.413
			c0.004-0.165,0.007-0.271,0.007-0.313c0-0.495-0.116-0.841-0.346-1.041c-0.312-0.272-0.771-0.41-1.384-0.41
			c-0.572,0-0.994,0.098-1.267,0.296c-0.271,0.2-0.472,0.552-0.603,1.057l-1.184-0.152c0.107-0.508,0.282-0.918,0.53-1.226
			c0.246-0.313,0.601-0.551,1.065-0.717c0.464-0.167,1.004-0.252,1.614-0.252c0.608,0,1.102,0.071,1.484,0.212
			c0.377,0.146,0.656,0.326,0.839,0.542c0.175,0.217,0.3,0.491,0.372,0.821c0.042,0.206,0.062,0.575,0.062,1.109v1.603
			c0,1.12,0.022,1.825,0.072,2.123c0.046,0.299,0.144,0.583,0.285,0.856h-1.233C111.082,184.053,111.003,183.757,110.967,183.415z
			 M110.864,180.744c-0.437,0.174-1.095,0.328-1.971,0.452c-0.497,0.07-0.85,0.148-1.054,0.241
			c-0.207,0.086-0.365,0.218-0.478,0.389c-0.111,0.17-0.166,0.361-0.166,0.569c0,0.322,0.122,0.589,0.367,0.802
			c0.246,0.214,0.606,0.322,1.078,0.322c0.468,0,0.886-0.101,1.25-0.305c0.364-0.205,0.634-0.479,0.806-0.831
			c0.129-0.272,0.194-0.674,0.194-1.201L110.864,180.744z"/>
		<path fill="#FFFFFF" d="M113.925,184.307v-7.113h1.079v1.092c0.278-0.509,0.533-0.843,0.766-1.006
			c0.233-0.158,0.492-0.239,0.772-0.239c0.405,0,0.817,0.128,1.239,0.383l-0.432,1.111c-0.29-0.16-0.584-0.243-0.876-0.243
			c-0.261,0-0.493,0.081-0.704,0.237c-0.208,0.157-0.356,0.377-0.446,0.658c-0.133,0.428-0.198,0.896-0.198,1.404v3.716H113.925z"/>
		<path fill="#FFFFFF" d="M121.143,183.217l0.156,1.063c-0.342,0.072-0.644,0.11-0.915,0.11c-0.438,0-0.776-0.071-1.016-0.208
			c-0.244-0.139-0.412-0.321-0.511-0.547c-0.099-0.224-0.146-0.697-0.146-1.42v-4.083h-0.896v-0.942h0.896v-1.758l1.196-0.723v2.48
			h1.234v0.942h-1.234v4.145c0,0.341,0.021,0.563,0.064,0.659c0.045,0.099,0.115,0.178,0.211,0.234
			c0.099,0.057,0.239,0.086,0.42,0.086C120.741,183.256,120.921,183.244,121.143,183.217z"/>
		<path fill="#FFFFFF" d="M126.288,184.307v-9.804h4.347c0.875,0,1.536,0.088,1.99,0.265c0.454,0.176,0.817,0.487,1.088,0.933
			c0.275,0.446,0.407,0.938,0.407,1.479c0,0.694-0.225,1.282-0.672,1.759c-0.45,0.479-1.144,0.782-2.085,0.911
			c0.344,0.166,0.604,0.327,0.782,0.488c0.381,0.345,0.736,0.781,1.074,1.304l1.696,2.665h-1.623l-1.296-2.036
			c-0.376-0.59-0.688-1.039-0.933-1.353c-0.245-0.312-0.466-0.529-0.658-0.657c-0.193-0.121-0.391-0.212-0.593-0.262
			c-0.145-0.031-0.388-0.045-0.718-0.045h-1.504v4.353H126.288z M127.591,178.823h2.785c0.592,0,1.054-0.065,1.386-0.185
			c0.336-0.124,0.589-0.318,0.764-0.589c0.173-0.27,0.258-0.564,0.258-0.876c0-0.464-0.168-0.845-0.503-1.143
			c-0.337-0.302-0.864-0.448-1.594-0.448h-3.096V178.823z"/>
		<path fill="#FFFFFF" d="M140.866,182.008l1.241,0.156c-0.195,0.729-0.561,1.292-1.091,1.694c-0.529,0.401-1.206,0.604-2.032,0.604
			c-1.04,0-1.864-0.32-2.474-0.961c-0.606-0.639-0.912-1.536-0.912-2.69c0-1.196,0.311-2.121,0.923-2.78
			c0.615-0.66,1.415-0.99,2.398-0.99c0.947,0,1.725,0.322,2.324,0.967c0.602,0.646,0.904,1.553,0.904,2.724
			c0,0.072-0.002,0.174-0.006,0.32h-5.309c0.044,0.779,0.268,1.378,0.664,1.792c0.398,0.415,0.895,0.623,1.489,0.623
			c0.442,0,0.821-0.113,1.135-0.345C140.436,182.889,140.684,182.518,140.866,182.008z M136.901,180.057h3.978
			c-0.056-0.593-0.205-1.036-0.453-1.334c-0.387-0.461-0.888-0.688-1.496-0.688c-0.556,0-1.023,0.183-1.4,0.552
			C137.152,178.948,136.941,179.442,136.901,180.057z"/>
		<path fill="#FFFFFF" d="M148.276,183.415c-0.434,0.383-0.856,0.651-1.273,0.812c-0.415,0.157-0.861,0.235-1.335,0.235
			c-0.788,0-1.392-0.19-1.813-0.574c-0.424-0.378-0.633-0.864-0.633-1.459c0-0.345,0.077-0.664,0.238-0.95
			c0.156-0.286,0.366-0.519,0.626-0.691c0.259-0.175,0.549-0.305,0.874-0.395c0.237-0.061,0.594-0.122,1.077-0.181
			c0.978-0.113,1.702-0.252,2.164-0.413c0.004-0.165,0.006-0.271,0.006-0.313c0-0.495-0.117-0.841-0.346-1.041
			c-0.309-0.272-0.77-0.41-1.382-0.41c-0.574,0-0.996,0.098-1.267,0.296c-0.271,0.2-0.474,0.552-0.605,1.057l-1.182-0.152
			c0.105-0.508,0.282-0.918,0.528-1.226c0.247-0.313,0.601-0.551,1.064-0.717c0.465-0.167,1.006-0.252,1.614-0.252
			c0.609,0,1.104,0.071,1.482,0.212c0.382,0.146,0.658,0.326,0.839,0.542c0.178,0.217,0.303,0.491,0.377,0.821
			c0.04,0.206,0.059,0.575,0.059,1.109v1.603c0,1.12,0.022,1.825,0.074,2.123c0.047,0.299,0.142,0.583,0.286,0.856h-1.234
			C148.393,184.053,148.31,183.757,148.276,183.415z M148.174,180.744c-0.439,0.174-1.095,0.328-1.973,0.452
			c-0.497,0.07-0.848,0.148-1.053,0.241c-0.206,0.086-0.365,0.218-0.478,0.389c-0.11,0.17-0.164,0.361-0.164,0.569
			c0,0.322,0.12,0.589,0.365,0.802c0.244,0.214,0.605,0.322,1.078,0.322c0.468,0,0.885-0.101,1.25-0.305
			c0.365-0.205,0.631-0.479,0.803-0.831c0.129-0.272,0.198-0.674,0.198-1.201L148.174,180.744z"/>
		<path fill="#FFFFFF" d="M155.842,184.307v-0.907c-0.448,0.707-1.109,1.063-1.983,1.063c-0.565,0-1.086-0.157-1.559-0.47
			c-0.475-0.311-0.842-0.748-1.104-1.306c-0.263-0.562-0.392-1.204-0.392-1.929c0-0.711,0.115-1.354,0.356-1.929
			c0.235-0.579,0.587-1.021,1.058-1.327c0.475-0.309,1-0.462,1.583-0.462c0.428,0,0.809,0.091,1.142,0.271
			c0.334,0.176,0.606,0.414,0.815,0.701v-3.51h1.198v9.804H155.842z M152.04,180.754c0,0.909,0.191,1.589,0.577,2.038
			c0.383,0.45,0.838,0.674,1.363,0.674c0.527,0,0.976-0.214,1.345-0.645c0.37-0.43,0.553-1.086,0.553-1.97
			c0-0.968-0.185-1.683-0.563-2.137c-0.375-0.453-0.837-0.681-1.39-0.681c-0.535,0-0.983,0.218-1.344,0.655
			C152.216,179.124,152.04,179.813,152.04,180.754z"/>
		<path fill="#FFFFFF" d="M158.87,175.875v-1.372h1.201v1.372H158.87z M158.87,184.307v-7.113h1.201v7.113H158.87z"/>
		<path fill="#FFFFFF" d="M161.917,184.307v-7.113h1.079v1.01c0.519-0.776,1.272-1.163,2.254-1.163c0.427,0,0.819,0.077,1.178,0.229
			c0.358,0.153,0.627,0.357,0.804,0.604c0.178,0.252,0.304,0.549,0.374,0.89c0.045,0.225,0.068,0.615,0.068,1.173v4.37h-1.2v-4.321
			c0-0.49-0.046-0.857-0.142-1.102c-0.093-0.241-0.259-0.438-0.496-0.583c-0.236-0.141-0.52-0.216-0.839-0.216
			c-0.511,0-0.954,0.163-1.324,0.487c-0.374,0.327-0.56,0.944-0.56,1.854v3.881H161.917z"/>
		<path fill="#FFFFFF" d="M169.311,184.89l1.164,0.155c0.052,0.367,0.188,0.639,0.413,0.803c0.302,0.229,0.712,0.345,1.232,0.345
			c0.562,0,0.995-0.113,1.3-0.335c0.306-0.224,0.514-0.531,0.619-0.933c0.063-0.247,0.092-0.757,0.087-1.543
			c-0.527,0.616-1.185,0.925-1.973,0.925c-0.979,0-1.74-0.352-2.275-1.059c-0.54-0.703-0.807-1.548-0.807-2.536
			c0-0.679,0.124-1.304,0.371-1.877s0.6-1.016,1.071-1.327c0.469-0.313,1.016-0.468,1.648-0.468c0.845,0,1.537,0.344,2.085,1.027
			v-0.874h1.08v6.147c0,1.104-0.114,1.888-0.34,2.351c-0.224,0.462-0.578,0.824-1.069,1.094c-0.485,0.265-1.087,0.403-1.801,0.403
			c-0.846,0-1.529-0.193-2.049-0.574C169.544,186.231,169.294,185.655,169.311,184.89z M170.307,180.626
			c0,0.933,0.186,1.617,0.557,2.045c0.374,0.429,0.841,0.645,1.4,0.645c0.556,0,1.025-0.216,1.399-0.643
			c0.378-0.426,0.567-1.097,0.567-2.008c0-0.87-0.195-1.525-0.584-1.97c-0.388-0.441-0.854-0.661-1.401-0.661
			c-0.539,0-0.997,0.216-1.375,0.653C170.495,179.122,170.307,179.77,170.307,180.626z"/>
	</g>
	<g>
		<path fill="#DFC44A" stroke="#1379B8" stroke-miterlimit="10" d="M75.7,79.937c-0.505-2.299,1.446-4.331,1.507-4.907
			c0.203-1.988,1.662-3.666,3.291-4.929c2.919-2.261,5.772-4.631,8.594-6.978c1.92-1.604,3.715-3.979,6.102-4.31
			c0.534-0.072,1.314-0.035,1.814-0.231c0.972-0.392,1.739-1.653,2.582-2.279c1.107-0.829,1.864-0.912,3.155-1.16
			c2.169-0.417,4.571-1.034,6.667-1.775c2.28-0.809,4.5-1.459,6.902-2.032c2.563-0.611,5.14-0.428,7.716-0.477
			c3.434-0.061,6.801-0.496,10.227-0.448c1.639,0.024,3.247,0.076,4.86,0.387c2.764,0.533,5.164,2.345,8.029,2.892
			c1.604,0.308,3.242,0.547,4.855,0.887c0.951,0.195,1.985,0.227,2.827,0.78c1.021,0.677,1.966,1.464,3.018,2.176
			c2.567,1.759,4.421,4.375,6.853,6.388c1.562,1.294,3.74,2.124,5.219,3.327c0.988,0.802,1.804,1.663,3.01,2.289
			c1.229,0.633,2.884,0.88,3.912,1.91c0.995,0.994,1.729,2.624,2.503,3.796c0.554,0.842,1.131,1.53,1.587,2.382
			c0.454,0.847,0.687,1.711,1.081,2.573c0.693,1.517,1.291,2.128,0.45,3.295c-0.733,1.023-0.315,1.102,0.567,2.532
			c0.624,1.011,0.553,1.842,0.923,2.947c0.556,1.656,1.717,3.204,2.223,4.817c0.507,1.613,0.576,3.521,0.857,5.174
			c0.449,2.617,1.418,5.381,1.526,7.96c0.024,0.57,0.168,1.505-0.017,1.995c-0.271,0.735-1.133,1.155-1.48,1.897
			c-0.69,1.465-1.384,3.72-2.69,4.733c-0.725,0.568-0.973,0.083-2.092,0.073c-0.945-0.011-1.487,0.326-1.706,1.289
			c-0.357,1.588,0.119,3.571-0.017,5.239c-0.165,2.199-1.503,4.363-3.16,5.573c-0.869,0.635-2.012,0.654-2.794,1.359
			c-0.94,0.848-1.557,2.021-2.667,2.702c-1.335,0.815-2.91,1.447-4.448,2.073c-1.029,0.413-2.06,1.059-3.255,1.142
			c-0.9,0.053-1.86-0.222-2.781-0.196c-2.737,0.072-4.764,1.257-7.722,0.565c-0.896-0.208-1.964-0.717-2.677-1.299
			c-1.558-1.268-1.12-2.435-1.488-4.052c-0.486-2.144-1.813-4.69-3.055-6.419c-2.09-2.903,0.491-5.337,0.691-8.164
			c0.235-3.318-2.818-5.114-4.48-7.678c-0.602-0.929-1.394-2.563-1.406-3.67c-0.006-0.941,0.96-1.279,0.891-2.215
			c-0.156-2.045-3.068-1.331-4.263-1.893c-0.676-0.319-1.137-1.427-1.642-2.018c-0.723-0.843-1.591-1.654-2.474-2.326
			c-1.044-0.787-2.212-1.133-3.39-1.693c-0.738-0.349-1.499-0.666-2.369-0.464c-1.19,0.277-2.607,1.818-3.639,2.537
			c-1.354,0.946-2.657,1.987-3.952,3.03c-0.854,0.683-1.677,1.586-2.222,2.528c-0.465,0.814-0.592,1.973-1.37,2.583
			c-2.521,1.985-1.501-1.938-1.883-2.966c-0.31-0.825-1.111-0.389-1.856-1.047c-0.738-0.652-0.825-2.051-1.524-2.666
			c-0.087-0.144-0.175-0.282-0.265-0.424c-1.022,0.206-1.807,2.205-2.363,3.044c-0.541,0.817-1.246,1.798-2.068,2.397
			c-0.768,0.56-1.637,0.759-2.473,1.253c-0.967,0.574-1.134,1.137-1.749,2.126c-1.01,1.631-2.191,0.607-3.621,1.51
			c-0.696,0.443-0.785,1.071-1.614,1.37c-0.949,0.341-1.92-0.196-2.77-0.417c-1.781-0.451-3.552-0.214-5.49,0.167
			c-2.576,0.516-4.17,0.554-6.587-0.089c-1.776-0.466-3.521-0.386-5.431-0.506c-2.888-0.178-3.876-3.218-3.869-5.888
			c0.006-1.602,0.008-3.179-0.126-4.746c-0.106-1.306-0.552-2.546-0.571-3.855c0.003,0.008-0.896-2.15,2.094-4.792
			c2.992-2.623,0.803-0.374-0.198-1.919C73.963,85.849,76.268,82.512,75.7,79.937z"/>
		<path fill="none" stroke="#1379B8" d="M83.546,108.806c3.687-2.809,6.939-4.22,7.246-8.985c0.314-4.841-1.842-8.738-2.428-13.262
			c-0.873-6.658,5.038-13.565,11.809-14.808c2.53-0.515,10.601-1.367,9.658,3.323"/>
		<path fill="none" stroke="#1379B8" d="M103.942,71.099c-1.062-3.403,2.22-7.197,5.686-7.988"/>
		<path fill="none" stroke="#1379B8" d="M97.053,81.923c-0.005,5.345,0.403,9.21,2.992,13.691c1.074,1.856,3.914,7.334,6.74,7.009"
			/>
		<path fill="none" stroke="#1379B8" d="M104.548,78.302c2.954,1.61,8.139,3.355,11.529,0.905c4.061-2.929,5.024-9.862,0.876-12.465
			"/>
		<path fill="none" stroke="#1379B8" d="M116.137,79.742c1.543,0.099,1.452,2.437,0.896,3.478c-1.046,1.954-3.437,2.071-5.1,3.055
			c-2.57,1.5-4.512,4.317-5.009,7.05c-0.34,1.842-0.375,3.993,0.808,5.432c0.665,0.805,1.126,0.628,2.099,1.446"/>
		<path fill="none" stroke="#1379B8" d="M89.378,80.694c-7.421,2.294-7.445-6.729-9.44-10.456"/>
		<path fill="none" stroke="#1379B8" d="M72.941,99.431c2.987,1.109,12.005-0.174,11.809-5.178"/>
		<path fill="none" stroke="#1379B8" d="M80.537,98.782c-1.307-4.267-0.683-12.671,3.813-16.236"/>
		<path fill="none" stroke="#1379B8" d="M125.917,50.521c-1.905,1.774-3.598,6.551-3.464,9.225
			c0.194,4.103,4.663,6.741,6.666,10.222c1.306,2.26,2.68,4.61,3.386,7.133c0.797,2.844,0.528,5.694,0.546,8.619
			c0.014,2.031-0.393,7.549-3.464,7.757"/>
		<path fill="none" stroke="#1379B8" d="M122.453,60.226c2.974-3.366,11.854-8.051,13.632-1.583
			c0.563,2.008-0.108,4.226,2.271,5.501c1.22,0.656,3.339,0.307,4.537,0.035c3.245-0.741,3.699-2.65,4.426-5.496"/>
		<path fill="none" stroke="#1379B8" d="M133.258,82.692c1.798,0.02,3.311,0.225,4.947-0.46c2.666-1.118,5.63-4.533,5.649-7.457"/>
		<path fill="none" stroke="#1379B8" d="M138.555,69.062c-0.188,2.857,3.225,5.386,5.711,5.736c3.417,0.465,6.102-0.575,7.928-3.184
			"/>
		<path fill="none" stroke="#1379B8" d="M123.473,96.127c-3.042-0.126-5.208-9.546-2.042-10.932"/>
		<path fill="none" stroke="#1379B8" d="M156.865,57.128c0.104,2.584-0.305,5.114-0.204,7.718c0.14,3.542,1.615,5.242,3.869,8.11
			c3.341,4.26,5.677,13.54,0.461,16.459c-2.019,1.141-5.033,0.157-7.392-0.011c-3.097-0.225-5.352,0.354-7.485,2.604
			c-3.109,3.286-7.266,4.474-5.318,8.936"/>
		<path fill="none" stroke="#1379B8" d="M164.363,84.516c8.271,1.095,14.688,7.237,14.505,15.7"/>
		<path fill="none" stroke="#1379B8" d="M173.847,105.786c2.875-2.542,1.859-6.555,6.96-5.975c2.247,0.271,2.941,0.704,4.014,2.821
			c0.804,1.595,1.317,4.621,3.646,4.526"/>
		<path fill="none" stroke="#1379B8" d="M155.648,135.147c-5.943-0.187-2.48-16.603-1.42-19.479
			c0.855-2.316,2.272-2.833,3.941-4.512c2.134-2.159,2.891-4.815,3.265-7.852c0.565-4.556-0.091-7.62-4.266-10.661
			c-1.711-1.244-3.303-2.524-5.379-2.809"/>
		<path fill="none" stroke="#1379B8" d="M167.396,133.429c-1.735-1.842-2.785-7.378-3.02-9.679c-0.224-2.184-0.612-6.103,0.935-7.67
			c1.321-1.357,8.112-2.205,5.714-5.46"/>
		<path fill="none" stroke="#1379B8" d="M166.791,103.108c0.741,3.045,0.514,5.377,3.814,7.223c3.249,1.823,6.907,2.339,9.67,0.759"
			/>
		<path fill="none" stroke="#1379B8" d="M158.085,110.656c-4.333-1.422-6.384-7.248-6.094-11.182"/>
		<path fill="none" stroke="#1379B8" d="M162.34,77.185c3.584,0.964,5.137-3.157,4.854-6.018"/>
		<path fill="none" stroke="#1379B8" d="M161.534,88.671c-1.969,0.632-4.784-1.913-6.037-3.432
			c-1.325-1.606-1.074-3.168-1.066-4.985"/>
		<path fill="none" stroke="#1379B8" d="M165.173,126.64c-4.47-0.618-6.874-1.325-9.525-5.238"/>
	</g>
	<g>
		<path fill="#FFFFFF" d="M105.24,128.637c0,3.838-0.756,6.915-2.27,9.23s-3.738,3.475-6.677,3.475v-4.147
			c2.938,0,4.408-2.854,4.408-8.558h-4.408v-8.95h8.946V128.637z"/>
		<path fill="#FFFFFF" d="M138.486,128.637c0,3.838-0.76,6.915-2.27,9.23c-1.516,2.315-3.74,3.475-6.679,3.475v-4.147
			c2.938,0,4.407-2.854,4.407-8.558h-4.407v-8.95h8.948V128.637z"/>
		<polyline fill="none" stroke="#FFFFFF" stroke-width="3" stroke-linejoin="round" points="104.595,157.897 117.757,165.576 
			135.311,154.058 		"/>
	</g>
	<g>
		<g>
			<path fill="none" stroke="#595758" d="M115.426,128.695c0,9.53-7.72,17.25-17.248,17.25s-17.249-7.72-17.249-17.25
				c0-9.525,7.721-17.246,17.249-17.246S115.426,119.17,115.426,128.695z"/>
			<path fill="none" stroke="#595758" d="M153.653,128.695c0,9.53-7.724,17.25-17.247,17.25c-9.525,0-17.249-7.72-17.249-17.25
				c0-9.525,7.724-17.246,17.249-17.246C145.929,111.449,153.653,119.17,153.653,128.695z"/>
			<path fill="none" stroke="#595758" d="M153.653,128.695l18.646-20.044c0,0,8.085-0.593,8.391,6.992"/>
			<line fill="none" stroke="#595758" x1="114.242" y1="128.474" x2="119.157" y2="128.474"/>
		</g>
		<g opacity="0.3">
			<g>
				<path fill="#FFFFFF" d="M82.46,128.695c0-8.643,7.032-15.672,15.676-15.672c8.642,0,15.673,7.029,15.673,15.672
					c0,8.645-7.031,15.675-15.673,15.675C89.492,144.37,82.46,137.34,82.46,128.695z"/>
				<path fill="#FFFFFF" d="M120.686,128.695c0-8.643,7.03-15.672,15.676-15.672c8.642,0,15.674,7.029,15.674,15.672
					c0,8.645-7.032,15.675-15.674,15.675C127.716,144.37,120.686,137.34,120.686,128.695z"/>
			</g>
			<g>
				<path opacity="0.22" fill="#FFFFFF" d="M82.46,128.695c0-8.643,7.032-15.672,15.676-15.672c8.642,0,15.673,7.029,15.673,15.672
					c0,8.645-7.031,15.675-15.673,15.675C89.492,144.37,82.46,137.34,82.46,128.695z"/>
				<path opacity="0.22" fill="#FFFFFF" d="M120.686,128.695c0-8.643,7.03-15.672,15.676-15.672c8.642,0,15.674,7.029,15.674,15.672
					c0,8.645-7.032,15.675-15.674,15.675C127.716,144.37,120.686,137.34,120.686,128.695z"/>
			</g>
		</g>
	</g>
	<path fill="#209CD4" d="M55.999,166.499c-0.79-1.698-3.003-2.442-4.939-1.656c-9.763,3.951-18.036,4.669-24.585,2.137
		c-3.583-1.386-6.193-3.589-8.049-5.729c2.292-1.461,3.608-3.989,3.135-6.563c-0.646-3.512-4.381-5.771-8.336-5.037
		c-3.957,0.728-6.637,4.167-5.989,7.679c0.203,1.109,0.717,2.091,1.444,2.893c1.962,3.671,6.284,9.77,14.444,12.958
		c8.576,3.354,18.943,2.624,30.811-2.18C55.871,170.218,56.795,168.202,55.999,166.499z"/>
	<g>
		<g>
			<path fill="#F1BA66" d="M91.383,161.749c1.654,3.329,0.296,7.373-3.035,9.023l-46.73,23.214c-3.33,1.654-7.372,0.296-9.026-3.034
				L0.706,126.761c-1.656-3.328-0.298-7.368,3.033-9.023l46.732-23.214c3.329-1.657,7.372-0.294,9.024,3.032L91.383,161.749z"/>
			<path fill="#FFFFFF" d="M81.92,157.488c1.322,2.662,0.235,5.895-2.427,7.219L42.13,183.266c-2.661,1.325-5.893,0.237-7.216-2.428
				L9.421,129.519c-1.322-2.661-0.235-5.894,2.426-7.215l37.363-18.561c2.664-1.325,5.895-0.237,7.216,2.426L81.92,157.488z"/>
			<circle fill="#FFFFFF" cx="62.857" cy="178.104" r="3.226"/>
			<path fill="#FFFFFF" d="M38.966,103.521c0.234,0.474,0.041,1.05-0.433,1.284l-19.389,9.633c-0.472,0.233-1.046,0.041-1.285-0.434
				l0,0c-0.233-0.473-0.041-1.05,0.434-1.283l19.387-9.633C38.154,102.853,38.731,103.047,38.966,103.521L38.966,103.521z"/>
		</g>
		<g opacity="0.5">
			<g>
				<path fill="#3C90C1" d="M64.372,133.292l-37.553,18.655c-0.37,0.178-0.813,0.031-0.995-0.336l-12.506-25.172
					c-0.183-0.371-0.033-0.815,0.334-1l37.557-18.652c0.367-0.185,0.811-0.031,0.995,0.333l12.504,25.177
					C64.89,132.663,64.742,133.109,64.372,133.292z"/>
				<path fill="#7F5F26" d="M25.825,151.611l-1.291-2.597l9.457-16.334l9.944,2.337l0.174-19.566l0,0l14.853,5.276l0,0l5.746,11.57
					c0.182,0.365,0.034,0.812-0.336,0.994l-37.553,18.655C26.45,152.125,26.006,151.979,25.825,151.611z"/>
				<path fill="#E9D95F" d="M28.901,126.781c1.086,2.189,0.193,4.839-1.991,5.925c-2.189,1.086-4.84,0.194-5.928-1.993
					c-1.087-2.184-0.194-4.84,1.992-5.926C25.16,123.699,27.814,124.595,28.901,126.781z"/>
				<polygon fill="#FFFFFF" points="53.394,118.751 44.109,115.451 43.998,128.16 46.667,124.491 50.689,127.469 50.309,123.752 
					52.698,123.837 51.127,120.675 53.042,120.634 				"/>
			</g>
			<path fill="#7B7B7B" d="M65.839,136.657c0.252,0.511,0.046,1.128-0.46,1.379l-36.215,17.99c-0.51,0.251-1.126,0.043-1.377-0.466
				l0,0c-0.253-0.509-0.045-1.124,0.461-1.377l36.215-17.989C64.973,135.942,65.588,136.151,65.839,136.657L65.839,136.657z"/>
			<path fill="#7B7B7B" d="M68.504,142.019c0.251,0.51,0.045,1.128-0.463,1.38l-36.215,17.989c-0.506,0.251-1.125,0.043-1.375-0.466
				l0,0c-0.254-0.509-0.046-1.123,0.462-1.377l36.215-17.989C67.635,141.305,68.25,141.513,68.504,142.019L68.504,142.019z"/>
			<path fill="#7B7B7B" d="M71.166,147.377c0.252,0.515,0.045,1.128-0.463,1.381l-36.214,17.985
				c-0.509,0.256-1.124,0.05-1.378-0.462l0,0c-0.251-0.506-0.044-1.123,0.464-1.374l36.215-17.992
				C70.296,146.664,70.914,146.872,71.166,147.377L71.166,147.377z"/>
			<path fill="#7B7B7B" d="M73.827,152.738c0.255,0.509,0.046,1.125-0.462,1.377L37.15,172.103c-0.509,0.254-1.125,0.048-1.378-0.46
				l0,0c-0.252-0.508-0.044-1.125,0.462-1.378l36.216-17.99C72.958,152.023,73.577,152.231,73.827,152.738L73.827,152.738z"/>
			<path fill="#7B7B7B" d="M76.489,158.098c0.254,0.512,0.047,1.125-0.461,1.379l-36.215,17.987
				c-0.508,0.254-1.125,0.046-1.376-0.465l0,0c-0.251-0.505-0.045-1.124,0.463-1.375l36.214-17.989
				C75.621,157.383,76.239,157.592,76.489,158.098L76.489,158.098z"/>
		</g>
	</g>
	<path fill="#209CD4" d="M21.763,155.058c0,4.044-3.278,7.319-7.316,7.319c-4.045,0-7.321-3.275-7.321-7.319
		c0-4.042,3.276-7.315,7.321-7.315C18.485,147.742,21.763,151.016,21.763,155.058z"/>
</g>
</svg>
