<?xml version="1.0" encoding="utf-8"?>
<!-- Generator: Adobe Illustrator 16.0.0, SVG Export Plug-In . SVG Version: 6.00 Build 0)  -->
<!DOCTYPE svg PUBLIC "-//W3C//DTD SVG 1.1//EN" "http://www.w3.org/Graphics/SVG/1.1/DTD/svg11.dtd">
<svg version="1.1" id="圖層_1" xmlns="http://www.w3.org/2000/svg" xmlns:xlink="http://www.w3.org/1999/xlink" x="0px" y="0px"
	 width="990.877px" height="171px" viewBox="0 0 990.877 171" enable-background="new 0 0 990.877 171" xml:space="preserve">
<g>
	<path fill-rule="evenodd" clip-rule="evenodd" d="M283.374,129.208c-0.227-3.74-0.601-7.537-1.428-11.196
		c-0.758-3.331-0.866-6.797-0.79-10.205c0.019-0.856,0.234-2.452-0.504-3.091c-0.422-0.364-0.617-0.122-0.814-0.702
		c-2.34-6.943,1.528-12.406,2-19.295c0.264-3.854-0.869-7.661-1.1-11.516c-0.202-3.425,0.907-6.734,0.98-10.139
		c0.06-2.847-1.412-5.464-1.272-8.289c0.028-0.528,0.113-1.058,0.018-1.574c-0.449-2.402-6.197-3.931-8.158-4.569
		c-0.371-0.122-0.738-0.244-1.109-0.363c-0.441-0.146-0.885-0.289-1.345-0.359c-0.343-0.051-0.692-0.06-1.036-0.111
		c-0.849-0.131-1.634-0.527-2.47-0.738c-1.917-0.485-3.866,0.045-5.79,0.202c-2.109,0.173-2.783-0.176-4.368-1.338
		c-1.329-0.977-3.51-0.401-5.04-0.469c-0.901-0.041-1.826-0.212-2.722-0.037c-0.771,0.154-1.366,0.667-2.107,0.889
		c-0.825,0.247-1.324-0.267-2.103-0.228c-2.047,0.109-4.044-0.917-6.268-0.951c-4.192-0.074-8.383-0.144-12.573-0.217
		c-0.928-0.017-2.088,0.122-2.391,0.992c-0.271,0.78,0.367,1.562,0.979,2.116c3.062,2.765,6.806,4.775,10.81,5.798
		c2.419,0.616,4.975,0.873,7.409,0.333c2.589-0.58,5.11-2.055,7.72-1.57c0.945,0.176,1.924,0.603,2.822,0.27
		c0.542-0.2,0.947-0.641,1.417-0.969c3.614-2.507,10.727,0.475,12.472,4.123c0.365,0.76,0.592,1.577,0.842,2.384
		c0.473,1.539,1.027,3.057,1.583,4.572c0.113,0.311,0.229,0.623,0.343,0.933c0.124,0.341,0.249,0.685,0.446,0.988
		c0.249,0.381,0.603,0.684,0.86,1.061c0.586,0.857,0.606,1.967,0.604,3.005c-0.009,7.058-0.542,14.041-0.407,21.048
		c0.055,2.742,0.055,5.492,0.087,8.242c0.065,5.522-0.013,11.025-0.263,16.542c-0.111,2.47-0.333,4.921-0.503,7.383
		c-0.094,1.412-0.543,3.182-2.445,2.563c-0.914-0.296-1.587-1.052-2.34-1.653c-0.4-0.317-0.843-0.607-1.116-1.041
		c-0.381-0.604-0.369-1.374-0.268-2.084c0.1-0.712,0.273-1.424,0.165-2.13c-0.111-0.705-0.601-1.418-1.309-1.508
		c0.213-2.336-2.682-4.237-3.542-6.18c-0.642-1.45-0.492-3.183-0.42-4.718c0.057-1.134-0.284-3.754,0.753-4.522
		c0.359-0.268,0.854-0.188,1.196-0.54c0.343-0.358,0.392-0.916,0.438-1.385c0.052-0.525-0.005-1.087,0.143-1.598
		c0.184-0.64,0.647-0.951,1.068-1.424c1.087-1.226,0.714-3.094,0.598-4.6c-0.26-3.339-0.415-6.614-0.019-9.946
		c0.167-1.428,0.014-2.405-1.372-3.043c-1.458-0.673-2.524-1.658-3.436-2.981c-0.813-1.182-1.45-2.497-2.086-3.782
		c-0.495-0.993-1.288-2.551-0.416-3.549c0.455-0.525,1.03-0.638,1.198-1.401c0.16-0.726-0.027-1.616-0.09-2.345
		c-0.135-1.556-0.37-3.095-0.727-4.615c-0.279-1.18-0.617-2.656-1.948-3.004c-1.693-0.441-4.713-0.219-6.327,0.542
		c-0.656,0.308-1.223,0.906-1.285,1.629c-0.073,0.825,0.487,1.76-0.023,2.418c-0.215,0.282-0.576,0.409-0.914,0.522
		c-2.307,0.774-3.981,1.146-6.425,1.071c-1.506-0.046-3.049-0.016-4.401,0.73c-1.35,0.741-2.253,2.019-3.46,2.938
		c-1.198,0.917-2.611,1.459-4.05,1.87c-0.733,0.211-1.587,0.573-2.245-0.011c-0.29-0.259-0.538-0.592-0.906-0.706
		c-0.308-0.092-0.653-0.012-0.96-0.108c-0.436-0.142-0.679-0.591-0.927-0.975c-1.897-2.93-7.938-3.64-8.622,0.81
		c-0.089,0.571,0.238,1.19-0.014,1.709c-0.576,1.192-1.064,1.109-0.782,2.561c0.206,1.05,0.915,2.059,1.667,2.792
		c1.104,1.079,2.399,2.01,3.585,3.005c1.17,0.991,2.592,1.791,2.597,3.487c0.005,1.891-1.112,3.396-1.887,5.019
		c-0.532,1.115-0.552,2.949-1.625,3.709c-0.259,0.18-0.579,0.293-0.778,0.544c-0.222,0.275-0.245,0.66-0.258,1.015
		c-0.041,1.074,0.119,2.398-0.13,3.445c-0.185,0.766-0.714,1.399-1.006,2.139c-0.457,1.152-0.319,3.313,0.493,4.327
		c0.694,0.864,2.076,0.249,2.917-0.078c2.271-0.894,4.623-3.688,7.227-3.408c0.426,1.691-0.317,3.729-1.438,4.998
		c-1.144,1.306-2.202,2.404-2.987,3.984c-0.392,0.795-0.849,1.61-1.128,2.45c-0.305,0.931-0.157,1.855-0.273,2.802
		c-0.103,0.84-0.578,1.387-0.93,2.124c-0.42,0.876-0.295,1.706,0.104,2.568c0.607,1.319,1.67,2.26,1.846,3.771
		c2.522,0.48,6.326-3.989,8.184-5.526c2.83-2.344,5.754-4.722,9.214-6.079c0.606-0.24,7.38-2.538,7.45-2.104
		c0.469,2.813-1.675,6.173-3.033,8.484c-1.493,2.541-3.322,4.845-5.47,6.874c-1.113,1.052-2.272,2.162-3.57,2.987
		c-0.666,0.427-1.158,0.516-1.923,0.49c-0.606-0.021-0.948,0.025-1.329,0.525c-0.656,0.858-0.662,1.839-1.766,2.322
		c-2.454,1.075-5.237,0.316-7.566,1.949c-0.728-0.877-2.029-0.925-3.168-0.945c-2.077-0.04-4.167-1.363-4.964-3.376
		c-0.533-1.348-0.241-3.086-0.243-4.508c-0.008-3.709,0.016-7.418,0.127-11.122c0.077-2.56,0.198-5.114,0.211-7.678
		c0.008-1.445,0.558-5.046-0.762-6.08c-0.172-0.133-0.372-0.233-0.499-0.407c-0.149-0.207-0.165-0.473-0.176-0.725
		c-0.26-6.356,1.403-13.461-1.685-19.364c-0.612-1.167-1.491-2.638-2.73-3.214c-0.808-0.376-2.32-0.668-2.54,0.441
		c-0.517,2.618-0.194,5.476,0.459,8.036c0.323,1.27,1.577,3.165,1.448,4.469c-0.042,0.417-0.312,0.767-0.509,1.137
		c-1.012,1.864-0.23,4.137-0.114,6.255c0.078,1.448-0.168,2.896-0.416,4.327c-0.777,4.518-1.564,9.063-3.139,13.362
		c-1.528,4.181-1.905,7.287-1.182,11.688c0.552,3.372,0.996,6.859,2.313,10.039c1.009,2.434,2.8,4.095,5.5,4.346
		c3.565,0.333,7.13-0.869,10.664-1.181c3.617-0.322,6.895-0.697,10.271-2.1c1.675-0.695,3.303-1.239,5.134-1.281
		c2.93-0.071,5.023-0.604,7.845-1.453c1.802-0.541,3.728-0.666,5.586-0.359c1.125,0.185,2.319,0.521,3.368,0.076
		c0.328-0.137,0.617-0.344,0.941-0.486c1.034-0.454,2.226-0.2,3.325,0.062c2.342,0.565,4.745,0.703,6.492,2.388
		c1.583,1.532,2.218,3.937,3.376,5.76c0.238,0.377,0.476,0.75,0.715,1.125c0.979,1.543,1.96,3.089,2.83,4.697
		c0.49,0.909,0.958,1.85,1.69,2.578c0.733,0.729,1.808,1.213,2.809,0.957c0.836-0.218,1.466-0.891,2.251-1.252
		c0.54-0.254,1.152-0.354,1.644-0.688c0.411-0.282,0.703-0.703,0.984-1.109c0.459-0.666,0.879-1.247,1.239-1.823
		c0.615-0.979,1.058-1.955,1.229-3.323c0.222-1.771,0.969-3.263,1.5-4.943C283.455,132.872,283.485,131.022,283.374,129.208
		 M242.842,97.229c-0.601,0.84-0.276,0.893-1.21,1.483c-1.125,0.72-1.836,1.095-2.797,2.019c-0.208,0.201-0.038,0.484-0.325,0.656
		c-0.294,0.18-0.771-0.08-1.053,0.081c-0.359,0.203-0.491,0.468-0.718,0.626c-1.089,0.746-2.544,0.466-3.845,0.313
		c0.219-1.376,1.621-2.991,2.651-4.016c1.109-1.1,2.927-1.438,3.888-2.668c0.655-0.836,0.319-1.744,0.344-2.7
		c0.046-1.671,0.404-2.553-1.485-2.917c-0.552-0.105-1.098-0.254-1.642-0.377c-1.063-0.247-2.129-0.484-3.201-0.683
		c-2.551-0.468-5.116-0.631-7.705-0.62c-0.161,0,1.64-4.65,1.875-5.053c0.958-1.649,2.313-3.004,3.805-4.174
		c0.985-0.774,2.568-2.538,3.937-2.315c0.309,0.051,0.59,0.197,0.854,0.356c3.183,1.907,4.251,6.228,5.738,9.445
		C243.426,89.861,245.142,94.011,242.842,97.229 M254.574,117.211c-0.036,1.349-0.031,2.822-0.917,3.927
		c-0.576,0.719-1.307,0.576-2.146,0.602c-0.866,0.029-2.989,0.36-3.554-0.396c-0.051-0.066-0.09-0.143-0.111-0.229
		c-0.304-1.098,0.93-2.937,1.563-3.729c0.273-0.344,2.211-2.911,2.384-2.911h2.003C254.769,114.476,254.587,116.642,254.574,117.211
		 M255.787,86.081c-0.131,0.676-0.931,1.043-1.391,1.609c-1.407,1.717-3.629,0.827-4.778-0.595c-1.128-1.397-1.748-3.14-2.532-4.714
		c-0.857-1.715-1.825-3.382-2.524-5.171c-0.261-0.676-0.503-1.375-0.641-2.088c-0.191-0.988,2.137-2.251,2.924-2.542
		c0.641-0.235,1.244-0.161,2.037-0.161c1.218,0,2.435-0.008,3.655,0c0.771,0.005,1.231,0.007,1.696,0.682
		c0.178,0.259,0.351,0.483,0.592,0.689c0.415,0.356,0.813,0.416,0.964,0.941c0.307,1.059-0.003,2.469-0.003,3.565
		c0,1.089-0.036,3.849,0.191,4.034C256.086,82.419,255.948,85.238,255.787,86.081"/>
	<path fill-rule="evenodd" clip-rule="evenodd" d="M330.303,60.019c0.833,1.009,1.699,1.987,2.329,3.144
		c1.099,2.021,0.392,3.903,2.927,4.515c0.909,0.222,1.451,0.639,2.223,1.001c2.72,1.27,6.599,0.405,9.463-0.105
		c0.178-0.032,0.363-0.07,0.503-0.184c0.023-0.016,0.041-0.033,0.06-0.049c1.651-1.521-1.572-6.613-2.775-7.491
		c-1.118-0.816-2.394-1.304-3.428-2.246c-1.231-1.125-1.893-2.463-3.698-2.759c-3.44-0.556-6.473-2.507-9.844-3.348
		c-0.266,0.583-0.922,1.262-1.006,1.882c-0.086,0.653,0.413,1.451,0.689,2.002C328.406,57.693,329.372,58.891,330.303,60.019"/>
	<path fill-rule="evenodd" clip-rule="evenodd" d="M377.918,128.294c-0.777-0.954-1.882-1.569-2.989-2.105
		c-6.105-2.98-13.051-4.219-19.812-3.538c-1.508,0.157-3.589,0-3.811-1.502c-0.144-0.968,0.682-1.773,1.404-2.434
		c5.094-4.655,8.614-11.009,9.861-17.799c0.452-2.456,0.545-5.207-0.937-7.217c-1.214-1.648-3.314-2.479-5.362-2.573
		c-2.047-0.095-4.071,0.455-6.014,1.106c-0.997,0.337-2.006,0.712-2.84,1.356c-1.12,0.869-1.83,2.146-2.635,3.313
		c-2.648,3.826-6.511,6.607-10.299,9.31c-1.182,0.846-2.423,1.712-3.859,1.912c-1.438,0.201-3.111-0.512-3.492-1.912
		c-0.317-1.167,0.333-2.362,0.957-3.402c1.226-2.042,2.453-4.09,3.679-6.134c2.278-3.791,4.669-7.707,8.34-10.171
		c2.811-1.891,6.152-2.778,9.301-4.028c2.67-1.061,5.232-2.398,7.626-3.986c0.695-0.461,1.426-1.009,1.634-1.819
		c0.157-0.619-0.032-1.217-0.408-1.731c-0.424-0.579-1.09-1.049-1.758-1.323c-4.011-1.639-8.457,0.485-12.441,2.189
		c-6.952,2.976-14.371,4.761-21.861,5.803c-1.769,0.246-11.873,1.258-9.626,4.827c0.372,0.595,1.01,0.968,1.639,1.281
		c3.315,1.659,7.119,2.332,10.803,1.915c1.538-0.174,3.56-0.274,4.12,1.168c0.372,0.954-0.208,1.989-0.778,2.832
		c-1.765,2.61-3.677,5.119-5.724,7.508c-1.044,1.221-2.124,2.41-3.24,3.566c-0.799,0.798-1.624,1.575-2.439,2.356
		c-0.062,0.059-0.126,0.121-0.145,0.207c-0.037,0.145,0.075,0.276,0.175,0.388c1.826,1.983,2.641,4.4,3.636,6.851
		c0.872,2.139,2.07,4.253,4.424,4.96c1.644,0.495,3.408-0.042,5-0.686c3.551-1.438,6.879-3.424,9.83-5.865
		c1.556-1.284,3.074-2.812,3.545-4.771c0.37-1.542,0.046-3.176,0.349-4.729c0.433-2.229,2.25-4.127,4.458-4.657
		c0.413-0.101,0.89-0.141,1.223,0.121c0.406,0.322,0.406,0.928,0.346,1.439c-0.82,7.171-6.014,12.967-11.086,18.097
		c-5.226,5.29-11.035,10.662-18.335,12.074c-1.28,0.25-2.622,0.383-3.745,1.043c-1.125,0.657-1.958,2.058-1.477,3.268
		c0.287,0.716,0.95,1.2,1.588,1.627c2.31,1.551,4.978,2.97,7.735,2.6c1.236-0.168,2.393-0.687,3.579-1.072
		c2.702-0.877,5.57-1.066,8.373-1.54c7.42-1.244,14.613-4.494,22.123-4.019c5.697,0.359,11.403,2.856,16.94,1.464
		c1.257-0.316,2.578-0.938,3.101-2.13C379.082,130.605,378.694,129.248,377.918,128.294"/>
	<path fill-rule="evenodd" clip-rule="evenodd" d="M486.127,105.455c-0.161,0.037-0.349,1.395-2.008,1.001
		c-3.149-0.741-6.034-2.887-8.961-4.208c-1.501-0.676-3.374-1.728-5.046-1.822c-1.374-0.079-2.639,0.913-3.104,0.94
		c-0.586,0.025-4.351,2.44-4.967,4.071c-0.674,1.772-0.016,5.302-0.095,7.241c-0.174,4.254-0.372,8.77-1.841,12.808
		c-0.811,2.239-2.441,4.185-3.006,7.004c-5.346,1.687-10.694,3.341-16.039,5.011h-1.004v-2.991c1.004-0.333,2.004-0.671,3.008-1.004
		c0-0.348,1.336-1.016,2.005-1.016c0-0.32,2.003-0.988,3.021-0.988c3.88-1.609,7.019-4.398,8.005-9.02
		c1.71-1.786,1.567-3.981,1.407-6.269c-0.042-0.622-1.281-4.148-1.325-3.86c0.527-3.554-4.718-4.727-6.103-6.888
		c-0.008-0.011-0.996-1.006-0.996-1.006c1.382-1.515,6.844-4.629,5.013-9.007c0,0-1.716-1.447-2.019-2.013
		c3.022-2.66,6.015-5.339,9.023-8.005c1.899-2.647,2.28-5.23,5.009-7.002v-3.017c-2.309-0.666-4.766-1.649-6.955-2.286
		c-1.783-0.509-3.75-0.349-5.541-0.813c-2.299-0.599-4.334-2.187-6.728-2.406c-0.766-0.07-6.685,0.26-6.825,0.501
		c2.354-4.082,7.948-8.746,12.016-11.01c-0.132-4.405-1.179-5.5-3.982-7.019v-8.013c2.661-1.327,5.346-2.664,8.005-4.003v-2.001
		c1.107-1.137,0.439,0.005,1.004-2.004c-2.324-1.237-4.724-2.473-8.021-3.008c-0.036-0.139-0.868-1.935-1.861-3.455
		c-1.629-2.502-3.02-2.091-5.315-0.636c-0.761,0.485-4.158,2.158-1.753,2.968c2.355,0.793,0.43,6.826-0.774,8.328
		c-0.75,0.932-8.324,4.038-8.324,2.821v2.997c3.005,0.341,6.014,0.662,9.006,0.995v8.019c-4.488,0.016-5.475,0.662-8.018,1.996
		c-0.301,0.16-0.131,3.807,0.229,4.207c0.785,0.878,2.586,0.822,3.643,0.602c0.057,0.207,0.369,2.155,0.152,2.202
		c-3.022,0.668-3.792,1.816-6.03,3.007c-0.232,9.297,3.036,9.43,10.023,9.008c1.696-0.103-3.376,3.511-2.881,3.149
		c-1.058,0.776-12.542,8.035-14.316,9.182c-0.833,0.54-2.545,1.255-3.338,1.686c-0.861,0.468-2.818,1.184-3.717,1.786
		c-2.446,1.695-5.451,3.271-7.611,4.919c-0.951,0.729-1.516,1.805-2.466,2.509c-1.81,1.349-4.38,2.501-6.615,2.695
		c0.35-2.505-1.726-2.966-0.327-6.134c0.997-2.254,3.059-4.581,5.229-5.775V89.43c-3.414,0.851-11.289,4.547-13.031,7.017
		c-1.134,1.648-0.014,2.265-2.004,4.011c0,6.658,1.176,8.948,3.005,13.016c0.749,0.251,5.738,2.153,5.897,1.887
		c0.633-1.07,2.876-1.402,4.136-2.358c3.707-2.819,6.67-6.6,10.253-9.562c1.141-0.942,2.197-0.657,3.273-1.572
		c2.008-1.701,3.086-3.661,5.142-4.797c1.899-1.047,3.732-2.208,5.356-3.625c1.301-1.13,4.305-2.335,5.121-3.936
		c1.123-2.201,10.734-6.212,12.29-7.054c2.506-1.356,5.601-2.725,8.438-2.809c0.227,2.583-2.659,3.817-3.625,5.981
		c-2.532,5.667-10.532,7.375-13.221,7.812c-0.22,0.122-3.627,2.449-1.991,9.02c1.991-0.333,4.009-0.666,6.012-1.015
		c0.336-0.661,0.669-1.337,0.988-1.991c1.004,0,3.008-0.669,3.008-1.002h1.017c-0.973,3.733-3.836,4.711-7.017,6.008v5.001
		c0.335,0,1.004,0.688,1.004,1.004c1.668-0.316,3.341-0.666,4.996-1.004c4.538-0.919,7.65,7.051,7.921,7.153
		c0.135,1.932-1.35,5.736-2.901,6.887c-1.123,0.833-0.156-0.145-1.012,0.984h-1.002v-2.993c0.334,0,2.313-4.66-1.989-8.02
		c-0.279,0-4.394,0.173-4.428-0.155c-0.027-0.27-3.162,0.155-4.607,0.155c-2.324,2.006-4.649,4.003-7.001,6.017
		c-1.151,1.675,0,2.282-1.992,4.008c-0.116,6.031,1.293,8.005,4.997,10.009c-1.422,5.099-2.367,2.02-6.014,3.995
		c-0.305,0.19-0.857,1.468-2.004,2.013c0.259,4.163,1.32,4.7,2.004,8.005c4.488-0.021,8.866-0.412,13.156-1.77
		c1.25-0.396,10.527-2.638,10.777-3.316c1.448-3.912,21.46-2,21.148-4.932c-1.004-9.336-2.008-18.688-2.996-28.04
		c6.568,0.47,8.211,3.613,13.003,5.015c2.34-0.333,4.678-0.67,7.017-1.003c1.004-2.338,2.005-4.678,2.993-7.017
		C488.798,105.995,488.436,105.049,486.127,105.455 M437.811,125.518c-0.809,1.363-1.845,3.678-3.712,2.911
		c-2.05-0.84-0.805-5.041-0.062-6.552c0.521-1.057,1.295-2.056,1.969-3.014c0.24-0.341,0.644-1.202,1.082-1.329
		c0.804-0.175,2.046,0.961,2.938,0.988C439.08,120.775,439.074,123.392,437.811,125.518"/>
	<path fill-rule="evenodd" clip-rule="evenodd" d="M540.203,86.437c0.364,1.001,0.678,1.99,1.021,2.993
		c0.131,0.384,3.587-0.533,4.021-0.741c1.379-0.675,1.575-1.764,1.621-3.165c0.021-0.72,0.01-1.461,0.08-2.179
		c0.104-1.1,0.792-1.799,1.178-2.783c0.133-0.335-0.089-0.939,0.217-1.177c0.295-0.224,1.077,0.044,1.379,0.138
		c0.972,0.308,1.834,0.889,2.705,1.395c0.528,0.285,2.678,2.449,3.001,2.463c1.247,0.062,2.488,0.146,3.735,0.113
		c0.755-2.751,1.285-4.257,0.519-7.228c-0.242-0.96-1.549-5.557-2.441-5.857c-2.007-0.666-4.01-1.342-6.012-2.008
		c0,0-1.867,0.152-3.012-0.997c2.28-0.945,3.893-1.773,7.017-2.002c0.178-0.883,0.025-9.022,0-9.009
		c0.025-0.013,1.68-1.074,1.002-3.007c-0.67-0.333-1.319-0.669-1.985-1.002v-2.006h2.99v-3.006
		c-3.107-1.169-6.287-1.366-8.005-3.996c-6.631-0.232-7.191,0.438-8.01,6c-7.725,1.423-8.733,1.905-16.035,2.004
		c-0.582,1.607-1.792,5.072-1,8.022h1c1.601,5.94-3.439,12.927-6.015,15.019c-0.021,2.797-0.479,6.655,1.01,8.012
		c1.231,1.118,1.173-0.741,3.002,1.998c7.391-0.395,6.721-6.82,6.689-12.426c-0.007-1.88,0.973-16.356-1.666-16.613
		c3.335,0.328,6.664,0.666,10.013,1.001c0.317,1.716,2.114,4.489,0.988,7.001c-0.988,0.676-1.991,1.339-3,2.008
		c-0.931,1.044-0.834,2.134-2.007,3v1.006h4.019C537.915,75.804,535.819,82.674,540.203,86.437"/>
	<path fill-rule="evenodd" clip-rule="evenodd" d="M574.179,61.147c-1.08-1.931-2.045-3.982-2.089-6.242
		c-0.021-1.513,0.17-3.018,0.17-4.528c0,0-1.633-1.268-2.002-2.005h-3.996c-0.766,7.178-3.037,13.148-3.012,21.037
		c3.61,0,6.263-0.204,8.021-2.005c2.426-0.617,2.188-1.052,3.996-2.004C576.597,64.699,574.605,61.911,574.179,61.147"/>
	<path fill-rule="evenodd" clip-rule="evenodd" d="M504.206,72.611c0.813,1.401,0.26,3.709,0.169,5.219
		c-0.047,0.854-0.189,1.757-0.026,2.607c0.105,0.558,0.825,1.564,0.825,1.996c0,0.615-0.026,1.18,0.121,1.754
		c1.965-0.787,4.491-2.253,5.748-4.018c0.661-0.925,1.278-2.061,1.633-3.14c0.52-1.61,0.085-1.426-0.289-2.725
		c-0.418-1.428-0.096-1.794-1.063-2.948c-0.607-0.726-1.458-1.51-2.114-2.3c-0.428-0.516-2.451-3.655-3.038-3.655h-3.004
		c-1.147,1.117,0,0.42-2.02,1.001c0.479,1.407,0.788,3.111,1.475,4.417C503.055,71.64,503.809,71.932,504.206,72.611"/>
	<path fill-rule="evenodd" clip-rule="evenodd" d="M524.628,89.953c-0.411,0.352-0.746,0.896-1.01,1.707
		c-0.767,2.34-1.977,4.549-3.629,6.383c-1.005,1.114-2.161,2.044-3.376,2.917c-0.222,0.163-2.722,2.451-2.525,2.461
		c-2.874-0.145-5.664-5.776-6.912-7.968c-0.755-1.331-0.846-4.279-2.002-5.021h-2.007c0.5,3.018,0.369,6.104,0.95,9.114
		c0.47,2.428-0.45,3.992-0.364,6.332c0.094,2.378,0.629,4.267-0.455,6.502c-0.919,1.899-2.463,3.503-2.594,5.715
		c-0.084,1.521,0.042,3.048,0.269,4.552c0.359,2.422,1.327,9.666,5.152,8.524c3.271-0.98,1.943-3.471,2.567-5.959
		c0.269-1.058,1.156-1.776,1.453-2.812c0.36-1.263,0.396-2.251,1.072-3.298c1.347-2.1,2.342-4.374,3.657-6.477
		c0.629-1.007,0.607-2.077,1.056-3.154c0.503-1.2,1.026-1.606,2.092-2.404c1.612-1.194,3.166-3.667,4.271-5.326
		c0.55-0.832,0.907-1.831,1.601-2.563c0.646-0.681,1.617-0.955,2.218-1.669c0.493-0.581,0.641-1.553,0.853-2.271
		c0.538-1.855,1.129-3.808,1.208-5.749C526.593,89.304,525.447,89.245,524.628,89.953"/>
	<path fill-rule="evenodd" clip-rule="evenodd" d="M541.354,102.415c3.003,0.129,4.449,3.886,7.753,2.982
		c1.488-0.412,2.983-1.227,4.285-2.058c2.498-1.604,4.939-4.074,7.855-4.891c0.598-2.003-0.147-0.855,1-2.003
		c-0.054-2.863-0.355-4.279-1-6.018c-9.928,0.35-16.073,5.438-23.026,9.025C538.217,99.458,541.313,102.108,541.354,102.415"/>
	<path fill-rule="evenodd" clip-rule="evenodd" d="M567.246,109.461c-5.818-0.061-13.246,0.222-16.02,3.009
		c-3.678-0.395-4.629-1.487-6.003-4.003c-1.67,0.328-3.351,0.661-5.021,0.994c0.364,2.684,0.678,5.354,1.021,8.015
		c1.124,0.866,0.164-0.137,0.993,1.009c0.666,0.926,5.928-2.262,6.577-2.779c1.813-1.447,2.991-1.277,5.295-1.288
		c0.117-2.003,7.208-0.593,7.159,0.059c-0.185,2.501-0.386,5.002-0.575,7.507c-0.101,1.253,0.189,2.605-0.112,3.842
		c-0.373,1.516-2.883,6.364-4.601,6.897c-2.96,0.914-6.668,0.824-9.733,0.784c0.549,4.883,2.584,7.104,3.007,12.016
		c0.654,0,1.993,0.66,1.993,1.004c0.797-0.017,6.451-2.43,7.017-3.012c1.367-0.322,2.456-0.867,3.418-1.881
		c1.404-1.475,1.748-2.209,2.552-4.051c1.126-2.564,2.741-4.794,3.519-7.573c0.607-2.151,0.939-4.361,1.521-6.51
		c0.248-3.756,1.897-8.008,0-10.026C568.646,111.045,568.201,111.273,567.246,109.461"/>
	<path fill-rule="evenodd" clip-rule="evenodd" d="M676.411,83.428c-0.105-0.217-2.33-1.88-3.008-2.992
		c-0.021-0.033-7.913-0.893-8.453-0.839c-2.933,0.294-8.005,2.543-10.223-0.576c-0.974-1.375-0.275-3.293-1.381-4.807
		c-0.918-1.253-2.773-1.421-3.582-2.816c-0.311-0.542-0.733-3.928-0.381-3.993c5.323-0.975,14.531-3.271,17.015-7.002
		c0.332,0,0.998-0.685,0.998-1.002c-1.78-1.045-2.995-2.194-4.005-4.009c-11.692,0.362-17.347,6.049-29.038,6.013v2.992
		c1.68,0.335,3.329,0.671,5.002,1.003c3.003,5.011,6.008,10.018,9.02,15.036c-0.612,2.334-0.654,3.287-2.911,4.229
		c-0.295,0.129-4.681,1.427-4.521,1.643c-0.703-0.972-0.444-1.922-0.603-3.117c-0.238-1.789-0.466-2.17-1.089-3.645
		c-0.164-0.187-0.36-0.225-0.587-0.114c-0.495,1.445-1.817,2.187-2.355,3.688c-0.687,1.918-1.03,3.34-1.876,4.842
		c-0.163,0.298-1.206,3.579-1.089,3.479c-2.329,2.003-4.676,4.013-6.995,6.005c-0.877,0.754-3.867,0.143-4.11-0.903
		c-2.864,0.223,1.68-5.3,2.176-5.994c1.881-2.632,2.78-4.488,1.992-7.639c-0.313-1.239-1.348-5.481-3.086-5.487h-2.991
		c-1.441-4.352,1.344-3.925,2.944-7.401c0.273-0.583,0.603-7.591,0.939-7.555c2.014,0.224,1.909-4.75,2.136-6.074
		c-1.944-0.143-9.982-1.074-11.021-2.003c-4.323,0.227-3.393,0.609-6.023,2.003c1.738,2.922,4.126,3.422,8.021,4.012
		c-0.074,6.837-1.745,8.747-3.995,13.01h-3.007c-1.986,0-2.846-5.502-3.771-6.735c-0.393-0.517-4.143-4.277-4.587-4.185
		c-1.42,0.119-4.495,0.091-5.663,0.904c0.411,3.225,1.374,4.99,2.995,7.014c0.687,0.335,1.337,0.67,2.019,1.003
		c0.676,0.331,0.496,7.931,0.565,9.071c0.105,1.704-0.502,6.515,1.342,7.06c1.886,0.554-0.36,13.837-0.998,13.813
		c-2.023-0.04-1.374,5.788-1.923,7.108c-0.645,1.552-1.893,2.732-2.241,4.438c-0.581,2.838,3.419,8.966,4.877,11.22
		c0.82,1.271,1.21,3.447,3.171,3.372c3.861-0.157,5.643-6.111,8.247-7.944c1.099-0.777,2.812-0.392,3.936-1.12
		c1.401-0.914,5.364-5.521,5.114-6.843c3.706-0.309,2.24-8.603,6.337-6.177c0.939,0.561,3.645,7.054,3.614,7.059
		c4.554-0.264,4.269-1.41,7.005-3.008c0.607-0.358-0.586-11.131-1.906-11.115c0.109-2.145,0.315-4.939,1.79-6.309
		c1.272-1.191,3.757-0.766,4.238-2.504c1.516,0.212,3.201,0.358,3.993,1.5c1.395,2.019,0.138,4.175-0.01,5.532
		c-0.57,5.078,1.067,9.474,1.119,14.425c0.042,3.83-0.205,7.655-0.205,11.486c0,4.739-0.097,8.415-1.157,12.96
		c-0.951,4.074-0.301,9.188,1.157,13.089c0.729,1.954,4.448-1.152,4.908-1.944c0.818-1.438,1.262-3.604,1.404-5.253
		c0.255-2.953-0.273-5.923-0.537-8.853c-0.255-2.839-0.64-5.814-0.322-8.657c0.247-2.187,1.453-4.358,1.547-6.349
		c0.185-3.83-0.876-9.796,1.005-12.018v-0.998c1.96,1.273,4.813,2.967,6.007,5.007c4.634-0.015,6.183-0.733,9.015-2.007
		C674.392,102.782,679.623,89.372,676.411,83.428 M609.336,86.625c0.549-1.137,4.743-3.625,5.822-2.957
		c0.115,0.077,0.243,0.16,0.365,0.255c0.311,0.249,1.082,2.273,1.208,2.778c0.908,3.638-3.36,8.298-6.377,9.661
		C608.437,94.651,608.262,88.852,609.336,86.625 M614.993,111.109c-1.267,1.083-3.097,1.315-5.681,0.378
		c0.101-5.229,0.367-3.926,2.015-7.03c2.857,0.053,4.285,0.344,5.997,0.998C617.002,108,616.287,110,614.993,111.109
		 M663.392,100.46c-0.481,0.798-4.725-0.488-5.479-1.048c-2.287-1.692-1.722-4.329-1.446-6.852c1.32-0.438,1.3-8.299,2.926-8.128
		c3.54,0.387,8.834,2.034,9.005,6.292C668.532,94.302,665.121,97.588,663.392,100.46"/>
	<path fill-rule="evenodd" clip-rule="evenodd" d="M720.239,65.129c0.322,0.068,0.809,0.028,1.052,0.307
		c0.079,0.085,1.505,0.927,2.128,1.017c-0.089,0.594,0.377,1.068,0.877,1.255c2.019,0.738,4.322,0.238,6.399,0.101
		c0.591-0.039,2.493-0.692,2.991-0.966c1.061-0.587,2.304-0.685,3.443-1.032c0.57-0.176,1.072-0.405,1.533-0.792
		c0.582-0.481,4.109-1.493,4.918-2.001c0.607-0.385,1.416-2.557,1.939-2.613c0.713-0.082,8.855-1.233,8.923-0.912
		c0.545,2.475,12.776,0.779,15.113-0.091c-0.243-2.367-0.439-2.483-1.01-4.009h-10.012c0.151,0,0.834-4.313,1.023-5.007
		c0.007-0.025,0.012-0.044,0.017-0.06c0.292-0.304,2.425,0.217,2.864,0.163c1.294-0.157,1.575-0.934,2.542-1.151
		c1.807-0.402,3.407,1.164,5.3,0.777c0.395-0.082,4.151-1.977,4.163-1.902c-0.065-0.452-0.497-2.689-0.916-2.848
		c-2.409-0.903-6.191-1.071-9.995-0.991c-0.201,0.003-1.584-4.383-1.949-4.956c-0.393-0.622-0.874-1.131-1.443-1.59
		c-0.65-0.519-1.844-0.771-2.377-1.345c-0.217-0.24-2.928-0.137-3.245-0.122c-4.295,0.241-3.376,0.612-6.007,2.005
		c-0.402,0.21-0.005,5.188-0.005,5.827c0,1.371,0.554,3.828-0.218,5.031c-0.481,0.758-1.378,0.934-1.754,1.812
		c-0.797,1.873-2.293,3.233-3.102,5.067c-0.443,1.004-0.435,3.138-1.935,3.298c-6.346,0.668-12.675,1.335-19.021,2.004
		c0.393-3.24,0.909-2.927,2.005-5.013c0.189-0.359,1.743-0.664,2.145-0.8c0.818-0.276,1.643-0.521,2.478-0.749
		c1.743-0.482,3.514-0.877,5.294-1.231c1.797-0.354,3.604-0.692,5.412-0.976c0.918-0.146,1.483,0.067,1.738-0.864
		c0.156-0.597,0.146-1.679-0.196-2.215c-0.411-0.641-1.22-0.503-1.785-0.898c-0.439-0.308-0.624-1.036-1.038-1.288
		c-0.943-0.586-2.72-0.102-3.745-0.034c-1.299,0.085-2.594,0.113-3.893,0.059c-1.491-0.062-1.059-0.354-1.718-1.35
		c-0.829-1.252-2.554-1.569-3.626-2.558c-1.433-1.322-3.645-1.125-4.93,0.397c-1.183,1.405-0.307,3.145-0.587,4.776
		c-0.348,2.021-1.584,3.895-2.329,5.781c-0.465,1.157-1.045,3.013-1.78,3.996c-1.047,1.404-2.526,1.988-3.478,3.573
		c-0.28,0.462-2.065,5.4-1.981,5.395c2.421-0.173,4.523-1.363,6.832-1.958C718.188,65.217,719.314,64.933,720.239,65.129"/>
	<path fill-rule="evenodd" clip-rule="evenodd" d="M779.56,112.472c-0.117-3.37,0.051-3.661-1.998-5.015
		c0-0.324-0.661-1.001-1-1.001c-2.641,4.851-4.961,8.299-6,15.036c-0.07,0.425-6.912,1.104-7.562,1.14
		c-3.255,0.178-5.475-1.136-8.477-2.155c-1.107-0.38-0.559-5.923-0.76-7.085c-0.477-2.747-1.173-5.495,0.311-8.071
		c0.365-0.639,0.867-1.296,1.533-1.64c2.652-1.38,5.32-2.991,7.678-5.063c1.072-0.938,2.552-2.816,3.313-3.965
		c0.972-1.466,1.262-3.094,2.309-4.637c1.315-1.944,3.217-3.503,2.983-6.025c-0.109-1.25-0.507-2.488-0.965-3.648
		c-0.213-0.539-1.993-3.948-2.379-3.931c-1.559,0.062-3.213-0.033-4.738,0.297c-0.477,0.103-1.285,0.122-1.666,0.455
		c-0.105,0.092-0.977,1.445-0.645,1.355c-2.124,0.565-3.767,0.663-5.723,1.766c-0.943,0.534-2.124,0.717-3.012,1.269
		c-1.483,0.934-1.077,1.27-3.017,0.888c-0.804-0.157-3.222-0.87-3.222-2.005V79.42c-1.918-1.154-4.984-0.93-8.021-0.987
		c0.926-3.634,1.775-2.152,1.993-7.018c-2.659,0.328-5.337,0.669-8.012,1.001v0.995c-1.337,0.389-3.017,0.312-4.312-0.243
		c-0.1-0.046-2.535-1.683-1.817-1.74c-0.809,0.065-7.783,0.58-7.884,0.988c-0.75,3.211-2.351,6.067-4.231,8.743
		c-0.866,1.234-1.785,2.43-2.656,3.655c-0.397,0.558-0.946,1.157-1.131,1.812c-0.213,0.753-0.012,1.355-0.607,2.02
		c-0.472,0.515-1.072,0.715-1.402,1.368c-0.315,0.636-0.163,1.342-0.764,1.824c-0.552,0.444-1.059,0.444-1.495,1.047
		c-0.255,0.349-0.431,0.771-0.619,1.152c-0.523,1.045-0.978,2.123-1.362,3.228c-0.473,1.343-0.704,2.843-0.926,4.243
		c-0.116,0.745-0.418,1.379,0,2.082c0.318,0.549,0.956,0.871,1.311,1.413c0.612,0.943,0.508,2.158,1.12,3.104
		c0.561,0.853,1.549,1.529,2.525,1.796c0.955,0.259,1.902,0.555,2.864,0.798c0.738,0.19,7.349,1.252,7.374,0.782
		c-0.089,1.762-0.532,3.509-1.601,4.939c-2.319,3.123-6.953,4.048-10.159,6.003c-1.146,0.697-3.275,1.537-3.275,3.043
		c0,0.639,5.933-0.454,6.271-0.586c1.864-0.713,5.918-1.659,7.46,0.846c0.998,1.621-0.212,3.571,0.196,5.317
		c0.612,2.634,3.196,7.484,6.607,5.926c3.547-1.611,2.433-7.17,2.949-10.145c0.708-4.101,1.671-9.085,4.227-12.468
		c2.082-2.754,15.984-8.261,12.36-13.417c-1.105-1.566-4.033-0.471-5.5-1.91c-1.725-1.683-0.888-3.785,0.386-5.481
		c1.245-1.659,3.217-1.992,5.027-2.695c0.959-0.373,3.267-2.422,4.097-2.43c3.799-0.027,7.561,0.095,10.023,1.003
		c0.131,0.048,0.21,4.283,0.089,4.603c-0.147,0.387-1.986,2.76-2.421,3.122c-1.257,1.021-3.255,0.516-4.696,1.298
		c-0.327,0.177-0.862,1.461-2.002,2.005c-0.926,2.19-1.818,4.386-2.188,6.747c-0.317,2.029,0.582,3.974,0.596,5.992
		c0.017,2.14-0.616,4.132,0.28,6.197c1.253,2.872,1.776,5.961,4.265,8.074c2.773,2.351,6.715,3.941,10.325,4.25
		c3.93,0.333,7.767-1.469,11.57-2.185c2.911-0.549,4.638-2.6,7.206-4.047C781.391,121.474,782.548,115.32,779.56,112.472
		 M713.459,88.427h1.021c0.877,0.438-1.935,1.971-2.014,2.002C712.793,89.771,713.122,89.111,713.459,88.427 M720.281,103.348
		c-0.217,0.398-0.614,0.713-1.322,0.94c-0.93,0.296-2.883-0.006-3.729-0.539c-1.247-0.784-1.353-1.786-1.696-3.229
		c0.678,0.066,1.063-0.364,1.189-0.962c0.517,0.038,5.748,0.711,5.748,0.898C720.471,101.672,720.655,102.642,720.281,103.348
		 M726.494,110.465h-3.021c0.771-2.731,0.248-2.277,3.021-3.008V110.465z"/>
	<path fill-rule="evenodd" clip-rule="evenodd" d="M865.66,119.643c-0.196-1.363-2.472-7.81-3.988-8.158
		c-2.773-0.647-4.776-2.267-7.008-3.018c-3.393-1.136-8.105-0.776-11.683-1.117c-3.418-0.324-7.507,0.005-10.297-1.895
		c1.755-2.44,1.278-6.134,2.594-8.786c0.782-1.563,0.619-0.988,2.236-1.405c0.977-0.248,2.014-0.656,2.299-1.729
		c1.689,0.278,2.71-1.608,3.972-2.367c1.713-1.034,3.414-1.958,5.37-2.425c1.579-0.38,3.047-0.454,4.357-1.561
		c1.348-1.144,1.612-1.541,3.351-2.122c0.813-0.273,1.369-0.95,1.891-1.268c2.131-1.29,3.399-2.143,4.1-4.599
		c0.117-0.409,1.174-4.763,0.837-4.771c-1.121,0-17.052,0.359-17.115,0.083c-1.479-0.403-3.423-0.083-4.93-0.083
		c0,0-0.005-0.652-1.986-1.009c-1.617-0.292-0.591-8.266-0.544-9.355c0.101-2.3,0.222-4.599,0.138-6.899
		c-0.08-2.24-0.57-3.138-1.5-4.985c-0.185-0.367,0.025-0.996-0.18-1.355c-0.528-0.947-1.442-2.408-2.157-3.239
		c-0.059-0.067-0.121-0.132-0.189-0.192c-0.93-0.787-2.995-1.087-4.163-1.409c-3.229-0.893-7.013-1.497-9.442,1.391
		c-1.517,1.804-2.103,5.205-1.374,7.455c0.498,1.531,0.847,3.127,1.337,4.645s1.638,2.614,2.187,4.091
		c0.423,1.144,0.444,2.497,0.562,3.699c0.188,1.955-0.139,5.597,1.299,7.163c0.091,9.051-1.379,5.013-7.012,7.004
		c-1.542,0.545-4.886,1.144-6.129,2.088c-0.775,0.591-0.935,4.925-0.876,4.913c0.661,0,2.668,2.005,3,2.005
		c1.072,1.191,2.659,1.466,3.748,2.56c0.009,0.012,2.153,3.21,2.196,2.519c-0.11,1.82-0.713,4.213-1.601,5.793
		c-0.646,1.151-1.479,1.218-2.255,2.202c-0.414,0.523,0.063,1.454-0.339,2.071c-0.486,0.748-1.428,0.77-1.961,1.684
		c-1.072,1.846-0.443,2.579-2.049,4.113c-1.633,1.563-3.906,2.79-5.743,4.105v4.998c3.154-0.195,5.213-1.5,8.035-2.583
		c2.435-0.934,5.22-0.637,7.192-2.609c1.309-1.312,1.953-2.283,3.782-2.813c0.01-0.316,3.778-0.095,4.122-0.044
		c1.722,0.242,2.112,1.317,3.612,1.968c1.532,0.66,3.275,0.327,4.829,0.982c1.466,0.624,2.568,1.86,3.879,2.731
		c0.797,0.528,1.438,0.35,2.199,1.115c0.712,0.724,0.93,1.794,1.731,2.454c0.861,0.706,1.997,0.706,2.938,1.244
		c1.183,0.679,2.762,2.209,2.82,2.488c0.678,0.249,9.743,1.606,9.835,0.994c0.227-1.574,2.408-1.658,3.269-2.722
		C865.819,122.506,865.861,121.079,865.66,119.643"/>
	<path fill-rule="evenodd" clip-rule="evenodd" d="M988.879,62.394h-6.027v1h-6.996c0-0.333-2.012,0-2.012,0
		c-1.337-0.333-2.68-0.666-4-1c-0.557-0.141,1.067-3.916,1.933-4.112c0.133-3.445,0.74-6.801,1.687-10.112
		c0.21-0.726,1.525-6.774,2.393-6.798c0.317-1.337,1.671-4.01,1.986-4.01c1.39-3.625-0.517-5.347,2.014-8.018
		c-0.247-2.356-0.448-2.473-1.005-3.996c-3.012-0.538-9.685-2.378-14.012-1.003v1.003c-4.68,1.329-9.351,2.665-14.026,3.996
		c-0.472-2.473-0.975-3.663-0.988-7.003c-0.359,0-1.01-0.669-1.01-1.004c-3.811-0.026-7.577,0.09-10.007,1.004
		c0.654,4.009,1.311,8.004,1.986,12.013c-0.381,0.078-4.939,0.769-4.968,0.944c0.222-1.471-1.309-0.906-2.049-1.518
		c-0.349-0.289-1.052-2.437-0.998-2.432c-5.005-0.436-4.867-0.909-9.998,0c0.105,3.31,0.233,4.518,1.993,6.013
		c0.089,3.109,0.49,7.41-1.014,9.014c-1.951,2.08-2.02-3.311-3.493-4.355c-1.101-0.777-1.206-1.012-1.872-2.137
		c-0.28-0.462-0.21-1.043-0.671-1.438c-0.502-0.431-1.072-0.382-1.604-0.901c-0.582-0.565-0.909-1.512-1.354-2.186
		c-0.339,0-2.014-0.661-2.014-1.004c-3.935,0.116-8.089,0.798-10,3.008c-0.344,0-1.671,3.006-2.031,3.006
		c2.274,2.806,4.919,5.464,5.949,9.003c0.213,0.727,0.302,1.798,0.736,2.432c0.549,0.813,1.425,0.933,1.853,1.9
		c0.418,0.968,0.159,2.354,0.159,3.382c0,1.107-0.094,2.197,0.007,3.301c0.121,1.299,1.294,2.971,1.315,4.012
		c0.109,5.216,0.369,3.91,2.012,7.018h7.023c0-0.335,0.654-1.003,0.998-1.003c2.24-3.518-2.22-8.122,2.007-12.031
		c0.841-1.116-0.143-0.142,0.979-0.992c1.901,5.193,1.145,9.66,5.027,13.023c-0.353,1.003-0.675,2.006-1.014,3
		c-3.841,0.689-8.671,2.005-12.01,3h-6.017c-1.084,0.181-2.806,2.005-4.993,1.009c-0.678-1.009-1.353-2.004-2.002-3
		c-0.678,0-2.031-0.668-2.031-1.009c-3.327,0.341-6.656,0.676-9.995,1.009c0.089,3.154,0.067,4.752,0.993,7.003
		c0.131,0.32,0.222,0.625,0.285,0.983c0.285,1.606,0.401,3.248,0.527,4.873c0.07,0.918,0.147,1.833,0.164,2.755
		c0.012,1.028,0.355,1.751,0.614,2.719c0.185,0.685,0.101,1.41,0.327,2.092c0.21,0.624,0.634,1.15,0.888,1.76
		c0.386,0.935,0.691,1.204,1.389,1.897c1.306,1.288,2.864,0.961,4.577,0.951c0.47,0,1.009,0.121,1.266-0.243
		c0.243-0.333,0.176-0.898,0.234-1.284c0.096-0.597,0.264-1.189,0.418-1.775c0.353-1.377,0.771-2.737,1.161-4.104
		c0.364-1.281,0.733-2.565,1.099-3.85c0.111-0.396,0.808-3.725,1.072-3.768c14.689-2.338,29.389-4.677,44.083-7.01
		c0-0.333,2.656-1.668,3.993-2.004c0-0.333,5.685-0.936,8.005-2.998c1.341,0,4.01,0.668,4.01,0.993c0.322,0,0.988,2.005,0.988,3
		c5.512-0.065,7.941-0.5,12.03-1.991c0-0.333,4.001-1.009,6.02-1.009c0-0.325,1.32-0.993,1.997-0.993
		c0.327-0.677,3-2.675,4.01-3.008v-4.009C990.545,65.402,989.209,63.394,988.879,62.394 M939.801,70.412h-5.015
		c-0.269-7.54-0.909-16.386,0-26.041h2.996c0.866,1.133-0.11,0.152,1.025,0.995c-0.349,2.005-0.678,4.01-1.025,6.014h-0.993
		c-2.208,6.203,1.47,13.004,4.005,15.022C940.567,68.77,940.387,68.886,939.801,70.412 M947.811,54.388
		c-1.01,0.335-1.998,0.668-3.012,1.001c0.058-0.016-2.736-3.635-0.998-4.103c0.131-0.515,1.589-5.189,2.012-4.911
		c3.033,2.064,0.423,1.84,1.998,4h1.004C948.572,52.741,948.38,52.854,947.811,54.388 M952.824,67.407
		c0.322-2.674,0.649-5.333,0.993-8.004c2.003-0.612,0.857,0.129,2.003-1.021c2.864,0.06,4.28,0.366,6.002,1.021
		C961.68,65.372,958.42,67.113,952.824,67.407 M964.839,49.292c-0.269,0.082-0.666,0.178-0.956,0.132
		c0.265,1.731-5.103,1.832-5.061,1.957c-0.306-0.922-0.694-1.859-0.867-2.802c0.708-0.219,2.225-3.141,1.881-3.212
		c1.647,0.34,3.327,0.686,5.003,1.009C964.918,46.393,964.855,48.959,964.839,49.292 M965.832,37.361
		c-3.713,0.583-2.276,0.596-5.996,0c-0.354-1-0.682-2.004-1.014-3.008c0.659-0.327,1.337-0.668,2.019-1.001
		c0.495-0.5,0.839-0.992,1.659-0.935c0.236,0.014,3.332,2.401,3.339,2.001C965.832,34.673,965.891,37.351,965.832,37.361"/>
	<path fill-rule="evenodd" clip-rule="evenodd" d="M970.837,104.457c-0.327-0.661-0.688-1.337-0.993-1.997
		c-3.614-2.122-8.662,1.548-14.023,0c0-0.333-2.003-1.018-3.001-1.018c0-0.316-0.682-0.985-1.014-0.985
		c1.002-7.127,8.241-5.638,10.017-12.03c1.57-1.569,2.057-5.68,2.014-9.008c-5.68,0.341-11.355,0.668-17.035,1.017
		c-0.327,0.656-2.334,2-2.995,2c0,0.324-1.342,0.992-2.008,0.992c0,0.343-3.339,1.004-5.009,1.004
		c-0.332,0.66-3.012,2.002-4.01,2.002c-0.329,0.671-5.005,2.673-6.991,2.995c-2.685,1.335-5.357,2.675-8.021,4.011
		c0.607,2.44,1.046,2.208,2.009,4.005h7.998c5.005-3.004,10.008-6.01,15.021-9.019c1.671,0.343,3.346,0.681,5.015,1.003v3.021
		c-3.662,1.991-7.36,3.996-11.021,5.999c-0.012,3.636-0.159,4.591,2.019,6.008c-0.327,1.054-0.729,2.954-1.986,3.181
		c-0.794,0.143-1.596,0.2-2.383,0.335c-0.736,0.119-1.491,0.215-2.211,0.394c-0.864,0.223-1.547,0.769-2.388,1.016
		c-0.733,0.211-1.273,0.314-1.96,0.644c-0.839,0.402-1.769,0.275-2.577,0.655c-0.977,0.46-1.47,1.089-2.601,1.239
		c-0.776,0.098-1.554,0.13-2.325,0.248c-1.626,0.257-3.255,0.511-4.881,0.769c-3.25,0.513-6.5,1.026-9.748,1.539
		c0.114,2.614,0.406,3.397,0.993,5.014c7.397,3.048,28.298,3.545,33.06-2.014c2.844,0.054,4.294,0.354,6.012,1.009
		c-0.201,1.927-0.601,3.833-1.166,5.687c-0.371,1.193-0.465,2.52-0.614,3.756c-0.185,1.596,0.112,3.45-0.327,4.972
		c-0.26,0.896-1.126,1.517-1.283,2.426c-0.07,0.409-0.079,2.055-0.624,2.177c-4.586,1.018-7.217,4.591-12.01,5.02
		c0-0.339-2.014-0.672-2.014-1.009c-1.668-0.317-3.339-0.671-4.993-0.999c0.54,4.291,2.299,4.169,4.005,7.006
		c2.675,0.565,5.327,1.261,8.038,1.627c1.563,0.214,3.138,0.336,4.712,0.381c0.771,0.016,1.605,0.175,2.335-0.15
		c0.614-0.272,1-0.875,1.645-1.112c0.549-0.207,1.136-0.146,1.68-0.417c0.961-0.481,1.533-1.475,2.267-2.218
		c0.797-0.811,1.881-1.381,2.441-2.4c0.55-1.005,0.654-2.201,1.094-3.255c0.507-1.215,1.203-2.338,1.61-3.596
		c0.212-0.677,0.18-1.387,0.212-2.09c0.038-0.612,0.117-0.792,0.265-1.32c0.322-1.179,0.49-2.404,0.616-3.614
		c0.059-0.56-0.03-1.276,0.129-1.802c0.105-0.358,0.458-0.737,0.596-1.125c1.015-2.867,0.075-5.86,0.565-8.819
		c0.397-2.411,1.021-4.834,1.83-7.141c2.002-0.322,4.021-0.668,6.007-1.006c0-0.333,3.327-0.994,5.002-0.994
		c0.344-0.677,0.671-1.336,1.001-2.013c0.675,0,2.007-0.66,2.007-0.999C971.164,105.455,971.164,104.457,970.837,104.457"/>
	<path fill="#91252A" d="M171.003,85.188c0.17,47.216-37.965,85.642-85.187,85.811C38.59,171.174,0.173,133.037,0,85.813
		C-0.173,38.594,37.968,0.171,85.188,0C132.408-0.172,170.83,37.966,171.003,85.188"/>
	<path fill="#FFFFFF" d="M57.374,22.808l0.642,0.531c5.135,4.166,6.869,6.235,9.128,14.412l4.06,12.364
		c0.038,0.176,0.089,0.347,0.148,0.514c0.012,0.035,0.025,0.072,0.042,0.109c0.604,1.543,2.07,2.653,3.812,2.723
		c0.048,0.008,0.108,0.021,0.145,0.019l10.145-0.002l10.147,0.005c0.036,0,0.098-0.013,0.146-0.023
		c1.743-0.068,3.211-1.177,3.812-2.721c0.014-0.039,0.026-0.074,0.037-0.109c0.063-0.165,0.114-0.338,0.149-0.514l4.063-12.366
		c2.259-8.175,3.993-10.244,9.125-14.41l0.641-0.531c1.145-0.769,1.897-2.07,1.897-3.552c0-1.528-0.8-2.865-2.005-3.619
		c-0.156-0.106-0.324-0.206-0.506-0.279c-0.021-0.008-0.042-0.016-0.062-0.023c-0.146-0.063-0.297-0.12-0.458-0.169
		c-6.755-2.583-13.611-4.127-20.421-4.717c-0.999-2.199-3.562-3.769-6.579-3.769c-3.016,0-5.581,1.572-6.58,3.771
		c-6.798,0.591-13.648,2.134-20.394,4.718c-0.157,0.045-0.31,0.102-0.458,0.167c-0.019,0.005-0.04,0.013-0.062,0.021
		c-0.179,0.073-0.346,0.168-0.503,0.279c-1.206,0.754-2.003,2.094-2.006,3.619C55.479,20.732,56.23,22.039,57.374,22.808
		 M61.813,19.183c7.494-2.613,15.09-3.988,23.071-4.081l0.607,0.007l-0.003-0.002l0.003-0.004v0.004l0.012-0.004v0.004h0.605
		c7.976,0.088,15.578,1.463,23.069,4.076c0,0,0.395,0.124,0.395,0.498c0,0.205-0.126,0.38-0.304,0.459l0.002,0.003
		c-7.642,4.786-10.114,16.34-10.114,16.34l-3.443,11.234l-0.017,0.054c-0.222,0.682-0.857,1.179-1.614,1.179l-0.002,0.005
		l-8.576-0.002l-0.006,0.002l-0.008-0.002l-8.575,0.002v-0.005c-0.759,0-1.396-0.498-1.618-1.179l-0.019-0.051l-3.443-11.237
		c0,0-2.47-11.554-10.112-16.34V20.14c-0.179-0.079-0.304-0.254-0.304-0.462C61.418,19.307,61.813,19.183,61.813,19.183"/>
	<path fill="#FFFFFF" d="M10.993,74.832c0.049,1.42,0.807,2.782,2.127,3.547c1.283,0.738,2.79,0.744,4.024,0.132l0.782-0.289
		c6.174-2.358,8.833-2.833,17.041-0.695l12.739,2.665c0.173,0.054,0.346,0.095,0.521,0.125c0.038,0.008,0.073,0.019,0.113,0.021
		c1.64,0.25,3.333-0.468,4.264-1.94c0.032-0.04,0.076-0.083,0.088-0.116l5.073-8.786l5.075-8.786c0.02-0.033,0.038-0.09,0.054-0.139
		c0.813-1.542,0.591-3.369-0.449-4.66c-0.024-0.03-0.049-0.064-0.078-0.09c-0.111-0.135-0.232-0.266-0.369-0.387l-8.678-9.701
		c-5.951-6.038-6.874-8.578-7.915-15.106l-0.141-0.823c-0.091-1.371-0.844-2.678-2.128-3.416c-1.323-0.764-2.878-0.739-4.137-0.074
		c-0.17,0.082-0.34,0.179-0.492,0.301v-0.002c-0.017,0.016-0.035,0.029-0.05,0.042c-0.131,0.095-0.255,0.201-0.374,0.312
		c-5.614,4.561-10.385,9.725-14.298,15.325c-2.404-0.232-5.047,1.201-6.554,3.814c-1.508,2.613-1.431,5.618-0.024,7.582
		c-2.891,6.185-4.974,12.888-6.115,20.024c-0.038,0.157-0.062,0.32-0.081,0.48c-0.002,0.021-0.01,0.043-0.012,0.062h0.002
		C10.975,74.445,10.975,74.638,10.993,74.832 M16.225,72.854c1.485-7.793,4.094-15.063,8.002-22.017l0.31-0.525h-0.003l0.003-0.002
		v-0.005h0.002v-0.003l0.303-0.524c4.065-6.861,9.058-12.759,15.065-17.94c0,0,0.304-0.281,0.627-0.093
		c0.18,0.102,0.271,0.299,0.25,0.489l0.005,0.003c0.323,9.013,9.092,16.926,9.092,16.926l8.007,8.599l0.038,0.046
		c0.479,0.534,0.591,1.332,0.214,1.985l0.005,0.005l-4.291,7.429v0.005l-0.005,0.002l-4.29,7.432l-0.007-0.005
		c-0.375,0.66-1.125,0.959-1.825,0.812l-0.06-0.008l-11.451-2.637c0,0-11.238-3.639-19.205,0.589H17.01
		c-0.16,0.114-0.374,0.13-0.555,0.03C16.132,73.257,16.225,72.854,16.225,72.854"/>
	<path fill="#FFFFFF" d="M62.374,115.188c0.026-0.025,0.054-0.058,0.078-0.087c1.036-1.291,1.26-3.122,0.449-4.663
		c-0.016-0.05-0.036-0.104-0.054-0.137l-5.078-8.781l-5.066-8.793c-0.016-0.031-0.06-0.079-0.092-0.115
		c-0.933-1.469-2.624-2.193-4.263-1.939c-0.041,0.006-0.079,0.011-0.116,0.021c-0.173,0.031-0.346,0.071-0.516,0.127l-12.742,2.665
		c-8.208,2.132-10.87,1.664-17.041-0.697L17.149,92.5c-1.234-0.609-2.742-0.607-4.022,0.132c-1.323,0.767-2.078,2.124-2.132,3.546
		c-0.016,0.189-0.019,0.386,0.013,0.578l-0.005-0.002c0.005,0.021,0.008,0.042,0.014,0.063c0.02,0.163,0.044,0.322,0.084,0.479
		c1.139,7.145,3.23,13.857,6.123,20.047c-1.404,1.964-1.481,4.97,0.029,7.582c1.504,2.615,4.147,4.05,6.551,3.815
		c3.913,5.59,8.676,10.751,14.285,15.301c0.116,0.116,0.243,0.217,0.372,0.312c0.018,0.017,0.033,0.031,0.052,0.046v-0.009
		c0.154,0.127,0.32,0.223,0.496,0.301c1.254,0.666,2.813,0.692,4.133-0.068c1.283-0.739,2.041-2.044,2.129-3.418l0.139-0.819
		c1.041-6.53,1.967-9.072,7.92-15.108l8.678-9.701C62.141,115.454,62.26,115.326,62.374,115.188 M57.931,113.202l-0.038,0.047
		l-8.01,8.597c0,0-8.767,7.915-9.094,16.926v0.003c0.021,0.194-0.067,0.391-0.25,0.496c-0.323,0.183-0.628-0.101-0.628-0.101
		c-6.007-5.183-10.999-11.074-15.064-17.938l-0.304-0.528l-0.003-0.006h-0.002v-0.004l-0.303-0.521
		c-3.911-6.953-6.522-14.226-8.005-22.02c0,0-0.092-0.401,0.235-0.586c0.176-0.105,0.39-0.085,0.547,0.026h0.003
		c7.966,4.225,19.208,0.589,19.208,0.589l11.451-2.635l0.057-0.015c0.7-0.145,1.453,0.159,1.828,0.813l0.008-0.004l4.289,7.434
		l0.002,0.006l4.291,7.429l-0.002,0.005C58.521,111.868,58.41,112.673,57.931,113.202"/>
	<path fill="#FFFFFF" d="M113.632,148.192l-0.645-0.531c-5.132-4.164-6.869-6.234-9.125-14.408l-4.061-12.366
		c-0.04-0.178-0.091-0.346-0.155-0.516c-0.008-0.034-0.021-0.073-0.037-0.11c-0.601-1.544-2.07-2.647-3.812-2.721
		c-0.049-0.009-0.109-0.021-0.146-0.021l-10.145,0.005l-10.145-0.005c-0.038,0-0.097,0.013-0.149,0.023
		c-1.737,0.071-3.211,1.175-3.813,2.719c-0.013,0.037-0.026,0.076-0.037,0.115c-0.06,0.165-0.113,0.333-0.15,0.511l-4.065,12.366
		c-2.253,8.174-3.99,10.244-9.122,14.408l-0.639,0.531c-1.15,0.769-1.902,2.068-1.899,3.548c0,1.532,0.8,2.866,2.008,3.624
		c0.153,0.106,0.32,0.207,0.506,0.278h-0.005c0.021,0.007,0.045,0.019,0.065,0.023c0.147,0.063,0.294,0.121,0.454,0.169
		c6.758,2.579,13.615,4.127,20.421,4.719c1.002,2.198,3.565,3.767,6.583,3.767c3.015,0,5.581-1.571,6.579-3.772
		c6.794-0.592,13.647-2.134,20.396-4.716c0.155-0.045,0.307-0.103,0.457-0.166c0.018-0.005,0.039-0.017,0.062-0.023l-0.003-0.004
		c0.179-0.067,0.349-0.168,0.509-0.279c1.201-0.753,2.004-2.09,2.004-3.619C115.524,150.267,114.773,148.959,113.632,148.192
		 M109.189,151.816c-7.494,2.613-15.09,3.987-23.071,4.077h-0.605l0,0h-0.005h-0.005l0,0h-0.606
		c-7.978-0.09-15.58-1.464-23.071-4.077c0,0-0.395-0.124-0.395-0.496c0-0.206,0.125-0.384,0.301-0.463v-0.005
		c7.642-4.781,10.114-16.337,10.114-16.337l3.443-11.236l0.018-0.049c0.225-0.683,0.86-1.182,1.617-1.182v-0.008l8.579,0.002
		l0.003-0.002l0.007,0.002l8.576-0.002v0.008c0.759,0,1.398,0.499,1.621,1.182l0.019,0.049l3.441,11.236
		c0,0,2.47,11.556,10.111,16.337l0.003,0.005c0.177,0.079,0.301,0.257,0.304,0.463C109.582,151.692,109.189,151.816,109.189,151.816
		"/>
	<path fill="#FFFFFF" d="M160.015,96.17c-0.054-1.42-0.81-2.788-2.134-3.548c-1.28-0.74-2.788-0.743-4.021-0.133l-0.781,0.288
		c-6.176,2.364-8.835,2.832-17.043,0.695l-12.739-2.663c-0.173-0.056-0.347-0.096-0.522-0.127c-0.036-0.011-0.075-0.019-0.114-0.019
		c-1.637-0.254-3.33,0.467-4.261,1.941c-0.035,0.031-0.075,0.082-0.091,0.111l-5.072,8.786l-5.075,8.792
		c-0.02,0.027-0.038,0.088-0.054,0.133c-0.81,1.543-0.587,3.371,0.452,4.662c0.024,0.032,0.049,0.066,0.075,0.088
		c0.111,0.14,0.235,0.266,0.368,0.388l8.683,9.701c5.945,6.042,6.87,8.583,7.914,15.109l0.14,0.818
		c0.09,1.373,0.844,2.679,2.127,3.419c1.321,0.765,2.878,0.739,4.14,0.073c0.168-0.084,0.338-0.178,0.491-0.302v0.006
		c0.017-0.016,0.036-0.031,0.049-0.048c0.133-0.095,0.255-0.194,0.376-0.306c5.617-4.56,10.382-9.727,14.295-15.328
		c2.404,0.235,5.048-1.205,6.555-3.815c1.51-2.614,1.431-5.619,0.024-7.586c2.886-6.177,4.976-12.883,6.114-20.018
		c0.037-0.156,0.065-0.322,0.081-0.479c0.005-0.021,0.01-0.042,0.013-0.068H160C160.029,96.558,160.029,96.362,160.015,96.17
		 M154.778,98.148c-1.486,7.793-4.09,15.059-8.005,22.014l-0.304,0.526v0.006h-0.002h-0.003l-0.299,0.527
		c-4.066,6.864-9.06,12.76-15.065,17.938c0,0-0.307,0.286-0.629,0.096c-0.181-0.1-0.269-0.296-0.248-0.489h-0.008
		c-0.319-9.013-9.089-16.931-9.089-16.931l-8.007-8.597l-0.041-0.045c-0.479-0.531-0.59-1.329-0.211-1.983l-0.007-0.006l4.292-7.434
		l0,0l0.005-0.006l4.285-7.434l0.008,0.005c0.379-0.655,1.128-0.959,1.832-0.813l0.055,0.011l11.451,2.642
		c0,0,11.239,3.636,19.208-0.592h0.002c0.157-0.11,0.368-0.132,0.552-0.031C154.869,97.744,154.778,98.148,154.778,98.148"/>
	<path fill="#FFFFFF" d="M108.628,55.812c-0.025,0.026-0.051,0.057-0.074,0.088c-1.038,1.29-1.262,3.119-0.455,4.661
		c0.02,0.046,0.039,0.109,0.058,0.137l5.075,8.784l5.072,8.79c0.018,0.033,0.057,0.077,0.092,0.116
		c0.927,1.472,2.621,2.192,4.261,1.94c0.04-0.006,0.078-0.012,0.116-0.025c0.173-0.029,0.346-0.07,0.517-0.125l12.741-2.664
		c8.207-2.132,10.867-1.665,17.043,0.695l0.779,0.292c1.237,0.606,2.741,0.606,4.025-0.134c1.321-0.763,2.078-2.124,2.13-3.547
		c0.017-0.188,0.017-0.384-0.011-0.576v0.003c-0.002-0.028-0.008-0.046-0.008-0.065c-0.021-0.166-0.046-0.32-0.084-0.482
		c-1.142-7.142-3.232-13.854-6.126-20.046c1.41-1.964,1.485-4.969-0.025-7.582c-1.508-2.614-4.151-4.05-6.557-3.812
		c-3.906-5.592-8.673-10.754-14.28-15.305c-0.12-0.111-0.245-0.214-0.374-0.312c-0.016-0.014-0.036-0.026-0.052-0.041l-0.003,0.005
		c-0.149-0.125-0.317-0.221-0.492-0.303c-1.255-0.666-2.814-0.689-4.136,0.07c-1.282,0.741-2.034,2.046-2.126,3.419l-0.137,0.819
		c-1.042,6.528-1.964,9.068-7.922,15.11l-8.676,9.701C108.866,55.543,108.741,55.676,108.628,55.812 M113.073,57.797l0.037-0.043
		l8.01-8.6c0,0,8.771-7.914,9.093-16.927l0.003-0.003c-0.023-0.191,0.07-0.387,0.248-0.492c0.323-0.184,0.627,0.095,0.627,0.095
		c6.009,5.184,10.997,11.074,15.066,17.941l0.3,0.528v-0.002h0.005v0.005l0.003,0.002l-0.003,0.003h0.003l0.302,0.524
		c3.913,6.952,6.52,14.222,8.002,22.019c0,0,0.095,0.402-0.229,0.586c-0.178,0.105-0.395,0.084-0.551-0.029v0.002
		c-7.97-4.226-19.205-0.588-19.205-0.588l-11.458,2.633l-0.054,0.014c-0.703,0.149-1.449-0.154-1.828-0.809l-0.008,0.002
		l-4.288-7.432l-0.005-0.008l-4.291-7.429l0.005-0.003C112.482,59.13,112.593,58.33,113.073,57.797"/>
	<path fill="#FFFFFF" d="M110.603,87.849h-0.937h-2.256h-7.288v3.613h6.324h0.703l-0.213,0.666
		c-2.994,9.375-11.608,15.671-21.434,15.671c-9.828,0-18.444-6.296-21.438-15.671l-0.211-0.666h0.704h6.322v-3.613h-7.288h-2.25
		h-0.945c-0.698,0.013-1.262,0.583-1.262,1.28c0,0.021,0.004,0.056,0.007,0.085c0.878,5.949,3.746,11.423,8.19,15.57
		c4.948,4.612,11.399,7.151,18.171,7.151c6.765,0,13.218-2.539,18.167-7.151c4.438-4.143,7.3-9.601,8.185-15.539
		c0.005-0.042,0.008-0.084,0.008-0.116C111.863,88.432,111.3,87.861,110.603,87.849"/>
	<path fill="#FFFFFF" d="M111.862,81.421c0-0.033-0.003-0.076-0.005-0.119c-0.888-5.941-3.749-11.4-8.188-15.539
		c-4.145-3.862-9.35-6.268-14.912-6.946v4.166c8.435,1.219,15.523,7.115,18.179,15.43l0.214,0.671h-0.701h-6.325V82.7h7.287h2.254
		h0.939C111.299,82.687,111.862,82.122,111.862,81.421"/>
	<path fill="#FFFFFF" d="M60.395,82.7h0.946h2.248h7.292v-3.614h-6.326h-0.7l0.211-0.671c2.653-8.307,9.727-14.194,18.144-15.424
		v-4.169c-5.547,0.682-10.738,3.083-14.876,6.941c-4.447,4.147-7.313,9.619-8.195,15.571c-0.002,0.03-0.002,0.062-0.002,0.087
		C59.136,82.122,59.696,82.687,60.395,82.7"/>
	<path fill="#FFFFFF" d="M76.21,99.944v2.497c5.57-1.443,8.245-4.493,9.538-7.12c1.285,2.61,3.939,5.633,9.434,7.086v-2.494
		c-6.394-1.923-7.819-6.246-8.141-8.184h0.179h7.502v-2.463h-7.743v-0.105v-3.298h-2.408v1.084v2.214v0.105h-8.15v2.463h7.845h0.184
		C84.117,93.671,82.653,98.045,76.21,99.944"/>
	<path fill="#FFFFFF" d="M88.51,70.67h-3.583c-0.263,0-0.474,0.212-0.474,0.475l0.012,10.76l2.076,0.009v-9.612h2.008v11.809h2.212
		V72.302l2.086-0.003v9.609h2.01V71.145c0-0.263-0.216-0.475-0.477-0.475h-3.586v-1.668h4.455v-1.675H83.81v1.675h4.701V70.67z"/>
	<path fill="#FFFFFF" d="M79.033,69.838c0.96-0.883,1.237-2.475,1.237-2.475h-2.143c0,0-0.166,1.592-0.849,2.495h-0.696
		c-0.264,0-0.476,0.208-0.476,0.473v12.982c0,0.266,0.211,0.474,0.476,0.474h5.611c0.266,0,0.476-0.208,0.476-0.474v-5.364
		c0-0.266-0.209-0.475-0.476-0.475l-4.074-0.003v-1.726h4.074c0.266,0,0.476-0.214,0.476-0.473l-0.005-4.961
		c0-0.263-0.212-0.474-0.475-0.474L79.033,69.838z M80.721,82.177h-2.603v-2.762h2.603V82.177z M80.721,73.834h-2.603v-2.213h2.603
		V73.834z"/>
</g>
</svg>
