<?xml version="1.0" encoding="utf-8"?>
<!-- Generator: Adobe Illustrator 16.0.0, SVG Export Plug-In . SVG Version: 6.00 Build 0)  -->
<!DOCTYPE svg PUBLIC "-//W3C//DTD SVG 1.1//EN" "http://www.w3.org/Graphics/SVG/1.1/DTD/svg11.dtd">
<svg version="1.1" id="圖層_1" xmlns="http://www.w3.org/2000/svg" xmlns:xlink="http://www.w3.org/1999/xlink" x="0px" y="0px"
	 width="390.842px" height="175.007px" viewBox="104.579 0 390.842 175.007" enable-background="new 104.579 0 390.842 175.007"
	 xml:space="preserve">
<g>
	<g>
		<polygon fill="#FFFFFF" points="256.544,26.584 265.876,24.826 312.347,7.19 322.741,7.594 322.994,13.347 333.166,15.195 
			333.371,19.796 343.701,22.88 265.868,39.185 		"/>
		<path fill="#00A6E4" d="M263.455,33.99l-6.912-7.405l-0.151,11.08c-0.062,0.317-0.096,0.688-0.096,1.127v81.233
			c0,4.905,3.947,8.888,8.811,8.888h69.779c4.865,0,8.814-3.982,8.814-8.888V44.609v-5.817V22.88
			C301.725,23.868,263.455,33.99,263.455,33.99z"/>
		<path fill="#00A6E4" d="M265.876,24.826L312.347,7.19l-0.318-7.187C312.029,0.003,283.385,16.839,265.876,24.826z"/>
		<path fill="#84C4EC" d="M271.415,26.307c0,0,47.565-12.496,51.579-12.96l-0.253-5.753
			C322.741,7.594,279.641,23.347,271.415,26.307z"/>
		<path fill="#A8D0EF" d="M275.269,28.729c0,0,50.009-9.436,58.102-8.933l-0.205-4.602
			C333.166,15.195,280.645,26.473,275.269,28.729z"/>
		<path fill="#DFC44A" d="M265.819,53.904c-0.337-1.553,0.979-2.923,1.02-3.312c0.136-1.343,1.127-2.477,2.221-3.326
			c1.971-1.53,3.898-3.131,5.806-4.713c1.295-1.085,2.508-2.688,4.12-2.915c0.359-0.045,0.888-0.02,1.226-0.153
			c0.654-0.265,1.174-1.117,1.742-1.54c0.748-0.559,1.258-0.617,2.129-0.78c1.464-0.28,3.086-0.701,4.502-1.201
			c1.54-0.543,3.036-0.983,4.663-1.372c1.729-0.411,3.467-0.285,5.206-0.319c2.317-0.045,4.595-0.335,6.907-0.303
			c1.105,0.013,2.192,0.05,3.279,0.258c1.869,0.362,3.486,1.588,5.426,1.956c1.081,0.206,2.185,0.369,3.278,0.6
			c0.643,0.132,1.341,0.151,1.905,0.522c0.688,0.461,1.328,0.991,2.033,1.472c1.736,1.184,2.994,2.954,4.629,4.314
			c1.057,0.876,2.533,1.434,3.529,2.243c0.666,0.543,1.218,1.125,2.032,1.548c0.828,0.426,1.943,0.592,2.638,1.288
			c0.673,0.671,1.171,1.775,1.691,2.563c0.375,0.571,0.767,1.035,1.07,1.609c0.309,0.574,0.467,1.156,0.735,1.738
			c0.464,1.022,0.872,1.435,0.3,2.222c-0.495,0.693-0.214,0.745,0.387,1.711c0.417,0.684,0.369,1.245,0.619,1.991
			c0.374,1.117,1.164,2.163,1.506,3.255c0.34,1.087,0.387,2.372,0.577,3.491c0.299,1.766,0.958,3.633,1.03,5.374
			c0.012,0.384,0.109,1.016-0.015,1.345c-0.179,0.498-0.761,0.783-0.999,1.283c-0.463,0.988-0.935,2.514-1.813,3.197
			c-0.49,0.381-0.664,0.057-1.412,0.049c-0.639-0.007-1.005,0.221-1.154,0.87c-0.241,1.072,0.077,2.414-0.01,3.539
			c-0.113,1.483-1.015,2.944-2.137,3.764c-0.584,0.426-1.359,0.437-1.888,0.917c-0.633,0.571-1.049,1.358-1.797,1.822
			c-0.905,0.555-1.967,0.977-3.007,1.403c-0.696,0.275-1.391,0.712-2.196,0.769c-0.607,0.039-1.254-0.148-1.878-0.134
			c-1.85,0.052-3.217,0.85-5.216,0.386c-0.604-0.146-1.325-0.487-1.808-0.876c-1.053-0.859-0.753-1.65-1.005-2.739
			c-0.329-1.448-1.227-3.165-2.064-4.336c-1.409-1.957,0.336-3.606,0.472-5.511c0.161-2.241-1.904-3.455-3.026-5.188
			c-0.403-0.621-0.938-1.726-0.948-2.477c-0.005-0.631,0.648-0.863,0.597-1.496c-0.102-1.379-2.073-0.896-2.876-1.274
			c-0.458-0.218-0.766-0.964-1.106-1.365c-0.487-0.566-1.074-1.114-1.674-1.567c-0.706-0.532-1.493-0.766-2.283-1.145
			c-0.498-0.237-1.014-0.45-1.605-0.314c-0.802,0.187-1.76,1.229-2.454,1.714c-0.917,0.642-1.795,1.34-2.669,2.048
			c-0.577,0.458-1.131,1.068-1.497,1.705c-0.316,0.549-0.406,1.334-0.929,1.745c-1.701,1.34-1.013-1.31-1.272-2.006
			c-0.21-0.555-0.75-0.26-1.253-0.706c-0.498-0.436-0.555-1.384-1.031-1.801c-0.057-0.094-0.116-0.19-0.178-0.284
			c-0.688,0.139-1.22,1.488-1.592,2.056c-0.367,0.55-0.84,1.216-1.399,1.617c-0.518,0.381-1.103,0.515-1.667,0.844
			c-0.656,0.389-0.765,0.771-1.179,1.439c-0.687,1.097-1.483,0.406-2.447,1.018c-0.471,0.3-0.532,0.726-1.089,0.927
			c-0.642,0.228-1.298-0.134-1.871-0.28c-1.206-0.308-2.402-0.146-3.707,0.109c-1.739,0.347-2.821,0.376-4.451-0.06
			c-1.201-0.313-2.375-0.261-3.665-0.342c-1.949-0.117-2.62-2.17-2.616-3.973c0.005-1.084,0.007-2.149-0.083-3.207
			c-0.07-0.879-0.372-1.716-0.387-2.601c0.002,0.005-0.602-1.451,1.417-3.235c2.019-1.772,0.537-0.255-0.133-1.299
			C264.65,57.896,266.207,55.645,265.819,53.904z"/>
		<g>
			<path fill="#00A6E4" d="M301.436,33.566l-2.994,0.151l-1.154,0.005c-1.359-0.005-2.766-0.005-4.171,0.333
				c-1.664,0.395-3.165,0.835-4.715,1.383c-1.315,0.466-2.886,0.887-4.422,1.182l-0.212,0.037c-0.76,0.139-1.359,0.255-2.147,0.845
				l-0.74,0.708c-0.296,0.317-0.6,0.646-0.877,0.761c0.003,0-0.646,0.081-0.646,0.081l-0.445,0.042
				c-1.381,0.188-2.432,1.191-3.453,2.163l-0.951,0.869l-5.79,4.7c-1.48,1.146-2.295,2.396-2.429,3.712
				c0.006-0.057-0.198,0.31-0.198,0.31c-0.342,0.577-0.882,1.477-0.882,2.528c0,0.211,0.022,0.424,0.069,0.649l0,0
				c0.035,0.151,0.05,0.312,0.05,0.479c0,0.737-0.297,1.577-0.545,2.274c-0.203,0.585-0.375,1.059-0.375,1.457
				c0,0.201,0.045,0.384,0.153,0.545c0.111,0.178,0.269,0.297,0.428,0.403c-0.084,0.071-0.196,0.171-0.196,0.171
				c-1.383,1.224-1.681,2.338-1.681,3.068c0,0.288,0.042,0.51,0.086,0.662c0.016,0.123,0.201,1.478,0.201,1.478l0.178,1.095
				c0,0.003,0.082,3.17,0.082,3.176c0,2.624,1.23,4.396,3.135,4.517l1.01,0.042c0.887,0.035,1.726,0.06,2.552,0.28
				c1.634,0.434,2.775,0.448,4.697,0.066c1.367-0.272,2.422-0.384,3.46-0.12l0.391,0.12c0.505,0.174,1.136,0.387,1.805,0.146
				c0.461-0.166,0.691-0.443,0.877-0.669l0.322-0.31c0.285-0.181,0.556-0.203,0.869-0.228c0.51-0.032,1.203-0.09,1.749-0.969
				l0.23-0.387c0.244-0.42,0.364-0.631,0.762-0.864l0.675-0.326l1.038-0.548c0.632-0.458,1.152-1.18,1.535-1.763l0.335-0.577
				c0.136-0.256,0.406-0.743,0.645-1.025c0.118,0.136,0.217,0.369,0.317,0.611c0.151,0.385,0.323,0.82,0.673,1.132
				c0.335,0.295,0.683,0.369,0.919,0.424l0.188,0.049c0.024,0.09,0.03,0.317,0.03,0.533c0,0.071-0.003,0.354-0.003,0.431
				c0,0.696,0.049,1.422,0.614,1.696c0.543,0.266,1.11-0.102,1.49-0.398c0.461-0.366,0.655-0.887,0.826-1.347l0.237-0.56
				c0.312-0.541,0.81-1.107,1.367-1.551l2.641-2.023l0.76-0.614c0.483-0.406,1.082-0.916,1.503-1.013
				c0.406-0.095,0.787,0.06,1.236,0.274l0.729,0.322c0.527,0.223,1.021,0.431,1.46,0.763c0.567,0.429,1.134,0.959,1.587,1.488
				l0.292,0.432c0.263,0.403,0.553,0.859,0.999,1.069c0.349,0.166,0.779,0.202,1.228,0.24c1.043,0.092,1.309,0.205,1.333,0.577
				c0.002,0.008,0.002,0.015,0.002,0.024c0,0.097-0.052,0.179-0.187,0.369c-0.178,0.237-0.419,0.564-0.419,1.051
				c0,0.009,0,0.009,0,0.015c0.011,0.938,0.655,2.188,1.041,2.775l1.27,1.57c0.893,0.998,1.675,1.865,1.675,3.07
				c0,0.067-0.002,0.135-0.007,0.204c-0.042,0.571-0.253,1.139-0.479,1.735c-0.26,0.688-0.537,1.424-0.537,2.212
				c0,0.612,0.171,1.256,0.651,1.929c0.698,0.969,1.632,2.64,1.972,4.131l0.113,0.775c0.067,0.74,0.144,1.505,1.082,2.271
				c0.541,0.441,1.338,0.822,2.029,0.983c1.361,0.322,2.451,0.103,3.504-0.106c0.617-0.123,1.204-0.245,1.854-0.258l0.815,0.061
				l1.084,0.072c0.696-0.048,1.304-0.325,1.836-0.578l0.532-0.229c0.002-0.003,0.123-0.055,0.123-0.055
				c1.013-0.412,2.059-0.838,2.965-1.39c0.529-0.327,0.898-0.771,1.251-1.196l0.631-0.69c0.198-0.179,0.476-0.277,0.795-0.39
				l1.046-0.492c1.317-0.956,2.24-2.596,2.361-4.168l-0.028-1.583c-0.05-0.684-0.095-1.335,0.028-1.875
				c0.075-0.344,0.167-0.445,0.605-0.438l0.521,0.074c0.321,0.071,0.723,0.163,1.242-0.24c0.793-0.622,1.259-1.724,1.665-2.695
				l0.31-0.705l0.383-0.458c0.229-0.229,0.496-0.491,0.638-0.867c0.072-0.198,0.096-0.423,0.096-0.661
				c0-0.203-0.015-0.414-0.034-0.606l-0.02-0.295c-0.048-1.145-0.333-2.328-0.609-3.47l-0.429-1.974l-0.156-1.151
				c-0.101-0.808-0.198-1.645-0.44-2.415c-0.188-0.606-0.5-1.185-0.796-1.743l-0.713-1.521l-0.17-0.697
				c-0.093-0.438-0.186-0.892-0.506-1.405l-0.335-0.51c0,0-0.217-0.352-0.222-0.357c0.021,0,0.158-0.227,0.158-0.227
				c0.274-0.385,0.377-0.729,0.377-1.051c0-0.448-0.204-0.85-0.406-1.273l-0.224-0.457l-0.28-0.688l-0.467-1.08l-0.704-1.092
				l-0.392-0.558l-0.49-0.819c-0.378-0.654-0.768-1.33-1.271-1.833c-0.542-0.54-1.266-0.805-1.907-1.032l-0.874-0.359
				c-0.535-0.277-0.955-0.64-1.396-1.025l-0.539-0.456c-0.523-0.425-1.161-0.782-1.769-1.125c-0.614-0.344-1.251-0.7-1.754-1.118
				c-0.678-0.564-1.308-1.219-1.915-1.853c-0.844-0.875-1.711-1.78-2.748-2.489c-0.003-0.003-0.966-0.696-0.966-0.696l-1.082-0.779
				c-0.53-0.347-1.127-0.443-1.652-0.527l-0.448-0.082l-1.964-0.361l-1.324-0.238c-0.917-0.176-1.756-0.552-2.641-0.95
				c-0.882-0.401-1.793-0.811-2.781-1.001c-1.144-0.223-2.298-0.255-3.376-0.27C304.039,33.395,302.717,33.482,301.436,33.566z
				 M298.465,34.827l3.041-0.153c1.261-0.082,2.563-0.166,3.851-0.149c1.03,0.016,2.123,0.045,3.181,0.251
				c0.855,0.166,1.671,0.534,2.533,0.921c0.908,0.41,1.843,0.834,2.888,1.03l1.345,0.243l1.927,0.354c0.003,0,0.5,0.089,0.5,0.089
				c0.458,0.075,0.887,0.144,1.216,0.365l1.033,0.737l0.995,0.724c0.946,0.644,1.736,1.47,2.578,2.342
				c0.63,0.656,1.283,1.338,2.009,1.938c0.582,0.48,1.255,0.863,1.917,1.23c0.6,0.337,1.164,0.653,1.612,1.021
				c0.002,0.002,0.508,0.431,0.508,0.431c0.475,0.413,0.963,0.839,1.618,1.179c0,0.002,1.005,0.411,1.005,0.411
				c0.586,0.211,1.136,0.409,1.505,0.774c0.394,0.404,0.746,1.012,1.087,1.604l0.527,0.876l0.414,0.593l0.634,0.971l0.406,0.945
				l0.307,0.763l0.239,0.49c0.347,0.704,0.383,0.808,0.12,1.177c-0.592,0.825-0.366,1.243,0.054,1.862l0.306,0.466
				c0.214,0.347,0.28,0.653,0.361,1.045l0.205,0.827c0,0.003,0.785,1.689,0.785,1.689c0.288,0.537,0.56,1.047,0.719,1.555
				c0.208,0.672,0.302,1.457,0.395,2.212l0.163,1.206l0.447,2.049c0.261,1.091,0.536,2.221,0.572,3.259l0.025,0.334
				c0.02,0.228,0.057,0.656,0.002,0.789c-0.049,0.147-0.212,0.303-0.377,0.464l-0.604,0.78l-0.327,0.746
				c-0.352,0.844-0.76,1.805-1.327,2.245c0,0.003-0.11,0.07-0.11,0.07l-0.198-0.033l-0.757-0.102
				c-0.934-0.012-1.498,0.429-1.701,1.301c-0.155,0.698-0.107,1.461-0.054,2.199l0.029,1.419c-0.092,1.248-0.859,2.595-1.907,3.358
				l-0.751,0.342c-0.381,0.131-0.814,0.282-1.184,0.614l-0.735,0.802c-0.309,0.377-0.604,0.728-0.979,0.961
				c-0.828,0.506-1.83,0.911-2.799,1.308l-0.125,0.052c0.006-0.003-0.579,0.253-0.579,0.253c-0.489,0.23-0.956,0.441-1.443,0.473
				l-0.87-0.059l-0.985-0.069c-0.748,0.02-1.407,0.148-2.045,0.274c-0.979,0.195-1.904,0.379-3.031,0.121
				c-0.533-0.128-1.169-0.434-1.585-0.768c-0.577-0.476-0.614-0.867-0.679-1.513l-0.134-0.921c-0.376-1.655-1.396-3.473-2.149-4.532
				c-0.756-1.045-0.412-1.949,0.017-3.099c0.248-0.646,0.5-1.313,0.548-2.051c0.132-1.78-0.924-2.957-1.944-4.091l-1.168-1.435
				c-0.41-0.636-0.854-1.619-0.857-2.186c0-0.109,0.054-0.201,0.198-0.399c0.186-0.253,0.439-0.602,0.401-1.127
				c-0.104-1.407-1.507-1.53-2.346-1.603c-0.332-0.029-0.679-0.057-0.848-0.136c-0.155-0.075-0.374-0.414-0.532-0.664l-0.391-0.557
				c-0.516-0.597-1.122-1.169-1.764-1.652c-0.542-0.418-1.129-0.664-1.699-0.901l-0.687-0.305c-0.577-0.271-1.207-0.525-1.955-0.348
				c-0.687,0.157-1.37,0.736-1.972,1.249l-0.679,0.548l-2.704,2.067c-0.669,0.535-1.249,1.199-1.635,1.865l-0.314,0.728
				c-0.129,0.354-0.255,0.687-0.469,0.854c-0.125,0.1-0.198,0.142-0.265,0.179c-0.03-0.169-0.042-0.406-0.042-0.627
				c0-0.066,0-0.342,0-0.413c0-0.35-0.016-0.654-0.102-0.897c-0.223-0.596-0.702-0.695-0.993-0.76
				c-0.19-0.044-0.302-0.074-0.412-0.173c-0.151-0.132-0.27-0.427-0.384-0.709c-0.148-0.374-0.314-0.797-0.649-1.089
				c0.04,0.034,0.085,0.089,0.115,0.136l-0.171-0.268c-0.12-0.198-0.37-0.327-0.599-0.284c-0.771,0.158-1.269,1.067-1.666,1.798
				l-0.286,0.496c-0.331,0.504-0.776,1.123-1.259,1.478l-0.825,0.426l-0.799,0.392c-0.645,0.378-0.884,0.79-1.154,1.263
				l-0.216,0.359c-0.248,0.4-0.436,0.413-0.892,0.448c-0.383,0.027-0.859,0.066-1.376,0.396l-0.58,0.537
				c-0.155,0.186-0.231,0.267-0.4,0.332c-0.304,0.106-0.678-0.018-1.075-0.154l-0.47-0.144c-1.38-0.349-2.707-0.139-3.955,0.109
				c-1.749,0.347-2.729,0.334-4.194-0.058c-0.946-0.247-1.847-0.279-2.796-0.313l-0.98-0.04c-2.001-0.126-2.095-2.873-2.095-3.42
				l-0.084-3.255l-0.193-1.223l-0.188-1.337c-0.01-0.043-0.03-0.162-0.04-0.198c-0.02-0.048-0.394-1.155,1.264-2.618l0.628-0.545
				c0.465-0.396,0.719-0.614,0.533-1.021c-0.084-0.178-0.274-0.381-0.708-0.314c-0.285,0.042-0.392,0.014-0.488-0.134
				c0.01-0.092,0.203-0.63,0.342-1.03c0.347-0.988,0.782-2.219,0.532-3.361l0,0c-0.198-0.903,0.33-1.784,0.678-2.367l0.35-0.77
				c0.127-1.246,1.162-2.286,2.009-2.944l5.817-4.726l1.011-0.919c0.886-0.848,1.805-1.727,2.831-1.865l0.361-0.026l0.99-0.166
				c0.518-0.206,0.921-0.646,1.283-1.036l0.586-0.572c0.584-0.435,0.976-0.51,1.692-0.643l0.214-0.041
				c1.59-0.304,3.217-0.739,4.581-1.218c1.52-0.54,2.979-0.973,4.603-1.357c1.281-0.304,2.559-0.304,3.911-0.299L298.465,34.827z"/>
			<path fill="#00A6E4" d="M282.272,48.014c-4.916,0.903-8.86,5.865-8.268,10.406c0.158,1.219,0.482,2.374,0.796,3.495
				c0.499,1.779,0.971,3.462,0.845,5.391c-0.163,2.509-1.577,3.515-3.529,4.908l-1.222,0.889l0.449,0.591l1.202-0.877
				c1.958-1.399,3.656-2.603,3.835-5.463c0.134-2.059-0.371-3.879-0.867-5.64c-0.31-1.093-0.624-2.224-0.773-3.388
				c-0.546-4.178,3.108-8.747,7.671-9.585c1.77-0.361,4.759-0.521,5.779,0.496c0.325,0.322,0.426,0.75,0.315,1.31l0.725,0.146
				c0.167-0.81-0.009-1.479-0.515-1.981C287.063,47.061,282.469,47.974,282.272,48.014z"/>
			<path fill="#00A6E4" d="M284.982,44.938c-0.589,1.03-0.75,2.13-0.442,3.108l0.708-0.22c-0.314-0.996,0.034-1.918,0.379-2.517
				c0.673-1.175,1.924-2.115,3.188-2.404l-0.166-0.724C287.192,42.515,285.757,43.596,284.982,44.938z"/>
			<path fill="#00A6E4" d="M281.941,64.673l0.192,0.343c0.954,1.678,2.72,4.804,4.719,4.576l-0.082-0.735
				c-1.514,0.171-3.249-2.897-3.993-4.208l-0.196-0.344c-1.661-2.878-1.976-5.401-1.971-9.06h-0.739
				C279.868,59.033,280.198,61.656,281.941,64.673z"/>
			<path fill="#00A6E4" d="M293.482,45.31c1.006,0.629,1.586,1.736,1.632,3.105c0.056,1.801-0.845,3.685-2.245,4.698
				c-1.972,1.424-5.114,0.604-7.387-0.639l-0.356,0.65c2.476,1.352,5.927,2.209,8.174,0.585c1.618-1.164,2.624-3.25,2.554-5.315
				c-0.052-1.627-0.757-2.944-1.979-3.714L293.482,45.31z"/>
			<path fill="#00A6E4" d="M292.639,53.917c0.174,0.009,0.753,0.309,0.84,0.467c0.223,0.402,0.144,1.154-0.075,1.561
				c-0.409,0.766-1.201,1.056-2.033,1.362l-1.273,0.563c-1.795,1.047-3.197,3.016-3.557,5.01c-0.321,1.741-0.109,3.076,0.623,3.968
				c0.297,0.358,0.56,0.487,0.814,0.613l0.653,0.411l0.475-0.569l-0.804-0.51c-0.227-0.109-0.374-0.182-0.565-0.416
				c-0.591-0.714-0.75-1.848-0.467-3.364c0.321-1.765,1.606-3.575,3.202-4.507c0.004-0.002,1.155-0.503,1.155-0.503
				c0.886-0.323,1.892-0.695,2.431-1.708c0.314-0.585,0.43-1.62,0.069-2.269c-0.21-0.377-0.555-0.592-0.978-0.619L292.639,53.917z"
				/>
			<path fill="#00A6E4" d="M268.36,47.532c0.317,0.589,0.562,1.414,0.82,2.29c0.56,1.862,1.191,3.973,2.796,4.829
				c0.867,0.466,1.942,0.503,3.189,0.119l-0.216-0.708c-1.069,0.33-1.928,0.313-2.625-0.064c-1.333-0.713-1.922-2.665-2.432-4.391
				c-0.273-0.911-0.53-1.769-0.881-2.425L268.36,47.532z"/>
			<path fill="#00A6E4" d="M271.567,63.586c0.028,0.805-0.356,1.506-1.147,2.08c-1.77,1.285-5.062,1.525-6.332,1.053l-0.26,0.696
				c1.437,0.532,4.968,0.344,7.026-1.149c0.992-0.718,1.492-1.651,1.448-2.709L271.567,63.586z"/>
			<path fill="#00A6E4" d="M268.736,66.74l0.708-0.219c-0.889-2.897-0.383-8.316,2.45-10.564l-0.463-0.58
				C268.236,57.916,267.804,63.706,268.736,66.74z"/>
			<path fill="#00A6E4" d="M297.02,40.29c0.095,1.888,1.399,3.32,2.67,4.706c0.69,0.757,1.403,1.538,1.879,2.364
				c0.005,0,0.055,0.094,0.055,0.094c0.857,1.481,1.743,3.013,2.198,4.634c0.406,1.462,0.385,2.915,0.366,4.456l-0.012,1.268
				c0.012,1.756-0.398,4.76-1.996,4.866l0.05,0.741c2.588-0.179,2.692-4.705,2.688-5.61l0.01-1.255
				c0.02-1.521,0.047-3.101-0.396-4.663c-0.474-1.712-1.383-3.286-2.263-4.808l-0.059-0.094c-0.514-0.895-1.261-1.709-1.974-2.491
				c-1.236-1.35-2.401-2.62-2.474-4.245c-0.092-1.764,1.072-4.874,2.218-5.938l-0.505-0.542
				C298.046,35.104,296.931,38.467,297.02,40.29z"/>
			<path fill="#00A6E4" d="M297.115,40.352l0.552,0.487c1.387-1.57,4.743-3.536,6.845-3.049c0.876,0.203,1.443,0.803,1.728,1.833
				l0.172,1.117c0.105,0.993,0.218,2.117,1.54,2.826c0.876,0.475,2.293,0.292,3.324,0.058c2.389-0.544,2.771-2.034,3.249-3.919
				l-0.721-0.187c-0.481,1.896-0.746,2.94-2.694,3.384c-1.284,0.292-2.282,0.295-2.807,0.015c-0.979-0.525-1.05-1.285-1.148-2.254
				l-0.203-1.235c-0.352-1.281-1.138-2.096-2.271-2.36C302.181,36.491,298.62,38.643,297.115,40.352z"/>
			<path fill="#00A6E4" d="M307.885,55.115c-0.831,0.347-1.629,0.321-2.551,0.294l-0.641-0.015l-0.008,0.741l0.627,0.015
				c0.961,0.029,1.877,0.057,2.855-0.352c1.904-0.801,4.034-3.203,4.047-5.374l-0.743-0.008
				C311.462,52.251,309.568,54.407,307.885,55.115z"/>
			<path fill="#00A6E4" d="M312.068,50.802c2.484,0.339,4.403-0.436,5.711-2.305l-0.607-0.427c-1.136,1.622-2.82,2.296-5,1.994
				c-1.5-0.209-3.652-1.764-3.537-3.479l-0.739-0.05C307.752,48.727,310.312,50.552,312.068,50.802z"/>
			<path fill="#00A6E4" d="M295.423,61.382c0.341,1.806,1.313,3.769,2.64,3.821l0.33-0.698c-0.995-0.033-1.905-1.484-2.239-3.259
				c-0.277-1.449-0.161-3.076,0.701-3.45l-0.302-0.682C295.238,57.69,295.106,59.696,295.423,61.382z"/>
			<path fill="#00A6E4" d="M320.256,38.517l-0.139,5.21c0.096,2.397,1.038,3.597,2.476,5.411l0.221,0.282
				c1.474,1.885,2.695,5.377,2.175,7.962c-0.243,1.209-0.83,2.083-1.756,2.602c-0.892,0.502-2.17,0.305-3.405,0.118l-1.381-0.171
				c-2.373-0.176-3.924,0.367-5.348,1.872c-0.538,0.567-1.117,1.035-1.685,1.491c-1.575,1.268-3.058,2.462-1.974,4.943l0.679-0.298
				c-0.857-1.956,0.187-2.796,1.76-4.068c0.556-0.446,1.189-0.956,1.757-1.561c1.271-1.339,2.605-1.801,4.758-1.645l1.319,0.166
				c1.298,0.201,2.77,0.424,3.884-0.204c1.103-0.617,1.834-1.692,2.119-3.102c0.577-2.897-0.765-6.575-2.322-8.566l-0.224-0.277
				c-1.387-1.766-2.227-2.828-2.308-4.981l0.134-5.213L320.256,38.517z"/>
			<path fill="#00A6E4" d="M325.641,57.366c5.691,0.753,9.587,4.958,9.476,10.223l0.738,0.016
				c0.122-5.657-4.037-10.169-10.121-10.979L325.641,57.366z"/>
			<path fill="#00A6E4" d="M333.139,69.174c-0.321,0.661-0.657,1.345-1.291,1.906l0.493,0.558c0.742-0.664,1.126-1.449,1.463-2.141
				c0.595-1.223,0.986-2.03,2.947-1.805c1.429,0.173,1.769,0.411,2.422,1.703l0.327,0.778c0.417,1.074,0.988,2.543,2.481,2.481
				l-0.028-0.74c-0.896,0.034-1.296-0.81-1.763-2.009l-0.354-0.845c-0.77-1.51-1.327-1.904-3.001-2.107
				C334.351,66.675,333.74,67.948,333.139,69.174z"/>
			<path fill="#00A6E4" d="M316.449,60.731c1.896,0.265,2.851,1.092,3.871,1.838l0.292,0.216c2.761,2.011,3.088,3.96,2.731,6.853
				c-0.206,1.677-0.617,3.591-2.098,5.088l-0.926,0.828c-0.711,0.595-1.38,1.156-1.818,2.348c-0.542,1.469-2.456,9.728-0.5,12.63
				c0.438,0.654,1.045,0.995,1.791,1.021l0.121-0.629c-0.505-0.018-0.996-0.352-1.298-0.805c-1.68-2.494-0.027-10.317,0.58-11.959
				c0.372-1.008,0.913-1.465,1.599-2.038l0.979-0.877c1.635-1.654,2.081-3.718,2.309-5.516c0.376-3.023-0.006-5.339-3.029-7.543
				l-0.291-0.216c-1.049-0.765-2.136-1.563-3.51-1.748L316.449,60.731z"/>
			<path fill="#00A6E4" d="M329.891,74.845c0.235,0.312,0.315,0.582,0.25,0.814c-0.178,0.627-1.392,1.112-2.366,1.501
				c-0.739,0.297-1.378,0.552-1.709,0.896c-1.177,1.187-0.888,3.973-0.733,5.468c0.131,1.306,0.81,5.345,2.135,6.754l0.539-0.509
				c-1.091-1.155-1.783-4.823-1.937-6.319c-0.133-1.28-0.409-3.937,0.525-4.879c0.22-0.229,0.848-0.48,1.454-0.723
				c1.184-0.474,2.523-1.008,2.801-1.989c0.134-0.458,0.007-0.95-0.362-1.458L329.891,74.845z"/>
			<path fill="#00A6E4" d="M326.969,69.637l0.229,1.087c0.3,1.57,0.566,2.93,2.525,4.024c2.464,1.385,5.043,1.575,6.898,0.513
				l-0.37-0.642c-1.628,0.929-3.932,0.738-6.166-0.515c-1.662-0.93-1.87-2.019-2.159-3.524l-0.237-1.117L326.969,69.637z"/>
			<path fill="#00A6E4" d="M321.336,74.999l0.356-0.597c-2.802-0.919-4.166-4.861-3.988-7.278l-0.732-0.053
				C316.78,69.626,318.035,73.917,321.336,74.999z"/>
			<path fill="#00A6E4" d="M327.234,48.019c0.107,1.107-0.229,2.607-1.087,3.336c-0.476,0.401-1.058,0.516-1.726,0.337l0.147,0.639
				c0.906,0.242,1.393,0.151,2.054-0.411c1.104-0.934,1.474-2.714,1.345-3.973L327.234,48.019z"/>
			<path fill="#00A6E4" d="M318.604,54.602c-0.025,1.066-0.051,2.075,0.81,3.122c0.943,1.132,2.937,2.923,4.477,2.43l0.145-0.797
				c-1.375,0.497-3.195-1.075-4.047-2.107c-0.688-0.832-0.666-1.622-0.642-2.631l0.008-0.495l-0.743-0.005L318.604,54.602z"/>
			<path fill="#00A6E4" d="M319.5,82.109c1.935,2.853,3.816,3.301,6.688,3.697l0.099-0.733c-2.978-0.413-4.468-0.859-6.174-3.378
				L319.5,82.109z"/>
		</g>
		<g>
			<path fill="#FFFFFF" d="M285.767,86.787c0,2.595-0.511,4.671-1.533,6.235c-1.021,1.565-2.524,2.346-4.507,2.346v-2.806
				c1.983,0,2.979-1.922,2.979-5.775h-2.979v-6.04h6.041V86.787z"/>
			<path fill="#FFFFFF" d="M308.215,86.787c0,2.595-0.511,4.671-1.531,6.235c-1.021,1.565-2.523,2.346-4.512,2.346v-2.806
				c1.988,0,2.977-1.922,2.977-5.775h-2.977v-6.04h6.043V86.787z"/>
			<path fill="#FFFFFF" d="M294.187,110.427c-1.035-0.608-8.296-4.844-8.296-4.844l-1.12,1.922l8.892,5.187
				c0.363,0.21,0.816,0.199,1.167-0.03l11.849-7.781l-1.218-1.854C305.461,103.026,295.227,109.742,294.187,110.427z"/>
		</g>
		<g>
			<path fill="#FFFFFF" d="M272.435,122.25l0.824-0.069c0.037,0.327,0.127,0.604,0.27,0.813c0.144,0.213,0.365,0.383,0.662,0.516
				c0.301,0.133,0.636,0.195,1.011,0.195c0.331,0,0.626-0.051,0.881-0.146c0.255-0.1,0.442-0.236,0.567-0.41
				c0.124-0.174,0.186-0.358,0.186-0.563c0-0.21-0.062-0.389-0.181-0.545c-0.122-0.153-0.317-0.279-0.594-0.391
				c-0.176-0.064-0.567-0.176-1.172-0.319c-0.601-0.146-1.028-0.28-1.272-0.416c-0.317-0.165-0.55-0.367-0.707-0.615
				c-0.153-0.244-0.228-0.524-0.228-0.826c0-0.335,0.094-0.649,0.28-0.941c0.188-0.292,0.464-0.512,0.83-0.663
				c0.364-0.151,0.767-0.224,1.21-0.224c0.491,0,0.922,0.077,1.292,0.233c0.377,0.16,0.664,0.391,0.865,0.695
				c0.203,0.31,0.307,0.657,0.324,1.05l-0.843,0.058c-0.045-0.413-0.198-0.724-0.458-0.937c-0.257-0.21-0.641-0.314-1.146-0.314
				c-0.525,0-0.909,0.098-1.148,0.29c-0.241,0.195-0.361,0.428-0.361,0.698c0,0.243,0.085,0.438,0.255,0.59
				c0.167,0.153,0.605,0.312,1.313,0.47c0.704,0.164,1.193,0.303,1.457,0.427c0.387,0.176,0.671,0.396,0.855,0.671
				c0.181,0.27,0.277,0.585,0.277,0.938s-0.104,0.686-0.302,0.996c-0.203,0.311-0.49,0.55-0.865,0.726
				c-0.379,0.173-0.799,0.26-1.268,0.26c-0.599,0-1.098-0.09-1.503-0.266c-0.401-0.176-0.716-0.433-0.943-0.787
				C272.567,123.093,272.446,122.691,272.435,122.25z"/>
			<path fill="#FFFFFF" d="M278.791,124.38v-4.807h0.73v0.681c0.148-0.235,0.351-0.423,0.599-0.57
				c0.25-0.139,0.535-0.212,0.852-0.212c0.354,0,0.644,0.073,0.869,0.222c0.23,0.149,0.389,0.353,0.483,0.614
				c0.381-0.559,0.876-0.836,1.486-0.836c0.477,0,0.846,0.129,1.101,0.396c0.256,0.262,0.385,0.668,0.385,1.217v3.295h-0.81v-3.021
				c0-0.327-0.027-0.563-0.082-0.704c-0.052-0.145-0.148-0.258-0.285-0.35c-0.14-0.084-0.304-0.129-0.491-0.129
				c-0.336,0-0.621,0.111-0.845,0.334c-0.224,0.23-0.335,0.586-0.335,1.081v2.788h-0.81v-3.122c0-0.354-0.065-0.629-0.198-0.811
				c-0.131-0.181-0.349-0.271-0.649-0.271c-0.231,0-0.441,0.059-0.637,0.184c-0.194,0.116-0.334,0.295-0.423,0.525
				c-0.087,0.229-0.131,0.562-0.131,1.005v2.489H278.791z"/>
			<path fill="#FFFFFF" d="M289.633,123.776c-0.29,0.258-0.577,0.438-0.856,0.55c-0.28,0.104-0.585,0.159-0.904,0.159
				c-0.531,0-0.941-0.136-1.224-0.389c-0.283-0.258-0.429-0.585-0.429-0.983c0-0.238,0.054-0.451,0.161-0.646
				c0.106-0.189,0.25-0.35,0.423-0.465c0.176-0.116,0.372-0.207,0.593-0.267c0.16-0.04,0.4-0.085,0.724-0.123
				c0.662-0.077,1.151-0.17,1.462-0.278c0.005-0.109,0.007-0.184,0.007-0.216c0-0.329-0.081-0.563-0.232-0.701
				c-0.21-0.184-0.52-0.274-0.935-0.274c-0.391,0-0.675,0.069-0.856,0.203c-0.185,0.131-0.322,0.368-0.411,0.71l-0.798-0.105
				c0.074-0.342,0.191-0.615,0.358-0.825s0.408-0.371,0.719-0.485c0.313-0.108,0.676-0.168,1.09-0.168
				c0.412,0,0.748,0.049,1.002,0.144c0.256,0.099,0.445,0.221,0.563,0.364c0.122,0.146,0.208,0.328,0.255,0.557
				c0.03,0.139,0.041,0.388,0.041,0.748v1.082c0,0.756,0.014,1.23,0.051,1.434c0.03,0.199,0.094,0.392,0.193,0.58h-0.834
				C289.712,124.205,289.66,124.007,289.633,123.776z M289.566,121.968c-0.293,0.124-0.738,0.224-1.332,0.312
				c-0.334,0.046-0.572,0.101-0.711,0.158c-0.141,0.061-0.245,0.151-0.319,0.264c-0.077,0.113-0.117,0.25-0.117,0.386
				c0,0.219,0.084,0.397,0.25,0.545c0.163,0.144,0.409,0.211,0.729,0.211c0.316,0,0.596-0.063,0.841-0.201
				c0.248-0.141,0.431-0.328,0.544-0.559c0.084-0.189,0.132-0.46,0.132-0.813L289.566,121.968z"/>
			<path fill="#FFFFFF" d="M291.632,124.38v-4.807h0.73v0.734c0.186-0.338,0.356-0.564,0.515-0.672
				c0.158-0.11,0.334-0.164,0.522-0.164c0.273,0,0.552,0.087,0.838,0.256l-0.292,0.752c-0.196-0.109-0.393-0.161-0.589-0.161
				c-0.179,0-0.337,0.052-0.479,0.155c-0.139,0.108-0.24,0.261-0.299,0.445c-0.089,0.292-0.137,0.605-0.137,0.95v2.511H291.632z"/>
			<path fill="#FFFFFF" d="M296.508,123.642l0.104,0.716c-0.232,0.053-0.433,0.077-0.619,0.077c-0.294,0-0.522-0.05-0.683-0.139
				c-0.167-0.097-0.282-0.218-0.347-0.371c-0.063-0.149-0.099-0.469-0.099-0.96v-2.753h-0.602v-0.639h0.602v-1.191l0.81-0.483v1.675
				h0.834v0.639h-0.834v2.791c0,0.238,0.013,0.384,0.044,0.451c0.027,0.062,0.075,0.115,0.14,0.158
				c0.068,0.035,0.167,0.055,0.287,0.055C296.236,123.667,296.36,123.658,296.508,123.642z"/>
			<path fill="#FFFFFF" d="M299.977,124.38v-6.62h2.938c0.591,0,1.041,0.062,1.345,0.177c0.304,0.116,0.552,0.331,0.735,0.628
				c0.186,0.305,0.272,0.637,0.272,0.999c0,0.473-0.148,0.866-0.453,1.189c-0.297,0.326-0.772,0.526-1.409,0.616
				c0.235,0.107,0.413,0.223,0.53,0.328c0.256,0.236,0.497,0.527,0.726,0.885l1.146,1.798h-1.097l-0.873-1.38
				c-0.259-0.394-0.47-0.702-0.636-0.908c-0.163-0.211-0.312-0.356-0.44-0.446c-0.132-0.079-0.268-0.141-0.398-0.179
				c-0.098-0.02-0.263-0.028-0.486-0.028h-1.017v2.941H299.977z M300.86,120.675h1.882c0.398,0,0.71-0.044,0.936-0.123
				c0.226-0.082,0.396-0.217,0.514-0.396c0.118-0.186,0.175-0.385,0.175-0.597c0-0.31-0.111-0.565-0.342-0.769
				c-0.224-0.205-0.579-0.302-1.072-0.302h-2.092V120.675z"/>
			<path fill="#FFFFFF" d="M309.825,122.825l0.842,0.11c-0.139,0.486-0.382,0.873-0.74,1.142c-0.358,0.267-0.815,0.408-1.372,0.408
				c-0.702,0-1.262-0.219-1.67-0.651c-0.411-0.43-0.618-1.039-0.618-1.815c0-0.805,0.207-1.436,0.625-1.878
				c0.412-0.443,0.951-0.668,1.615-0.668c0.642,0,1.167,0.22,1.572,0.653c0.409,0.437,0.61,1.048,0.61,1.836
				c0,0.049-0.004,0.123-0.004,0.22h-3.588c0.032,0.525,0.183,0.932,0.453,1.209c0.268,0.277,0.603,0.423,1.004,0.423
				c0.299,0,0.557-0.076,0.765-0.237C309.535,123.421,309.698,123.169,309.825,122.825z M307.149,121.508h2.681
				c-0.033-0.402-0.137-0.701-0.305-0.899c-0.261-0.311-0.595-0.466-1.011-0.466c-0.374,0-0.69,0.121-0.943,0.374
				C307.315,120.76,307.175,121.092,307.149,121.508z"/>
			<path fill="#FFFFFF" d="M314.824,123.776c-0.289,0.258-0.572,0.438-0.856,0.55c-0.277,0.104-0.577,0.159-0.899,0.159
				c-0.532,0-0.943-0.136-1.228-0.389c-0.288-0.258-0.427-0.585-0.427-0.983c0-0.238,0.053-0.451,0.158-0.646
				c0.115-0.189,0.254-0.35,0.427-0.465c0.176-0.116,0.374-0.207,0.59-0.267c0.16-0.04,0.4-0.085,0.725-0.123
				c0.662-0.077,1.149-0.17,1.464-0.278c0.006-0.109,0.006-0.184,0.006-0.216c0-0.329-0.077-0.563-0.233-0.701
				c-0.213-0.184-0.523-0.274-0.936-0.274c-0.385,0-0.674,0.069-0.855,0.203c-0.186,0.131-0.318,0.368-0.408,0.71l-0.798-0.105
				c0.072-0.342,0.191-0.615,0.356-0.825c0.164-0.21,0.406-0.371,0.719-0.485c0.313-0.108,0.679-0.168,1.095-0.168
				c0.406,0,0.738,0.049,0.998,0.144c0.253,0.099,0.443,0.221,0.567,0.364c0.118,0.146,0.2,0.328,0.253,0.557
				c0.023,0.139,0.041,0.388,0.041,0.748v1.082c0,0.756,0.015,1.23,0.047,1.434c0.03,0.199,0.098,0.392,0.193,0.58h-0.835
				C314.906,124.205,314.849,124.007,314.824,123.776z M314.76,121.968c-0.303,0.124-0.741,0.224-1.335,0.312
				c-0.335,0.046-0.569,0.101-0.709,0.158c-0.144,0.061-0.247,0.151-0.322,0.264c-0.076,0.113-0.116,0.25-0.116,0.386
				c0,0.219,0.09,0.397,0.253,0.545c0.166,0.144,0.406,0.211,0.726,0.211c0.317,0,0.6-0.063,0.845-0.201
				c0.25-0.141,0.426-0.328,0.542-0.559c0.09-0.189,0.134-0.46,0.134-0.813L314.76,121.968z"/>
			<path fill="#FFFFFF" d="M319.933,124.38v-0.614c-0.298,0.476-0.743,0.719-1.34,0.719c-0.378,0-0.729-0.109-1.05-0.321
				c-0.322-0.207-0.567-0.506-0.74-0.878c-0.179-0.378-0.271-0.814-0.271-1.308c0-0.476,0.085-0.906,0.243-1.298
				s0.397-0.69,0.716-0.898c0.319-0.208,0.676-0.31,1.064-0.31c0.293,0,0.545,0.062,0.775,0.184c0.226,0.118,0.408,0.276,0.55,0.47
				v-2.365h0.81v6.62H319.933z M317.365,121.978c0,0.614,0.136,1.075,0.392,1.377c0.261,0.303,0.567,0.458,0.926,0.458
				c0.355,0,0.656-0.149,0.907-0.438c0.247-0.287,0.371-0.732,0.371-1.329c0-0.654-0.127-1.132-0.381-1.443
				c-0.253-0.306-0.563-0.459-0.937-0.459c-0.364,0-0.664,0.146-0.909,0.439C317.492,120.88,317.365,121.344,317.365,121.978z"/>
			<path fill="#FFFFFF" d="M321.979,118.687v-0.927h0.814v0.927H321.979z M321.979,124.38v-4.807h0.814v4.807H321.979z"/>
			<path fill="#FFFFFF" d="M324.035,124.38v-4.807h0.73v0.681c0.352-0.526,0.861-0.782,1.523-0.782c0.289,0,0.554,0.052,0.799,0.156
				c0.238,0.1,0.419,0.24,0.54,0.408c0.121,0.171,0.203,0.367,0.253,0.6c0.03,0.151,0.05,0.415,0.05,0.791v2.953h-0.814v-2.923
				c0-0.328-0.028-0.574-0.098-0.737c-0.063-0.164-0.171-0.3-0.334-0.396c-0.161-0.096-0.349-0.146-0.567-0.146
				c-0.346,0-0.646,0.109-0.898,0.33c-0.245,0.221-0.369,0.634-0.369,1.256v2.617H324.035z"/>
			<path fill="#FFFFFF" d="M329.033,124.774l0.787,0.1c0.03,0.252,0.123,0.433,0.277,0.548c0.2,0.152,0.48,0.23,0.829,0.23
				c0.382,0,0.672-0.075,0.879-0.227c0.208-0.148,0.348-0.361,0.415-0.629c0.046-0.163,0.066-0.513,0.061-1.041
				c-0.355,0.413-0.797,0.625-1.329,0.625c-0.664,0-1.177-0.238-1.538-0.717c-0.364-0.477-0.547-1.042-0.547-1.714
				c0-0.457,0.086-0.878,0.252-1.267c0.171-0.385,0.403-0.686,0.722-0.896c0.321-0.211,0.688-0.314,1.119-0.314
				c0.568,0,1.039,0.232,1.411,0.693v-0.592h0.721v4.153c0,0.745-0.072,1.275-0.229,1.587c-0.148,0.313-0.391,0.557-0.72,0.737
				c-0.328,0.179-0.735,0.272-1.217,0.272c-0.574,0-1.035-0.128-1.384-0.389C329.185,125.678,329.02,125.292,329.033,124.774z
				 M329.701,121.897c0,0.629,0.125,1.085,0.379,1.379c0.254,0.287,0.569,0.429,0.942,0.429c0.381,0,0.692-0.142,0.947-0.429
				c0.255-0.292,0.384-0.74,0.384-1.354c0-0.589-0.133-1.031-0.394-1.332c-0.26-0.301-0.579-0.446-0.945-0.446
				c-0.365,0-0.679,0.146-0.933,0.439C329.829,120.88,329.701,121.315,329.701,121.897z"/>
		</g>
	</g>
	<g>
		<g>
			<g>
				<path fill="#595757" d="M337.305,171.793c0,1.516-1.231,2.747-2.744,2.747s-2.744-1.231-2.744-2.747
					c0-1.508,1.231-2.739,2.744-2.739S337.305,170.286,337.305,171.793z M334.561,168.586c-1.771,0-3.207,1.437-3.207,3.207
					c0,1.77,1.437,3.21,3.207,3.21c1.765,0,3.21-1.44,3.21-3.21C337.771,170.023,336.326,168.586,334.561,168.586z"/>
			</g>
			<g>
				<path fill="#595757" d="M333.128,173.67v-3.751h1.667c0.335,0,0.592,0.033,0.765,0.101c0.174,0.07,0.314,0.184,0.42,0.354
					c0.103,0.176,0.154,0.358,0.154,0.571c0,0.264-0.086,0.491-0.26,0.672c-0.171,0.187-0.44,0.3-0.795,0.349
					c0.129,0.062,0.226,0.124,0.295,0.184c0.146,0.137,0.283,0.299,0.414,0.502l0.65,1.019h-0.625l-0.499-0.781
					c-0.144-0.222-0.257-0.393-0.355-0.515c-0.093-0.121-0.176-0.199-0.252-0.249c-0.075-0.05-0.146-0.083-0.224-0.101
					c-0.056-0.011-0.152-0.016-0.28-0.016h-0.575v1.661H333.128z M333.628,171.576h1.069c0.229,0,0.406-0.022,0.531-0.071
					c0.128-0.042,0.23-0.122,0.292-0.222c0.071-0.107,0.106-0.219,0.106-0.339c0-0.181-0.067-0.324-0.195-0.441
					c-0.134-0.113-0.333-0.172-0.614-0.172h-1.189V171.576z"/>
			</g>
		</g>
		<g>
			<g>
				<g>
					<g>
						<path fill="#00A6E4" d="M104.583,157.974l4.812-0.25c0.066,1.528,0.331,2.558,0.79,3.094c0.743,0.877,2.114,1.309,4.111,1.309
							c1.667,0,2.865-0.301,3.606-0.89c0.741-0.59,1.114-1.309,1.114-2.145c0-0.73-0.302-1.343-0.906-1.846
							c-0.431-0.369-1.605-0.966-3.521-1.795c-1.914-0.827-3.311-1.52-4.198-2.067c-0.881-0.551-1.575-1.273-2.079-2.156
							c-0.506-0.884-0.758-1.918-0.758-3.105c0-2.062,0.75-3.777,2.248-5.14c1.499-1.367,3.666-2.048,6.506-2.048
							c2.888,0,5.124,0.676,6.701,2.025c1.587,1.349,2.454,3.142,2.613,5.383l-4.814,0.22c-0.122-1.173-0.553-2.069-1.286-2.695
							c-0.728-0.628-1.81-0.939-3.24-0.939c-1.409,0-2.412,0.25-3.017,0.738c-0.601,0.49-0.901,1.111-0.901,1.856
							c0,0.706,0.272,1.283,0.822,1.746c0.548,0.466,1.769,1.112,3.65,1.926c2.836,1.215,4.642,2.207,5.413,2.966
							c1.154,1.113,1.733,2.549,1.733,4.304c0,2.166-0.857,4.018-2.576,5.553c-1.716,1.536-4.101,2.306-7.167,2.306
							c-2.11,0-3.943-0.354-5.488-1.062c-1.554-0.707-2.643-1.69-3.277-2.948C104.835,161.057,104.54,159.606,104.583,157.974z"/>
						<path fill="#DFC44A" d="M130.227,148.096h4.487l-0.416,2.156c1.768-1.706,3.621-2.561,5.56-2.561
							c1.34,0,2.373,0.277,3.101,0.837c0.721,0.56,1.187,1.324,1.39,2.302c0.612-0.885,1.49-1.633,2.645-2.234
							c1.146-0.604,2.343-0.904,3.581-0.904c1.419,0,2.519,0.385,3.314,1.145c0.792,0.768,1.188,1.777,1.188,3.037
							c-0.018,0.61-0.198,1.663-0.535,3.159l-2.289,10.829h-4.752l2.262-10.824c0.284-1.357,0.447-2.13,0.487-2.31
							c0-0.496-0.153-0.886-0.449-1.178c-0.301-0.284-0.752-0.431-1.35-0.431c-1.21,0-2.293,0.632-3.241,1.895
							c-0.689,0.899-1.278,2.499-1.764,4.797l-1.684,8.051h-4.755l2.239-10.733c0.257-1.23,0.384-2.037,0.384-2.402
							c0-0.47-0.157-0.857-0.48-1.155c-0.312-0.301-0.756-0.451-1.318-0.451c-0.524,0-1.07,0.158-1.635,0.47
							c-0.557,0.313-1.047,0.742-1.469,1.289c-0.423,0.542-0.788,1.242-1.086,2.102c-0.14,0.404-0.37,1.312-0.683,2.728
							l-1.687,8.154h-4.756L130.227,148.096z"/>
						<path fill="#DFC44A" d="M163.894,153.118l-4.659-0.399c0.535-1.569,1.458-2.805,2.783-3.693
							c1.321-0.89,3.071-1.333,5.251-1.333c2.27,0,3.943,0.455,5.028,1.381c1.085,0.919,1.626,2.042,1.626,3.364
							c0,0.535-0.048,1.106-0.14,1.706c-0.097,0.604-0.431,2.188-0.998,4.747c-0.471,2.121-0.706,3.597-0.706,4.443
							c0,0.764,0.136,1.604,0.406,2.528h-4.602c-0.223-0.647-0.357-1.315-0.411-2.008c-0.696,0.782-1.502,1.384-2.415,1.823
							c-0.914,0.425-1.828,0.646-2.753,0.646c-1.465,0-2.678-0.482-3.632-1.452c-0.956-0.962-1.434-2.206-1.434-3.727
							c0-1.693,0.53-3.051,1.573-4.065c1.055-1.014,2.93-1.632,5.632-1.843c2.281-0.187,3.806-0.416,4.574-0.685
							c0.2-0.668,0.3-1.211,0.3-1.614c0-0.518-0.204-0.948-0.609-1.292c-0.41-0.35-1.013-0.525-1.814-0.525
							c-0.849,0-1.515,0.176-2.006,0.52C164.398,151.989,164.069,152.479,163.894,153.118z M168.384,157.571
							c-0.291,0.082-0.677,0.151-1.155,0.221c-2.4,0.292-3.965,0.722-4.703,1.285c-0.522,0.409-0.783,0.956-0.783,1.646
							c0,0.565,0.203,1.039,0.603,1.43c0.397,0.391,0.925,0.587,1.583,0.587c0.725,0,1.404-0.173,2.044-0.535
							c0.638-0.354,1.114-0.813,1.432-1.371c0.317-0.562,0.597-1.434,0.843-2.621L168.384,157.571z"/>
						<path fill="#DFC44A" d="M179.565,148.096h4.5l-0.72,3.418c1.661-2.549,3.463-3.822,5.4-3.822c0.686,0,1.42,0.174,2.209,0.516
							l-1.842,3.918c-0.436-0.162-0.903-0.238-1.392-0.238c-0.834,0-1.674,0.313-2.536,0.94c-0.854,0.62-1.525,1.454-2.01,2.497
							c-0.481,1.045-0.956,2.7-1.424,4.965l-1.134,5.572h-4.76L179.565,148.096z"/>
						<path fill="#DFC44A" d="M190.602,151.68l0.719-3.584h2.384l0.584-2.812l5.5-3.326l-1.261,6.138h2.822l-0.714,3.584h-2.848
							l-1.588,7.493c-0.285,1.345-0.423,2.115-0.423,2.303c0,0.366,0.111,0.655,0.341,0.862c0.226,0.208,0.635,0.31,1.234,0.31
							c0.205,0,0.721-0.037,1.54-0.114l-0.77,3.534c-0.814,0.17-1.652,0.255-2.514,0.255c-1.678,0-2.899-0.329-3.659-0.988
							c-0.763-0.662-1.143-1.578-1.143-2.744c0-0.55,0.216-1.805,0.649-3.774l1.535-7.136H190.602z"/>
						<path fill="#00A6E4" d="M205.942,165.862h-5.071l5.119-24.463h10.876c1.87,0,3.329,0.19,4.371,0.569
							c1.04,0.39,1.88,1.093,2.522,2.115c0.64,1.021,0.96,2.267,0.96,3.72c0,2.083-0.621,3.794-1.863,5.146
							c-1.247,1.355-3.133,2.195-5.657,2.513c0.643,0.581,1.253,1.343,1.822,2.288c1.125,1.914,2.373,4.618,3.754,8.112h-5.428
							c-0.431-1.379-1.278-3.539-2.542-6.462c-0.69-1.581-1.424-2.642-2.199-3.193c-0.48-0.317-1.31-0.476-2.497-0.476h-2.05
							L205.942,165.862z M208.833,152.042h2.669c2.702,0,4.49-0.161,5.374-0.481c0.883-0.321,1.576-0.827,2.079-1.516
							c0.499-0.686,0.752-1.406,0.752-2.159c0-0.887-0.366-1.55-1.087-1.995c-0.443-0.267-1.405-0.397-2.88-0.397h-5.539
							L208.833,152.042z"/>
						<path fill="#DFC44A" d="M242.746,158.492h-12.002c-0.011,0.191-0.017,0.335-0.017,0.436c0,1.187,0.34,2.146,1.008,2.874
							c0.674,0.725,1.489,1.092,2.458,1.092c1.589,0,2.83-0.817,3.719-2.459l4.295,0.718c-0.83,1.724-1.95,3.017-3.343,3.874
							c-1.394,0.861-2.956,1.297-4.694,1.297c-2.377,0-4.307-0.761-5.798-2.273c-1.489-1.513-2.237-3.51-2.237-6.008
							c0-2.433,0.673-4.599,2.019-6.495c1.831-2.576,4.445-3.854,7.846-3.854c2.164,0,3.887,0.668,5.161,2.016
							c1.277,1.345,1.917,3.229,1.917,5.651C243.078,156.518,242.967,157.563,242.746,158.492z M238.727,155.578
							c0.01-0.219,0.017-0.377,0.017-0.489c0-1.326-0.294-2.315-0.884-2.974c-0.589-0.663-1.382-0.995-2.373-0.995
							s-1.879,0.381-2.665,1.126c-0.788,0.751-1.315,1.858-1.595,3.332H238.727z"/>
						<path fill="#DFC44A" d="M251.357,153.118l-4.656-0.399c0.529-1.569,1.456-2.805,2.777-3.693
							c1.323-0.89,3.075-1.333,5.256-1.333c2.264,0,3.945,0.455,5.027,1.381c1.083,0.919,1.627,2.042,1.627,3.364
							c0,0.535-0.055,1.106-0.144,1.706c-0.092,0.604-0.429,2.188-0.995,4.747c-0.472,2.121-0.706,3.597-0.706,4.443
							c0,0.764,0.138,1.604,0.408,2.528h-4.602c-0.225-0.647-0.356-1.315-0.413-2.008c-0.699,0.782-1.504,1.384-2.416,1.823
							c-0.914,0.425-1.828,0.646-2.751,0.646c-1.469,0-2.679-0.482-3.635-1.452c-0.955-0.962-1.432-2.206-1.432-3.727
							c0-1.693,0.525-3.051,1.575-4.065c1.047-1.014,2.926-1.632,5.632-1.843c2.276-0.187,3.799-0.416,4.569-0.685
							c0.201-0.668,0.302-1.211,0.302-1.614c0-0.518-0.203-0.948-0.609-1.292c-0.411-0.35-1.016-0.525-1.815-0.525
							c-0.847,0-1.519,0.176-2.002,0.52C251.863,151.989,251.533,152.479,251.357,153.118z M255.843,157.571
							c-0.287,0.082-0.67,0.151-1.149,0.221c-2.4,0.292-3.968,0.722-4.703,1.285c-0.523,0.409-0.785,0.956-0.785,1.646
							c0,0.565,0.2,1.039,0.599,1.43c0.403,0.391,0.933,0.587,1.585,0.587c0.724,0,1.402-0.173,2.045-0.535
							c0.638-0.354,1.115-0.813,1.432-1.371c0.317-0.562,0.599-1.434,0.842-2.621L255.843,157.571z"/>
						<path fill="#DFC44A" d="M279.949,165.862H275.4l0.391-1.88c-0.866,0.838-1.725,1.435-2.565,1.793
							c-0.839,0.367-1.79,0.548-2.849,0.548c-1.84,0-3.328-0.632-4.475-1.884c-1.141-1.262-1.716-3.116-1.716-5.576
							c0-2.846,0.819-5.42,2.446-7.718c1.628-2.304,3.784-3.453,6.468-3.453c2.417,0,4.236,0.959,5.446,2.881l1.972-9.174h4.757
							L279.949,165.862z M268.848,158.687c0,1.273,0.322,2.267,0.969,2.982c0.651,0.714,1.448,1.07,2.399,1.07
							c0.879,0,1.699-0.301,2.459-0.897c0.762-0.595,1.372-1.506,1.83-2.732c0.455-1.229,0.683-2.408,0.683-3.532
							c0-1.286-0.349-2.323-1.049-3.111c-0.696-0.792-1.503-1.193-2.418-1.193c-1.423,0-2.587,0.78-3.503,2.343
							C269.305,155.181,268.848,156.865,268.848,158.687z"/>
						<path fill="#DFC44A" d="M288.186,148.096h4.76l-3.718,17.766h-4.754L288.186,148.096z M289.593,141.399h4.755l-0.899,4.297
							h-4.76L289.593,141.399z"/>
						<path fill="#DFC44A" d="M297.738,148.096h4.547l-0.463,2.345c1.154-0.991,2.224-1.694,3.225-2.118
							c1.003-0.419,2.05-0.631,3.16-0.631c1.473,0,2.644,0.421,3.498,1.267c0.848,0.848,1.271,1.97,1.271,3.365
							c-0.02,0.618-0.23,1.792-0.617,3.521l-2.162,10.018h-4.757l2.157-10.049c0.314-1.499,0.484-2.399,0.515-2.692
							c0-0.616-0.188-1.104-0.558-1.464c-0.373-0.354-0.889-0.537-1.548-0.537c-0.723,0-1.521,0.297-2.397,0.891
							c-0.878,0.585-1.567,1.365-2.07,2.334c-0.376,0.693-0.795,2.1-1.265,4.225l-1.491,7.293h-4.753L297.738,148.096z"/>
						<path fill="#DFC44A" d="M314.668,166.833l5.075,0.728c0,0.508,0.078,0.891,0.242,1.151c0.16,0.259,0.428,0.479,0.788,0.661
							c0.363,0.181,0.854,0.274,1.487,0.274c1.073,0,1.935-0.202,2.588-0.611c0.483-0.316,0.878-0.827,1.188-1.53
							c0.188-0.442,0.424-1.407,0.722-2.888l0.173-0.827c-1.736,1.383-3.534,2.07-5.389,2.07c-1.722,0-3.138-0.61-4.236-1.835
							c-1.108-1.223-1.658-3.006-1.658-5.361c0-2.072,0.377-3.98,1.129-5.711c0.751-1.733,1.806-3.041,3.165-3.93
							c1.362-0.89,2.747-1.333,4.16-1.333c1.167,0,2.234,0.307,3.198,0.928c0.971,0.62,1.722,1.484,2.261,2.602l0.657-3.125h4.488
							l-2.822,14.75c-0.51,2.39-0.938,4.094-1.29,5.116c-0.352,1.018-0.758,1.831-1.211,2.437c-0.449,0.604-1.026,1.113-1.717,1.523
							c-0.688,0.413-1.508,0.706-2.45,0.887c-0.938,0.179-1.96,0.266-3.058,0.266c-2.486,0-4.366-0.425-5.637-1.281
							c-1.268-0.852-1.907-2.275-1.907-4.26C314.615,167.316,314.633,167.089,314.668,166.833z M320.306,158.167
							c0,1.34,0.3,2.357,0.903,3.062c0.6,0.699,1.353,1.046,2.26,1.046c0.847,0,1.666-0.313,2.467-0.942
							c0.797-0.629,1.406-1.523,1.829-2.685c0.426-1.162,0.64-2.282,0.64-3.367c0-1.243-0.35-2.25-1.049-3.018
							c-0.695-0.76-1.505-1.144-2.424-1.144c-0.847,0-1.622,0.342-2.335,1.011c-0.711,0.678-1.3,1.716-1.761,3.12
							C320.485,156.333,320.306,157.306,320.306,158.167z"/>
					</g>
				</g>
			</g>
		</g>
		<g>
			<path fill="#DFC44A" d="M337.399,156.281h9.163l-0.958,4.557h-9.158L337.399,156.281z"/>
			<path fill="#00A6E4" d="M361.611,167.252h-4.703l-0.875-20.149l-3.828,20.149h-4.476l5.032-24.111h7.07l0.746,16.892
				l8.218-16.892h7.159l-5.056,24.111h-4.517l4.75-20L361.611,167.252z"/>
			<path fill="#DFC44A" d="M382.429,154.74l-4.604-0.398c0.528-1.558,1.444-2.775,2.754-3.655c1.313-0.873,3.046-1.31,5.204-1.31
				c2.248,0,3.907,0.451,4.982,1.356c1.082,0.904,1.615,2.009,1.615,3.314c0,0.524-0.048,1.081-0.138,1.679
				c-0.096,0.585-0.423,2.145-0.981,4.667c-0.459,2.085-0.692,3.543-0.692,4.374c0,0.75,0.131,1.573,0.399,2.485h-4.589
				c-0.188-0.632-0.304-1.294-0.349-1.972c-0.687,0.764-1.485,1.356-2.386,1.768c-0.896,0.409-1.802,0.614-2.714,0.614
				c-1.441,0-2.643-0.471-3.588-1.423c-0.937-0.945-1.407-2.166-1.407-3.658c0-1.669,0.515-3,1.553-3.996
				c1.036-0.997,2.885-1.604,5.55-1.804c2.246-0.188,3.744-0.416,4.51-0.68c0.195-0.663,0.292-1.182,0.292-1.58
				c0-0.505-0.202-0.926-0.606-1.268c-0.408-0.339-1.012-0.511-1.811-0.511c-0.848,0-1.513,0.172-1.999,0.516
				C382.938,153.608,382.609,154.097,382.429,154.74z M386.919,159.113c-0.282,0.075-0.661,0.146-1.135,0.213
				c-2.368,0.28-3.913,0.704-4.639,1.248c-0.515,0.397-0.771,0.928-0.771,1.597c0,0.547,0.195,1.01,0.59,1.391
				c0.398,0.381,0.918,0.565,1.563,0.565c0.716,0,1.385-0.171,2.018-0.521c0.629-0.342,1.103-0.786,1.415-1.331
				c0.31-0.541,0.592-1.384,0.824-2.539L386.919,159.113z"/>
			<path fill="#DFC44A" d="M398.218,149.787h4.477l-0.461,2.267c1.12-0.961,2.162-1.651,3.131-2.062
				c0.973-0.41,1.995-0.615,3.071-0.615c1.435,0,2.566,0.41,3.398,1.234c0.823,0.823,1.235,1.91,1.235,3.272
				c0,0.611-0.179,1.769-0.539,3.482l-2.059,9.887h-4.717l2.07-9.918c0.308-1.48,0.46-2.361,0.46-2.649
				c0-0.601-0.179-1.077-0.533-1.426c-0.353-0.344-0.855-0.516-1.491-0.516c-0.69,0-1.457,0.295-2.302,0.872
				c-0.84,0.584-1.507,1.35-1.99,2.306c-0.352,0.681-0.744,2.067-1.183,4.161l-1.495,7.17h-4.723L398.218,149.787z"/>
			<path fill="#DFC44A" d="M431.212,167.252h-4.476l0.398-1.893c-0.859,0.824-1.699,1.414-2.524,1.768
				c-0.828,0.357-1.765,0.535-2.807,0.535c-1.812,0-3.273-0.614-4.398-1.847c-1.123-1.236-1.686-3.057-1.686-5.469
				c0-2.801,0.786-5.324,2.365-7.586c1.581-2.258,3.673-3.385,6.268-3.385c2.351,0,4.107,0.931,5.279,2.798l1.89-9.033h4.725
				L431.212,167.252z M420.306,160.149c0,1.251,0.318,2.229,0.945,2.925c0.63,0.706,1.408,1.053,2.329,1.053
				c0.854,0,1.652-0.292,2.392-0.877c0.743-0.587,1.333-1.487,1.775-2.689c0.447-1.204,0.67-2.364,0.67-3.47
				c0-1.264-0.343-2.28-1.019-3.063c-0.68-0.777-1.469-1.164-2.356-1.164c-1.382,0-2.515,0.763-3.402,2.303
				C420.748,156.7,420.306,158.359,420.306,160.149z"/>
			<path fill="#DFC44A" d="M442.314,154.74l-4.606-0.398c0.528-1.558,1.443-2.775,2.758-3.655c1.309-0.873,3.044-1.31,5.203-1.31
				c2.245,0,3.908,0.451,4.979,1.356c1.077,0.904,1.618,2.009,1.618,3.314c0,0.524-0.049,1.081-0.144,1.679
				c-0.094,0.585-0.423,2.145-0.976,4.667c-0.46,2.085-0.692,3.543-0.692,4.374c0,0.75,0.13,1.573,0.396,2.485h-4.589
				c-0.188-0.632-0.301-1.294-0.344-1.972c-0.69,0.764-1.487,1.356-2.386,1.768c-0.903,0.409-1.803,0.614-2.715,0.614
				c-1.45,0-2.642-0.471-3.583-1.423c-0.946-0.945-1.416-2.166-1.416-3.658c0-1.669,0.521-3,1.55-3.996
				c1.038-0.997,2.888-1.604,5.557-1.804c2.246-0.188,3.747-0.416,4.501-0.68c0.201-0.663,0.302-1.182,0.302-1.58
				c0-0.505-0.203-0.926-0.613-1.268c-0.402-0.339-1.007-0.511-1.805-0.511c-0.846,0-1.511,0.172-2.003,0.516
				C442.819,153.608,442.488,154.097,442.314,154.74z M446.805,159.113c-0.284,0.075-0.666,0.146-1.137,0.213
				c-2.368,0.28-3.912,0.704-4.639,1.248c-0.515,0.397-0.774,0.928-0.774,1.597c0,0.547,0.201,1.01,0.594,1.391
				c0.394,0.381,0.912,0.565,1.563,0.565c0.715,0,1.387-0.171,2.017-0.521c0.629-0.342,1.098-0.786,1.413-1.331
				c0.315-0.541,0.588-1.384,0.83-2.539L446.805,159.113z"/>
			<path fill="#DFC44A" d="M457.777,149.787h4.403l-0.708,3.391c1.648-2.533,3.428-3.801,5.346-3.801c0.684,0,1.41,0.17,2.189,0.51
				l-1.811,3.864c-0.427-0.154-0.884-0.231-1.362-0.231c-0.815,0-1.644,0.31-2.475,0.921c-0.843,0.617-1.498,1.437-1.968,2.457
				c-0.475,1.03-0.938,2.651-1.399,4.88l-1.149,5.476h-4.721L457.777,149.787z"/>
			<path fill="#DFC44A" d="M471.144,149.787h4.719l-3.649,17.466h-4.72L471.144,149.787z M472.523,143.141h4.724l-0.889,4.279
				h-4.721L472.523,143.141z"/>
			<path fill="#DFC44A" d="M480.564,149.787h4.479l-0.463,2.267c1.121-0.961,2.163-1.651,3.133-2.062
				c0.974-0.41,1.994-0.615,3.068-0.615c1.438,0,2.571,0.41,3.396,1.234c0.827,0.823,1.244,1.91,1.244,3.272
				c0,0.611-0.182,1.769-0.543,3.482l-2.056,9.887H488.1l2.07-9.918c0.307-1.48,0.466-2.361,0.466-2.649
				c0-0.601-0.18-1.077-0.539-1.426c-0.356-0.344-0.852-0.516-1.489-0.516c-0.688,0-1.457,0.295-2.302,0.872
				c-0.843,0.584-1.506,1.35-1.989,2.306c-0.349,0.681-0.745,2.067-1.188,4.161l-1.496,7.17h-4.718L480.564,149.787z"/>
		</g>
	</g>
</g>
</svg>
