<?xml version="1.0" encoding="utf-8"?>
<!-- Generator: Adobe Illustrator 16.0.0, SVG Export Plug-In . SVG Version: 6.00 Build 0)  -->
<!DOCTYPE svg PUBLIC "-//W3C//DTD SVG 1.1//EN" "http://www.w3.org/Graphics/SVG/1.1/DTD/svg11.dtd">
<svg version="1.1" id="圖層_1" xmlns="http://www.w3.org/2000/svg" xmlns:xlink="http://www.w3.org/1999/xlink" x="0px" y="0px"
	 width="600px" height="74.372px" viewBox="0 0 600 74.372" enable-background="new 0 0 600 74.372" xml:space="preserve">
<g>
	
		<image overflow="visible" opacity="0.75" width="2551" height="360" xlink:href="7DC3858A.png"  transform="matrix(0.24 0 0 0.24 -3 -3)">
	</image>
	<g>
		<g>
			<g>
				<g>
					<path fill="#FFFFFF" d="M356.673,65.361c0,4.247-3.455,7.702-7.702,7.702c-4.248,0-7.702-3.455-7.702-7.702
						c0-4.248,3.454-7.705,7.702-7.705C353.218,57.656,356.673,61.113,356.673,65.361z M348.971,56.348
						c-4.97,0-9.011,4.044-9.011,9.014c0,4.969,4.041,9.011,9.011,9.011c4.969,0,9.013-4.042,9.013-9.011
						C357.984,60.392,353.94,56.348,348.971,56.348z"/>
				</g>
				<g>
					<path fill="#FFFFFF" d="M344.955,70.628V60.092h4.677c0.94,0,1.655,0.096,2.144,0.285c0.488,0.188,0.879,0.522,1.174,1.004
						c0.292,0.481,0.437,1.009,0.437,1.591c0,0.749-0.243,1.38-0.727,1.891c-0.483,0.516-1.232,0.84-2.244,0.979
						c0.368,0.177,0.648,0.352,0.842,0.523c0.408,0.376,0.794,0.84,1.154,1.401l1.824,2.861h-1.74l-1.397-2.188
						c-0.407-0.631-0.741-1.114-1.004-1.448c-0.266-0.336-0.501-0.569-0.71-0.705c-0.209-0.135-0.42-0.228-0.639-0.279
						c-0.156-0.034-0.414-0.052-0.775-0.052h-1.618v4.673H344.955z M346.351,64.75h3c0.637,0,1.137-0.064,1.498-0.197
						c0.363-0.135,0.636-0.346,0.825-0.636c0.188-0.292,0.282-0.608,0.282-0.95c0-0.501-0.182-0.913-0.545-1.234
						c-0.363-0.322-0.938-0.484-1.724-0.484h-3.337V64.75z"/>
				</g>
			</g>
			<g>
				<g>
					<g>
						<g>
							<path fill="#00A7E5" d="M0.007,26.155l7.386-0.386c0.103,2.348,0.508,3.932,1.215,4.754c1.139,1.336,3.243,2.004,6.313,2.004
								c2.553,0,4.397-0.457,5.537-1.365c1.137-0.906,1.706-2.006,1.706-3.293c0-1.114-0.466-2.06-1.397-2.831
								c-0.655-0.567-2.455-1.485-5.396-2.755s-5.09-2.327-6.445-3.177c-1.355-0.85-2.421-1.952-3.197-3.308
								c-0.776-1.354-1.164-2.941-1.164-4.761c0-3.172,1.151-5.807,3.452-7.898c2.3-2.094,5.63-3.14,9.99-3.14
								c4.43,0,7.859,1.036,10.288,3.105c2.428,2.072,3.764,4.827,4.005,8.267l-7.386,0.334c-0.189-1.8-0.847-3.18-1.969-4.137
								c-1.125-0.963-2.784-1.441-4.979-1.441c-2.161,0-3.703,0.378-4.628,1.132c-0.925,0.754-1.387,1.706-1.387,2.853
								c0,1.081,0.422,1.975,1.265,2.677c0.842,0.72,2.71,1.706,5.603,2.956c4.353,1.868,7.123,3.386,8.309,4.552
								c1.772,1.717,2.659,3.919,2.659,6.61c0,3.326-1.316,6.17-3.95,8.526c-2.635,2.357-6.3,3.536-11.002,3.536
								c-3.244,0-6.052-0.545-8.429-1.628c-2.376-1.085-4.054-2.593-5.031-4.522C0.393,30.89-0.062,28.667,0.007,26.155z"/>
							<path fill="#DFC44A" d="M39.37,10.999h6.899l-0.641,3.298c2.708-2.617,5.551-3.927,8.532-3.927
								c2.055,0,3.641,0.428,4.756,1.284c1.112,0.854,1.824,2.036,2.134,3.541c0.94-1.368,2.293-2.515,4.059-3.44
								c1.765-0.923,3.599-1.385,5.502-1.385c2.176,0,3.87,0.587,5.087,1.761c1.215,1.174,1.824,2.726,1.824,4.66
								c-0.029,0.933-0.302,2.551-0.817,4.847l-3.514,16.625h-7.302l3.477-16.62c0.437-2.082,0.685-3.263,0.744-3.54
								c0-0.762-0.231-1.363-0.69-1.805c-0.462-0.442-1.152-0.663-2.07-0.663c-1.859,0-3.516,0.967-4.972,2.902
								c-1.061,1.387-1.961,3.845-2.708,7.37l-2.585,12.355h-7.302l3.442-16.471c0.393-1.897,0.589-3.133,0.589-3.694
								c0-0.72-0.246-1.309-0.734-1.771c-0.491-0.462-1.167-0.692-2.028-0.692c-0.81,0-1.645,0.24-2.507,0.72
								c-0.862,0.479-1.615,1.137-2.261,1.976c-0.646,0.838-1.203,1.916-1.667,3.234c-0.216,0.616-0.565,2.011-1.048,4.184
								l-2.59,12.515h-7.302L39.37,10.999z"/>
							<path fill="#DFC44A" d="M91.058,18.699l-7.15-0.609c0.815-2.418,2.237-4.312,4.268-5.674c2.03-1.363,4.719-2.046,8.065-2.046
								c3.481,0,6.055,0.705,7.719,2.119c1.665,1.409,2.497,3.133,2.497,5.169c0,0.819-0.074,1.693-0.219,2.617
								c-0.145,0.923-0.655,3.354-1.529,7.287c-0.72,3.251-1.081,5.524-1.081,6.825c0,1.164,0.209,2.455,0.624,3.875h-7.066
								c-0.339-0.992-0.548-2.016-0.629-3.077c-1.075,1.196-2.31,2.124-3.709,2.79c-1.4,0.662-2.807,0.994-4.223,0.994
								c-2.251,0-4.113-0.742-5.579-2.225c-1.468-1.48-2.202-3.389-2.202-5.721c0-2.603,0.808-4.685,2.421-6.244
								c1.613-1.559,4.493-2.504,8.643-2.828c3.499-0.29,5.838-0.641,7.017-1.054c0.307-1.031,0.461-1.858,0.461-2.477
								c0-0.791-0.312-1.454-0.936-1.986c-0.626-0.533-1.554-0.801-2.784-0.801c-1.301,0-2.325,0.265-3.076,0.798
								C91.839,16.966,91.328,17.719,91.058,18.699z M97.947,25.534c-0.444,0.12-1.033,0.233-1.768,0.339
								c-3.686,0.452-6.091,1.109-7.218,1.977c-0.803,0.624-1.203,1.463-1.203,2.524c0,0.866,0.307,1.601,0.92,2.197
								c0.614,0.599,1.427,0.898,2.434,0.898c1.107,0,2.153-0.272,3.135-0.82c0.979-0.545,1.714-1.247,2.2-2.106
								c0.486-0.859,0.918-2.2,1.294-4.021L97.947,25.534z"/>
							<path fill="#DFC44A" d="M115.117,10.999h6.899l-1.1,5.244c2.551-3.916,5.316-5.873,8.292-5.873
								c1.056,0,2.185,0.266,3.393,0.794l-2.829,6.008c-0.67-0.241-1.385-0.358-2.143-0.358c-1.274,0-2.568,0.479-3.884,1.438
								c-1.318,0.96-2.347,2.239-3.086,3.84c-0.742,1.604-1.473,4.145-2.192,7.619l-1.741,8.552h-7.302L115.117,10.999z"/>
							<path fill="#DFC44A" d="M132.061,16.499l1.1-5.5h3.666l0.898-4.321l8.437-5.106l-1.937,9.428h4.336l-1.1,5.5h-4.366
								l-2.44,11.49c-0.432,2.07-0.648,3.251-0.648,3.541c0,0.567,0.174,1.009,0.523,1.325c0.349,0.319,0.979,0.477,1.893,0.477
								c0.316,0,1.104-0.059,2.367-0.177l-1.179,5.429c-1.254,0.258-2.541,0.386-3.862,0.386c-2.578,0-4.452-0.509-5.62-1.518
								c-1.169-1.012-1.753-2.416-1.753-4.213c0-0.838,0.334-2.768,1-5.79l2.352-10.95H132.061z"/>
							<path fill="#00A7E5" d="M155.604,38.263h-7.783l7.862-37.556h16.696c2.873,0,5.109,0.294,6.708,0.884
								c1.598,0.587,2.89,1.669,3.872,3.24c0.985,1.572,1.476,3.475,1.476,5.711c0,3.194-0.955,5.829-2.863,7.904
								c-1.91,2.074-4.805,3.361-8.682,3.854c0.989,0.889,1.922,2.06,2.794,3.511c1.724,2.939,3.646,7.089,5.765,12.451h-8.328
								c-0.666-2.119-1.967-5.427-3.909-9.92c-1.058-2.426-2.183-4.059-3.374-4.896c-0.734-0.493-2.011-0.741-3.833-0.741h-3.145
								L155.604,38.263z M160.046,17.049h4.096c4.147,0,6.896-0.248,8.254-0.741c1.355-0.494,2.418-1.268,3.187-2.323
								c0.769-1.053,1.151-2.16,1.151-3.319c0-1.357-0.555-2.379-1.662-3.06c-0.683-0.409-2.158-0.613-4.427-0.613h-8.495
								L160.046,17.049z"/>
							<path fill="#DFC44A" d="M212.107,26.948h-18.424c-0.017,0.292-0.024,0.516-0.024,0.668c0,1.824,0.516,3.295,1.547,4.412
								s2.288,1.677,3.774,1.677c2.438,0,4.341-1.257,5.703-3.771l6.6,1.1c-1.279,2.645-2.991,4.631-5.132,5.951
								c-2.141,1.321-4.542,1.984-7.204,1.984c-3.651,0-6.619-1.161-8.905-3.484c-2.286-2.322-3.43-5.396-3.43-9.222
								c0-3.737,1.031-7.063,3.093-9.979c2.814-3.945,6.828-5.915,12.046-5.915c3.324,0,5.966,1.031,7.925,3.097
								c1.962,2.064,2.941,4.957,2.941,8.675C212.618,23.924,212.449,25.527,212.107,26.948z M205.94,22.47
								c0.017-0.326,0.027-0.576,0.027-0.748c0-2.028-0.454-3.551-1.36-4.564c-0.906-1.015-2.122-1.522-3.642-1.522
								c-1.522,0-2.885,0.577-4.09,1.729s-2.023,2.855-2.45,5.106H205.94z"/>
							<path fill="#DFC44A" d="M225.327,18.699l-7.15-0.609c0.815-2.418,2.237-4.312,4.268-5.674
								c2.03-1.363,4.719-2.046,8.065-2.046c3.481,0,6.055,0.705,7.72,2.119c1.664,1.409,2.497,3.133,2.497,5.169
								c0,0.819-0.074,1.693-0.219,2.617c-0.146,0.923-0.656,3.354-1.53,7.287c-0.719,3.251-1.08,5.524-1.08,6.825
								c0,1.164,0.209,2.455,0.624,3.875h-7.066c-0.339-0.992-0.547-2.016-0.628-3.077c-1.076,1.196-2.311,2.124-3.71,2.79
								c-1.399,0.662-2.807,0.994-4.223,0.994c-2.251,0-4.113-0.742-5.579-2.225c-1.468-1.48-2.202-3.389-2.202-5.721
								c0-2.603,0.808-4.685,2.421-6.244c1.613-1.559,4.493-2.504,8.643-2.828c3.499-0.29,5.838-0.641,7.017-1.054
								c0.307-1.031,0.461-1.858,0.461-2.477c0-0.791-0.312-1.454-0.935-1.986c-0.626-0.533-1.554-0.801-2.785-0.801
								c-1.301,0-2.325,0.265-3.076,0.798S225.597,17.719,225.327,18.699z M232.216,25.534c-0.444,0.12-1.034,0.233-1.768,0.339
								c-3.685,0.452-6.091,1.109-7.218,1.977c-0.803,0.624-1.203,1.463-1.203,2.524c0,0.866,0.307,1.601,0.921,2.197
								c0.614,0.599,1.426,0.898,2.433,0.898c1.107,0,2.153-0.272,3.135-0.82c0.979-0.545,1.714-1.247,2.2-2.106
								c0.486-0.859,0.918-2.2,1.294-4.021L232.216,25.534z"/>
							<path fill="#DFC44A" d="M269.217,38.263h-6.982l0.604-2.885c-1.335,1.283-2.646,2.202-3.938,2.757
								c-1.292,0.555-2.75,0.835-4.376,0.835c-2.823,0-5.111-0.965-6.864-2.895c-1.756-1.928-2.633-4.778-2.633-8.552
								c0-4.371,1.25-8.323,3.752-11.854c2.5-3.533,5.81-5.299,9.924-5.299c3.718,0,6.505,1.477,8.363,4.425l3.029-14.088h7.303
								L269.217,38.263z M252.178,27.251c0,1.954,0.498,3.479,1.495,4.573c0.994,1.098,2.222,1.646,3.678,1.646
								c1.351,0,2.61-0.459,3.778-1.375c1.169-0.916,2.104-2.315,2.807-4.201c0.702-1.883,1.054-3.69,1.054-5.421
								c0-1.969-0.538-3.563-1.61-4.778c-1.076-1.215-2.313-1.824-3.718-1.824c-2.183,0-3.975,1.198-5.38,3.595
								C252.88,21.866,252.178,24.459,252.178,27.251z"/>
							<path fill="#DFC44A" d="M281.869,10.999h7.302l-5.703,27.264h-7.303L281.869,10.999z M284.024,0.707h7.303l-1.383,6.6h-7.302
								L284.024,0.707z"/>
							<path fill="#DFC44A" d="M296.529,10.999h6.977l-0.704,3.587c1.766-1.517,3.415-2.6,4.949-3.245
								c1.532-0.646,3.148-0.971,4.845-0.971c2.269,0,4.059,0.651,5.367,1.947c1.307,1.297,1.962,3.018,1.962,5.164
								c-0.034,0.95-0.352,2.752-0.95,5.408l-3.317,15.373h-7.302l3.305-15.419c0.483-2.306,0.746-3.684,0.791-4.135
								c0-0.955-0.285-1.707-0.854-2.254c-0.57-0.548-1.36-0.82-2.377-0.82c-1.103,0-2.33,0.452-3.678,1.36
								c-1.349,0.903-2.406,2.099-3.178,3.587c-0.576,1.061-1.222,3.222-1.941,6.484l-2.286,11.196h-7.302L296.529,10.999z"/>
							<path fill="#DFC44A" d="M322.52,39.755l7.791,1.117c0,0.778,0.123,1.368,0.373,1.766c0.248,0.4,0.65,0.738,1.208,1.019
								s1.316,0.42,2.281,0.42c1.649,0,2.973-0.314,3.97-0.94c0.744-0.485,1.353-1.269,1.824-2.347
								c0.29-0.681,0.661-2.158,1.115-4.437l0.265-1.272c-2.669,2.122-5.429,3.183-8.274,3.183c-2.644,0-4.812-0.938-6.506-2.812
								c-1.694-1.876-2.541-4.621-2.541-8.232c0-3.188,0.576-6.111,1.73-8.771s2.774-4.67,4.861-6.032
								c2.087-1.363,4.216-2.046,6.389-2.046c1.787,0,3.423,0.475,4.908,1.425s2.64,2.28,3.467,3.994l1.004-4.79h6.902
								l-4.336,22.638c-0.783,3.668-1.444,6.283-1.984,7.852c-0.54,1.566-1.159,2.813-1.854,3.744
								c-0.697,0.929-1.576,1.709-2.637,2.338c-1.063,0.628-2.315,1.08-3.76,1.357c-1.445,0.272-3.012,0.413-4.699,0.413
								c-3.815,0-6.7-0.658-8.649-1.97c-1.952-1.311-2.927-3.494-2.927-6.543C322.442,40.502,322.469,40.146,322.52,39.755z
								 M331.175,26.45c0,2.053,0.462,3.616,1.385,4.697c0.923,1.077,2.079,1.615,3.469,1.615c1.302,0,2.563-0.483,3.786-1.451
								c1.226-0.968,2.163-2.34,2.814-4.122c0.65-1.783,0.975-3.504,0.975-5.166c0-1.918-0.535-3.46-1.606-4.633
								c-1.072-1.172-2.31-1.756-3.715-1.756c-1.304,0-2.502,0.518-3.592,1.552c-1.093,1.036-1.993,2.63-2.703,4.785
								C331.445,23.637,331.175,25.127,331.175,26.45z"/>
						</g>
					</g>
				</g>
			</g>
			<g>
				<path fill="#DFC44A" d="M357.416,23.558h14.064l-1.466,6.995h-14.062L357.416,23.558z"/>
				<path fill="#00A7E5" d="M394.582,40.398h-7.222L386.022,9.47l-5.883,30.929h-6.867l7.727-37.013h10.854l1.137,25.93
					l12.625-25.93h10.982l-7.751,37.013h-6.943l7.297-30.7L394.582,40.398z"/>
				<path fill="#DFC44A" d="M426.543,21.186l-7.068-0.606c0.808-2.391,2.217-4.26,4.23-5.604c2.011-1.346,4.675-2.021,7.989-2.021
					c3.45,0,6.002,0.695,7.652,2.085c1.649,1.387,2.475,3.084,2.475,5.087c0,0.809-0.071,1.665-0.216,2.576
					c-0.143,0.908-0.644,3.297-1.5,7.169c-0.708,3.199-1.062,5.437-1.062,6.715c0,1.147,0.202,2.416,0.604,3.813h-7.046
					c-0.284-0.975-0.461-1.986-0.53-3.029c-1.058,1.178-2.28,2.084-3.66,2.715s-2.768,0.945-4.164,0.945
					c-2.223,0-4.059-0.727-5.505-2.183c-1.449-1.456-2.171-3.329-2.171-5.617c0-2.559,0.793-4.604,2.385-6.136
					c1.591-1.532,4.432-2.458,8.521-2.777c3.45-0.287,5.756-0.631,6.919-1.036c0.303-1.009,0.454-1.816,0.454-2.423
					c0-0.773-0.312-1.422-0.935-1.945c-0.624-0.521-1.55-0.783-2.777-0.783c-1.297,0-2.317,0.266-3.066,0.796
					C427.322,19.455,426.814,20.209,426.543,21.186z M433.438,27.901c-0.439,0.117-1.019,0.226-1.743,0.329
					c-3.636,0.437-6.008,1.075-7.12,1.917c-0.791,0.606-1.186,1.425-1.186,2.45c0,0.84,0.302,1.552,0.908,2.134
					c0.606,0.58,1.407,0.869,2.398,0.869c1.096,0,2.127-0.265,3.094-0.795c0.968-0.53,1.691-1.211,2.171-2.046
					c0.48-0.832,0.905-2.131,1.274-3.898L433.438,27.901z"/>
				<path fill="#DFC44A" d="M450.784,13.585h6.867l-0.707,3.483c1.719-1.48,3.321-2.536,4.81-3.167
					c1.49-0.631,3.06-0.948,4.709-0.948c2.205,0,3.943,0.632,5.215,1.896c1.27,1.263,1.906,2.937,1.906,5.023
					c0,0.943-0.278,2.726-0.833,5.353l-3.157,15.174h-7.245l3.182-15.225c0.472-2.271,0.707-3.627,0.707-4.063
					c0-0.926-0.274-1.655-0.822-2.186c-0.545-0.53-1.309-0.796-2.283-0.796c-1.062,0-2.239,0.447-3.536,1.339
					c-1.296,0.894-2.315,2.072-3.055,3.535c-0.54,1.044-1.144,3.172-1.818,6.389l-2.296,11.007h-7.248L450.784,13.585z"/>
				<path fill="#DFC44A" d="M501.431,40.398h-6.868l0.606-2.902c-1.313,1.263-2.604,2.166-3.874,2.713
					c-1.271,0.548-2.706,0.82-4.307,0.82c-2.776,0-5.028-0.945-6.752-2.841c-1.726-1.893-2.588-4.691-2.588-8.395
					c0-4.292,1.21-8.171,3.634-11.638c2.426-3.47,5.633-5.203,9.62-5.203c3.602,0,6.305,1.432,8.104,4.292l2.904-13.859h7.246
					L501.431,40.398z M484.693,29.492c0,1.918,0.484,3.418,1.451,4.493c0.968,1.078,2.158,1.615,3.572,1.615
					c1.313,0,2.537-0.449,3.674-1.351c1.137-0.898,2.045-2.275,2.728-4.127c0.68-1.852,1.021-3.626,1.021-5.328
					c0-1.935-0.521-3.501-1.564-4.696c-1.043-1.193-2.246-1.793-3.611-1.793c-2.122,0-3.862,1.179-5.225,3.536
					C485.374,24.198,484.693,26.747,484.693,29.492z"/>
				<path fill="#DFC44A" d="M518.475,21.186l-7.071-0.606c0.808-2.391,2.217-4.26,4.231-5.604c2.01-1.346,4.674-2.021,7.988-2.021
					c3.453,0,6.002,0.695,7.652,2.085c1.648,1.387,2.475,3.084,2.475,5.087c0,0.809-0.072,1.665-0.217,2.576
					c-0.143,0.908-0.643,3.297-1.5,7.169c-0.707,3.199-1.061,5.437-1.061,6.715c0,1.147,0.201,2.416,0.605,3.813h-7.043
					c-0.287-0.975-0.465-1.986-0.531-3.029c-1.061,1.178-2.281,2.084-3.66,2.715c-1.383,0.631-2.77,0.945-4.166,0.945
					c-2.224,0-4.058-0.727-5.506-2.183s-2.171-3.329-2.171-5.617c0-2.559,0.796-4.604,2.385-6.136
					c1.591-1.532,4.433-2.458,8.522-2.777c3.449-0.287,5.758-0.631,6.918-1.036c0.303-1.009,0.455-1.816,0.455-2.423
					c0-0.773-0.313-1.422-0.936-1.945c-0.621-0.521-1.549-0.783-2.777-0.783c-1.295,0-2.316,0.266-3.066,0.796
					C519.254,19.455,518.743,20.209,518.475,21.186z M525.368,27.901c-0.438,0.117-1.02,0.226-1.744,0.329
					c-3.633,0.437-6.008,1.075-7.119,1.917c-0.791,0.606-1.186,1.425-1.186,2.45c0,0.84,0.305,1.552,0.908,2.134
					c0.605,0.58,1.406,0.869,2.398,0.869c1.096,0,2.127-0.265,3.094-0.795s1.691-1.211,2.17-2.046
					c0.482-0.832,0.906-2.131,1.277-3.898L525.368,27.901z"/>
				<path fill="#DFC44A" d="M542.208,13.585h6.768l-1.088,5.202c2.527-3.889,5.262-5.834,8.209-5.834
					c1.043,0,2.16,0.263,3.355,0.783l-2.777,5.935c-0.654-0.235-1.355-0.354-2.094-0.354c-1.248,0-2.514,0.472-3.801,1.414
					c-1.289,0.943-2.293,2.2-3.018,3.774c-0.725,1.573-1.439,4.068-2.146,7.485l-1.768,8.407h-7.246L542.208,13.585z"/>
				<path fill="#DFC44A" d="M562.735,13.585h7.244l-5.605,26.813h-7.244L562.735,13.585z M564.856,3.386h7.246l-1.363,6.565h-7.246
					L564.856,3.386z"/>
				<path fill="#DFC44A" d="M577.202,13.585h6.867l-0.707,3.483c1.719-1.48,3.32-2.536,4.809-3.167
					c1.49-0.631,3.061-0.948,4.709-0.948c2.205,0,3.943,0.632,5.215,1.896c1.27,1.263,1.906,2.937,1.906,5.023
					c0,0.943-0.277,2.726-0.832,5.353l-3.158,15.174h-7.246l3.184-15.225c0.471-2.271,0.707-3.627,0.707-4.063
					c0-0.926-0.275-1.655-0.822-2.186s-1.309-0.796-2.285-0.796c-1.061,0-2.238,0.447-3.535,1.339
					c-1.297,0.894-2.314,2.072-3.055,3.535c-0.539,1.044-1.143,3.172-1.818,6.389l-2.295,11.007h-7.248L577.202,13.585z"/>
			</g>
		</g>
	</g>
</g>
</svg>
